%TF.GenerationSoftware,KiCad,Pcbnew,8.0.4*%
%TF.CreationDate,2024-08-31T15:31:59+03:00*%
%TF.ProjectId,pcb,7063622e-6b69-4636-9164-5f7063625858,rev?*%
%TF.SameCoordinates,Original*%
%TF.FileFunction,Drillmap*%
%TF.FilePolarity,Positive*%
%FSLAX45Y45*%
G04 Gerber Fmt 4.5, Leading zero omitted, Abs format (unit mm)*
G04 Created by KiCad (PCBNEW 8.0.4) date 2024-08-31 15:31:59*
%MOMM*%
%LPD*%
G01*
G04 APERTURE LIST*
%ADD10C,0.200000*%
%ADD11C,0.100000*%
%ADD12C,0.300000*%
%ADD13C,0.500000*%
%ADD14C,0.570000*%
G04 APERTURE END LIST*
D10*
X11350000Y-5594098D02*
G75*
G02*
X11450000Y-5494100I100000J-2D01*
G01*
X19000000Y-8461597D02*
G75*
G02*
X19100000Y-8361600I100000J-3D01*
G01*
X21050000Y-5561598D02*
G75*
G02*
X21150002Y-5661598I0J-100002D01*
G01*
X19660000Y-6659096D02*
X19659990Y-6289091D01*
X11250000Y-12208385D02*
G75*
G02*
X11150000Y-12308390I-100000J-5D01*
G01*
X11150000Y-12308385D02*
X7650000Y-12309098D01*
X20900000Y-8461597D02*
X20900000Y-11461597D01*
X17050805Y-5561893D02*
G75*
G02*
X16949997Y-5490001I-10505J91893D01*
G01*
X17898000Y-13370097D02*
X16060000Y-12874097D01*
X20440000Y-6289094D02*
X20439996Y-6659090D01*
X19710000Y-6709096D02*
G75*
G02*
X19659994Y-6659096I0J50006D01*
G01*
X14150000Y-11094099D02*
G75*
G02*
X14250001Y-11194099I0J-100001D01*
G01*
X19100000Y-8361597D02*
X20800000Y-8361597D01*
X13250000Y-4991125D02*
G75*
G02*
X13350000Y-4887875I100190J3015D01*
G01*
X21150000Y-5661598D02*
X21150000Y-11180000D01*
X15164850Y-5425889D02*
X16850000Y-5425309D01*
X20389996Y-6709090D02*
X19710000Y-6709096D01*
X19520000Y-14201651D02*
G75*
G02*
X19379998Y-14220004I-84530J101651D01*
G01*
X19100000Y-11561597D02*
G75*
G02*
X19000003Y-11461597I0J99997D01*
G01*
X14250000Y-12770000D02*
X14250000Y-11194099D01*
X19380000Y-14220000D02*
X17898000Y-13370097D01*
X16850000Y-5425309D02*
G75*
G02*
X16950001Y-5490000I3200J-104691D01*
G01*
X11450000Y-5494098D02*
X13116350Y-5494748D01*
X19659990Y-6289091D02*
G75*
G02*
X19709990Y-6239090I50000J1D01*
G01*
X17050805Y-5561893D02*
X21050000Y-5561598D01*
X20439996Y-6659090D02*
G75*
G02*
X20389996Y-6709086I-49986J-10D01*
G01*
X7550000Y-6809098D02*
G75*
G02*
X7650000Y-6709100I100000J-2D01*
G01*
X20800000Y-8361600D02*
G75*
G02*
X20900000Y-8461597I0J-100000D01*
G01*
X21060000Y-11530000D02*
X19520000Y-14201651D01*
X11250000Y-11194090D02*
G75*
G02*
X11350000Y-11094090I100010J-10D01*
G01*
X15164850Y-5425889D02*
G75*
G02*
X15050003Y-5351187I-20070J94779D01*
G01*
X19000000Y-11461597D02*
X19000000Y-8461597D01*
X7550000Y-12209098D02*
X7550000Y-6809098D01*
X14350000Y-12874071D02*
G75*
G02*
X14249999Y-12770000I40130J138641D01*
G01*
X13350000Y-4887879D02*
X14950000Y-4888169D01*
X20800000Y-11561597D02*
X19100000Y-11561597D01*
X11350000Y-6609095D02*
G75*
G02*
X11250000Y-6709090I-99990J-5D01*
G01*
X13250000Y-5400650D02*
X13250000Y-4991126D01*
X11250000Y-12208385D02*
X11250000Y-11194090D01*
X14950000Y-4888169D02*
G75*
G02*
X15050001Y-4988336I-80J-100081D01*
G01*
X7650000Y-12309098D02*
G75*
G02*
X7550002Y-12209098I0J99998D01*
G01*
X7650000Y-6709098D02*
X11250000Y-6709098D01*
X20390000Y-6239094D02*
G75*
G02*
X20440006Y-6289094I0J-50006D01*
G01*
X16060000Y-12874097D02*
X14350000Y-12874071D01*
X19709990Y-6239091D02*
X20390000Y-6239094D01*
X13250000Y-5400650D02*
G75*
G02*
X13116350Y-5494748I-121530J30650D01*
G01*
X15050000Y-4988336D02*
X15050000Y-5351188D01*
X14150000Y-11094099D02*
X11350000Y-11094099D01*
X11350000Y-6609095D02*
X11350000Y-5594098D01*
X21150000Y-11180000D02*
G75*
G02*
X21060000Y-11530000I-727620J530D01*
G01*
X20900000Y-11461597D02*
G75*
G02*
X20800000Y-11561600I-100000J-3D01*
G01*
D11*
X17855000Y-5674097D02*
X17945000Y-5764097D01*
X17945000Y-5674097D02*
X17855000Y-5764097D01*
X18155000Y-5674097D02*
X18245000Y-5764097D01*
X18245000Y-5674097D02*
X18155000Y-5764097D01*
D12*
X8160000Y-8079097D02*
G75*
G02*
X7860000Y-8079097I-150000J0D01*
G01*
X7860000Y-8079097D02*
G75*
G02*
X8160000Y-8079097I150000J0D01*
G01*
X8160000Y-9979097D02*
G75*
G02*
X7860000Y-9979097I-150000J0D01*
G01*
X7860000Y-9979097D02*
G75*
G02*
X8160000Y-9979097I150000J0D01*
G01*
X8160000Y-11879097D02*
G75*
G02*
X7860000Y-11879097I-150000J0D01*
G01*
X7860000Y-11879097D02*
G75*
G02*
X8160000Y-11879097I150000J0D01*
G01*
X8340000Y-8184097D02*
G75*
G02*
X8040000Y-8184097I-150000J0D01*
G01*
X8040000Y-8184097D02*
G75*
G02*
X8340000Y-8184097I150000J0D01*
G01*
X8340000Y-10084097D02*
G75*
G02*
X8040000Y-10084097I-150000J0D01*
G01*
X8040000Y-10084097D02*
G75*
G02*
X8340000Y-10084097I150000J0D01*
G01*
X8340000Y-11984097D02*
G75*
G02*
X8040000Y-11984097I-150000J0D01*
G01*
X8040000Y-11984097D02*
G75*
G02*
X8340000Y-11984097I150000J0D01*
G01*
X8860000Y-8184097D02*
G75*
G02*
X8560000Y-8184097I-150000J0D01*
G01*
X8560000Y-8184097D02*
G75*
G02*
X8860000Y-8184097I150000J0D01*
G01*
X8860000Y-10084097D02*
G75*
G02*
X8560000Y-10084097I-150000J0D01*
G01*
X8560000Y-10084097D02*
G75*
G02*
X8860000Y-10084097I150000J0D01*
G01*
X8860000Y-11984097D02*
G75*
G02*
X8560000Y-11984097I-150000J0D01*
G01*
X8560000Y-11984097D02*
G75*
G02*
X8860000Y-11984097I150000J0D01*
G01*
X9040000Y-8079097D02*
G75*
G02*
X8740000Y-8079097I-150000J0D01*
G01*
X8740000Y-8079097D02*
G75*
G02*
X9040000Y-8079097I150000J0D01*
G01*
X9040000Y-9979097D02*
G75*
G02*
X8740000Y-9979097I-150000J0D01*
G01*
X8740000Y-9979097D02*
G75*
G02*
X9040000Y-9979097I150000J0D01*
G01*
X9040000Y-11879097D02*
G75*
G02*
X8740000Y-11879097I-150000J0D01*
G01*
X8740000Y-11879097D02*
G75*
G02*
X9040000Y-11879097I150000J0D01*
G01*
X10060000Y-8079097D02*
G75*
G02*
X9760000Y-8079097I-150000J0D01*
G01*
X9760000Y-8079097D02*
G75*
G02*
X10060000Y-8079097I150000J0D01*
G01*
X10060000Y-9979097D02*
G75*
G02*
X9760000Y-9979097I-150000J0D01*
G01*
X9760000Y-9979097D02*
G75*
G02*
X10060000Y-9979097I150000J0D01*
G01*
X10060000Y-11879097D02*
G75*
G02*
X9760000Y-11879097I-150000J0D01*
G01*
X9760000Y-11879097D02*
G75*
G02*
X10060000Y-11879097I150000J0D01*
G01*
X10240000Y-8184097D02*
G75*
G02*
X9940000Y-8184097I-150000J0D01*
G01*
X9940000Y-8184097D02*
G75*
G02*
X10240000Y-8184097I150000J0D01*
G01*
X10240000Y-10084097D02*
G75*
G02*
X9940000Y-10084097I-150000J0D01*
G01*
X9940000Y-10084097D02*
G75*
G02*
X10240000Y-10084097I150000J0D01*
G01*
X10240000Y-11984097D02*
G75*
G02*
X9940000Y-11984097I-150000J0D01*
G01*
X9940000Y-11984097D02*
G75*
G02*
X10240000Y-11984097I150000J0D01*
G01*
X10760000Y-8184097D02*
G75*
G02*
X10460000Y-8184097I-150000J0D01*
G01*
X10460000Y-8184097D02*
G75*
G02*
X10760000Y-8184097I150000J0D01*
G01*
X10760000Y-10084097D02*
G75*
G02*
X10460000Y-10084097I-150000J0D01*
G01*
X10460000Y-10084097D02*
G75*
G02*
X10760000Y-10084097I150000J0D01*
G01*
X10760000Y-11984097D02*
G75*
G02*
X10460000Y-11984097I-150000J0D01*
G01*
X10460000Y-11984097D02*
G75*
G02*
X10760000Y-11984097I150000J0D01*
G01*
X10940000Y-8079097D02*
G75*
G02*
X10640000Y-8079097I-150000J0D01*
G01*
X10640000Y-8079097D02*
G75*
G02*
X10940000Y-8079097I150000J0D01*
G01*
X10940000Y-9979097D02*
G75*
G02*
X10640000Y-9979097I-150000J0D01*
G01*
X10640000Y-9979097D02*
G75*
G02*
X10940000Y-9979097I150000J0D01*
G01*
X10940000Y-11879097D02*
G75*
G02*
X10640000Y-11879097I-150000J0D01*
G01*
X10640000Y-11879097D02*
G75*
G02*
X10940000Y-11879097I150000J0D01*
G01*
X11960000Y-6864097D02*
G75*
G02*
X11660000Y-6864097I-150000J0D01*
G01*
X11660000Y-6864097D02*
G75*
G02*
X11960000Y-6864097I150000J0D01*
G01*
X11960000Y-8764097D02*
G75*
G02*
X11660000Y-8764097I-150000J0D01*
G01*
X11660000Y-8764097D02*
G75*
G02*
X11960000Y-8764097I150000J0D01*
G01*
X11960000Y-10664097D02*
G75*
G02*
X11660000Y-10664097I-150000J0D01*
G01*
X11660000Y-10664097D02*
G75*
G02*
X11960000Y-10664097I150000J0D01*
G01*
X12140000Y-6969097D02*
G75*
G02*
X11840000Y-6969097I-150000J0D01*
G01*
X11840000Y-6969097D02*
G75*
G02*
X12140000Y-6969097I150000J0D01*
G01*
X12140000Y-8869097D02*
G75*
G02*
X11840000Y-8869097I-150000J0D01*
G01*
X11840000Y-8869097D02*
G75*
G02*
X12140000Y-8869097I150000J0D01*
G01*
X12140000Y-10769097D02*
G75*
G02*
X11840000Y-10769097I-150000J0D01*
G01*
X11840000Y-10769097D02*
G75*
G02*
X12140000Y-10769097I150000J0D01*
G01*
X12660000Y-6969097D02*
G75*
G02*
X12360000Y-6969097I-150000J0D01*
G01*
X12360000Y-6969097D02*
G75*
G02*
X12660000Y-6969097I150000J0D01*
G01*
X12660000Y-8869097D02*
G75*
G02*
X12360000Y-8869097I-150000J0D01*
G01*
X12360000Y-8869097D02*
G75*
G02*
X12660000Y-8869097I150000J0D01*
G01*
X12660000Y-10769097D02*
G75*
G02*
X12360000Y-10769097I-150000J0D01*
G01*
X12360000Y-10769097D02*
G75*
G02*
X12660000Y-10769097I150000J0D01*
G01*
X12840000Y-6864097D02*
G75*
G02*
X12540000Y-6864097I-150000J0D01*
G01*
X12540000Y-6864097D02*
G75*
G02*
X12840000Y-6864097I150000J0D01*
G01*
X12840000Y-8764097D02*
G75*
G02*
X12540000Y-8764097I-150000J0D01*
G01*
X12540000Y-8764097D02*
G75*
G02*
X12840000Y-8764097I150000J0D01*
G01*
X12840000Y-10664097D02*
G75*
G02*
X12540000Y-10664097I-150000J0D01*
G01*
X12540000Y-10664097D02*
G75*
G02*
X12840000Y-10664097I150000J0D01*
G01*
X13860000Y-6256597D02*
G75*
G02*
X13560000Y-6256597I-150000J0D01*
G01*
X13560000Y-6256597D02*
G75*
G02*
X13860000Y-6256597I150000J0D01*
G01*
X13860000Y-8156597D02*
G75*
G02*
X13560000Y-8156597I-150000J0D01*
G01*
X13560000Y-8156597D02*
G75*
G02*
X13860000Y-8156597I150000J0D01*
G01*
X13860000Y-10056597D02*
G75*
G02*
X13560000Y-10056597I-150000J0D01*
G01*
X13560000Y-10056597D02*
G75*
G02*
X13860000Y-10056597I150000J0D01*
G01*
X14040000Y-6361597D02*
G75*
G02*
X13740000Y-6361597I-150000J0D01*
G01*
X13740000Y-6361597D02*
G75*
G02*
X14040000Y-6361597I150000J0D01*
G01*
X14040000Y-8261597D02*
G75*
G02*
X13740000Y-8261597I-150000J0D01*
G01*
X13740000Y-8261597D02*
G75*
G02*
X14040000Y-8261597I150000J0D01*
G01*
X14040000Y-10161597D02*
G75*
G02*
X13740000Y-10161597I-150000J0D01*
G01*
X13740000Y-10161597D02*
G75*
G02*
X14040000Y-10161597I150000J0D01*
G01*
X14560000Y-6361597D02*
G75*
G02*
X14260000Y-6361597I-150000J0D01*
G01*
X14260000Y-6361597D02*
G75*
G02*
X14560000Y-6361597I150000J0D01*
G01*
X14560000Y-8261597D02*
G75*
G02*
X14260000Y-8261597I-150000J0D01*
G01*
X14260000Y-8261597D02*
G75*
G02*
X14560000Y-8261597I150000J0D01*
G01*
X14560000Y-10161597D02*
G75*
G02*
X14260000Y-10161597I-150000J0D01*
G01*
X14260000Y-10161597D02*
G75*
G02*
X14560000Y-10161597I150000J0D01*
G01*
X14740000Y-6256597D02*
G75*
G02*
X14440000Y-6256597I-150000J0D01*
G01*
X14440000Y-6256597D02*
G75*
G02*
X14740000Y-6256597I150000J0D01*
G01*
X14740000Y-8156597D02*
G75*
G02*
X14440000Y-8156597I-150000J0D01*
G01*
X14440000Y-8156597D02*
G75*
G02*
X14740000Y-8156597I150000J0D01*
G01*
X14740000Y-10056597D02*
G75*
G02*
X14440000Y-10056597I-150000J0D01*
G01*
X14440000Y-10056597D02*
G75*
G02*
X14740000Y-10056597I150000J0D01*
G01*
X14860000Y-12444070D02*
G75*
G02*
X14560000Y-12444070I-150000J0D01*
G01*
X14560000Y-12444070D02*
G75*
G02*
X14860000Y-12444070I150000J0D01*
G01*
X15040000Y-12549070D02*
G75*
G02*
X14740000Y-12549070I-150000J0D01*
G01*
X14740000Y-12549070D02*
G75*
G02*
X15040000Y-12549070I150000J0D01*
G01*
X15560000Y-12549070D02*
G75*
G02*
X15260000Y-12549070I-150000J0D01*
G01*
X15260000Y-12549070D02*
G75*
G02*
X15560000Y-12549070I150000J0D01*
G01*
X15740000Y-12444070D02*
G75*
G02*
X15440000Y-12444070I-150000J0D01*
G01*
X15440000Y-12444070D02*
G75*
G02*
X15740000Y-12444070I150000J0D01*
G01*
X15760000Y-6794097D02*
G75*
G02*
X15460000Y-6794097I-150000J0D01*
G01*
X15460000Y-6794097D02*
G75*
G02*
X15760000Y-6794097I150000J0D01*
G01*
X15760000Y-8694097D02*
G75*
G02*
X15460000Y-8694097I-150000J0D01*
G01*
X15460000Y-8694097D02*
G75*
G02*
X15760000Y-8694097I150000J0D01*
G01*
X15760000Y-10594097D02*
G75*
G02*
X15460000Y-10594097I-150000J0D01*
G01*
X15460000Y-10594097D02*
G75*
G02*
X15760000Y-10594097I150000J0D01*
G01*
X15940000Y-6899097D02*
G75*
G02*
X15640000Y-6899097I-150000J0D01*
G01*
X15640000Y-6899097D02*
G75*
G02*
X15940000Y-6899097I150000J0D01*
G01*
X15940000Y-8799097D02*
G75*
G02*
X15640000Y-8799097I-150000J0D01*
G01*
X15640000Y-8799097D02*
G75*
G02*
X15940000Y-8799097I150000J0D01*
G01*
X15940000Y-10699097D02*
G75*
G02*
X15640000Y-10699097I-150000J0D01*
G01*
X15640000Y-10699097D02*
G75*
G02*
X15940000Y-10699097I150000J0D01*
G01*
X16460000Y-6899097D02*
G75*
G02*
X16160000Y-6899097I-150000J0D01*
G01*
X16160000Y-6899097D02*
G75*
G02*
X16460000Y-6899097I150000J0D01*
G01*
X16460000Y-8799097D02*
G75*
G02*
X16160000Y-8799097I-150000J0D01*
G01*
X16160000Y-8799097D02*
G75*
G02*
X16460000Y-8799097I150000J0D01*
G01*
X16460000Y-10699097D02*
G75*
G02*
X16160000Y-10699097I-150000J0D01*
G01*
X16160000Y-10699097D02*
G75*
G02*
X16460000Y-10699097I150000J0D01*
G01*
X16640000Y-6794097D02*
G75*
G02*
X16340000Y-6794097I-150000J0D01*
G01*
X16340000Y-6794097D02*
G75*
G02*
X16640000Y-6794097I150000J0D01*
G01*
X16640000Y-8694097D02*
G75*
G02*
X16340000Y-8694097I-150000J0D01*
G01*
X16340000Y-8694097D02*
G75*
G02*
X16640000Y-8694097I150000J0D01*
G01*
X16640000Y-10594097D02*
G75*
G02*
X16340000Y-10594097I-150000J0D01*
G01*
X16340000Y-10594097D02*
G75*
G02*
X16640000Y-10594097I150000J0D01*
G01*
X16816855Y-12592423D02*
G75*
G02*
X16516855Y-12592423I-150000J0D01*
G01*
X16516855Y-12592423D02*
G75*
G02*
X16816855Y-12592423I150000J0D01*
G01*
X16963546Y-12740433D02*
G75*
G02*
X16663546Y-12740433I-150000J0D01*
G01*
X16663546Y-12740433D02*
G75*
G02*
X16963546Y-12740433I150000J0D01*
G01*
X17465827Y-12875019D02*
G75*
G02*
X17165827Y-12875019I-150000J0D01*
G01*
X17165827Y-12875019D02*
G75*
G02*
X17465827Y-12875019I150000J0D01*
G01*
X17660000Y-6931597D02*
G75*
G02*
X17360000Y-6931597I-150000J0D01*
G01*
X17360000Y-6931597D02*
G75*
G02*
X17660000Y-6931597I150000J0D01*
G01*
X17660000Y-8831597D02*
G75*
G02*
X17360000Y-8831597I-150000J0D01*
G01*
X17360000Y-8831597D02*
G75*
G02*
X17660000Y-8831597I150000J0D01*
G01*
X17660000Y-10731597D02*
G75*
G02*
X17360000Y-10731597I-150000J0D01*
G01*
X17360000Y-10731597D02*
G75*
G02*
X17660000Y-10731597I150000J0D01*
G01*
X17666870Y-12820184D02*
G75*
G02*
X17366870Y-12820184I-150000J0D01*
G01*
X17366870Y-12820184D02*
G75*
G02*
X17666870Y-12820184I150000J0D01*
G01*
X17840000Y-7036597D02*
G75*
G02*
X17540000Y-7036597I-150000J0D01*
G01*
X17540000Y-7036597D02*
G75*
G02*
X17840000Y-7036597I150000J0D01*
G01*
X17840000Y-8936597D02*
G75*
G02*
X17540000Y-8936597I-150000J0D01*
G01*
X17540000Y-8936597D02*
G75*
G02*
X17840000Y-8936597I150000J0D01*
G01*
X17840000Y-10836597D02*
G75*
G02*
X17540000Y-10836597I-150000J0D01*
G01*
X17540000Y-10836597D02*
G75*
G02*
X17840000Y-10836597I150000J0D01*
G01*
X18360000Y-7036597D02*
G75*
G02*
X18060000Y-7036597I-150000J0D01*
G01*
X18060000Y-7036597D02*
G75*
G02*
X18360000Y-7036597I150000J0D01*
G01*
X18360000Y-8936597D02*
G75*
G02*
X18060000Y-8936597I-150000J0D01*
G01*
X18060000Y-8936597D02*
G75*
G02*
X18360000Y-8936597I150000J0D01*
G01*
X18360000Y-10836597D02*
G75*
G02*
X18060000Y-10836597I-150000J0D01*
G01*
X18060000Y-10836597D02*
G75*
G02*
X18360000Y-10836597I150000J0D01*
G01*
X18540000Y-6931597D02*
G75*
G02*
X18240000Y-6931597I-150000J0D01*
G01*
X18240000Y-6931597D02*
G75*
G02*
X18540000Y-6931597I150000J0D01*
G01*
X18540000Y-8831597D02*
G75*
G02*
X18240000Y-8831597I-150000J0D01*
G01*
X18240000Y-8831597D02*
G75*
G02*
X18540000Y-8831597I150000J0D01*
G01*
X18540000Y-10731597D02*
G75*
G02*
X18240000Y-10731597I-150000J0D01*
G01*
X18240000Y-10731597D02*
G75*
G02*
X18540000Y-10731597I150000J0D01*
G01*
X18681675Y-13228949D02*
G75*
G02*
X18381675Y-13228949I-150000J0D01*
G01*
X18381675Y-13228949D02*
G75*
G02*
X18681675Y-13228949I150000J0D01*
G01*
X18785060Y-13409882D02*
G75*
G02*
X18485060Y-13409882I-150000J0D01*
G01*
X18485060Y-13409882D02*
G75*
G02*
X18785060Y-13409882I150000J0D01*
G01*
X19235393Y-13669882D02*
G75*
G02*
X18935393Y-13669882I-150000J0D01*
G01*
X18935393Y-13669882D02*
G75*
G02*
X19235393Y-13669882I150000J0D01*
G01*
X19443778Y-13668949D02*
G75*
G02*
X19143778Y-13668949I-150000J0D01*
G01*
X19143778Y-13668949D02*
G75*
G02*
X19443778Y-13668949I150000J0D01*
G01*
D13*
X8450000Y-7359097D02*
X8450000Y-7859097D01*
X8200000Y-7609097D02*
X8700000Y-7609097D01*
X8450000Y-9259097D02*
X8450000Y-9759097D01*
X8200000Y-9509097D02*
X8700000Y-9509097D01*
X8450000Y-11159097D02*
X8450000Y-11659097D01*
X8200000Y-11409097D02*
X8700000Y-11409097D01*
X10350000Y-7359097D02*
X10350000Y-7859097D01*
X10100000Y-7609097D02*
X10600000Y-7609097D01*
X10350000Y-9259097D02*
X10350000Y-9759097D01*
X10100000Y-9509097D02*
X10600000Y-9509097D01*
X10350000Y-11159097D02*
X10350000Y-11659097D01*
X10100000Y-11409097D02*
X10600000Y-11409097D01*
X12250000Y-6144097D02*
X12250000Y-6644097D01*
X12000000Y-6394097D02*
X12500000Y-6394097D01*
X12250000Y-8044097D02*
X12250000Y-8544097D01*
X12000000Y-8294097D02*
X12500000Y-8294097D01*
X12250000Y-9944097D02*
X12250000Y-10444097D01*
X12000000Y-10194097D02*
X12500000Y-10194097D01*
X14150000Y-5536597D02*
X14150000Y-6036597D01*
X13900000Y-5786597D02*
X14400000Y-5786597D01*
X14150000Y-7436597D02*
X14150000Y-7936597D01*
X13900000Y-7686597D02*
X14400000Y-7686597D01*
X14150000Y-9336597D02*
X14150000Y-9836597D01*
X13900000Y-9586597D02*
X14400000Y-9586597D01*
X15150000Y-11724070D02*
X15150000Y-12224070D01*
X14900000Y-11974070D02*
X15400000Y-11974070D01*
X16050000Y-6074097D02*
X16050000Y-6574097D01*
X15800000Y-6324097D02*
X16300000Y-6324097D01*
X16050000Y-7974097D02*
X16050000Y-8474097D01*
X15800000Y-8224097D02*
X16300000Y-8224097D01*
X16050000Y-9874097D02*
X16050000Y-10374097D01*
X15800000Y-10124097D02*
X16300000Y-10124097D01*
X17213508Y-12002319D02*
X17213508Y-12502319D01*
X16963508Y-12252319D02*
X17463508Y-12252319D01*
X17950000Y-6211597D02*
X17950000Y-6711597D01*
X17700000Y-6461597D02*
X18200000Y-6461597D01*
X17950000Y-8111597D02*
X17950000Y-8611597D01*
X17700000Y-8361597D02*
X18200000Y-8361597D01*
X17950000Y-10011597D02*
X17950000Y-10511597D01*
X17700000Y-10261597D02*
X18200000Y-10261597D01*
X19147726Y-12791917D02*
X19147726Y-13291917D01*
X18897726Y-13041917D02*
X19397726Y-13041917D01*
D14*
X9601527Y-8760624D02*
X9601527Y-8357570D01*
X9198473Y-8357570D01*
X9198473Y-8760624D01*
X9601527Y-8760624D01*
X9601527Y-10660624D02*
X9601527Y-10257570D01*
X9198473Y-10257570D01*
X9198473Y-10660624D01*
X9601527Y-10660624D01*
X17251527Y-7631527D02*
X17251527Y-7228473D01*
X16848473Y-7228473D01*
X16848473Y-7631527D01*
X17251527Y-7631527D01*
X18819743Y-11847841D02*
X18819743Y-11444786D01*
X18416688Y-11444786D01*
X18416688Y-11847841D01*
X18819743Y-11847841D01*
D10*
X7800777Y-14553689D02*
X7800777Y-14353689D01*
X7800777Y-14353689D02*
X7848396Y-14353689D01*
X7848396Y-14353689D02*
X7876967Y-14363213D01*
X7876967Y-14363213D02*
X7896015Y-14382260D01*
X7896015Y-14382260D02*
X7905539Y-14401308D01*
X7905539Y-14401308D02*
X7915062Y-14439403D01*
X7915062Y-14439403D02*
X7915062Y-14467975D01*
X7915062Y-14467975D02*
X7905539Y-14506070D01*
X7905539Y-14506070D02*
X7896015Y-14525117D01*
X7896015Y-14525117D02*
X7876967Y-14544165D01*
X7876967Y-14544165D02*
X7848396Y-14553689D01*
X7848396Y-14553689D02*
X7800777Y-14553689D01*
X8000777Y-14553689D02*
X8000777Y-14420356D01*
X8000777Y-14458451D02*
X8010301Y-14439403D01*
X8010301Y-14439403D02*
X8019824Y-14429879D01*
X8019824Y-14429879D02*
X8038872Y-14420356D01*
X8038872Y-14420356D02*
X8057920Y-14420356D01*
X8124586Y-14553689D02*
X8124586Y-14420356D01*
X8124586Y-14353689D02*
X8115062Y-14363213D01*
X8115062Y-14363213D02*
X8124586Y-14372737D01*
X8124586Y-14372737D02*
X8134110Y-14363213D01*
X8134110Y-14363213D02*
X8124586Y-14353689D01*
X8124586Y-14353689D02*
X8124586Y-14372737D01*
X8248396Y-14553689D02*
X8229348Y-14544165D01*
X8229348Y-14544165D02*
X8219824Y-14525117D01*
X8219824Y-14525117D02*
X8219824Y-14353689D01*
X8353158Y-14553689D02*
X8334110Y-14544165D01*
X8334110Y-14544165D02*
X8324586Y-14525117D01*
X8324586Y-14525117D02*
X8324586Y-14353689D01*
X8581729Y-14553689D02*
X8581729Y-14353689D01*
X8581729Y-14353689D02*
X8648396Y-14496546D01*
X8648396Y-14496546D02*
X8715063Y-14353689D01*
X8715063Y-14353689D02*
X8715063Y-14553689D01*
X8896015Y-14553689D02*
X8896015Y-14448927D01*
X8896015Y-14448927D02*
X8886491Y-14429879D01*
X8886491Y-14429879D02*
X8867444Y-14420356D01*
X8867444Y-14420356D02*
X8829348Y-14420356D01*
X8829348Y-14420356D02*
X8810301Y-14429879D01*
X8896015Y-14544165D02*
X8876967Y-14553689D01*
X8876967Y-14553689D02*
X8829348Y-14553689D01*
X8829348Y-14553689D02*
X8810301Y-14544165D01*
X8810301Y-14544165D02*
X8800777Y-14525117D01*
X8800777Y-14525117D02*
X8800777Y-14506070D01*
X8800777Y-14506070D02*
X8810301Y-14487022D01*
X8810301Y-14487022D02*
X8829348Y-14477498D01*
X8829348Y-14477498D02*
X8876967Y-14477498D01*
X8876967Y-14477498D02*
X8896015Y-14467975D01*
X8991253Y-14420356D02*
X8991253Y-14620356D01*
X8991253Y-14429879D02*
X9010301Y-14420356D01*
X9010301Y-14420356D02*
X9048396Y-14420356D01*
X9048396Y-14420356D02*
X9067444Y-14429879D01*
X9067444Y-14429879D02*
X9076967Y-14439403D01*
X9076967Y-14439403D02*
X9086491Y-14458451D01*
X9086491Y-14458451D02*
X9086491Y-14515594D01*
X9086491Y-14515594D02*
X9076967Y-14534641D01*
X9076967Y-14534641D02*
X9067444Y-14544165D01*
X9067444Y-14544165D02*
X9048396Y-14553689D01*
X9048396Y-14553689D02*
X9010301Y-14553689D01*
X9010301Y-14553689D02*
X8991253Y-14544165D01*
X9172205Y-14534641D02*
X9181729Y-14544165D01*
X9181729Y-14544165D02*
X9172205Y-14553689D01*
X9172205Y-14553689D02*
X9162682Y-14544165D01*
X9162682Y-14544165D02*
X9172205Y-14534641D01*
X9172205Y-14534641D02*
X9172205Y-14553689D01*
X9172205Y-14429879D02*
X9181729Y-14439403D01*
X9181729Y-14439403D02*
X9172205Y-14448927D01*
X9172205Y-14448927D02*
X9162682Y-14439403D01*
X9162682Y-14439403D02*
X9172205Y-14429879D01*
X9172205Y-14429879D02*
X9172205Y-14448927D01*
D11*
X7450000Y-14837205D02*
X7540000Y-14927205D01*
X7540000Y-14837205D02*
X7450000Y-14927205D01*
D10*
X7838872Y-14773689D02*
X7857920Y-14773689D01*
X7857920Y-14773689D02*
X7876967Y-14783213D01*
X7876967Y-14783213D02*
X7886491Y-14792737D01*
X7886491Y-14792737D02*
X7896015Y-14811784D01*
X7896015Y-14811784D02*
X7905539Y-14849879D01*
X7905539Y-14849879D02*
X7905539Y-14897498D01*
X7905539Y-14897498D02*
X7896015Y-14935594D01*
X7896015Y-14935594D02*
X7886491Y-14954641D01*
X7886491Y-14954641D02*
X7876967Y-14964165D01*
X7876967Y-14964165D02*
X7857920Y-14973689D01*
X7857920Y-14973689D02*
X7838872Y-14973689D01*
X7838872Y-14973689D02*
X7819824Y-14964165D01*
X7819824Y-14964165D02*
X7810301Y-14954641D01*
X7810301Y-14954641D02*
X7800777Y-14935594D01*
X7800777Y-14935594D02*
X7791253Y-14897498D01*
X7791253Y-14897498D02*
X7791253Y-14849879D01*
X7791253Y-14849879D02*
X7800777Y-14811784D01*
X7800777Y-14811784D02*
X7810301Y-14792737D01*
X7810301Y-14792737D02*
X7819824Y-14783213D01*
X7819824Y-14783213D02*
X7838872Y-14773689D01*
X7991253Y-14954641D02*
X8000777Y-14964165D01*
X8000777Y-14964165D02*
X7991253Y-14973689D01*
X7991253Y-14973689D02*
X7981729Y-14964165D01*
X7981729Y-14964165D02*
X7991253Y-14954641D01*
X7991253Y-14954641D02*
X7991253Y-14973689D01*
X8096015Y-14973689D02*
X8134110Y-14973689D01*
X8134110Y-14973689D02*
X8153158Y-14964165D01*
X8153158Y-14964165D02*
X8162682Y-14954641D01*
X8162682Y-14954641D02*
X8181729Y-14926070D01*
X8181729Y-14926070D02*
X8191253Y-14887975D01*
X8191253Y-14887975D02*
X8191253Y-14811784D01*
X8191253Y-14811784D02*
X8181729Y-14792737D01*
X8181729Y-14792737D02*
X8172205Y-14783213D01*
X8172205Y-14783213D02*
X8153158Y-14773689D01*
X8153158Y-14773689D02*
X8115062Y-14773689D01*
X8115062Y-14773689D02*
X8096015Y-14783213D01*
X8096015Y-14783213D02*
X8086491Y-14792737D01*
X8086491Y-14792737D02*
X8076967Y-14811784D01*
X8076967Y-14811784D02*
X8076967Y-14859403D01*
X8076967Y-14859403D02*
X8086491Y-14878451D01*
X8086491Y-14878451D02*
X8096015Y-14887975D01*
X8096015Y-14887975D02*
X8115062Y-14897498D01*
X8115062Y-14897498D02*
X8153158Y-14897498D01*
X8153158Y-14897498D02*
X8172205Y-14887975D01*
X8172205Y-14887975D02*
X8181729Y-14878451D01*
X8181729Y-14878451D02*
X8191253Y-14859403D01*
X8315062Y-14773689D02*
X8334110Y-14773689D01*
X8334110Y-14773689D02*
X8353158Y-14783213D01*
X8353158Y-14783213D02*
X8362682Y-14792737D01*
X8362682Y-14792737D02*
X8372205Y-14811784D01*
X8372205Y-14811784D02*
X8381729Y-14849879D01*
X8381729Y-14849879D02*
X8381729Y-14897498D01*
X8381729Y-14897498D02*
X8372205Y-14935594D01*
X8372205Y-14935594D02*
X8362682Y-14954641D01*
X8362682Y-14954641D02*
X8353158Y-14964165D01*
X8353158Y-14964165D02*
X8334110Y-14973689D01*
X8334110Y-14973689D02*
X8315062Y-14973689D01*
X8315062Y-14973689D02*
X8296015Y-14964165D01*
X8296015Y-14964165D02*
X8286491Y-14954641D01*
X8286491Y-14954641D02*
X8276967Y-14935594D01*
X8276967Y-14935594D02*
X8267443Y-14897498D01*
X8267443Y-14897498D02*
X8267443Y-14849879D01*
X8267443Y-14849879D02*
X8276967Y-14811784D01*
X8276967Y-14811784D02*
X8286491Y-14792737D01*
X8286491Y-14792737D02*
X8296015Y-14783213D01*
X8296015Y-14783213D02*
X8315062Y-14773689D01*
X8505539Y-14773689D02*
X8524586Y-14773689D01*
X8524586Y-14773689D02*
X8543634Y-14783213D01*
X8543634Y-14783213D02*
X8553158Y-14792737D01*
X8553158Y-14792737D02*
X8562682Y-14811784D01*
X8562682Y-14811784D02*
X8572205Y-14849879D01*
X8572205Y-14849879D02*
X8572205Y-14897498D01*
X8572205Y-14897498D02*
X8562682Y-14935594D01*
X8562682Y-14935594D02*
X8553158Y-14954641D01*
X8553158Y-14954641D02*
X8543634Y-14964165D01*
X8543634Y-14964165D02*
X8524586Y-14973689D01*
X8524586Y-14973689D02*
X8505539Y-14973689D01*
X8505539Y-14973689D02*
X8486491Y-14964165D01*
X8486491Y-14964165D02*
X8476967Y-14954641D01*
X8476967Y-14954641D02*
X8467444Y-14935594D01*
X8467444Y-14935594D02*
X8457920Y-14897498D01*
X8457920Y-14897498D02*
X8457920Y-14849879D01*
X8457920Y-14849879D02*
X8467444Y-14811784D01*
X8467444Y-14811784D02*
X8476967Y-14792737D01*
X8476967Y-14792737D02*
X8486491Y-14783213D01*
X8486491Y-14783213D02*
X8505539Y-14773689D01*
X8657920Y-14973689D02*
X8657920Y-14840356D01*
X8657920Y-14859403D02*
X8667444Y-14849879D01*
X8667444Y-14849879D02*
X8686491Y-14840356D01*
X8686491Y-14840356D02*
X8715063Y-14840356D01*
X8715063Y-14840356D02*
X8734110Y-14849879D01*
X8734110Y-14849879D02*
X8743634Y-14868927D01*
X8743634Y-14868927D02*
X8743634Y-14973689D01*
X8743634Y-14868927D02*
X8753158Y-14849879D01*
X8753158Y-14849879D02*
X8772205Y-14840356D01*
X8772205Y-14840356D02*
X8800777Y-14840356D01*
X8800777Y-14840356D02*
X8819825Y-14849879D01*
X8819825Y-14849879D02*
X8829348Y-14868927D01*
X8829348Y-14868927D02*
X8829348Y-14973689D01*
X8924586Y-14973689D02*
X8924586Y-14840356D01*
X8924586Y-14859403D02*
X8934110Y-14849879D01*
X8934110Y-14849879D02*
X8953158Y-14840356D01*
X8953158Y-14840356D02*
X8981729Y-14840356D01*
X8981729Y-14840356D02*
X9000777Y-14849879D01*
X9000777Y-14849879D02*
X9010301Y-14868927D01*
X9010301Y-14868927D02*
X9010301Y-14973689D01*
X9010301Y-14868927D02*
X9019825Y-14849879D01*
X9019825Y-14849879D02*
X9038872Y-14840356D01*
X9038872Y-14840356D02*
X9067444Y-14840356D01*
X9067444Y-14840356D02*
X9086491Y-14849879D01*
X9086491Y-14849879D02*
X9096015Y-14868927D01*
X9096015Y-14868927D02*
X9096015Y-14973689D01*
X9486491Y-14764165D02*
X9315063Y-15021308D01*
X9743634Y-14773689D02*
X9762682Y-14773689D01*
X9762682Y-14773689D02*
X9781729Y-14783213D01*
X9781729Y-14783213D02*
X9791253Y-14792737D01*
X9791253Y-14792737D02*
X9800777Y-14811784D01*
X9800777Y-14811784D02*
X9810301Y-14849879D01*
X9810301Y-14849879D02*
X9810301Y-14897498D01*
X9810301Y-14897498D02*
X9800777Y-14935594D01*
X9800777Y-14935594D02*
X9791253Y-14954641D01*
X9791253Y-14954641D02*
X9781729Y-14964165D01*
X9781729Y-14964165D02*
X9762682Y-14973689D01*
X9762682Y-14973689D02*
X9743634Y-14973689D01*
X9743634Y-14973689D02*
X9724587Y-14964165D01*
X9724587Y-14964165D02*
X9715063Y-14954641D01*
X9715063Y-14954641D02*
X9705539Y-14935594D01*
X9705539Y-14935594D02*
X9696015Y-14897498D01*
X9696015Y-14897498D02*
X9696015Y-14849879D01*
X9696015Y-14849879D02*
X9705539Y-14811784D01*
X9705539Y-14811784D02*
X9715063Y-14792737D01*
X9715063Y-14792737D02*
X9724587Y-14783213D01*
X9724587Y-14783213D02*
X9743634Y-14773689D01*
X9896015Y-14954641D02*
X9905539Y-14964165D01*
X9905539Y-14964165D02*
X9896015Y-14973689D01*
X9896015Y-14973689D02*
X9886491Y-14964165D01*
X9886491Y-14964165D02*
X9896015Y-14954641D01*
X9896015Y-14954641D02*
X9896015Y-14973689D01*
X10029348Y-14773689D02*
X10048396Y-14773689D01*
X10048396Y-14773689D02*
X10067444Y-14783213D01*
X10067444Y-14783213D02*
X10076968Y-14792737D01*
X10076968Y-14792737D02*
X10086491Y-14811784D01*
X10086491Y-14811784D02*
X10096015Y-14849879D01*
X10096015Y-14849879D02*
X10096015Y-14897498D01*
X10096015Y-14897498D02*
X10086491Y-14935594D01*
X10086491Y-14935594D02*
X10076968Y-14954641D01*
X10076968Y-14954641D02*
X10067444Y-14964165D01*
X10067444Y-14964165D02*
X10048396Y-14973689D01*
X10048396Y-14973689D02*
X10029348Y-14973689D01*
X10029348Y-14973689D02*
X10010301Y-14964165D01*
X10010301Y-14964165D02*
X10000777Y-14954641D01*
X10000777Y-14954641D02*
X9991253Y-14935594D01*
X9991253Y-14935594D02*
X9981729Y-14897498D01*
X9981729Y-14897498D02*
X9981729Y-14849879D01*
X9981729Y-14849879D02*
X9991253Y-14811784D01*
X9991253Y-14811784D02*
X10000777Y-14792737D01*
X10000777Y-14792737D02*
X10010301Y-14783213D01*
X10010301Y-14783213D02*
X10029348Y-14773689D01*
X10162682Y-14773689D02*
X10286491Y-14773689D01*
X10286491Y-14773689D02*
X10219825Y-14849879D01*
X10219825Y-14849879D02*
X10248396Y-14849879D01*
X10248396Y-14849879D02*
X10267444Y-14859403D01*
X10267444Y-14859403D02*
X10276968Y-14868927D01*
X10276968Y-14868927D02*
X10286491Y-14887975D01*
X10286491Y-14887975D02*
X10286491Y-14935594D01*
X10286491Y-14935594D02*
X10276968Y-14954641D01*
X10276968Y-14954641D02*
X10267444Y-14964165D01*
X10267444Y-14964165D02*
X10248396Y-14973689D01*
X10248396Y-14973689D02*
X10191253Y-14973689D01*
X10191253Y-14973689D02*
X10172206Y-14964165D01*
X10172206Y-14964165D02*
X10162682Y-14954641D01*
X10467444Y-14773689D02*
X10372206Y-14773689D01*
X10372206Y-14773689D02*
X10362682Y-14868927D01*
X10362682Y-14868927D02*
X10372206Y-14859403D01*
X10372206Y-14859403D02*
X10391253Y-14849879D01*
X10391253Y-14849879D02*
X10438872Y-14849879D01*
X10438872Y-14849879D02*
X10457920Y-14859403D01*
X10457920Y-14859403D02*
X10467444Y-14868927D01*
X10467444Y-14868927D02*
X10476968Y-14887975D01*
X10476968Y-14887975D02*
X10476968Y-14935594D01*
X10476968Y-14935594D02*
X10467444Y-14954641D01*
X10467444Y-14954641D02*
X10457920Y-14964165D01*
X10457920Y-14964165D02*
X10438872Y-14973689D01*
X10438872Y-14973689D02*
X10391253Y-14973689D01*
X10391253Y-14973689D02*
X10372206Y-14964165D01*
X10372206Y-14964165D02*
X10362682Y-14954641D01*
X10648396Y-14840356D02*
X10648396Y-14973689D01*
X10600777Y-14764165D02*
X10553158Y-14907022D01*
X10553158Y-14907022D02*
X10676968Y-14907022D01*
X10743634Y-14773689D02*
X10743634Y-14811784D01*
X10819825Y-14773689D02*
X10819825Y-14811784D01*
X11115063Y-15049879D02*
X11105539Y-15040356D01*
X11105539Y-15040356D02*
X11086491Y-15011784D01*
X11086491Y-15011784D02*
X11076968Y-14992737D01*
X11076968Y-14992737D02*
X11067444Y-14964165D01*
X11067444Y-14964165D02*
X11057920Y-14916546D01*
X11057920Y-14916546D02*
X11057920Y-14878451D01*
X11057920Y-14878451D02*
X11067444Y-14830832D01*
X11067444Y-14830832D02*
X11076968Y-14802260D01*
X11076968Y-14802260D02*
X11086491Y-14783213D01*
X11086491Y-14783213D02*
X11105539Y-14754641D01*
X11105539Y-14754641D02*
X11115063Y-14745117D01*
X11181730Y-14792737D02*
X11191253Y-14783213D01*
X11191253Y-14783213D02*
X11210301Y-14773689D01*
X11210301Y-14773689D02*
X11257920Y-14773689D01*
X11257920Y-14773689D02*
X11276968Y-14783213D01*
X11276968Y-14783213D02*
X11286491Y-14792737D01*
X11286491Y-14792737D02*
X11296015Y-14811784D01*
X11296015Y-14811784D02*
X11296015Y-14830832D01*
X11296015Y-14830832D02*
X11286491Y-14859403D01*
X11286491Y-14859403D02*
X11172206Y-14973689D01*
X11172206Y-14973689D02*
X11296015Y-14973689D01*
X11534110Y-14973689D02*
X11534110Y-14773689D01*
X11619825Y-14973689D02*
X11619825Y-14868927D01*
X11619825Y-14868927D02*
X11610301Y-14849879D01*
X11610301Y-14849879D02*
X11591253Y-14840356D01*
X11591253Y-14840356D02*
X11562682Y-14840356D01*
X11562682Y-14840356D02*
X11543634Y-14849879D01*
X11543634Y-14849879D02*
X11534110Y-14859403D01*
X11743634Y-14973689D02*
X11724587Y-14964165D01*
X11724587Y-14964165D02*
X11715063Y-14954641D01*
X11715063Y-14954641D02*
X11705539Y-14935594D01*
X11705539Y-14935594D02*
X11705539Y-14878451D01*
X11705539Y-14878451D02*
X11715063Y-14859403D01*
X11715063Y-14859403D02*
X11724587Y-14849879D01*
X11724587Y-14849879D02*
X11743634Y-14840356D01*
X11743634Y-14840356D02*
X11772206Y-14840356D01*
X11772206Y-14840356D02*
X11791253Y-14849879D01*
X11791253Y-14849879D02*
X11800777Y-14859403D01*
X11800777Y-14859403D02*
X11810301Y-14878451D01*
X11810301Y-14878451D02*
X11810301Y-14935594D01*
X11810301Y-14935594D02*
X11800777Y-14954641D01*
X11800777Y-14954641D02*
X11791253Y-14964165D01*
X11791253Y-14964165D02*
X11772206Y-14973689D01*
X11772206Y-14973689D02*
X11743634Y-14973689D01*
X11924587Y-14973689D02*
X11905539Y-14964165D01*
X11905539Y-14964165D02*
X11896015Y-14945117D01*
X11896015Y-14945117D02*
X11896015Y-14773689D01*
X12076968Y-14964165D02*
X12057920Y-14973689D01*
X12057920Y-14973689D02*
X12019825Y-14973689D01*
X12019825Y-14973689D02*
X12000777Y-14964165D01*
X12000777Y-14964165D02*
X11991253Y-14945117D01*
X11991253Y-14945117D02*
X11991253Y-14868927D01*
X11991253Y-14868927D02*
X12000777Y-14849879D01*
X12000777Y-14849879D02*
X12019825Y-14840356D01*
X12019825Y-14840356D02*
X12057920Y-14840356D01*
X12057920Y-14840356D02*
X12076968Y-14849879D01*
X12076968Y-14849879D02*
X12086491Y-14868927D01*
X12086491Y-14868927D02*
X12086491Y-14887975D01*
X12086491Y-14887975D02*
X11991253Y-14907022D01*
X12162682Y-14964165D02*
X12181730Y-14973689D01*
X12181730Y-14973689D02*
X12219825Y-14973689D01*
X12219825Y-14973689D02*
X12238872Y-14964165D01*
X12238872Y-14964165D02*
X12248396Y-14945117D01*
X12248396Y-14945117D02*
X12248396Y-14935594D01*
X12248396Y-14935594D02*
X12238872Y-14916546D01*
X12238872Y-14916546D02*
X12219825Y-14907022D01*
X12219825Y-14907022D02*
X12191253Y-14907022D01*
X12191253Y-14907022D02*
X12172206Y-14897498D01*
X12172206Y-14897498D02*
X12162682Y-14878451D01*
X12162682Y-14878451D02*
X12162682Y-14868927D01*
X12162682Y-14868927D02*
X12172206Y-14849879D01*
X12172206Y-14849879D02*
X12191253Y-14840356D01*
X12191253Y-14840356D02*
X12219825Y-14840356D01*
X12219825Y-14840356D02*
X12238872Y-14849879D01*
X12315063Y-15049879D02*
X12324587Y-15040356D01*
X12324587Y-15040356D02*
X12343634Y-15011784D01*
X12343634Y-15011784D02*
X12353158Y-14992737D01*
X12353158Y-14992737D02*
X12362682Y-14964165D01*
X12362682Y-14964165D02*
X12372206Y-14916546D01*
X12372206Y-14916546D02*
X12372206Y-14878451D01*
X12372206Y-14878451D02*
X12362682Y-14830832D01*
X12362682Y-14830832D02*
X12353158Y-14802260D01*
X12353158Y-14802260D02*
X12343634Y-14783213D01*
X12343634Y-14783213D02*
X12324587Y-14754641D01*
X12324587Y-14754641D02*
X12315063Y-14745117D01*
X12676968Y-15049879D02*
X12667444Y-15040356D01*
X12667444Y-15040356D02*
X12648396Y-15011784D01*
X12648396Y-15011784D02*
X12638872Y-14992737D01*
X12638872Y-14992737D02*
X12629349Y-14964165D01*
X12629349Y-14964165D02*
X12619825Y-14916546D01*
X12619825Y-14916546D02*
X12619825Y-14878451D01*
X12619825Y-14878451D02*
X12629349Y-14830832D01*
X12629349Y-14830832D02*
X12638872Y-14802260D01*
X12638872Y-14802260D02*
X12648396Y-14783213D01*
X12648396Y-14783213D02*
X12667444Y-14754641D01*
X12667444Y-14754641D02*
X12676968Y-14745117D01*
X12753158Y-14840356D02*
X12753158Y-14973689D01*
X12753158Y-14859403D02*
X12762682Y-14849879D01*
X12762682Y-14849879D02*
X12781730Y-14840356D01*
X12781730Y-14840356D02*
X12810301Y-14840356D01*
X12810301Y-14840356D02*
X12829349Y-14849879D01*
X12829349Y-14849879D02*
X12838872Y-14868927D01*
X12838872Y-14868927D02*
X12838872Y-14973689D01*
X12962682Y-14973689D02*
X12943634Y-14964165D01*
X12943634Y-14964165D02*
X12934111Y-14954641D01*
X12934111Y-14954641D02*
X12924587Y-14935594D01*
X12924587Y-14935594D02*
X12924587Y-14878451D01*
X12924587Y-14878451D02*
X12934111Y-14859403D01*
X12934111Y-14859403D02*
X12943634Y-14849879D01*
X12943634Y-14849879D02*
X12962682Y-14840356D01*
X12962682Y-14840356D02*
X12991253Y-14840356D01*
X12991253Y-14840356D02*
X13010301Y-14849879D01*
X13010301Y-14849879D02*
X13019825Y-14859403D01*
X13019825Y-14859403D02*
X13029349Y-14878451D01*
X13029349Y-14878451D02*
X13029349Y-14935594D01*
X13029349Y-14935594D02*
X13019825Y-14954641D01*
X13019825Y-14954641D02*
X13010301Y-14964165D01*
X13010301Y-14964165D02*
X12991253Y-14973689D01*
X12991253Y-14973689D02*
X12962682Y-14973689D01*
X13086492Y-14840356D02*
X13162682Y-14840356D01*
X13115063Y-14773689D02*
X13115063Y-14945117D01*
X13115063Y-14945117D02*
X13124587Y-14964165D01*
X13124587Y-14964165D02*
X13143634Y-14973689D01*
X13143634Y-14973689D02*
X13162682Y-14973689D01*
X13381730Y-14840356D02*
X13381730Y-15040356D01*
X13381730Y-14849879D02*
X13400777Y-14840356D01*
X13400777Y-14840356D02*
X13438873Y-14840356D01*
X13438873Y-14840356D02*
X13457920Y-14849879D01*
X13457920Y-14849879D02*
X13467444Y-14859403D01*
X13467444Y-14859403D02*
X13476968Y-14878451D01*
X13476968Y-14878451D02*
X13476968Y-14935594D01*
X13476968Y-14935594D02*
X13467444Y-14954641D01*
X13467444Y-14954641D02*
X13457920Y-14964165D01*
X13457920Y-14964165D02*
X13438873Y-14973689D01*
X13438873Y-14973689D02*
X13400777Y-14973689D01*
X13400777Y-14973689D02*
X13381730Y-14964165D01*
X13591253Y-14973689D02*
X13572206Y-14964165D01*
X13572206Y-14964165D02*
X13562682Y-14945117D01*
X13562682Y-14945117D02*
X13562682Y-14773689D01*
X13753158Y-14973689D02*
X13753158Y-14868927D01*
X13753158Y-14868927D02*
X13743634Y-14849879D01*
X13743634Y-14849879D02*
X13724587Y-14840356D01*
X13724587Y-14840356D02*
X13686492Y-14840356D01*
X13686492Y-14840356D02*
X13667444Y-14849879D01*
X13753158Y-14964165D02*
X13734111Y-14973689D01*
X13734111Y-14973689D02*
X13686492Y-14973689D01*
X13686492Y-14973689D02*
X13667444Y-14964165D01*
X13667444Y-14964165D02*
X13657920Y-14945117D01*
X13657920Y-14945117D02*
X13657920Y-14926070D01*
X13657920Y-14926070D02*
X13667444Y-14907022D01*
X13667444Y-14907022D02*
X13686492Y-14897498D01*
X13686492Y-14897498D02*
X13734111Y-14897498D01*
X13734111Y-14897498D02*
X13753158Y-14887975D01*
X13819825Y-14840356D02*
X13896015Y-14840356D01*
X13848396Y-14773689D02*
X13848396Y-14945117D01*
X13848396Y-14945117D02*
X13857920Y-14964165D01*
X13857920Y-14964165D02*
X13876968Y-14973689D01*
X13876968Y-14973689D02*
X13896015Y-14973689D01*
X14038873Y-14964165D02*
X14019825Y-14973689D01*
X14019825Y-14973689D02*
X13981730Y-14973689D01*
X13981730Y-14973689D02*
X13962682Y-14964165D01*
X13962682Y-14964165D02*
X13953158Y-14945117D01*
X13953158Y-14945117D02*
X13953158Y-14868927D01*
X13953158Y-14868927D02*
X13962682Y-14849879D01*
X13962682Y-14849879D02*
X13981730Y-14840356D01*
X13981730Y-14840356D02*
X14019825Y-14840356D01*
X14019825Y-14840356D02*
X14038873Y-14849879D01*
X14038873Y-14849879D02*
X14048396Y-14868927D01*
X14048396Y-14868927D02*
X14048396Y-14887975D01*
X14048396Y-14887975D02*
X13953158Y-14907022D01*
X14219825Y-14973689D02*
X14219825Y-14773689D01*
X14219825Y-14964165D02*
X14200777Y-14973689D01*
X14200777Y-14973689D02*
X14162682Y-14973689D01*
X14162682Y-14973689D02*
X14143634Y-14964165D01*
X14143634Y-14964165D02*
X14134111Y-14954641D01*
X14134111Y-14954641D02*
X14124587Y-14935594D01*
X14124587Y-14935594D02*
X14124587Y-14878451D01*
X14124587Y-14878451D02*
X14134111Y-14859403D01*
X14134111Y-14859403D02*
X14143634Y-14849879D01*
X14143634Y-14849879D02*
X14162682Y-14840356D01*
X14162682Y-14840356D02*
X14200777Y-14840356D01*
X14200777Y-14840356D02*
X14219825Y-14849879D01*
X14296015Y-15049879D02*
X14305539Y-15040356D01*
X14305539Y-15040356D02*
X14324587Y-15011784D01*
X14324587Y-15011784D02*
X14334111Y-14992737D01*
X14334111Y-14992737D02*
X14343634Y-14964165D01*
X14343634Y-14964165D02*
X14353158Y-14916546D01*
X14353158Y-14916546D02*
X14353158Y-14878451D01*
X14353158Y-14878451D02*
X14343634Y-14830832D01*
X14343634Y-14830832D02*
X14334111Y-14802260D01*
X14334111Y-14802260D02*
X14324587Y-14783213D01*
X14324587Y-14783213D02*
X14305539Y-14754641D01*
X14305539Y-14754641D02*
X14296015Y-14745117D01*
X7540000Y-15146205D02*
G75*
G02*
X7340000Y-15146205I-100000J0D01*
G01*
X7340000Y-15146205D02*
G75*
G02*
X7540000Y-15146205I100000J0D01*
G01*
X7781729Y-15037689D02*
X7905539Y-15037689D01*
X7905539Y-15037689D02*
X7838872Y-15113879D01*
X7838872Y-15113879D02*
X7867443Y-15113879D01*
X7867443Y-15113879D02*
X7886491Y-15123403D01*
X7886491Y-15123403D02*
X7896015Y-15132927D01*
X7896015Y-15132927D02*
X7905539Y-15151975D01*
X7905539Y-15151975D02*
X7905539Y-15199594D01*
X7905539Y-15199594D02*
X7896015Y-15218641D01*
X7896015Y-15218641D02*
X7886491Y-15228165D01*
X7886491Y-15228165D02*
X7867443Y-15237689D01*
X7867443Y-15237689D02*
X7810301Y-15237689D01*
X7810301Y-15237689D02*
X7791253Y-15228165D01*
X7791253Y-15228165D02*
X7781729Y-15218641D01*
X7991253Y-15218641D02*
X8000777Y-15228165D01*
X8000777Y-15228165D02*
X7991253Y-15237689D01*
X7991253Y-15237689D02*
X7981729Y-15228165D01*
X7981729Y-15228165D02*
X7991253Y-15218641D01*
X7991253Y-15218641D02*
X7991253Y-15237689D01*
X8124586Y-15037689D02*
X8143634Y-15037689D01*
X8143634Y-15037689D02*
X8162682Y-15047213D01*
X8162682Y-15047213D02*
X8172205Y-15056737D01*
X8172205Y-15056737D02*
X8181729Y-15075784D01*
X8181729Y-15075784D02*
X8191253Y-15113879D01*
X8191253Y-15113879D02*
X8191253Y-15161498D01*
X8191253Y-15161498D02*
X8181729Y-15199594D01*
X8181729Y-15199594D02*
X8172205Y-15218641D01*
X8172205Y-15218641D02*
X8162682Y-15228165D01*
X8162682Y-15228165D02*
X8143634Y-15237689D01*
X8143634Y-15237689D02*
X8124586Y-15237689D01*
X8124586Y-15237689D02*
X8105539Y-15228165D01*
X8105539Y-15228165D02*
X8096015Y-15218641D01*
X8096015Y-15218641D02*
X8086491Y-15199594D01*
X8086491Y-15199594D02*
X8076967Y-15161498D01*
X8076967Y-15161498D02*
X8076967Y-15113879D01*
X8076967Y-15113879D02*
X8086491Y-15075784D01*
X8086491Y-15075784D02*
X8096015Y-15056737D01*
X8096015Y-15056737D02*
X8105539Y-15047213D01*
X8105539Y-15047213D02*
X8124586Y-15037689D01*
X8315062Y-15037689D02*
X8334110Y-15037689D01*
X8334110Y-15037689D02*
X8353158Y-15047213D01*
X8353158Y-15047213D02*
X8362682Y-15056737D01*
X8362682Y-15056737D02*
X8372205Y-15075784D01*
X8372205Y-15075784D02*
X8381729Y-15113879D01*
X8381729Y-15113879D02*
X8381729Y-15161498D01*
X8381729Y-15161498D02*
X8372205Y-15199594D01*
X8372205Y-15199594D02*
X8362682Y-15218641D01*
X8362682Y-15218641D02*
X8353158Y-15228165D01*
X8353158Y-15228165D02*
X8334110Y-15237689D01*
X8334110Y-15237689D02*
X8315062Y-15237689D01*
X8315062Y-15237689D02*
X8296015Y-15228165D01*
X8296015Y-15228165D02*
X8286491Y-15218641D01*
X8286491Y-15218641D02*
X8276967Y-15199594D01*
X8276967Y-15199594D02*
X8267443Y-15161498D01*
X8267443Y-15161498D02*
X8267443Y-15113879D01*
X8267443Y-15113879D02*
X8276967Y-15075784D01*
X8276967Y-15075784D02*
X8286491Y-15056737D01*
X8286491Y-15056737D02*
X8296015Y-15047213D01*
X8296015Y-15047213D02*
X8315062Y-15037689D01*
X8505539Y-15037689D02*
X8524586Y-15037689D01*
X8524586Y-15037689D02*
X8543634Y-15047213D01*
X8543634Y-15047213D02*
X8553158Y-15056737D01*
X8553158Y-15056737D02*
X8562682Y-15075784D01*
X8562682Y-15075784D02*
X8572205Y-15113879D01*
X8572205Y-15113879D02*
X8572205Y-15161498D01*
X8572205Y-15161498D02*
X8562682Y-15199594D01*
X8562682Y-15199594D02*
X8553158Y-15218641D01*
X8553158Y-15218641D02*
X8543634Y-15228165D01*
X8543634Y-15228165D02*
X8524586Y-15237689D01*
X8524586Y-15237689D02*
X8505539Y-15237689D01*
X8505539Y-15237689D02*
X8486491Y-15228165D01*
X8486491Y-15228165D02*
X8476967Y-15218641D01*
X8476967Y-15218641D02*
X8467444Y-15199594D01*
X8467444Y-15199594D02*
X8457920Y-15161498D01*
X8457920Y-15161498D02*
X8457920Y-15113879D01*
X8457920Y-15113879D02*
X8467444Y-15075784D01*
X8467444Y-15075784D02*
X8476967Y-15056737D01*
X8476967Y-15056737D02*
X8486491Y-15047213D01*
X8486491Y-15047213D02*
X8505539Y-15037689D01*
X8657920Y-15237689D02*
X8657920Y-15104356D01*
X8657920Y-15123403D02*
X8667444Y-15113879D01*
X8667444Y-15113879D02*
X8686491Y-15104356D01*
X8686491Y-15104356D02*
X8715063Y-15104356D01*
X8715063Y-15104356D02*
X8734110Y-15113879D01*
X8734110Y-15113879D02*
X8743634Y-15132927D01*
X8743634Y-15132927D02*
X8743634Y-15237689D01*
X8743634Y-15132927D02*
X8753158Y-15113879D01*
X8753158Y-15113879D02*
X8772205Y-15104356D01*
X8772205Y-15104356D02*
X8800777Y-15104356D01*
X8800777Y-15104356D02*
X8819825Y-15113879D01*
X8819825Y-15113879D02*
X8829348Y-15132927D01*
X8829348Y-15132927D02*
X8829348Y-15237689D01*
X8924586Y-15237689D02*
X8924586Y-15104356D01*
X8924586Y-15123403D02*
X8934110Y-15113879D01*
X8934110Y-15113879D02*
X8953158Y-15104356D01*
X8953158Y-15104356D02*
X8981729Y-15104356D01*
X8981729Y-15104356D02*
X9000777Y-15113879D01*
X9000777Y-15113879D02*
X9010301Y-15132927D01*
X9010301Y-15132927D02*
X9010301Y-15237689D01*
X9010301Y-15132927D02*
X9019825Y-15113879D01*
X9019825Y-15113879D02*
X9038872Y-15104356D01*
X9038872Y-15104356D02*
X9067444Y-15104356D01*
X9067444Y-15104356D02*
X9086491Y-15113879D01*
X9086491Y-15113879D02*
X9096015Y-15132927D01*
X9096015Y-15132927D02*
X9096015Y-15237689D01*
X9486491Y-15028165D02*
X9315063Y-15285308D01*
X9743634Y-15037689D02*
X9762682Y-15037689D01*
X9762682Y-15037689D02*
X9781729Y-15047213D01*
X9781729Y-15047213D02*
X9791253Y-15056737D01*
X9791253Y-15056737D02*
X9800777Y-15075784D01*
X9800777Y-15075784D02*
X9810301Y-15113879D01*
X9810301Y-15113879D02*
X9810301Y-15161498D01*
X9810301Y-15161498D02*
X9800777Y-15199594D01*
X9800777Y-15199594D02*
X9791253Y-15218641D01*
X9791253Y-15218641D02*
X9781729Y-15228165D01*
X9781729Y-15228165D02*
X9762682Y-15237689D01*
X9762682Y-15237689D02*
X9743634Y-15237689D01*
X9743634Y-15237689D02*
X9724587Y-15228165D01*
X9724587Y-15228165D02*
X9715063Y-15218641D01*
X9715063Y-15218641D02*
X9705539Y-15199594D01*
X9705539Y-15199594D02*
X9696015Y-15161498D01*
X9696015Y-15161498D02*
X9696015Y-15113879D01*
X9696015Y-15113879D02*
X9705539Y-15075784D01*
X9705539Y-15075784D02*
X9715063Y-15056737D01*
X9715063Y-15056737D02*
X9724587Y-15047213D01*
X9724587Y-15047213D02*
X9743634Y-15037689D01*
X9896015Y-15218641D02*
X9905539Y-15228165D01*
X9905539Y-15228165D02*
X9896015Y-15237689D01*
X9896015Y-15237689D02*
X9886491Y-15228165D01*
X9886491Y-15228165D02*
X9896015Y-15218641D01*
X9896015Y-15218641D02*
X9896015Y-15237689D01*
X10096015Y-15237689D02*
X9981729Y-15237689D01*
X10038872Y-15237689D02*
X10038872Y-15037689D01*
X10038872Y-15037689D02*
X10019825Y-15066260D01*
X10019825Y-15066260D02*
X10000777Y-15085308D01*
X10000777Y-15085308D02*
X9981729Y-15094832D01*
X10286491Y-15237689D02*
X10172206Y-15237689D01*
X10229348Y-15237689D02*
X10229348Y-15037689D01*
X10229348Y-15037689D02*
X10210301Y-15066260D01*
X10210301Y-15066260D02*
X10191253Y-15085308D01*
X10191253Y-15085308D02*
X10172206Y-15094832D01*
X10400777Y-15123403D02*
X10381729Y-15113879D01*
X10381729Y-15113879D02*
X10372206Y-15104356D01*
X10372206Y-15104356D02*
X10362682Y-15085308D01*
X10362682Y-15085308D02*
X10362682Y-15075784D01*
X10362682Y-15075784D02*
X10372206Y-15056737D01*
X10372206Y-15056737D02*
X10381729Y-15047213D01*
X10381729Y-15047213D02*
X10400777Y-15037689D01*
X10400777Y-15037689D02*
X10438872Y-15037689D01*
X10438872Y-15037689D02*
X10457920Y-15047213D01*
X10457920Y-15047213D02*
X10467444Y-15056737D01*
X10467444Y-15056737D02*
X10476968Y-15075784D01*
X10476968Y-15075784D02*
X10476968Y-15085308D01*
X10476968Y-15085308D02*
X10467444Y-15104356D01*
X10467444Y-15104356D02*
X10457920Y-15113879D01*
X10457920Y-15113879D02*
X10438872Y-15123403D01*
X10438872Y-15123403D02*
X10400777Y-15123403D01*
X10400777Y-15123403D02*
X10381729Y-15132927D01*
X10381729Y-15132927D02*
X10372206Y-15142451D01*
X10372206Y-15142451D02*
X10362682Y-15161498D01*
X10362682Y-15161498D02*
X10362682Y-15199594D01*
X10362682Y-15199594D02*
X10372206Y-15218641D01*
X10372206Y-15218641D02*
X10381729Y-15228165D01*
X10381729Y-15228165D02*
X10400777Y-15237689D01*
X10400777Y-15237689D02*
X10438872Y-15237689D01*
X10438872Y-15237689D02*
X10457920Y-15228165D01*
X10457920Y-15228165D02*
X10467444Y-15218641D01*
X10467444Y-15218641D02*
X10476968Y-15199594D01*
X10476968Y-15199594D02*
X10476968Y-15161498D01*
X10476968Y-15161498D02*
X10467444Y-15142451D01*
X10467444Y-15142451D02*
X10457920Y-15132927D01*
X10457920Y-15132927D02*
X10438872Y-15123403D01*
X10667444Y-15237689D02*
X10553158Y-15237689D01*
X10610301Y-15237689D02*
X10610301Y-15037689D01*
X10610301Y-15037689D02*
X10591253Y-15066260D01*
X10591253Y-15066260D02*
X10572206Y-15085308D01*
X10572206Y-15085308D02*
X10553158Y-15094832D01*
X10743634Y-15037689D02*
X10743634Y-15075784D01*
X10819825Y-15037689D02*
X10819825Y-15075784D01*
X11115063Y-15313879D02*
X11105539Y-15304356D01*
X11105539Y-15304356D02*
X11086491Y-15275784D01*
X11086491Y-15275784D02*
X11076968Y-15256737D01*
X11076968Y-15256737D02*
X11067444Y-15228165D01*
X11067444Y-15228165D02*
X11057920Y-15180546D01*
X11057920Y-15180546D02*
X11057920Y-15142451D01*
X11057920Y-15142451D02*
X11067444Y-15094832D01*
X11067444Y-15094832D02*
X11076968Y-15066260D01*
X11076968Y-15066260D02*
X11086491Y-15047213D01*
X11086491Y-15047213D02*
X11105539Y-15018641D01*
X11105539Y-15018641D02*
X11115063Y-15009117D01*
X11219825Y-15123403D02*
X11200777Y-15113879D01*
X11200777Y-15113879D02*
X11191253Y-15104356D01*
X11191253Y-15104356D02*
X11181730Y-15085308D01*
X11181730Y-15085308D02*
X11181730Y-15075784D01*
X11181730Y-15075784D02*
X11191253Y-15056737D01*
X11191253Y-15056737D02*
X11200777Y-15047213D01*
X11200777Y-15047213D02*
X11219825Y-15037689D01*
X11219825Y-15037689D02*
X11257920Y-15037689D01*
X11257920Y-15037689D02*
X11276968Y-15047213D01*
X11276968Y-15047213D02*
X11286491Y-15056737D01*
X11286491Y-15056737D02*
X11296015Y-15075784D01*
X11296015Y-15075784D02*
X11296015Y-15085308D01*
X11296015Y-15085308D02*
X11286491Y-15104356D01*
X11286491Y-15104356D02*
X11276968Y-15113879D01*
X11276968Y-15113879D02*
X11257920Y-15123403D01*
X11257920Y-15123403D02*
X11219825Y-15123403D01*
X11219825Y-15123403D02*
X11200777Y-15132927D01*
X11200777Y-15132927D02*
X11191253Y-15142451D01*
X11191253Y-15142451D02*
X11181730Y-15161498D01*
X11181730Y-15161498D02*
X11181730Y-15199594D01*
X11181730Y-15199594D02*
X11191253Y-15218641D01*
X11191253Y-15218641D02*
X11200777Y-15228165D01*
X11200777Y-15228165D02*
X11219825Y-15237689D01*
X11219825Y-15237689D02*
X11257920Y-15237689D01*
X11257920Y-15237689D02*
X11276968Y-15228165D01*
X11276968Y-15228165D02*
X11286491Y-15218641D01*
X11286491Y-15218641D02*
X11296015Y-15199594D01*
X11296015Y-15199594D02*
X11296015Y-15161498D01*
X11296015Y-15161498D02*
X11286491Y-15142451D01*
X11286491Y-15142451D02*
X11276968Y-15132927D01*
X11276968Y-15132927D02*
X11257920Y-15123403D01*
X11467444Y-15104356D02*
X11467444Y-15237689D01*
X11419825Y-15028165D02*
X11372206Y-15171022D01*
X11372206Y-15171022D02*
X11496015Y-15171022D01*
X11724587Y-15237689D02*
X11724587Y-15037689D01*
X11810301Y-15237689D02*
X11810301Y-15132927D01*
X11810301Y-15132927D02*
X11800777Y-15113879D01*
X11800777Y-15113879D02*
X11781730Y-15104356D01*
X11781730Y-15104356D02*
X11753158Y-15104356D01*
X11753158Y-15104356D02*
X11734110Y-15113879D01*
X11734110Y-15113879D02*
X11724587Y-15123403D01*
X11934110Y-15237689D02*
X11915063Y-15228165D01*
X11915063Y-15228165D02*
X11905539Y-15218641D01*
X11905539Y-15218641D02*
X11896015Y-15199594D01*
X11896015Y-15199594D02*
X11896015Y-15142451D01*
X11896015Y-15142451D02*
X11905539Y-15123403D01*
X11905539Y-15123403D02*
X11915063Y-15113879D01*
X11915063Y-15113879D02*
X11934110Y-15104356D01*
X11934110Y-15104356D02*
X11962682Y-15104356D01*
X11962682Y-15104356D02*
X11981730Y-15113879D01*
X11981730Y-15113879D02*
X11991253Y-15123403D01*
X11991253Y-15123403D02*
X12000777Y-15142451D01*
X12000777Y-15142451D02*
X12000777Y-15199594D01*
X12000777Y-15199594D02*
X11991253Y-15218641D01*
X11991253Y-15218641D02*
X11981730Y-15228165D01*
X11981730Y-15228165D02*
X11962682Y-15237689D01*
X11962682Y-15237689D02*
X11934110Y-15237689D01*
X12115063Y-15237689D02*
X12096015Y-15228165D01*
X12096015Y-15228165D02*
X12086491Y-15209117D01*
X12086491Y-15209117D02*
X12086491Y-15037689D01*
X12267444Y-15228165D02*
X12248396Y-15237689D01*
X12248396Y-15237689D02*
X12210301Y-15237689D01*
X12210301Y-15237689D02*
X12191253Y-15228165D01*
X12191253Y-15228165D02*
X12181730Y-15209117D01*
X12181730Y-15209117D02*
X12181730Y-15132927D01*
X12181730Y-15132927D02*
X12191253Y-15113879D01*
X12191253Y-15113879D02*
X12210301Y-15104356D01*
X12210301Y-15104356D02*
X12248396Y-15104356D01*
X12248396Y-15104356D02*
X12267444Y-15113879D01*
X12267444Y-15113879D02*
X12276968Y-15132927D01*
X12276968Y-15132927D02*
X12276968Y-15151975D01*
X12276968Y-15151975D02*
X12181730Y-15171022D01*
X12353158Y-15228165D02*
X12372206Y-15237689D01*
X12372206Y-15237689D02*
X12410301Y-15237689D01*
X12410301Y-15237689D02*
X12429349Y-15228165D01*
X12429349Y-15228165D02*
X12438872Y-15209117D01*
X12438872Y-15209117D02*
X12438872Y-15199594D01*
X12438872Y-15199594D02*
X12429349Y-15180546D01*
X12429349Y-15180546D02*
X12410301Y-15171022D01*
X12410301Y-15171022D02*
X12381730Y-15171022D01*
X12381730Y-15171022D02*
X12362682Y-15161498D01*
X12362682Y-15161498D02*
X12353158Y-15142451D01*
X12353158Y-15142451D02*
X12353158Y-15132927D01*
X12353158Y-15132927D02*
X12362682Y-15113879D01*
X12362682Y-15113879D02*
X12381730Y-15104356D01*
X12381730Y-15104356D02*
X12410301Y-15104356D01*
X12410301Y-15104356D02*
X12429349Y-15113879D01*
X12505539Y-15313879D02*
X12515063Y-15304356D01*
X12515063Y-15304356D02*
X12534111Y-15275784D01*
X12534111Y-15275784D02*
X12543634Y-15256737D01*
X12543634Y-15256737D02*
X12553158Y-15228165D01*
X12553158Y-15228165D02*
X12562682Y-15180546D01*
X12562682Y-15180546D02*
X12562682Y-15142451D01*
X12562682Y-15142451D02*
X12553158Y-15094832D01*
X12553158Y-15094832D02*
X12543634Y-15066260D01*
X12543634Y-15066260D02*
X12534111Y-15047213D01*
X12534111Y-15047213D02*
X12515063Y-15018641D01*
X12515063Y-15018641D02*
X12505539Y-15009117D01*
X12867444Y-15313879D02*
X12857920Y-15304356D01*
X12857920Y-15304356D02*
X12838872Y-15275784D01*
X12838872Y-15275784D02*
X12829349Y-15256737D01*
X12829349Y-15256737D02*
X12819825Y-15228165D01*
X12819825Y-15228165D02*
X12810301Y-15180546D01*
X12810301Y-15180546D02*
X12810301Y-15142451D01*
X12810301Y-15142451D02*
X12819825Y-15094832D01*
X12819825Y-15094832D02*
X12829349Y-15066260D01*
X12829349Y-15066260D02*
X12838872Y-15047213D01*
X12838872Y-15047213D02*
X12857920Y-15018641D01*
X12857920Y-15018641D02*
X12867444Y-15009117D01*
X12943634Y-15104356D02*
X12943634Y-15237689D01*
X12943634Y-15123403D02*
X12953158Y-15113879D01*
X12953158Y-15113879D02*
X12972206Y-15104356D01*
X12972206Y-15104356D02*
X13000777Y-15104356D01*
X13000777Y-15104356D02*
X13019825Y-15113879D01*
X13019825Y-15113879D02*
X13029349Y-15132927D01*
X13029349Y-15132927D02*
X13029349Y-15237689D01*
X13153158Y-15237689D02*
X13134111Y-15228165D01*
X13134111Y-15228165D02*
X13124587Y-15218641D01*
X13124587Y-15218641D02*
X13115063Y-15199594D01*
X13115063Y-15199594D02*
X13115063Y-15142451D01*
X13115063Y-15142451D02*
X13124587Y-15123403D01*
X13124587Y-15123403D02*
X13134111Y-15113879D01*
X13134111Y-15113879D02*
X13153158Y-15104356D01*
X13153158Y-15104356D02*
X13181730Y-15104356D01*
X13181730Y-15104356D02*
X13200777Y-15113879D01*
X13200777Y-15113879D02*
X13210301Y-15123403D01*
X13210301Y-15123403D02*
X13219825Y-15142451D01*
X13219825Y-15142451D02*
X13219825Y-15199594D01*
X13219825Y-15199594D02*
X13210301Y-15218641D01*
X13210301Y-15218641D02*
X13200777Y-15228165D01*
X13200777Y-15228165D02*
X13181730Y-15237689D01*
X13181730Y-15237689D02*
X13153158Y-15237689D01*
X13276968Y-15104356D02*
X13353158Y-15104356D01*
X13305539Y-15037689D02*
X13305539Y-15209117D01*
X13305539Y-15209117D02*
X13315063Y-15228165D01*
X13315063Y-15228165D02*
X13334111Y-15237689D01*
X13334111Y-15237689D02*
X13353158Y-15237689D01*
X13572206Y-15104356D02*
X13572206Y-15304356D01*
X13572206Y-15113879D02*
X13591253Y-15104356D01*
X13591253Y-15104356D02*
X13629349Y-15104356D01*
X13629349Y-15104356D02*
X13648396Y-15113879D01*
X13648396Y-15113879D02*
X13657920Y-15123403D01*
X13657920Y-15123403D02*
X13667444Y-15142451D01*
X13667444Y-15142451D02*
X13667444Y-15199594D01*
X13667444Y-15199594D02*
X13657920Y-15218641D01*
X13657920Y-15218641D02*
X13648396Y-15228165D01*
X13648396Y-15228165D02*
X13629349Y-15237689D01*
X13629349Y-15237689D02*
X13591253Y-15237689D01*
X13591253Y-15237689D02*
X13572206Y-15228165D01*
X13781730Y-15237689D02*
X13762682Y-15228165D01*
X13762682Y-15228165D02*
X13753158Y-15209117D01*
X13753158Y-15209117D02*
X13753158Y-15037689D01*
X13943634Y-15237689D02*
X13943634Y-15132927D01*
X13943634Y-15132927D02*
X13934111Y-15113879D01*
X13934111Y-15113879D02*
X13915063Y-15104356D01*
X13915063Y-15104356D02*
X13876968Y-15104356D01*
X13876968Y-15104356D02*
X13857920Y-15113879D01*
X13943634Y-15228165D02*
X13924587Y-15237689D01*
X13924587Y-15237689D02*
X13876968Y-15237689D01*
X13876968Y-15237689D02*
X13857920Y-15228165D01*
X13857920Y-15228165D02*
X13848396Y-15209117D01*
X13848396Y-15209117D02*
X13848396Y-15190070D01*
X13848396Y-15190070D02*
X13857920Y-15171022D01*
X13857920Y-15171022D02*
X13876968Y-15161498D01*
X13876968Y-15161498D02*
X13924587Y-15161498D01*
X13924587Y-15161498D02*
X13943634Y-15151975D01*
X14010301Y-15104356D02*
X14086492Y-15104356D01*
X14038873Y-15037689D02*
X14038873Y-15209117D01*
X14038873Y-15209117D02*
X14048396Y-15228165D01*
X14048396Y-15228165D02*
X14067444Y-15237689D01*
X14067444Y-15237689D02*
X14086492Y-15237689D01*
X14229349Y-15228165D02*
X14210301Y-15237689D01*
X14210301Y-15237689D02*
X14172206Y-15237689D01*
X14172206Y-15237689D02*
X14153158Y-15228165D01*
X14153158Y-15228165D02*
X14143634Y-15209117D01*
X14143634Y-15209117D02*
X14143634Y-15132927D01*
X14143634Y-15132927D02*
X14153158Y-15113879D01*
X14153158Y-15113879D02*
X14172206Y-15104356D01*
X14172206Y-15104356D02*
X14210301Y-15104356D01*
X14210301Y-15104356D02*
X14229349Y-15113879D01*
X14229349Y-15113879D02*
X14238873Y-15132927D01*
X14238873Y-15132927D02*
X14238873Y-15151975D01*
X14238873Y-15151975D02*
X14143634Y-15171022D01*
X14410301Y-15237689D02*
X14410301Y-15037689D01*
X14410301Y-15228165D02*
X14391254Y-15237689D01*
X14391254Y-15237689D02*
X14353158Y-15237689D01*
X14353158Y-15237689D02*
X14334111Y-15228165D01*
X14334111Y-15228165D02*
X14324587Y-15218641D01*
X14324587Y-15218641D02*
X14315063Y-15199594D01*
X14315063Y-15199594D02*
X14315063Y-15142451D01*
X14315063Y-15142451D02*
X14324587Y-15123403D01*
X14324587Y-15123403D02*
X14334111Y-15113879D01*
X14334111Y-15113879D02*
X14353158Y-15104356D01*
X14353158Y-15104356D02*
X14391254Y-15104356D01*
X14391254Y-15104356D02*
X14410301Y-15113879D01*
X14486492Y-15313879D02*
X14496015Y-15304356D01*
X14496015Y-15304356D02*
X14515063Y-15275784D01*
X14515063Y-15275784D02*
X14524587Y-15256737D01*
X14524587Y-15256737D02*
X14534111Y-15228165D01*
X14534111Y-15228165D02*
X14543634Y-15180546D01*
X14543634Y-15180546D02*
X14543634Y-15142451D01*
X14543634Y-15142451D02*
X14534111Y-15094832D01*
X14534111Y-15094832D02*
X14524587Y-15066260D01*
X14524587Y-15066260D02*
X14515063Y-15047213D01*
X14515063Y-15047213D02*
X14496015Y-15018641D01*
X14496015Y-15018641D02*
X14486492Y-15009117D01*
X7440000Y-15366205D02*
X7440000Y-15566205D01*
X7340000Y-15466205D02*
X7540000Y-15466205D01*
X7896015Y-15357689D02*
X7800777Y-15357689D01*
X7800777Y-15357689D02*
X7791253Y-15452927D01*
X7791253Y-15452927D02*
X7800777Y-15443403D01*
X7800777Y-15443403D02*
X7819824Y-15433879D01*
X7819824Y-15433879D02*
X7867443Y-15433879D01*
X7867443Y-15433879D02*
X7886491Y-15443403D01*
X7886491Y-15443403D02*
X7896015Y-15452927D01*
X7896015Y-15452927D02*
X7905539Y-15471975D01*
X7905539Y-15471975D02*
X7905539Y-15519594D01*
X7905539Y-15519594D02*
X7896015Y-15538641D01*
X7896015Y-15538641D02*
X7886491Y-15548165D01*
X7886491Y-15548165D02*
X7867443Y-15557689D01*
X7867443Y-15557689D02*
X7819824Y-15557689D01*
X7819824Y-15557689D02*
X7800777Y-15548165D01*
X7800777Y-15548165D02*
X7791253Y-15538641D01*
X7991253Y-15538641D02*
X8000777Y-15548165D01*
X8000777Y-15548165D02*
X7991253Y-15557689D01*
X7991253Y-15557689D02*
X7981729Y-15548165D01*
X7981729Y-15548165D02*
X7991253Y-15538641D01*
X7991253Y-15538641D02*
X7991253Y-15557689D01*
X8124586Y-15357689D02*
X8143634Y-15357689D01*
X8143634Y-15357689D02*
X8162682Y-15367213D01*
X8162682Y-15367213D02*
X8172205Y-15376737D01*
X8172205Y-15376737D02*
X8181729Y-15395784D01*
X8181729Y-15395784D02*
X8191253Y-15433879D01*
X8191253Y-15433879D02*
X8191253Y-15481498D01*
X8191253Y-15481498D02*
X8181729Y-15519594D01*
X8181729Y-15519594D02*
X8172205Y-15538641D01*
X8172205Y-15538641D02*
X8162682Y-15548165D01*
X8162682Y-15548165D02*
X8143634Y-15557689D01*
X8143634Y-15557689D02*
X8124586Y-15557689D01*
X8124586Y-15557689D02*
X8105539Y-15548165D01*
X8105539Y-15548165D02*
X8096015Y-15538641D01*
X8096015Y-15538641D02*
X8086491Y-15519594D01*
X8086491Y-15519594D02*
X8076967Y-15481498D01*
X8076967Y-15481498D02*
X8076967Y-15433879D01*
X8076967Y-15433879D02*
X8086491Y-15395784D01*
X8086491Y-15395784D02*
X8096015Y-15376737D01*
X8096015Y-15376737D02*
X8105539Y-15367213D01*
X8105539Y-15367213D02*
X8124586Y-15357689D01*
X8315062Y-15357689D02*
X8334110Y-15357689D01*
X8334110Y-15357689D02*
X8353158Y-15367213D01*
X8353158Y-15367213D02*
X8362682Y-15376737D01*
X8362682Y-15376737D02*
X8372205Y-15395784D01*
X8372205Y-15395784D02*
X8381729Y-15433879D01*
X8381729Y-15433879D02*
X8381729Y-15481498D01*
X8381729Y-15481498D02*
X8372205Y-15519594D01*
X8372205Y-15519594D02*
X8362682Y-15538641D01*
X8362682Y-15538641D02*
X8353158Y-15548165D01*
X8353158Y-15548165D02*
X8334110Y-15557689D01*
X8334110Y-15557689D02*
X8315062Y-15557689D01*
X8315062Y-15557689D02*
X8296015Y-15548165D01*
X8296015Y-15548165D02*
X8286491Y-15538641D01*
X8286491Y-15538641D02*
X8276967Y-15519594D01*
X8276967Y-15519594D02*
X8267443Y-15481498D01*
X8267443Y-15481498D02*
X8267443Y-15433879D01*
X8267443Y-15433879D02*
X8276967Y-15395784D01*
X8276967Y-15395784D02*
X8286491Y-15376737D01*
X8286491Y-15376737D02*
X8296015Y-15367213D01*
X8296015Y-15367213D02*
X8315062Y-15357689D01*
X8505539Y-15357689D02*
X8524586Y-15357689D01*
X8524586Y-15357689D02*
X8543634Y-15367213D01*
X8543634Y-15367213D02*
X8553158Y-15376737D01*
X8553158Y-15376737D02*
X8562682Y-15395784D01*
X8562682Y-15395784D02*
X8572205Y-15433879D01*
X8572205Y-15433879D02*
X8572205Y-15481498D01*
X8572205Y-15481498D02*
X8562682Y-15519594D01*
X8562682Y-15519594D02*
X8553158Y-15538641D01*
X8553158Y-15538641D02*
X8543634Y-15548165D01*
X8543634Y-15548165D02*
X8524586Y-15557689D01*
X8524586Y-15557689D02*
X8505539Y-15557689D01*
X8505539Y-15557689D02*
X8486491Y-15548165D01*
X8486491Y-15548165D02*
X8476967Y-15538641D01*
X8476967Y-15538641D02*
X8467444Y-15519594D01*
X8467444Y-15519594D02*
X8457920Y-15481498D01*
X8457920Y-15481498D02*
X8457920Y-15433879D01*
X8457920Y-15433879D02*
X8467444Y-15395784D01*
X8467444Y-15395784D02*
X8476967Y-15376737D01*
X8476967Y-15376737D02*
X8486491Y-15367213D01*
X8486491Y-15367213D02*
X8505539Y-15357689D01*
X8657920Y-15557689D02*
X8657920Y-15424356D01*
X8657920Y-15443403D02*
X8667444Y-15433879D01*
X8667444Y-15433879D02*
X8686491Y-15424356D01*
X8686491Y-15424356D02*
X8715063Y-15424356D01*
X8715063Y-15424356D02*
X8734110Y-15433879D01*
X8734110Y-15433879D02*
X8743634Y-15452927D01*
X8743634Y-15452927D02*
X8743634Y-15557689D01*
X8743634Y-15452927D02*
X8753158Y-15433879D01*
X8753158Y-15433879D02*
X8772205Y-15424356D01*
X8772205Y-15424356D02*
X8800777Y-15424356D01*
X8800777Y-15424356D02*
X8819825Y-15433879D01*
X8819825Y-15433879D02*
X8829348Y-15452927D01*
X8829348Y-15452927D02*
X8829348Y-15557689D01*
X8924586Y-15557689D02*
X8924586Y-15424356D01*
X8924586Y-15443403D02*
X8934110Y-15433879D01*
X8934110Y-15433879D02*
X8953158Y-15424356D01*
X8953158Y-15424356D02*
X8981729Y-15424356D01*
X8981729Y-15424356D02*
X9000777Y-15433879D01*
X9000777Y-15433879D02*
X9010301Y-15452927D01*
X9010301Y-15452927D02*
X9010301Y-15557689D01*
X9010301Y-15452927D02*
X9019825Y-15433879D01*
X9019825Y-15433879D02*
X9038872Y-15424356D01*
X9038872Y-15424356D02*
X9067444Y-15424356D01*
X9067444Y-15424356D02*
X9086491Y-15433879D01*
X9086491Y-15433879D02*
X9096015Y-15452927D01*
X9096015Y-15452927D02*
X9096015Y-15557689D01*
X9486491Y-15348165D02*
X9315063Y-15605308D01*
X9743634Y-15357689D02*
X9762682Y-15357689D01*
X9762682Y-15357689D02*
X9781729Y-15367213D01*
X9781729Y-15367213D02*
X9791253Y-15376737D01*
X9791253Y-15376737D02*
X9800777Y-15395784D01*
X9800777Y-15395784D02*
X9810301Y-15433879D01*
X9810301Y-15433879D02*
X9810301Y-15481498D01*
X9810301Y-15481498D02*
X9800777Y-15519594D01*
X9800777Y-15519594D02*
X9791253Y-15538641D01*
X9791253Y-15538641D02*
X9781729Y-15548165D01*
X9781729Y-15548165D02*
X9762682Y-15557689D01*
X9762682Y-15557689D02*
X9743634Y-15557689D01*
X9743634Y-15557689D02*
X9724587Y-15548165D01*
X9724587Y-15548165D02*
X9715063Y-15538641D01*
X9715063Y-15538641D02*
X9705539Y-15519594D01*
X9705539Y-15519594D02*
X9696015Y-15481498D01*
X9696015Y-15481498D02*
X9696015Y-15433879D01*
X9696015Y-15433879D02*
X9705539Y-15395784D01*
X9705539Y-15395784D02*
X9715063Y-15376737D01*
X9715063Y-15376737D02*
X9724587Y-15367213D01*
X9724587Y-15367213D02*
X9743634Y-15357689D01*
X9896015Y-15538641D02*
X9905539Y-15548165D01*
X9905539Y-15548165D02*
X9896015Y-15557689D01*
X9896015Y-15557689D02*
X9886491Y-15548165D01*
X9886491Y-15548165D02*
X9896015Y-15538641D01*
X9896015Y-15538641D02*
X9896015Y-15557689D01*
X10096015Y-15557689D02*
X9981729Y-15557689D01*
X10038872Y-15557689D02*
X10038872Y-15357689D01*
X10038872Y-15357689D02*
X10019825Y-15386260D01*
X10019825Y-15386260D02*
X10000777Y-15405308D01*
X10000777Y-15405308D02*
X9981729Y-15414832D01*
X10191253Y-15557689D02*
X10229348Y-15557689D01*
X10229348Y-15557689D02*
X10248396Y-15548165D01*
X10248396Y-15548165D02*
X10257920Y-15538641D01*
X10257920Y-15538641D02*
X10276968Y-15510070D01*
X10276968Y-15510070D02*
X10286491Y-15471975D01*
X10286491Y-15471975D02*
X10286491Y-15395784D01*
X10286491Y-15395784D02*
X10276968Y-15376737D01*
X10276968Y-15376737D02*
X10267444Y-15367213D01*
X10267444Y-15367213D02*
X10248396Y-15357689D01*
X10248396Y-15357689D02*
X10210301Y-15357689D01*
X10210301Y-15357689D02*
X10191253Y-15367213D01*
X10191253Y-15367213D02*
X10181729Y-15376737D01*
X10181729Y-15376737D02*
X10172206Y-15395784D01*
X10172206Y-15395784D02*
X10172206Y-15443403D01*
X10172206Y-15443403D02*
X10181729Y-15462451D01*
X10181729Y-15462451D02*
X10191253Y-15471975D01*
X10191253Y-15471975D02*
X10210301Y-15481498D01*
X10210301Y-15481498D02*
X10248396Y-15481498D01*
X10248396Y-15481498D02*
X10267444Y-15471975D01*
X10267444Y-15471975D02*
X10276968Y-15462451D01*
X10276968Y-15462451D02*
X10286491Y-15443403D01*
X10457920Y-15357689D02*
X10419825Y-15357689D01*
X10419825Y-15357689D02*
X10400777Y-15367213D01*
X10400777Y-15367213D02*
X10391253Y-15376737D01*
X10391253Y-15376737D02*
X10372206Y-15405308D01*
X10372206Y-15405308D02*
X10362682Y-15443403D01*
X10362682Y-15443403D02*
X10362682Y-15519594D01*
X10362682Y-15519594D02*
X10372206Y-15538641D01*
X10372206Y-15538641D02*
X10381729Y-15548165D01*
X10381729Y-15548165D02*
X10400777Y-15557689D01*
X10400777Y-15557689D02*
X10438872Y-15557689D01*
X10438872Y-15557689D02*
X10457920Y-15548165D01*
X10457920Y-15548165D02*
X10467444Y-15538641D01*
X10467444Y-15538641D02*
X10476968Y-15519594D01*
X10476968Y-15519594D02*
X10476968Y-15471975D01*
X10476968Y-15471975D02*
X10467444Y-15452927D01*
X10467444Y-15452927D02*
X10457920Y-15443403D01*
X10457920Y-15443403D02*
X10438872Y-15433879D01*
X10438872Y-15433879D02*
X10400777Y-15433879D01*
X10400777Y-15433879D02*
X10381729Y-15443403D01*
X10381729Y-15443403D02*
X10372206Y-15452927D01*
X10372206Y-15452927D02*
X10362682Y-15471975D01*
X10572206Y-15557689D02*
X10610301Y-15557689D01*
X10610301Y-15557689D02*
X10629349Y-15548165D01*
X10629349Y-15548165D02*
X10638872Y-15538641D01*
X10638872Y-15538641D02*
X10657920Y-15510070D01*
X10657920Y-15510070D02*
X10667444Y-15471975D01*
X10667444Y-15471975D02*
X10667444Y-15395784D01*
X10667444Y-15395784D02*
X10657920Y-15376737D01*
X10657920Y-15376737D02*
X10648396Y-15367213D01*
X10648396Y-15367213D02*
X10629349Y-15357689D01*
X10629349Y-15357689D02*
X10591253Y-15357689D01*
X10591253Y-15357689D02*
X10572206Y-15367213D01*
X10572206Y-15367213D02*
X10562682Y-15376737D01*
X10562682Y-15376737D02*
X10553158Y-15395784D01*
X10553158Y-15395784D02*
X10553158Y-15443403D01*
X10553158Y-15443403D02*
X10562682Y-15462451D01*
X10562682Y-15462451D02*
X10572206Y-15471975D01*
X10572206Y-15471975D02*
X10591253Y-15481498D01*
X10591253Y-15481498D02*
X10629349Y-15481498D01*
X10629349Y-15481498D02*
X10648396Y-15471975D01*
X10648396Y-15471975D02*
X10657920Y-15462451D01*
X10657920Y-15462451D02*
X10667444Y-15443403D01*
X10743634Y-15357689D02*
X10743634Y-15395784D01*
X10819825Y-15357689D02*
X10819825Y-15395784D01*
X11115063Y-15633879D02*
X11105539Y-15624356D01*
X11105539Y-15624356D02*
X11086491Y-15595784D01*
X11086491Y-15595784D02*
X11076968Y-15576737D01*
X11076968Y-15576737D02*
X11067444Y-15548165D01*
X11067444Y-15548165D02*
X11057920Y-15500546D01*
X11057920Y-15500546D02*
X11057920Y-15462451D01*
X11057920Y-15462451D02*
X11067444Y-15414832D01*
X11067444Y-15414832D02*
X11076968Y-15386260D01*
X11076968Y-15386260D02*
X11086491Y-15367213D01*
X11086491Y-15367213D02*
X11105539Y-15338641D01*
X11105539Y-15338641D02*
X11115063Y-15329117D01*
X11181730Y-15376737D02*
X11191253Y-15367213D01*
X11191253Y-15367213D02*
X11210301Y-15357689D01*
X11210301Y-15357689D02*
X11257920Y-15357689D01*
X11257920Y-15357689D02*
X11276968Y-15367213D01*
X11276968Y-15367213D02*
X11286491Y-15376737D01*
X11286491Y-15376737D02*
X11296015Y-15395784D01*
X11296015Y-15395784D02*
X11296015Y-15414832D01*
X11296015Y-15414832D02*
X11286491Y-15443403D01*
X11286491Y-15443403D02*
X11172206Y-15557689D01*
X11172206Y-15557689D02*
X11296015Y-15557689D01*
X11486491Y-15557689D02*
X11372206Y-15557689D01*
X11429348Y-15557689D02*
X11429348Y-15357689D01*
X11429348Y-15357689D02*
X11410301Y-15386260D01*
X11410301Y-15386260D02*
X11391253Y-15405308D01*
X11391253Y-15405308D02*
X11372206Y-15414832D01*
X11724587Y-15557689D02*
X11724587Y-15357689D01*
X11810301Y-15557689D02*
X11810301Y-15452927D01*
X11810301Y-15452927D02*
X11800777Y-15433879D01*
X11800777Y-15433879D02*
X11781730Y-15424356D01*
X11781730Y-15424356D02*
X11753158Y-15424356D01*
X11753158Y-15424356D02*
X11734110Y-15433879D01*
X11734110Y-15433879D02*
X11724587Y-15443403D01*
X11934110Y-15557689D02*
X11915063Y-15548165D01*
X11915063Y-15548165D02*
X11905539Y-15538641D01*
X11905539Y-15538641D02*
X11896015Y-15519594D01*
X11896015Y-15519594D02*
X11896015Y-15462451D01*
X11896015Y-15462451D02*
X11905539Y-15443403D01*
X11905539Y-15443403D02*
X11915063Y-15433879D01*
X11915063Y-15433879D02*
X11934110Y-15424356D01*
X11934110Y-15424356D02*
X11962682Y-15424356D01*
X11962682Y-15424356D02*
X11981730Y-15433879D01*
X11981730Y-15433879D02*
X11991253Y-15443403D01*
X11991253Y-15443403D02*
X12000777Y-15462451D01*
X12000777Y-15462451D02*
X12000777Y-15519594D01*
X12000777Y-15519594D02*
X11991253Y-15538641D01*
X11991253Y-15538641D02*
X11981730Y-15548165D01*
X11981730Y-15548165D02*
X11962682Y-15557689D01*
X11962682Y-15557689D02*
X11934110Y-15557689D01*
X12115063Y-15557689D02*
X12096015Y-15548165D01*
X12096015Y-15548165D02*
X12086491Y-15529117D01*
X12086491Y-15529117D02*
X12086491Y-15357689D01*
X12267444Y-15548165D02*
X12248396Y-15557689D01*
X12248396Y-15557689D02*
X12210301Y-15557689D01*
X12210301Y-15557689D02*
X12191253Y-15548165D01*
X12191253Y-15548165D02*
X12181730Y-15529117D01*
X12181730Y-15529117D02*
X12181730Y-15452927D01*
X12181730Y-15452927D02*
X12191253Y-15433879D01*
X12191253Y-15433879D02*
X12210301Y-15424356D01*
X12210301Y-15424356D02*
X12248396Y-15424356D01*
X12248396Y-15424356D02*
X12267444Y-15433879D01*
X12267444Y-15433879D02*
X12276968Y-15452927D01*
X12276968Y-15452927D02*
X12276968Y-15471975D01*
X12276968Y-15471975D02*
X12181730Y-15491022D01*
X12353158Y-15548165D02*
X12372206Y-15557689D01*
X12372206Y-15557689D02*
X12410301Y-15557689D01*
X12410301Y-15557689D02*
X12429349Y-15548165D01*
X12429349Y-15548165D02*
X12438872Y-15529117D01*
X12438872Y-15529117D02*
X12438872Y-15519594D01*
X12438872Y-15519594D02*
X12429349Y-15500546D01*
X12429349Y-15500546D02*
X12410301Y-15491022D01*
X12410301Y-15491022D02*
X12381730Y-15491022D01*
X12381730Y-15491022D02*
X12362682Y-15481498D01*
X12362682Y-15481498D02*
X12353158Y-15462451D01*
X12353158Y-15462451D02*
X12353158Y-15452927D01*
X12353158Y-15452927D02*
X12362682Y-15433879D01*
X12362682Y-15433879D02*
X12381730Y-15424356D01*
X12381730Y-15424356D02*
X12410301Y-15424356D01*
X12410301Y-15424356D02*
X12429349Y-15433879D01*
X12505539Y-15633879D02*
X12515063Y-15624356D01*
X12515063Y-15624356D02*
X12534111Y-15595784D01*
X12534111Y-15595784D02*
X12543634Y-15576737D01*
X12543634Y-15576737D02*
X12553158Y-15548165D01*
X12553158Y-15548165D02*
X12562682Y-15500546D01*
X12562682Y-15500546D02*
X12562682Y-15462451D01*
X12562682Y-15462451D02*
X12553158Y-15414832D01*
X12553158Y-15414832D02*
X12543634Y-15386260D01*
X12543634Y-15386260D02*
X12534111Y-15367213D01*
X12534111Y-15367213D02*
X12515063Y-15338641D01*
X12515063Y-15338641D02*
X12505539Y-15329117D01*
X12867444Y-15633879D02*
X12857920Y-15624356D01*
X12857920Y-15624356D02*
X12838872Y-15595784D01*
X12838872Y-15595784D02*
X12829349Y-15576737D01*
X12829349Y-15576737D02*
X12819825Y-15548165D01*
X12819825Y-15548165D02*
X12810301Y-15500546D01*
X12810301Y-15500546D02*
X12810301Y-15462451D01*
X12810301Y-15462451D02*
X12819825Y-15414832D01*
X12819825Y-15414832D02*
X12829349Y-15386260D01*
X12829349Y-15386260D02*
X12838872Y-15367213D01*
X12838872Y-15367213D02*
X12857920Y-15338641D01*
X12857920Y-15338641D02*
X12867444Y-15329117D01*
X12943634Y-15424356D02*
X12943634Y-15557689D01*
X12943634Y-15443403D02*
X12953158Y-15433879D01*
X12953158Y-15433879D02*
X12972206Y-15424356D01*
X12972206Y-15424356D02*
X13000777Y-15424356D01*
X13000777Y-15424356D02*
X13019825Y-15433879D01*
X13019825Y-15433879D02*
X13029349Y-15452927D01*
X13029349Y-15452927D02*
X13029349Y-15557689D01*
X13153158Y-15557689D02*
X13134111Y-15548165D01*
X13134111Y-15548165D02*
X13124587Y-15538641D01*
X13124587Y-15538641D02*
X13115063Y-15519594D01*
X13115063Y-15519594D02*
X13115063Y-15462451D01*
X13115063Y-15462451D02*
X13124587Y-15443403D01*
X13124587Y-15443403D02*
X13134111Y-15433879D01*
X13134111Y-15433879D02*
X13153158Y-15424356D01*
X13153158Y-15424356D02*
X13181730Y-15424356D01*
X13181730Y-15424356D02*
X13200777Y-15433879D01*
X13200777Y-15433879D02*
X13210301Y-15443403D01*
X13210301Y-15443403D02*
X13219825Y-15462451D01*
X13219825Y-15462451D02*
X13219825Y-15519594D01*
X13219825Y-15519594D02*
X13210301Y-15538641D01*
X13210301Y-15538641D02*
X13200777Y-15548165D01*
X13200777Y-15548165D02*
X13181730Y-15557689D01*
X13181730Y-15557689D02*
X13153158Y-15557689D01*
X13276968Y-15424356D02*
X13353158Y-15424356D01*
X13305539Y-15357689D02*
X13305539Y-15529117D01*
X13305539Y-15529117D02*
X13315063Y-15548165D01*
X13315063Y-15548165D02*
X13334111Y-15557689D01*
X13334111Y-15557689D02*
X13353158Y-15557689D01*
X13572206Y-15424356D02*
X13572206Y-15624356D01*
X13572206Y-15433879D02*
X13591253Y-15424356D01*
X13591253Y-15424356D02*
X13629349Y-15424356D01*
X13629349Y-15424356D02*
X13648396Y-15433879D01*
X13648396Y-15433879D02*
X13657920Y-15443403D01*
X13657920Y-15443403D02*
X13667444Y-15462451D01*
X13667444Y-15462451D02*
X13667444Y-15519594D01*
X13667444Y-15519594D02*
X13657920Y-15538641D01*
X13657920Y-15538641D02*
X13648396Y-15548165D01*
X13648396Y-15548165D02*
X13629349Y-15557689D01*
X13629349Y-15557689D02*
X13591253Y-15557689D01*
X13591253Y-15557689D02*
X13572206Y-15548165D01*
X13781730Y-15557689D02*
X13762682Y-15548165D01*
X13762682Y-15548165D02*
X13753158Y-15529117D01*
X13753158Y-15529117D02*
X13753158Y-15357689D01*
X13943634Y-15557689D02*
X13943634Y-15452927D01*
X13943634Y-15452927D02*
X13934111Y-15433879D01*
X13934111Y-15433879D02*
X13915063Y-15424356D01*
X13915063Y-15424356D02*
X13876968Y-15424356D01*
X13876968Y-15424356D02*
X13857920Y-15433879D01*
X13943634Y-15548165D02*
X13924587Y-15557689D01*
X13924587Y-15557689D02*
X13876968Y-15557689D01*
X13876968Y-15557689D02*
X13857920Y-15548165D01*
X13857920Y-15548165D02*
X13848396Y-15529117D01*
X13848396Y-15529117D02*
X13848396Y-15510070D01*
X13848396Y-15510070D02*
X13857920Y-15491022D01*
X13857920Y-15491022D02*
X13876968Y-15481498D01*
X13876968Y-15481498D02*
X13924587Y-15481498D01*
X13924587Y-15481498D02*
X13943634Y-15471975D01*
X14010301Y-15424356D02*
X14086492Y-15424356D01*
X14038873Y-15357689D02*
X14038873Y-15529117D01*
X14038873Y-15529117D02*
X14048396Y-15548165D01*
X14048396Y-15548165D02*
X14067444Y-15557689D01*
X14067444Y-15557689D02*
X14086492Y-15557689D01*
X14229349Y-15548165D02*
X14210301Y-15557689D01*
X14210301Y-15557689D02*
X14172206Y-15557689D01*
X14172206Y-15557689D02*
X14153158Y-15548165D01*
X14153158Y-15548165D02*
X14143634Y-15529117D01*
X14143634Y-15529117D02*
X14143634Y-15452927D01*
X14143634Y-15452927D02*
X14153158Y-15433879D01*
X14153158Y-15433879D02*
X14172206Y-15424356D01*
X14172206Y-15424356D02*
X14210301Y-15424356D01*
X14210301Y-15424356D02*
X14229349Y-15433879D01*
X14229349Y-15433879D02*
X14238873Y-15452927D01*
X14238873Y-15452927D02*
X14238873Y-15471975D01*
X14238873Y-15471975D02*
X14143634Y-15491022D01*
X14410301Y-15557689D02*
X14410301Y-15357689D01*
X14410301Y-15548165D02*
X14391254Y-15557689D01*
X14391254Y-15557689D02*
X14353158Y-15557689D01*
X14353158Y-15557689D02*
X14334111Y-15548165D01*
X14334111Y-15548165D02*
X14324587Y-15538641D01*
X14324587Y-15538641D02*
X14315063Y-15519594D01*
X14315063Y-15519594D02*
X14315063Y-15462451D01*
X14315063Y-15462451D02*
X14324587Y-15443403D01*
X14324587Y-15443403D02*
X14334111Y-15433879D01*
X14334111Y-15433879D02*
X14353158Y-15424356D01*
X14353158Y-15424356D02*
X14391254Y-15424356D01*
X14391254Y-15424356D02*
X14410301Y-15433879D01*
X14486492Y-15633879D02*
X14496015Y-15624356D01*
X14496015Y-15624356D02*
X14515063Y-15595784D01*
X14515063Y-15595784D02*
X14524587Y-15576737D01*
X14524587Y-15576737D02*
X14534111Y-15548165D01*
X14534111Y-15548165D02*
X14543634Y-15500546D01*
X14543634Y-15500546D02*
X14543634Y-15462451D01*
X14543634Y-15462451D02*
X14534111Y-15414832D01*
X14534111Y-15414832D02*
X14524587Y-15386260D01*
X14524587Y-15386260D02*
X14515063Y-15367213D01*
X14515063Y-15367213D02*
X14496015Y-15338641D01*
X14496015Y-15338641D02*
X14486492Y-15329117D01*
X7510711Y-15856917D02*
X7510711Y-15715494D01*
X7369289Y-15715494D01*
X7369289Y-15856917D01*
X7510711Y-15856917D01*
X7896015Y-15677689D02*
X7800777Y-15677689D01*
X7800777Y-15677689D02*
X7791253Y-15772927D01*
X7791253Y-15772927D02*
X7800777Y-15763403D01*
X7800777Y-15763403D02*
X7819824Y-15753879D01*
X7819824Y-15753879D02*
X7867443Y-15753879D01*
X7867443Y-15753879D02*
X7886491Y-15763403D01*
X7886491Y-15763403D02*
X7896015Y-15772927D01*
X7896015Y-15772927D02*
X7905539Y-15791975D01*
X7905539Y-15791975D02*
X7905539Y-15839594D01*
X7905539Y-15839594D02*
X7896015Y-15858641D01*
X7896015Y-15858641D02*
X7886491Y-15868165D01*
X7886491Y-15868165D02*
X7867443Y-15877689D01*
X7867443Y-15877689D02*
X7819824Y-15877689D01*
X7819824Y-15877689D02*
X7800777Y-15868165D01*
X7800777Y-15868165D02*
X7791253Y-15858641D01*
X7991253Y-15858641D02*
X8000777Y-15868165D01*
X8000777Y-15868165D02*
X7991253Y-15877689D01*
X7991253Y-15877689D02*
X7981729Y-15868165D01*
X7981729Y-15868165D02*
X7991253Y-15858641D01*
X7991253Y-15858641D02*
X7991253Y-15877689D01*
X8067443Y-15677689D02*
X8200777Y-15677689D01*
X8200777Y-15677689D02*
X8115062Y-15877689D01*
X8315062Y-15677689D02*
X8334110Y-15677689D01*
X8334110Y-15677689D02*
X8353158Y-15687213D01*
X8353158Y-15687213D02*
X8362682Y-15696737D01*
X8362682Y-15696737D02*
X8372205Y-15715784D01*
X8372205Y-15715784D02*
X8381729Y-15753879D01*
X8381729Y-15753879D02*
X8381729Y-15801498D01*
X8381729Y-15801498D02*
X8372205Y-15839594D01*
X8372205Y-15839594D02*
X8362682Y-15858641D01*
X8362682Y-15858641D02*
X8353158Y-15868165D01*
X8353158Y-15868165D02*
X8334110Y-15877689D01*
X8334110Y-15877689D02*
X8315062Y-15877689D01*
X8315062Y-15877689D02*
X8296015Y-15868165D01*
X8296015Y-15868165D02*
X8286491Y-15858641D01*
X8286491Y-15858641D02*
X8276967Y-15839594D01*
X8276967Y-15839594D02*
X8267443Y-15801498D01*
X8267443Y-15801498D02*
X8267443Y-15753879D01*
X8267443Y-15753879D02*
X8276967Y-15715784D01*
X8276967Y-15715784D02*
X8286491Y-15696737D01*
X8286491Y-15696737D02*
X8296015Y-15687213D01*
X8296015Y-15687213D02*
X8315062Y-15677689D01*
X8505539Y-15677689D02*
X8524586Y-15677689D01*
X8524586Y-15677689D02*
X8543634Y-15687213D01*
X8543634Y-15687213D02*
X8553158Y-15696737D01*
X8553158Y-15696737D02*
X8562682Y-15715784D01*
X8562682Y-15715784D02*
X8572205Y-15753879D01*
X8572205Y-15753879D02*
X8572205Y-15801498D01*
X8572205Y-15801498D02*
X8562682Y-15839594D01*
X8562682Y-15839594D02*
X8553158Y-15858641D01*
X8553158Y-15858641D02*
X8543634Y-15868165D01*
X8543634Y-15868165D02*
X8524586Y-15877689D01*
X8524586Y-15877689D02*
X8505539Y-15877689D01*
X8505539Y-15877689D02*
X8486491Y-15868165D01*
X8486491Y-15868165D02*
X8476967Y-15858641D01*
X8476967Y-15858641D02*
X8467444Y-15839594D01*
X8467444Y-15839594D02*
X8457920Y-15801498D01*
X8457920Y-15801498D02*
X8457920Y-15753879D01*
X8457920Y-15753879D02*
X8467444Y-15715784D01*
X8467444Y-15715784D02*
X8476967Y-15696737D01*
X8476967Y-15696737D02*
X8486491Y-15687213D01*
X8486491Y-15687213D02*
X8505539Y-15677689D01*
X8657920Y-15877689D02*
X8657920Y-15744356D01*
X8657920Y-15763403D02*
X8667444Y-15753879D01*
X8667444Y-15753879D02*
X8686491Y-15744356D01*
X8686491Y-15744356D02*
X8715063Y-15744356D01*
X8715063Y-15744356D02*
X8734110Y-15753879D01*
X8734110Y-15753879D02*
X8743634Y-15772927D01*
X8743634Y-15772927D02*
X8743634Y-15877689D01*
X8743634Y-15772927D02*
X8753158Y-15753879D01*
X8753158Y-15753879D02*
X8772205Y-15744356D01*
X8772205Y-15744356D02*
X8800777Y-15744356D01*
X8800777Y-15744356D02*
X8819825Y-15753879D01*
X8819825Y-15753879D02*
X8829348Y-15772927D01*
X8829348Y-15772927D02*
X8829348Y-15877689D01*
X8924586Y-15877689D02*
X8924586Y-15744356D01*
X8924586Y-15763403D02*
X8934110Y-15753879D01*
X8934110Y-15753879D02*
X8953158Y-15744356D01*
X8953158Y-15744356D02*
X8981729Y-15744356D01*
X8981729Y-15744356D02*
X9000777Y-15753879D01*
X9000777Y-15753879D02*
X9010301Y-15772927D01*
X9010301Y-15772927D02*
X9010301Y-15877689D01*
X9010301Y-15772927D02*
X9019825Y-15753879D01*
X9019825Y-15753879D02*
X9038872Y-15744356D01*
X9038872Y-15744356D02*
X9067444Y-15744356D01*
X9067444Y-15744356D02*
X9086491Y-15753879D01*
X9086491Y-15753879D02*
X9096015Y-15772927D01*
X9096015Y-15772927D02*
X9096015Y-15877689D01*
X9486491Y-15668165D02*
X9315063Y-15925308D01*
X9743634Y-15677689D02*
X9762682Y-15677689D01*
X9762682Y-15677689D02*
X9781729Y-15687213D01*
X9781729Y-15687213D02*
X9791253Y-15696737D01*
X9791253Y-15696737D02*
X9800777Y-15715784D01*
X9800777Y-15715784D02*
X9810301Y-15753879D01*
X9810301Y-15753879D02*
X9810301Y-15801498D01*
X9810301Y-15801498D02*
X9800777Y-15839594D01*
X9800777Y-15839594D02*
X9791253Y-15858641D01*
X9791253Y-15858641D02*
X9781729Y-15868165D01*
X9781729Y-15868165D02*
X9762682Y-15877689D01*
X9762682Y-15877689D02*
X9743634Y-15877689D01*
X9743634Y-15877689D02*
X9724587Y-15868165D01*
X9724587Y-15868165D02*
X9715063Y-15858641D01*
X9715063Y-15858641D02*
X9705539Y-15839594D01*
X9705539Y-15839594D02*
X9696015Y-15801498D01*
X9696015Y-15801498D02*
X9696015Y-15753879D01*
X9696015Y-15753879D02*
X9705539Y-15715784D01*
X9705539Y-15715784D02*
X9715063Y-15696737D01*
X9715063Y-15696737D02*
X9724587Y-15687213D01*
X9724587Y-15687213D02*
X9743634Y-15677689D01*
X9896015Y-15858641D02*
X9905539Y-15868165D01*
X9905539Y-15868165D02*
X9896015Y-15877689D01*
X9896015Y-15877689D02*
X9886491Y-15868165D01*
X9886491Y-15868165D02*
X9896015Y-15858641D01*
X9896015Y-15858641D02*
X9896015Y-15877689D01*
X9981729Y-15696737D02*
X9991253Y-15687213D01*
X9991253Y-15687213D02*
X10010301Y-15677689D01*
X10010301Y-15677689D02*
X10057920Y-15677689D01*
X10057920Y-15677689D02*
X10076968Y-15687213D01*
X10076968Y-15687213D02*
X10086491Y-15696737D01*
X10086491Y-15696737D02*
X10096015Y-15715784D01*
X10096015Y-15715784D02*
X10096015Y-15734832D01*
X10096015Y-15734832D02*
X10086491Y-15763403D01*
X10086491Y-15763403D02*
X9972206Y-15877689D01*
X9972206Y-15877689D02*
X10096015Y-15877689D01*
X10172206Y-15696737D02*
X10181729Y-15687213D01*
X10181729Y-15687213D02*
X10200777Y-15677689D01*
X10200777Y-15677689D02*
X10248396Y-15677689D01*
X10248396Y-15677689D02*
X10267444Y-15687213D01*
X10267444Y-15687213D02*
X10276968Y-15696737D01*
X10276968Y-15696737D02*
X10286491Y-15715784D01*
X10286491Y-15715784D02*
X10286491Y-15734832D01*
X10286491Y-15734832D02*
X10276968Y-15763403D01*
X10276968Y-15763403D02*
X10162682Y-15877689D01*
X10162682Y-15877689D02*
X10286491Y-15877689D01*
X10457920Y-15744356D02*
X10457920Y-15877689D01*
X10410301Y-15668165D02*
X10362682Y-15811022D01*
X10362682Y-15811022D02*
X10486491Y-15811022D01*
X10648396Y-15744356D02*
X10648396Y-15877689D01*
X10600777Y-15668165D02*
X10553158Y-15811022D01*
X10553158Y-15811022D02*
X10676968Y-15811022D01*
X10743634Y-15677689D02*
X10743634Y-15715784D01*
X10819825Y-15677689D02*
X10819825Y-15715784D01*
X11115063Y-15953879D02*
X11105539Y-15944356D01*
X11105539Y-15944356D02*
X11086491Y-15915784D01*
X11086491Y-15915784D02*
X11076968Y-15896737D01*
X11076968Y-15896737D02*
X11067444Y-15868165D01*
X11067444Y-15868165D02*
X11057920Y-15820546D01*
X11057920Y-15820546D02*
X11057920Y-15782451D01*
X11057920Y-15782451D02*
X11067444Y-15734832D01*
X11067444Y-15734832D02*
X11076968Y-15706260D01*
X11076968Y-15706260D02*
X11086491Y-15687213D01*
X11086491Y-15687213D02*
X11105539Y-15658641D01*
X11105539Y-15658641D02*
X11115063Y-15649117D01*
X11276968Y-15744356D02*
X11276968Y-15877689D01*
X11229348Y-15668165D02*
X11181730Y-15811022D01*
X11181730Y-15811022D02*
X11305539Y-15811022D01*
X11534110Y-15877689D02*
X11534110Y-15677689D01*
X11619825Y-15877689D02*
X11619825Y-15772927D01*
X11619825Y-15772927D02*
X11610301Y-15753879D01*
X11610301Y-15753879D02*
X11591253Y-15744356D01*
X11591253Y-15744356D02*
X11562682Y-15744356D01*
X11562682Y-15744356D02*
X11543634Y-15753879D01*
X11543634Y-15753879D02*
X11534110Y-15763403D01*
X11743634Y-15877689D02*
X11724587Y-15868165D01*
X11724587Y-15868165D02*
X11715063Y-15858641D01*
X11715063Y-15858641D02*
X11705539Y-15839594D01*
X11705539Y-15839594D02*
X11705539Y-15782451D01*
X11705539Y-15782451D02*
X11715063Y-15763403D01*
X11715063Y-15763403D02*
X11724587Y-15753879D01*
X11724587Y-15753879D02*
X11743634Y-15744356D01*
X11743634Y-15744356D02*
X11772206Y-15744356D01*
X11772206Y-15744356D02*
X11791253Y-15753879D01*
X11791253Y-15753879D02*
X11800777Y-15763403D01*
X11800777Y-15763403D02*
X11810301Y-15782451D01*
X11810301Y-15782451D02*
X11810301Y-15839594D01*
X11810301Y-15839594D02*
X11800777Y-15858641D01*
X11800777Y-15858641D02*
X11791253Y-15868165D01*
X11791253Y-15868165D02*
X11772206Y-15877689D01*
X11772206Y-15877689D02*
X11743634Y-15877689D01*
X11924587Y-15877689D02*
X11905539Y-15868165D01*
X11905539Y-15868165D02*
X11896015Y-15849117D01*
X11896015Y-15849117D02*
X11896015Y-15677689D01*
X12076968Y-15868165D02*
X12057920Y-15877689D01*
X12057920Y-15877689D02*
X12019825Y-15877689D01*
X12019825Y-15877689D02*
X12000777Y-15868165D01*
X12000777Y-15868165D02*
X11991253Y-15849117D01*
X11991253Y-15849117D02*
X11991253Y-15772927D01*
X11991253Y-15772927D02*
X12000777Y-15753879D01*
X12000777Y-15753879D02*
X12019825Y-15744356D01*
X12019825Y-15744356D02*
X12057920Y-15744356D01*
X12057920Y-15744356D02*
X12076968Y-15753879D01*
X12076968Y-15753879D02*
X12086491Y-15772927D01*
X12086491Y-15772927D02*
X12086491Y-15791975D01*
X12086491Y-15791975D02*
X11991253Y-15811022D01*
X12162682Y-15868165D02*
X12181730Y-15877689D01*
X12181730Y-15877689D02*
X12219825Y-15877689D01*
X12219825Y-15877689D02*
X12238872Y-15868165D01*
X12238872Y-15868165D02*
X12248396Y-15849117D01*
X12248396Y-15849117D02*
X12248396Y-15839594D01*
X12248396Y-15839594D02*
X12238872Y-15820546D01*
X12238872Y-15820546D02*
X12219825Y-15811022D01*
X12219825Y-15811022D02*
X12191253Y-15811022D01*
X12191253Y-15811022D02*
X12172206Y-15801498D01*
X12172206Y-15801498D02*
X12162682Y-15782451D01*
X12162682Y-15782451D02*
X12162682Y-15772927D01*
X12162682Y-15772927D02*
X12172206Y-15753879D01*
X12172206Y-15753879D02*
X12191253Y-15744356D01*
X12191253Y-15744356D02*
X12219825Y-15744356D01*
X12219825Y-15744356D02*
X12238872Y-15753879D01*
X12315063Y-15953879D02*
X12324587Y-15944356D01*
X12324587Y-15944356D02*
X12343634Y-15915784D01*
X12343634Y-15915784D02*
X12353158Y-15896737D01*
X12353158Y-15896737D02*
X12362682Y-15868165D01*
X12362682Y-15868165D02*
X12372206Y-15820546D01*
X12372206Y-15820546D02*
X12372206Y-15782451D01*
X12372206Y-15782451D02*
X12362682Y-15734832D01*
X12362682Y-15734832D02*
X12353158Y-15706260D01*
X12353158Y-15706260D02*
X12343634Y-15687213D01*
X12343634Y-15687213D02*
X12324587Y-15658641D01*
X12324587Y-15658641D02*
X12315063Y-15649117D01*
X12676968Y-15953879D02*
X12667444Y-15944356D01*
X12667444Y-15944356D02*
X12648396Y-15915784D01*
X12648396Y-15915784D02*
X12638872Y-15896737D01*
X12638872Y-15896737D02*
X12629349Y-15868165D01*
X12629349Y-15868165D02*
X12619825Y-15820546D01*
X12619825Y-15820546D02*
X12619825Y-15782451D01*
X12619825Y-15782451D02*
X12629349Y-15734832D01*
X12629349Y-15734832D02*
X12638872Y-15706260D01*
X12638872Y-15706260D02*
X12648396Y-15687213D01*
X12648396Y-15687213D02*
X12667444Y-15658641D01*
X12667444Y-15658641D02*
X12676968Y-15649117D01*
X12753158Y-15744356D02*
X12753158Y-15877689D01*
X12753158Y-15763403D02*
X12762682Y-15753879D01*
X12762682Y-15753879D02*
X12781730Y-15744356D01*
X12781730Y-15744356D02*
X12810301Y-15744356D01*
X12810301Y-15744356D02*
X12829349Y-15753879D01*
X12829349Y-15753879D02*
X12838872Y-15772927D01*
X12838872Y-15772927D02*
X12838872Y-15877689D01*
X12962682Y-15877689D02*
X12943634Y-15868165D01*
X12943634Y-15868165D02*
X12934111Y-15858641D01*
X12934111Y-15858641D02*
X12924587Y-15839594D01*
X12924587Y-15839594D02*
X12924587Y-15782451D01*
X12924587Y-15782451D02*
X12934111Y-15763403D01*
X12934111Y-15763403D02*
X12943634Y-15753879D01*
X12943634Y-15753879D02*
X12962682Y-15744356D01*
X12962682Y-15744356D02*
X12991253Y-15744356D01*
X12991253Y-15744356D02*
X13010301Y-15753879D01*
X13010301Y-15753879D02*
X13019825Y-15763403D01*
X13019825Y-15763403D02*
X13029349Y-15782451D01*
X13029349Y-15782451D02*
X13029349Y-15839594D01*
X13029349Y-15839594D02*
X13019825Y-15858641D01*
X13019825Y-15858641D02*
X13010301Y-15868165D01*
X13010301Y-15868165D02*
X12991253Y-15877689D01*
X12991253Y-15877689D02*
X12962682Y-15877689D01*
X13086492Y-15744356D02*
X13162682Y-15744356D01*
X13115063Y-15677689D02*
X13115063Y-15849117D01*
X13115063Y-15849117D02*
X13124587Y-15868165D01*
X13124587Y-15868165D02*
X13143634Y-15877689D01*
X13143634Y-15877689D02*
X13162682Y-15877689D01*
X13381730Y-15744356D02*
X13381730Y-15944356D01*
X13381730Y-15753879D02*
X13400777Y-15744356D01*
X13400777Y-15744356D02*
X13438873Y-15744356D01*
X13438873Y-15744356D02*
X13457920Y-15753879D01*
X13457920Y-15753879D02*
X13467444Y-15763403D01*
X13467444Y-15763403D02*
X13476968Y-15782451D01*
X13476968Y-15782451D02*
X13476968Y-15839594D01*
X13476968Y-15839594D02*
X13467444Y-15858641D01*
X13467444Y-15858641D02*
X13457920Y-15868165D01*
X13457920Y-15868165D02*
X13438873Y-15877689D01*
X13438873Y-15877689D02*
X13400777Y-15877689D01*
X13400777Y-15877689D02*
X13381730Y-15868165D01*
X13591253Y-15877689D02*
X13572206Y-15868165D01*
X13572206Y-15868165D02*
X13562682Y-15849117D01*
X13562682Y-15849117D02*
X13562682Y-15677689D01*
X13753158Y-15877689D02*
X13753158Y-15772927D01*
X13753158Y-15772927D02*
X13743634Y-15753879D01*
X13743634Y-15753879D02*
X13724587Y-15744356D01*
X13724587Y-15744356D02*
X13686492Y-15744356D01*
X13686492Y-15744356D02*
X13667444Y-15753879D01*
X13753158Y-15868165D02*
X13734111Y-15877689D01*
X13734111Y-15877689D02*
X13686492Y-15877689D01*
X13686492Y-15877689D02*
X13667444Y-15868165D01*
X13667444Y-15868165D02*
X13657920Y-15849117D01*
X13657920Y-15849117D02*
X13657920Y-15830070D01*
X13657920Y-15830070D02*
X13667444Y-15811022D01*
X13667444Y-15811022D02*
X13686492Y-15801498D01*
X13686492Y-15801498D02*
X13734111Y-15801498D01*
X13734111Y-15801498D02*
X13753158Y-15791975D01*
X13819825Y-15744356D02*
X13896015Y-15744356D01*
X13848396Y-15677689D02*
X13848396Y-15849117D01*
X13848396Y-15849117D02*
X13857920Y-15868165D01*
X13857920Y-15868165D02*
X13876968Y-15877689D01*
X13876968Y-15877689D02*
X13896015Y-15877689D01*
X14038873Y-15868165D02*
X14019825Y-15877689D01*
X14019825Y-15877689D02*
X13981730Y-15877689D01*
X13981730Y-15877689D02*
X13962682Y-15868165D01*
X13962682Y-15868165D02*
X13953158Y-15849117D01*
X13953158Y-15849117D02*
X13953158Y-15772927D01*
X13953158Y-15772927D02*
X13962682Y-15753879D01*
X13962682Y-15753879D02*
X13981730Y-15744356D01*
X13981730Y-15744356D02*
X14019825Y-15744356D01*
X14019825Y-15744356D02*
X14038873Y-15753879D01*
X14038873Y-15753879D02*
X14048396Y-15772927D01*
X14048396Y-15772927D02*
X14048396Y-15791975D01*
X14048396Y-15791975D02*
X13953158Y-15811022D01*
X14219825Y-15877689D02*
X14219825Y-15677689D01*
X14219825Y-15868165D02*
X14200777Y-15877689D01*
X14200777Y-15877689D02*
X14162682Y-15877689D01*
X14162682Y-15877689D02*
X14143634Y-15868165D01*
X14143634Y-15868165D02*
X14134111Y-15858641D01*
X14134111Y-15858641D02*
X14124587Y-15839594D01*
X14124587Y-15839594D02*
X14124587Y-15782451D01*
X14124587Y-15782451D02*
X14134111Y-15763403D01*
X14134111Y-15763403D02*
X14143634Y-15753879D01*
X14143634Y-15753879D02*
X14162682Y-15744356D01*
X14162682Y-15744356D02*
X14200777Y-15744356D01*
X14200777Y-15744356D02*
X14219825Y-15753879D01*
X14296015Y-15953879D02*
X14305539Y-15944356D01*
X14305539Y-15944356D02*
X14324587Y-15915784D01*
X14324587Y-15915784D02*
X14334111Y-15896737D01*
X14334111Y-15896737D02*
X14343634Y-15868165D01*
X14343634Y-15868165D02*
X14353158Y-15820546D01*
X14353158Y-15820546D02*
X14353158Y-15782451D01*
X14353158Y-15782451D02*
X14343634Y-15734832D01*
X14343634Y-15734832D02*
X14334111Y-15706260D01*
X14334111Y-15706260D02*
X14324587Y-15687213D01*
X14324587Y-15687213D02*
X14305539Y-15658641D01*
X14305539Y-15658641D02*
X14296015Y-15649117D01*
M02*
