%TF.GenerationSoftware,KiCad,Pcbnew,8.0.4*%
%TF.CreationDate,2024-08-31T02:58:31+03:00*%
%TF.ProjectId,pcb,7063622e-6b69-4636-9164-5f7063625858,rev?*%
%TF.SameCoordinates,Original*%
%TF.FileFunction,Paste,Bot*%
%TF.FilePolarity,Positive*%
%FSLAX46Y46*%
G04 Gerber Fmt 4.6, Leading zero omitted, Abs format (unit mm)*
G04 Created by KiCad (PCBNEW 8.0.4) date 2024-08-31 02:58:31*
%MOMM*%
%LPD*%
G01*
G04 APERTURE LIST*
G04 Aperture macros list*
%AMRoundRect*
0 Rectangle with rounded corners*
0 $1 Rounding radius*
0 $2 $3 $4 $5 $6 $7 $8 $9 X,Y pos of 4 corners*
0 Add a 4 corners polygon primitive as box body*
4,1,4,$2,$3,$4,$5,$6,$7,$8,$9,$2,$3,0*
0 Add four circle primitives for the rounded corners*
1,1,$1+$1,$2,$3*
1,1,$1+$1,$4,$5*
1,1,$1+$1,$6,$7*
1,1,$1+$1,$8,$9*
0 Add four rect primitives between the rounded corners*
20,1,$1+$1,$2,$3,$4,$5,0*
20,1,$1+$1,$4,$5,$6,$7,0*
20,1,$1+$1,$6,$7,$8,$9,0*
20,1,$1+$1,$8,$9,$2,$3,0*%
%AMRotRect*
0 Rectangle, with rotation*
0 The origin of the aperture is its center*
0 $1 length*
0 $2 width*
0 $3 Rotation angle, in degrees counterclockwise*
0 Add horizontal line*
21,1,$1,$2,0,0,$3*%
%AMOutline5P*
0 Free polygon, 5 corners , with rotation*
0 The origin of the aperture is its center*
0 number of corners: always 5*
0 $1 to $10 corner X, Y*
0 $11 Rotation angle, in degrees counterclockwise*
0 create outline with 5 corners*
4,1,5,$1,$2,$3,$4,$5,$6,$7,$8,$9,$10,$1,$2,$11*%
%AMOutline6P*
0 Free polygon, 6 corners , with rotation*
0 The origin of the aperture is its center*
0 number of corners: always 6*
0 $1 to $12 corner X, Y*
0 $13 Rotation angle, in degrees counterclockwise*
0 create outline with 6 corners*
4,1,6,$1,$2,$3,$4,$5,$6,$7,$8,$9,$10,$11,$12,$1,$2,$13*%
%AMOutline7P*
0 Free polygon, 7 corners , with rotation*
0 The origin of the aperture is its center*
0 number of corners: always 7*
0 $1 to $14 corner X, Y*
0 $15 Rotation angle, in degrees counterclockwise*
0 create outline with 7 corners*
4,1,7,$1,$2,$3,$4,$5,$6,$7,$8,$9,$10,$11,$12,$13,$14,$1,$2,$15*%
%AMOutline8P*
0 Free polygon, 8 corners , with rotation*
0 The origin of the aperture is its center*
0 number of corners: always 8*
0 $1 to $16 corner X, Y*
0 $17 Rotation angle, in degrees counterclockwise*
0 create outline with 8 corners*
4,1,8,$1,$2,$3,$4,$5,$6,$7,$8,$9,$10,$11,$12,$13,$14,$15,$16,$1,$2,$17*%
G04 Aperture macros list end*
%ADD10RotRect,2.000000X2.500000X330.000000*%
%ADD11R,2.000000X2.500000*%
%ADD12RotRect,2.000000X2.500000X345.000000*%
%ADD13RoundRect,0.150000X-0.625000X0.150000X-0.625000X-0.150000X0.625000X-0.150000X0.625000X0.150000X0*%
%ADD14RoundRect,0.250000X-0.650000X0.350000X-0.650000X-0.350000X0.650000X-0.350000X0.650000X0.350000X0*%
%ADD15RotRect,1.425000X1.300000X165.000000*%
%ADD16R,1.425000X1.300000*%
%ADD17RotRect,1.425000X1.300000X150.000000*%
%ADD18O,2.750000X1.800000*%
%ADD19RoundRect,0.222222X-0.787153X-0.577778X0.787153X-0.577778X0.787153X0.577778X-0.787153X0.577778X0*%
%ADD20RoundRect,0.222222X-0.777778X-0.577778X0.777778X-0.577778X0.777778X0.577778X-0.777778X0.577778X0*%
%ADD21R,1.000000X0.800000*%
%ADD22R,0.700000X1.280000*%
%ADD23Outline5P,-0.350000X0.640000X0.350000X0.640000X0.350000X-0.640000X-0.070000X-0.640000X-0.350000X-0.360000X0.000000*%
G04 APERTURE END LIST*
D10*
X182199061Y-130489492D03*
X193971622Y-138498819D03*
D11*
X114500000Y-87640970D03*
X128700000Y-88690970D03*
D12*
X163191220Y-124992485D03*
X176635607Y-129681938D03*
D13*
X206500000Y-80615970D03*
X206500000Y-79615970D03*
D14*
X202625000Y-78315970D03*
X202625000Y-81915970D03*
D11*
X95500000Y-80790970D03*
X109700000Y-81840970D03*
X76500000Y-99790970D03*
X90700000Y-100840970D03*
X152500000Y-67940970D03*
X166700000Y-68990970D03*
X114500000Y-106640970D03*
X128700000Y-107690970D03*
X171500000Y-88315970D03*
X185700000Y-89365970D03*
X171500000Y-69315970D03*
X185700000Y-70365970D03*
X152500000Y-105940970D03*
X166700000Y-106990970D03*
X152500000Y-86940970D03*
X166700000Y-87990970D03*
X114500000Y-68640970D03*
X128700000Y-69690970D03*
X171500000Y-107315970D03*
X185700000Y-108365970D03*
X95500000Y-99790970D03*
X109700000Y-100840970D03*
X133500000Y-62565970D03*
X147700000Y-63615970D03*
X143500000Y-124440700D03*
X157700000Y-125490700D03*
X76500000Y-80790970D03*
X90700000Y-81840970D03*
X133500000Y-100565970D03*
X147700000Y-101615970D03*
X95500000Y-118790970D03*
X109700000Y-119840970D03*
X76500000Y-118790970D03*
X90700000Y-119840970D03*
X133500000Y-81565970D03*
X147700000Y-82615970D03*
D15*
X175526592Y-116962639D03*
X172073408Y-116037361D03*
D16*
X181287500Y-96400000D03*
X177712500Y-96400000D03*
D17*
X196448020Y-126093750D03*
X193351980Y-124306250D03*
D16*
X153287500Y-113500000D03*
X149712500Y-113500000D03*
X105487500Y-86400000D03*
X101912500Y-86400000D03*
X105419500Y-90297000D03*
X101844500Y-90297000D03*
X162287500Y-95000000D03*
X158712500Y-95000000D03*
X181287500Y-74900000D03*
X177712500Y-74900000D03*
X86115500Y-90170000D03*
X82540500Y-90170000D03*
X181287500Y-78800000D03*
X177712500Y-78800000D03*
X143287500Y-68200000D03*
X139712500Y-68200000D03*
X143287500Y-72100000D03*
X139712500Y-72100000D03*
D18*
X208594960Y-58496046D03*
X208594960Y-61036046D03*
X208594960Y-63576046D03*
X208594960Y-66116046D03*
X208594960Y-68656046D03*
X208594960Y-71196046D03*
X208594960Y-73736046D03*
X192405040Y-73736046D03*
X192405040Y-71196046D03*
X192405040Y-68656046D03*
X192405040Y-66116046D03*
X192405040Y-63576046D03*
X192405040Y-61036046D03*
X192405040Y-58496046D03*
D19*
X205309375Y-65716046D03*
X195690625Y-65716046D03*
X205309375Y-63716046D03*
D20*
X195700000Y-63716046D03*
D16*
X162287500Y-73600000D03*
X158712500Y-73600000D03*
X124287500Y-74200000D03*
X120712500Y-74200000D03*
X143287500Y-89600000D03*
X139712500Y-89600000D03*
X86287500Y-107900000D03*
X82712500Y-107900000D03*
X162287500Y-77700000D03*
X158712500Y-77700000D03*
D21*
X184150000Y-58300970D03*
X184150000Y-56080970D03*
X176850000Y-58300970D03*
X176850000Y-56080970D03*
D22*
X182750000Y-59060970D03*
D23*
X181250000Y-59060970D03*
D22*
X178250000Y-59060970D03*
D16*
X124287500Y-78200000D03*
X120712500Y-78200000D03*
X86287500Y-86360000D03*
X82712500Y-86360000D03*
X124287500Y-95700000D03*
X120712500Y-95700000D03*
X105287500Y-107800000D03*
X101712500Y-107800000D03*
M02*
