M48
; DRILL file {KiCad 8.0.5} date 2024-10-07T05:56:58+0300
; FORMAT={-:-/ absolute / inch / decimal}
; #@! TF.CreationDate,2024-10-07T05:56:58+03:00
; #@! TF.GenerationSoftware,Kicad,Pcbnew,8.0.5
; #@! TF.FileFunction,Plated,1,2,PTH
FMAT,2
INCH
; #@! TA.AperFunction,Plated,PTH,ViaDrill
T1C0.0157
; #@! TA.AperFunction,Plated,PTH,ComponentDrill
T2C0.0197
; #@! TA.AperFunction,Plated,PTH,ComponentDrill
T3C0.0300
%
G90
G05
T1
X3.0748Y-4.5787
X3.075Y-3.835
X3.0866Y-3.3189
X3.1684Y-3.4007
X3.17Y-4.26
X3.1772Y-3.5512
X3.43Y-3.61
X3.48Y-3.41
X3.4843Y-4.2795
X3.5827Y-3.8422
X3.5827Y-4.5902
X3.6748Y-3.0748
X3.7598Y-3.8228
X3.8268Y-4.5748
X3.885Y-3.33
X3.92Y-4.255
X3.9252Y-3.3898
X3.937Y-3.5591
X4.195Y-3.615
X4.205Y-3.47
X4.23Y-4.275
X4.3307Y-3.291
X4.3307Y-3.8422
X4.3307Y-4.5902
X4.5079Y-3.3425
X4.5079Y-4.1102
X4.5748Y-2.8386
X4.6654Y-2.9094
X4.6654Y-3.7835
X4.69Y-3.085
X4.9606Y-3.0787
X4.9803Y-3.7677
X4.9843Y-2.9291
X5.0787Y-2.8126
X5.0787Y-3.3638
X5.0787Y-4.1118
X5.2559Y-2.6128
X5.2559Y-3.825
X5.265Y-3.12
X5.4016Y-2.6811
X5.4134Y-2.8346
X5.4173Y-3.5709
X5.7047Y-4.7953
X5.725Y-3.615
X5.7283Y-2.7113
X5.735Y-2.86
X5.815Y-4.5
X5.8268Y-2.6181
X5.8268Y-3.8661
X5.8858Y-3.3031
X5.9488Y-2.7598
X6.0049Y-3.245
X6.0433Y-4.0551
X6.07Y-4.4
X6.1496Y-3.7756
X6.15Y-2.9105
X6.15Y-3.08
X6.2205Y-4.8126
X6.4567Y-4.8071
X6.4764Y-2.8543
X6.4764Y-3.7362
X6.4803Y-3.0548
X6.5748Y-3.2969
X6.5748Y-4.0449
X6.63Y-2.5976
X6.6929Y-4.5748
X6.725Y-2.485
X6.752Y-3.374
X6.752Y-4.122
X6.845Y-2.365
X6.88Y-2.85
X6.8976Y-3.8031
X6.9134Y-3.0945
X6.915Y-2.935
X6.9608Y-4.4958
X7.0147Y-5.0046
X7.2241Y-3.105
X7.2323Y-2.9567
X7.2323Y-3.7953
X7.26Y-2.525
X7.275Y-2.43
X7.275Y-2.87
X7.275Y-3.34
X7.2756Y-5.0748
X7.305Y-3.25
X7.3228Y-4.1384
X7.34Y-2.905
X7.345Y-3.215
X7.35Y-2.4
X7.38Y-3.19
X7.41Y-2.425
X7.41Y-2.47
X7.41Y-2.52
X7.41Y-2.571
X7.41Y-2.625
X7.415Y-3.155
X7.49Y-3.16
X7.54Y-2.975
X7.545Y-4.855
X7.695Y-5.025
X7.7677Y-5.3504
X7.775Y-3.155
X8.055Y-3.125
X8.24Y-3.0972
X8.245Y-2.995
X8.245Y-3.05
T2
X7.4803Y-2.2526
X8.3071Y-2.2526
T3
X7.7183Y-4.6774
X8.0017Y-4.6774
M30
