%TF.GenerationSoftware,KiCad,Pcbnew,8.0.5*%
%TF.CreationDate,2024-10-07T20:22:22+03:00*%
%TF.ProjectId,pcb,7063622e-6b69-4636-9164-5f7063625858,rev?*%
%TF.SameCoordinates,Original*%
%TF.FileFunction,Soldermask,Top*%
%TF.FilePolarity,Negative*%
%FSLAX46Y46*%
G04 Gerber Fmt 4.6, Leading zero omitted, Abs format (unit mm)*
G04 Created by KiCad (PCBNEW 8.0.5) date 2024-10-07 20:22:22*
%MOMM*%
%LPD*%
G01*
G04 APERTURE LIST*
G04 Aperture macros list*
%AMRotRect*
0 Rectangle, with rotation*
0 The origin of the aperture is its center*
0 $1 length*
0 $2 width*
0 $3 Rotation angle, in degrees counterclockwise*
0 Add horizontal line*
21,1,$1,$2,0,0,$3*%
%AMOutline5P*
0 Free polygon, 5 corners , with rotation*
0 The origin of the aperture is its center*
0 number of corners: always 5*
0 $1 to $10 corner X, Y*
0 $11 Rotation angle, in degrees counterclockwise*
0 create outline with 5 corners*
4,1,5,$1,$2,$3,$4,$5,$6,$7,$8,$9,$10,$1,$2,$11*%
%AMOutline6P*
0 Free polygon, 6 corners , with rotation*
0 The origin of the aperture is its center*
0 number of corners: always 6*
0 $1 to $12 corner X, Y*
0 $13 Rotation angle, in degrees counterclockwise*
0 create outline with 6 corners*
4,1,6,$1,$2,$3,$4,$5,$6,$7,$8,$9,$10,$11,$12,$1,$2,$13*%
%AMOutline7P*
0 Free polygon, 7 corners , with rotation*
0 The origin of the aperture is its center*
0 number of corners: always 7*
0 $1 to $14 corner X, Y*
0 $15 Rotation angle, in degrees counterclockwise*
0 create outline with 7 corners*
4,1,7,$1,$2,$3,$4,$5,$6,$7,$8,$9,$10,$11,$12,$13,$14,$1,$2,$15*%
%AMOutline8P*
0 Free polygon, 8 corners , with rotation*
0 The origin of the aperture is its center*
0 number of corners: always 8*
0 $1 to $16 corner X, Y*
0 $17 Rotation angle, in degrees counterclockwise*
0 create outline with 8 corners*
4,1,8,$1,$2,$3,$4,$5,$6,$7,$8,$9,$10,$11,$12,$13,$14,$15,$16,$1,$2,$17*%
G04 Aperture macros list end*
%ADD10C,3.000000*%
%ADD11C,5.000000*%
%ADD12RotRect,2.000000X2.500000X330.000000*%
%ADD13R,2.000000X2.500000*%
%ADD14C,5.700000*%
%ADD15RotRect,2.000000X2.500000X345.000000*%
%ADD16C,1.524000*%
%ADD17RotRect,1.425000X1.300000X165.000000*%
%ADD18R,1.425000X1.300000*%
%ADD19RotRect,1.425000X1.300000X150.000000*%
%ADD20O,2.750000X1.800000*%
%ADD21C,1.200000*%
%ADD22R,1.000000X0.800000*%
%ADD23C,0.900000*%
%ADD24R,0.700000X1.280000*%
%ADD25Outline5P,-0.350000X0.640000X0.350000X0.640000X0.350000X-0.360000X0.070000X-0.640000X-0.350000X-0.640000X0.000000*%
G04 APERTURE END LIST*
D10*
X185316752Y-132289492D03*
X186350598Y-134098819D03*
D11*
X191477264Y-130419173D03*
D10*
X190853930Y-136698819D03*
X192937776Y-136689492D03*
D12*
X183232906Y-132298819D03*
X196055467Y-138489492D03*
D10*
X118100000Y-87640970D03*
X119900000Y-88690970D03*
D11*
X122500000Y-82940970D03*
D10*
X125100000Y-88690970D03*
X126900000Y-87640970D03*
D13*
X116300000Y-88690970D03*
X130500000Y-87640970D03*
D14*
X94000000Y-104590970D03*
X94000000Y-85590970D03*
D10*
X166668553Y-125924234D03*
X168135459Y-127404330D03*
D11*
X172135076Y-122523186D03*
D10*
X173158274Y-128750189D03*
X175168700Y-128201841D03*
D15*
X164658126Y-126472581D03*
X178646033Y-129133590D03*
D10*
X99100000Y-80790970D03*
X100900000Y-81840970D03*
D11*
X103500000Y-76090970D03*
D10*
X106100000Y-81840970D03*
X107900000Y-80790970D03*
D13*
X97300000Y-81840970D03*
X111500000Y-80790970D03*
D14*
X186182152Y-116463137D03*
D10*
X80100000Y-99790970D03*
X81900000Y-100840970D03*
D11*
X84500000Y-95090970D03*
D10*
X87100000Y-100840970D03*
X88900000Y-99790970D03*
D13*
X78300000Y-100840970D03*
X92500000Y-99790970D03*
D10*
X156100000Y-67940970D03*
X157900000Y-68990970D03*
D11*
X160500000Y-63240970D03*
D10*
X163100000Y-68990970D03*
X164900000Y-67940970D03*
D13*
X154300000Y-68990970D03*
X168500000Y-67940970D03*
D10*
X118100000Y-106640970D03*
X119900000Y-107690970D03*
D11*
X122500000Y-101940970D03*
D10*
X125100000Y-107690970D03*
X126900000Y-106640970D03*
D13*
X116300000Y-107690970D03*
X130500000Y-106640970D03*
D10*
X175100000Y-88315970D03*
X176900000Y-89365970D03*
D11*
X179500000Y-83615970D03*
D10*
X182100000Y-89365970D03*
X183900000Y-88315970D03*
D13*
X173300000Y-89365970D03*
X187500000Y-88315970D03*
D10*
X175100000Y-69315970D03*
X176900000Y-70365970D03*
D11*
X179500000Y-64615970D03*
D10*
X182100000Y-70365970D03*
X183900000Y-69315970D03*
D13*
X173300000Y-70365970D03*
X187500000Y-69315970D03*
D10*
X156100000Y-105940970D03*
X157900000Y-106990970D03*
D11*
X160500000Y-101240970D03*
D10*
X163100000Y-106990970D03*
X164900000Y-105940970D03*
D13*
X154300000Y-106990970D03*
X168500000Y-105940970D03*
D10*
X156100000Y-86940970D03*
X157900000Y-87990970D03*
D11*
X160500000Y-82240970D03*
D10*
X163100000Y-87990970D03*
X164900000Y-86940970D03*
D13*
X154300000Y-87990970D03*
X168500000Y-86940970D03*
D16*
X196044000Y-118806000D03*
X203244000Y-118806000D03*
D10*
X118100000Y-68640970D03*
X119900000Y-69690970D03*
D11*
X122500000Y-63940970D03*
D10*
X125100000Y-69690970D03*
X126900000Y-68640970D03*
D13*
X116300000Y-69690970D03*
X130500000Y-68640970D03*
D10*
X175100000Y-107315970D03*
X176900000Y-108365970D03*
D11*
X179500000Y-102615970D03*
D10*
X182100000Y-108365970D03*
X183900000Y-107315970D03*
D13*
X173300000Y-108365970D03*
X187500000Y-107315970D03*
D10*
X99100000Y-99790970D03*
X100900000Y-100840970D03*
D11*
X103500000Y-95090970D03*
D10*
X106100000Y-100840970D03*
X107900000Y-99790970D03*
D13*
X97300000Y-100840970D03*
X111500000Y-99790970D03*
D10*
X137100000Y-62565970D03*
X138900000Y-63615970D03*
D11*
X141500000Y-57865970D03*
D10*
X144100000Y-63615970D03*
X145900000Y-62565970D03*
D13*
X135300000Y-63615970D03*
X149500000Y-62565970D03*
D10*
X147100000Y-124440700D03*
X148900000Y-125490700D03*
D11*
X151500000Y-119740700D03*
D10*
X154100000Y-125490700D03*
X155900000Y-124440700D03*
D13*
X145300000Y-125490700D03*
X159500000Y-124440700D03*
D10*
X80100000Y-80790970D03*
X81900000Y-81840970D03*
D11*
X84500000Y-76090970D03*
D10*
X87100000Y-81840970D03*
X88900000Y-80790970D03*
D13*
X78300000Y-81840970D03*
X92500000Y-80790970D03*
D10*
X137100000Y-100565970D03*
X138900000Y-101615970D03*
D11*
X141500000Y-95865970D03*
D10*
X144100000Y-101615970D03*
X145900000Y-100565970D03*
D13*
X135300000Y-101615970D03*
X149500000Y-100565970D03*
D10*
X99100000Y-118790970D03*
X100900000Y-119840970D03*
D11*
X103500000Y-114090970D03*
D10*
X106100000Y-119840970D03*
X107900000Y-118790970D03*
D13*
X97300000Y-119840970D03*
X111500000Y-118790970D03*
D14*
X170500000Y-74300000D03*
D10*
X80100000Y-118790970D03*
X81900000Y-119840970D03*
D11*
X84500000Y-114090970D03*
D10*
X87100000Y-119840970D03*
X88900000Y-118790970D03*
D13*
X78300000Y-119840970D03*
X92500000Y-118790970D03*
D10*
X137100000Y-81565970D03*
X138900000Y-82615970D03*
D11*
X141500000Y-76865970D03*
D10*
X144100000Y-82615970D03*
X145900000Y-81565970D03*
D13*
X135300000Y-82615970D03*
X149500000Y-81565970D03*
D17*
X175526592Y-116962639D03*
X172073408Y-116037361D03*
D18*
X181287500Y-96400000D03*
X177712500Y-96400000D03*
D19*
X196448020Y-126093750D03*
X193351980Y-124306250D03*
D18*
X153287500Y-113500000D03*
X149712500Y-113500000D03*
X105487500Y-86400000D03*
X101912500Y-86400000D03*
X105419500Y-90297000D03*
X101844500Y-90297000D03*
X162287500Y-95000000D03*
X158712500Y-95000000D03*
X181287500Y-74900000D03*
X177712500Y-74900000D03*
X86115500Y-90170000D03*
X82540500Y-90170000D03*
X181287500Y-78800000D03*
X177712500Y-78800000D03*
X143287500Y-68200000D03*
X139712500Y-68200000D03*
X143287500Y-72100000D03*
X139712500Y-72100000D03*
D20*
X208794960Y-58696046D03*
X208794960Y-61236046D03*
X208794960Y-63776046D03*
X208794960Y-66316046D03*
X208794960Y-68856046D03*
X208794960Y-71396046D03*
X208794960Y-73936046D03*
X192205040Y-73936046D03*
X192205040Y-71396046D03*
X192205040Y-68856046D03*
X192205040Y-66316046D03*
X192205040Y-63776046D03*
X192205040Y-61236046D03*
X192205040Y-58696046D03*
D21*
X190000000Y-57216046D03*
X211000000Y-57216046D03*
D18*
X162287500Y-73600000D03*
X158712500Y-73600000D03*
X124287500Y-74200000D03*
X120712500Y-74200000D03*
X143287500Y-89600000D03*
X139712500Y-89600000D03*
X86287500Y-107900000D03*
X82712500Y-107900000D03*
X162287500Y-77700000D03*
X158712500Y-77700000D03*
D22*
X184150000Y-58300970D03*
X184150000Y-56080970D03*
D23*
X182000000Y-57190970D03*
X179000000Y-57190970D03*
D22*
X176850000Y-58300970D03*
X176850000Y-56080970D03*
D24*
X182750000Y-59060970D03*
D25*
X179750000Y-59060970D03*
D24*
X178250000Y-59060970D03*
D18*
X124287500Y-78200000D03*
X120712500Y-78200000D03*
X86287500Y-86360000D03*
X82712500Y-86360000D03*
X124287500Y-95700000D03*
X120712500Y-95700000D03*
X105287500Y-107800000D03*
X101712500Y-107800000D03*
M02*
