%TF.GenerationSoftware,KiCad,Pcbnew,8.0.4*%
%TF.CreationDate,2024-09-15T21:07:07+03:00*%
%TF.ProjectId,pcb,7063622e-6b69-4636-9164-5f7063625858,rev?*%
%TF.SameCoordinates,Original*%
%TF.FileFunction,Copper,L1,Top*%
%TF.FilePolarity,Positive*%
%FSLAX46Y46*%
G04 Gerber Fmt 4.6, Leading zero omitted, Abs format (unit mm)*
G04 Created by KiCad (PCBNEW 8.0.4) date 2024-09-15 21:07:07*
%MOMM*%
%LPD*%
G01*
G04 APERTURE LIST*
G04 Aperture macros list*
%AMRotRect*
0 Rectangle, with rotation*
0 The origin of the aperture is its center*
0 $1 length*
0 $2 width*
0 $3 Rotation angle, in degrees counterclockwise*
0 Add horizontal line*
21,1,$1,$2,0,0,$3*%
%AMOutline5P*
0 Free polygon, 5 corners , with rotation*
0 The origin of the aperture is its center*
0 number of corners: always 5*
0 $1 to $10 corner X, Y*
0 $11 Rotation angle, in degrees counterclockwise*
0 create outline with 5 corners*
4,1,5,$1,$2,$3,$4,$5,$6,$7,$8,$9,$10,$1,$2,$11*%
%AMOutline6P*
0 Free polygon, 6 corners , with rotation*
0 The origin of the aperture is its center*
0 number of corners: always 6*
0 $1 to $12 corner X, Y*
0 $13 Rotation angle, in degrees counterclockwise*
0 create outline with 6 corners*
4,1,6,$1,$2,$3,$4,$5,$6,$7,$8,$9,$10,$11,$12,$1,$2,$13*%
%AMOutline7P*
0 Free polygon, 7 corners , with rotation*
0 The origin of the aperture is its center*
0 number of corners: always 7*
0 $1 to $14 corner X, Y*
0 $15 Rotation angle, in degrees counterclockwise*
0 create outline with 7 corners*
4,1,7,$1,$2,$3,$4,$5,$6,$7,$8,$9,$10,$11,$12,$13,$14,$1,$2,$15*%
%AMOutline8P*
0 Free polygon, 8 corners , with rotation*
0 The origin of the aperture is its center*
0 number of corners: always 8*
0 $1 to $16 corner X, Y*
0 $17 Rotation angle, in degrees counterclockwise*
0 create outline with 8 corners*
4,1,8,$1,$2,$3,$4,$5,$6,$7,$8,$9,$10,$11,$12,$13,$14,$15,$16,$1,$2,$17*%
G04 Aperture macros list end*
%TA.AperFunction,ComponentPad*%
%ADD10R,1.000000X1.000000*%
%TD*%
%TA.AperFunction,SMDPad,CuDef*%
%ADD11O,2.750000X1.800000*%
%TD*%
%TA.AperFunction,SMDPad,CuDef*%
%ADD12R,1.000000X0.800000*%
%TD*%
%TA.AperFunction,SMDPad,CuDef*%
%ADD13R,0.700000X1.280000*%
%TD*%
%TA.AperFunction,SMDPad,CuDef*%
%ADD14Outline5P,-0.350000X0.640000X0.350000X0.640000X0.350000X-0.360000X0.070000X-0.640000X-0.350000X-0.640000X0.000000*%
%TD*%
%TA.AperFunction,SMDPad,CuDef*%
%ADD15RotRect,2.000000X2.500000X330.000000*%
%TD*%
%TA.AperFunction,SMDPad,CuDef*%
%ADD16R,2.000000X2.500000*%
%TD*%
%TA.AperFunction,SMDPad,CuDef*%
%ADD17RotRect,2.000000X2.500000X345.000000*%
%TD*%
%TA.AperFunction,SMDPad,CuDef*%
%ADD18RotRect,1.425000X1.300000X165.000000*%
%TD*%
%TA.AperFunction,SMDPad,CuDef*%
%ADD19R,1.425000X1.300000*%
%TD*%
%TA.AperFunction,SMDPad,CuDef*%
%ADD20RotRect,1.425000X1.300000X150.000000*%
%TD*%
%TA.AperFunction,ViaPad*%
%ADD21C,0.800000*%
%TD*%
%TA.AperFunction,Conductor*%
%ADD22C,0.200000*%
%TD*%
%TA.AperFunction,Conductor*%
%ADD23C,0.400000*%
%TD*%
G04 APERTURE END LIST*
D10*
X187579000Y-58928000D03*
X187579000Y-56642000D03*
D11*
X208594960Y-58496046D03*
X208594960Y-61036046D03*
X208594960Y-63576046D03*
X208594960Y-66116046D03*
X208594960Y-68656046D03*
X208594960Y-71196046D03*
X208594960Y-73736046D03*
X192405040Y-73736046D03*
X192405040Y-71196046D03*
X192405040Y-68656046D03*
X192405040Y-66116046D03*
X192405040Y-63576046D03*
X192405040Y-61036046D03*
X192405040Y-58496046D03*
D12*
X184150000Y-56080970D03*
X184150000Y-58300970D03*
X176850000Y-56080970D03*
X176850000Y-58300970D03*
D13*
X182750000Y-59060970D03*
D14*
X179750000Y-59060970D03*
D13*
X178250000Y-59060970D03*
D15*
X183232906Y-132298819D03*
X196055467Y-138489492D03*
D16*
X116300000Y-88690970D03*
X130500000Y-87640970D03*
D17*
X164658126Y-126472581D03*
X178646033Y-129133590D03*
D16*
X97300000Y-81840970D03*
X111500000Y-80790970D03*
X78300000Y-100840970D03*
X92500000Y-99790970D03*
X154300000Y-68990970D03*
X168500000Y-67940970D03*
X116300000Y-107690970D03*
X130500000Y-106640970D03*
X173300000Y-89365970D03*
X187500000Y-88315970D03*
X173300000Y-70365970D03*
X187500000Y-69315970D03*
X154300000Y-106990970D03*
X168500000Y-105940970D03*
X154300000Y-87990970D03*
X168500000Y-86940970D03*
X116300000Y-69690970D03*
X130500000Y-68640970D03*
X173300000Y-108365970D03*
X187500000Y-107315970D03*
X97300000Y-100840970D03*
X111500000Y-99790970D03*
X135300000Y-63615970D03*
X149500000Y-62565970D03*
X145300000Y-125490700D03*
X159500000Y-124440700D03*
X78300000Y-81840970D03*
X92500000Y-80790970D03*
X135300000Y-101615970D03*
X149500000Y-100565970D03*
X97300000Y-119840970D03*
X111500000Y-118790970D03*
X78300000Y-119840970D03*
X92500000Y-118790970D03*
X135300000Y-82615970D03*
X149500000Y-81565970D03*
D18*
X175526592Y-116962639D03*
X172073408Y-116037361D03*
D19*
X181287500Y-96400000D03*
X177712500Y-96400000D03*
D20*
X196448020Y-126093750D03*
X193351980Y-124306250D03*
D19*
X153287500Y-113500000D03*
X149712500Y-113500000D03*
X105487500Y-86400000D03*
X101912500Y-86400000D03*
X105419500Y-90297000D03*
X101844500Y-90297000D03*
X162287500Y-95000000D03*
X158712500Y-95000000D03*
X181287500Y-74900000D03*
X177712500Y-74900000D03*
X86115500Y-90170000D03*
X82540500Y-90170000D03*
X181287500Y-78800000D03*
X177712500Y-78800000D03*
X143287500Y-68200000D03*
X139712500Y-68200000D03*
X143287500Y-72100000D03*
X139712500Y-72100000D03*
X162287500Y-73600000D03*
X158712500Y-73600000D03*
X124287500Y-74200000D03*
X120712500Y-74200000D03*
X143287500Y-89600000D03*
X139712500Y-89600000D03*
X86287500Y-107900000D03*
X82712500Y-107900000D03*
X162287500Y-77700000D03*
X158712500Y-77700000D03*
X124287500Y-78200000D03*
X120712500Y-78200000D03*
X86287500Y-86360000D03*
X82712500Y-86360000D03*
X124287500Y-95700000D03*
X120712500Y-95700000D03*
X105287500Y-107800000D03*
X101712500Y-107800000D03*
D21*
X183700000Y-75100000D03*
X126600000Y-74400000D03*
X145500000Y-68865970D03*
X106807000Y-88138000D03*
X88392000Y-86614000D03*
X188087000Y-77597000D03*
X164500000Y-72500000D03*
X187960000Y-80010000D03*
X80476691Y-86376691D03*
X78400000Y-84300000D03*
X98679000Y-84582000D03*
X99700000Y-86100000D03*
X116200000Y-72100000D03*
X118500000Y-73900000D03*
X133500000Y-66365970D03*
X137200000Y-68100000D03*
X151100000Y-70100000D03*
X156210000Y-73927175D03*
X174752000Y-72390000D03*
X175641000Y-74549000D03*
X106553000Y-91821000D03*
X188468000Y-78994000D03*
X145669000Y-72644000D03*
X183491860Y-78867000D03*
X87122000Y-91694000D03*
X126000000Y-78200000D03*
X164600000Y-77590970D03*
X78105000Y-97409000D03*
X80700000Y-90200000D03*
X95500000Y-97100000D03*
X100000000Y-90400000D03*
X119126000Y-78359000D03*
X114500000Y-84900000D03*
X137500000Y-72000000D03*
X133731000Y-79248000D03*
X156210000Y-78232000D03*
X152525450Y-82423000D03*
X175600000Y-78600000D03*
X171500000Y-85700000D03*
X189865000Y-79375000D03*
X126500000Y-95700000D03*
X183700000Y-96400000D03*
X145415000Y-91821000D03*
X88500000Y-108700000D03*
X107442000Y-108585000D03*
X164500000Y-94900000D03*
X78100000Y-116300000D03*
X80518000Y-108204000D03*
X99568000Y-108077000D03*
X97200000Y-116200000D03*
X114500000Y-104400000D03*
X118500000Y-96100000D03*
X133500000Y-97155000D03*
X137600000Y-90700000D03*
X153500000Y-103000000D03*
X156200000Y-95900000D03*
X171500000Y-104700000D03*
X175200000Y-96600000D03*
X176805500Y-114194500D03*
X195453000Y-127635000D03*
X154178000Y-111760000D03*
X192405000Y-75819000D03*
X144900000Y-121800000D03*
X147700000Y-114300000D03*
X170000000Y-116200000D03*
X164000000Y-122100000D03*
X191643000Y-123317000D03*
X184800000Y-128900000D03*
X195326000Y-80612000D03*
X91000000Y-116590970D03*
X185166000Y-65843525D03*
X93341156Y-78101156D03*
X91000000Y-97590970D03*
X110000000Y-116590970D03*
X185101000Y-63222908D03*
X110000000Y-83590970D03*
X200787000Y-80070000D03*
X110000000Y-97590970D03*
X188214000Y-61595000D03*
X188214000Y-62738000D03*
X185101000Y-64516000D03*
X207137000Y-79370000D03*
X129000000Y-71440970D03*
X129000000Y-85440970D03*
X129000000Y-104440970D03*
X148000000Y-98200000D03*
X158000000Y-122240700D03*
X149500000Y-83900000D03*
X148000000Y-66500000D03*
X188214000Y-64008000D03*
X209296000Y-78670000D03*
X167000000Y-83740970D03*
X171100000Y-66400000D03*
X178172155Y-127115970D03*
X167000000Y-102740970D03*
X209423000Y-77470000D03*
X188214000Y-65304050D03*
X185674000Y-85725000D03*
X197300000Y-135900000D03*
X188214000Y-66675000D03*
X186000000Y-105115970D03*
X185547000Y-72898000D03*
X209580081Y-76025592D03*
X186309000Y-83185000D03*
X187198000Y-82296000D03*
X192532000Y-76962000D03*
X187960000Y-81280000D03*
D22*
X100068312Y-71374000D02*
X93341156Y-78101156D01*
X109728000Y-71374000D02*
X100068312Y-71374000D01*
X122047000Y-59055000D02*
X109728000Y-71374000D01*
X133985000Y-59055000D02*
X122047000Y-59055000D01*
X138811000Y-54229000D02*
X133985000Y-59055000D01*
X144145000Y-54229000D02*
X138811000Y-54229000D01*
X160401000Y-56642000D02*
X146558000Y-56642000D01*
X146558000Y-56642000D02*
X144145000Y-54229000D01*
X164973000Y-61214000D02*
X160401000Y-56642000D01*
X181102000Y-61214000D02*
X164973000Y-61214000D01*
X183515000Y-63627000D02*
X181102000Y-61214000D01*
X183515000Y-65024000D02*
X183515000Y-63627000D01*
X184334525Y-65843525D02*
X183515000Y-65024000D01*
X185166000Y-65843525D02*
X184334525Y-65843525D01*
X186635475Y-63173525D02*
X188214000Y-61595000D01*
X185101000Y-63222908D02*
X185150383Y-63173525D01*
X185150383Y-63173525D02*
X186635475Y-63173525D01*
X185101000Y-64516000D02*
X186436000Y-64516000D01*
X186436000Y-64516000D02*
X188214000Y-62738000D01*
D23*
X185547000Y-60960000D02*
X187579000Y-58928000D01*
X179750000Y-59060970D02*
X181649030Y-60960000D01*
X181649030Y-60960000D02*
X185547000Y-60960000D01*
X185120030Y-59100970D02*
X187579000Y-56642000D01*
X182790000Y-59100970D02*
X185120030Y-59100970D01*
X182750000Y-59060970D02*
X182790000Y-59100970D01*
D22*
X149095000Y-65405000D02*
X148000000Y-66500000D01*
X157274662Y-65405000D02*
X149095000Y-65405000D01*
X158417662Y-66548000D02*
X157274662Y-65405000D01*
X162560000Y-66548000D02*
X158417662Y-66548000D01*
X177857686Y-67818000D02*
X175698686Y-65659000D01*
X163449000Y-65659000D02*
X162560000Y-66548000D01*
X180790314Y-67818000D02*
X177857686Y-67818000D01*
X181952314Y-66656000D02*
X180790314Y-67818000D01*
X185566000Y-66656000D02*
X181952314Y-66656000D01*
X188214000Y-64008000D02*
X185566000Y-66656000D01*
X175698686Y-65659000D02*
X163449000Y-65659000D01*
X177692000Y-68218000D02*
X175874000Y-66400000D01*
X186462050Y-67056000D02*
X182118000Y-67056000D01*
X182118000Y-67056000D02*
X180956000Y-68218000D01*
X175874000Y-66400000D02*
X171100000Y-66400000D01*
X188214000Y-65304050D02*
X186462050Y-67056000D01*
X180956000Y-68218000D02*
X177692000Y-68218000D01*
D23*
X182907157Y-59218127D02*
X182750000Y-59060970D01*
D22*
X88392000Y-86614000D02*
X88265000Y-86487000D01*
X183700000Y-75100000D02*
X183650000Y-75100000D01*
X90953789Y-89027000D02*
X90343223Y-89027000D01*
X145167015Y-68532985D02*
X145500000Y-68865970D01*
X126258578Y-74200000D02*
X126600000Y-74400000D01*
X92180210Y-89535000D02*
X96070987Y-89535000D01*
X106807000Y-88138000D02*
X108013500Y-87122000D01*
X120865127Y-75900000D02*
X125072352Y-75900000D01*
X97604012Y-88900000D02*
X105506184Y-88900000D01*
X170132129Y-77600000D02*
X182017902Y-77600000D01*
X88841012Y-88333012D02*
X88963500Y-88455500D01*
X119170240Y-76526608D02*
X110387112Y-85044988D01*
X167772857Y-76400000D02*
X168049526Y-76695967D01*
X145500000Y-68865970D02*
X146754015Y-70119985D01*
X183752693Y-75184000D02*
X183742731Y-75174038D01*
X137188655Y-70485000D02*
X142085370Y-70485000D01*
X163251906Y-73748093D02*
X164500000Y-72500000D01*
X190330040Y-71032988D02*
X190330040Y-67716046D01*
X87958394Y-86360000D02*
X86287500Y-86360000D01*
X190330040Y-67716046D02*
X191930040Y-66116046D01*
X183500000Y-75000000D02*
X183564644Y-75064644D01*
X126600000Y-74400000D02*
X132781741Y-71474992D01*
X144363118Y-68200000D02*
X143287500Y-68200000D01*
X126600000Y-74400000D02*
X126249983Y-75150036D01*
X145500000Y-68865970D02*
X145432985Y-68932985D01*
X145426503Y-68885167D02*
X144404751Y-69685083D01*
X164500000Y-72500000D02*
X163937000Y-71937000D01*
X189738000Y-71625028D02*
X190330040Y-71032988D01*
X106807000Y-88138000D02*
X106426000Y-88519000D01*
X188087000Y-77597000D02*
X189738000Y-75946000D01*
X183258578Y-74900000D02*
X181287500Y-74900000D01*
X183700000Y-75100000D02*
X183700000Y-75150000D01*
X126600000Y-74400000D02*
X124287500Y-74200000D01*
X106807000Y-88138000D02*
X105866786Y-86106000D01*
X88392000Y-86614000D02*
X88392000Y-87249000D01*
X164500000Y-72500000D02*
X167772857Y-76400000D01*
X145500000Y-68865970D02*
X145472850Y-68865970D01*
X187452000Y-78232000D02*
X187452000Y-79502000D01*
X189738000Y-75946000D02*
X189738000Y-71625028D01*
X188087000Y-77597000D02*
X187452000Y-78232000D01*
X187452000Y-79502000D02*
X187960000Y-80010000D01*
X162577797Y-71374000D02*
X149781475Y-71374000D01*
X183682714Y-75246917D02*
X183387281Y-76448807D01*
X183387281Y-76448807D02*
X183289946Y-76713010D01*
X163251906Y-73748093D02*
G75*
G02*
X162643750Y-74000024I-608206J608193D01*
G01*
X149781475Y-71374000D02*
G75*
G02*
X146754022Y-70119978I25J4281500D01*
G01*
X90343223Y-89027000D02*
G75*
G02*
X88963493Y-88455507I-23J1951200D01*
G01*
X183650000Y-75100000D02*
G75*
G02*
X183564646Y-75064642I0J120700D01*
G01*
X183742731Y-75174038D02*
G75*
G02*
X183699959Y-75150000I-14631J24038D01*
G01*
X125072352Y-75900000D02*
G75*
G03*
X126249986Y-75150037I48J1299500D01*
G01*
X145167015Y-68532985D02*
G75*
G03*
X144363118Y-68199993I-803915J-803915D01*
G01*
X137188655Y-70485000D02*
G75*
G03*
X132781749Y-71475010I45J-10303600D01*
G01*
X142085370Y-70485000D02*
G75*
G03*
X144404761Y-69685095I30J3762500D01*
G01*
X96837500Y-89217500D02*
G75*
G02*
X96070987Y-89534995I-766500J766500D01*
G01*
X88841012Y-88333012D02*
G75*
G02*
X88391992Y-87249000I1083988J1084012D01*
G01*
X96837500Y-89217500D02*
G75*
G02*
X97604012Y-88900005I766500J-766500D01*
G01*
X170132129Y-77600000D02*
G75*
G02*
X168049520Y-76695972I-29J2850800D01*
G01*
X105506184Y-88900000D02*
G75*
G03*
X106426005Y-88519005I16J1300800D01*
G01*
X119170240Y-76526608D02*
G75*
G02*
X119951504Y-76050012I1444760J-1489692D01*
G01*
X183682714Y-75246917D02*
G75*
G03*
X183699996Y-75150000I-263114J96917D01*
G01*
X108013500Y-87122000D02*
G75*
G03*
X110387111Y-85044986I-53579300J63625200D01*
G01*
X183500000Y-75000000D02*
G75*
G03*
X183258578Y-74900009I-241400J-241400D01*
G01*
X120865127Y-75900000D02*
G75*
G03*
X119951499Y-76049996I-27J-2857300D01*
G01*
X145426503Y-68885167D02*
G75*
G02*
X145472850Y-68866001I46297J-46333D01*
G01*
X87958394Y-86360000D02*
G75*
G02*
X88265002Y-86486998I6J-433600D01*
G01*
X92180210Y-89535000D02*
G75*
G02*
X91566997Y-89281003I-10J867200D01*
G01*
X90953789Y-89027000D02*
G75*
G02*
X91567003Y-89280997I11J-867200D01*
G01*
X182017902Y-77600000D02*
G75*
G03*
X183289930Y-76713004I-2J1355600D01*
G01*
X183742731Y-75174038D02*
G75*
G03*
X183682730Y-75246923I74369J-122362D01*
G01*
X126500000Y-74300000D02*
G75*
G03*
X126258578Y-74200009I-241400J-241400D01*
G01*
X162577797Y-71374000D02*
G75*
G02*
X163937001Y-71936999I3J-1922200D01*
G01*
X78400000Y-84300000D02*
X78350000Y-84250000D01*
X81115802Y-86360000D02*
X82712500Y-86360000D01*
X78300000Y-84129289D02*
X78300000Y-81853470D01*
X80476691Y-86376691D02*
X80962500Y-86423500D01*
X78400000Y-84300000D02*
X78400000Y-84112249D01*
X78300000Y-84129289D02*
X78300000Y-81840970D01*
X81115802Y-86360000D02*
G75*
G03*
X80962499Y-86423499I-2J-216800D01*
G01*
X78300000Y-84129289D02*
G75*
G03*
X78349997Y-84250003I170700J-11D01*
G01*
X78300000Y-84129289D02*
G75*
G03*
X78349997Y-84250003I170700J-11D01*
G01*
X98854553Y-84784545D02*
X99700000Y-86100000D01*
X99700000Y-86100000D02*
X99850000Y-86250000D01*
X97781550Y-83684550D02*
X98679000Y-84582000D01*
X98679000Y-84582000D02*
X98742500Y-84645500D01*
X100212132Y-86400000D02*
X101912500Y-86400000D01*
X98854553Y-84784545D02*
G75*
G03*
X98742500Y-84645500I-702753J-451655D01*
G01*
X99850000Y-86250000D02*
G75*
G03*
X100212132Y-86399987I362100J362100D01*
G01*
X97781550Y-83684550D02*
G75*
G02*
X97300006Y-82521985I1162550J1162550D01*
G01*
X119012132Y-74200000D02*
X120712500Y-74200000D01*
X117823223Y-73723223D02*
X116200000Y-72100000D01*
X116250000Y-72050000D02*
X116200000Y-72100000D01*
X116300000Y-71929289D02*
X116300000Y-69690970D01*
X118500000Y-73900000D02*
X118250000Y-73900000D01*
X118500000Y-73900000D02*
X118650000Y-74050000D01*
X116250000Y-72050000D02*
G75*
G03*
X116299996Y-71929289I-120700J120700D01*
G01*
X118650000Y-74050000D02*
G75*
G03*
X119012132Y-74199987I362100J362100D01*
G01*
X117823223Y-73723223D02*
G75*
G03*
X118250000Y-73899986I426777J426823D01*
G01*
X137370710Y-68200000D02*
X139712500Y-68200000D01*
X133500000Y-66365970D02*
X135300000Y-64565970D01*
X137200000Y-68100000D02*
X137250000Y-68150000D01*
X136217015Y-68100000D02*
X137200000Y-68100000D01*
X133500000Y-66365970D02*
X134538954Y-67404924D01*
X136217015Y-68100000D02*
G75*
G02*
X134538954Y-67404924I-15J2373100D01*
G01*
X137370710Y-68200000D02*
G75*
G02*
X137249997Y-68150003I-10J170700D01*
G01*
X156985765Y-74000000D02*
X158659375Y-74000000D01*
X152209030Y-68990970D02*
X151100000Y-70100000D01*
X156261679Y-73957448D02*
X156373709Y-73957448D01*
X154300000Y-68990970D02*
X152209030Y-68990970D01*
X156225136Y-73942311D02*
X156210000Y-73927175D01*
X156985765Y-74000000D02*
G75*
G02*
X156373709Y-73957446I20035J4711000D01*
G01*
X156225136Y-73942311D02*
G75*
G03*
X156261679Y-73957472I36564J36511D01*
G01*
X175641000Y-74549000D02*
X177663500Y-74549000D01*
X175420500Y-74024500D02*
X175641000Y-74549000D01*
X174752000Y-72390000D02*
X173300000Y-70938000D01*
X174752000Y-72390000D02*
X174987053Y-72972387D01*
X175420500Y-74024500D02*
G75*
G02*
X174987053Y-72972387I73058000J30713600D01*
G01*
X126000000Y-78200000D02*
X126000000Y-78589000D01*
X147256500Y-74104500D02*
X145669000Y-72644000D01*
X133311900Y-74562754D02*
X126000000Y-78200000D01*
X145397000Y-72372000D02*
X145669000Y-72644000D01*
X190730040Y-71198674D02*
X190730040Y-69111960D01*
X183252512Y-79347487D02*
X182849999Y-79749999D01*
X106553000Y-91821000D02*
X105419500Y-90687500D01*
X120498960Y-79629000D02*
X124888673Y-79629000D01*
X164600000Y-77590970D02*
X166004515Y-78995485D01*
X164444704Y-77500000D02*
X162287500Y-77500000D01*
X183500000Y-78750000D02*
X183491860Y-78867000D01*
X190227000Y-71701714D02*
X190730040Y-71198674D01*
X87338802Y-91821000D02*
X106553000Y-91821000D01*
X125724935Y-79253064D02*
X125674499Y-79303499D01*
X145161000Y-73088500D02*
X145669000Y-72644000D01*
X144740333Y-72100000D02*
X143287500Y-72100000D01*
X126000000Y-78200000D02*
X124287500Y-78200000D01*
X164600000Y-77590970D02*
X163604515Y-76595485D01*
X87122000Y-91694000D02*
X86115500Y-90687500D01*
X107548648Y-90327527D02*
X106553000Y-91821000D01*
X164554515Y-77545485D02*
X164600000Y-77590970D01*
X190227000Y-77235000D02*
X190227000Y-71701714D01*
X190730040Y-69111960D02*
X191185954Y-68656046D01*
X188468000Y-78994000D02*
X190227000Y-77235000D01*
X183295930Y-78833500D02*
X183491860Y-78867000D01*
X87122000Y-91694000D02*
X87185500Y-91757500D01*
X143977985Y-73533000D02*
X137694078Y-73533000D01*
X116580281Y-81169048D02*
X109917635Y-87362493D01*
X169395314Y-80400000D02*
X181280761Y-80400000D01*
X161201201Y-75600000D02*
X151001122Y-75571109D01*
X182901226Y-78800000D02*
X181287500Y-78800000D01*
X164600000Y-77590970D02*
X164487031Y-77590970D01*
X133311900Y-74562754D02*
G75*
G02*
X137694078Y-73532992I4382200J-8809446D01*
G01*
X164554515Y-77545485D02*
G75*
G03*
X164444704Y-77499998I-109815J-109815D01*
G01*
X166004515Y-78995485D02*
G75*
G03*
X169395314Y-80399994I3390785J3390785D01*
G01*
X161201201Y-75600000D02*
G75*
G02*
X163604515Y-76595485I-1J-3398800D01*
G01*
X87185500Y-91757500D02*
G75*
G03*
X87338802Y-91820999I153300J153300D01*
G01*
X182849999Y-79749999D02*
G75*
G02*
X181280761Y-80399983I-1569199J1569199D01*
G01*
X120498960Y-79629000D02*
G75*
G03*
X116580299Y-81169067I40J-5755600D01*
G01*
X108648500Y-88773000D02*
G75*
G03*
X107548647Y-90327526I27453000J-20589800D01*
G01*
X182901226Y-78800000D02*
G75*
G02*
X183295929Y-78833504I-26J-2342000D01*
G01*
X125674499Y-79303499D02*
G75*
G02*
X124888673Y-79628988I-785799J785799D01*
G01*
X125724935Y-79253064D02*
G75*
G03*
X126000008Y-78589000I-664035J664064D01*
G01*
X145397000Y-72372000D02*
G75*
G03*
X144740333Y-72099986I-656700J-656700D01*
G01*
X183252512Y-79347487D02*
G75*
G03*
X183499992Y-78750000I-597512J597487D01*
G01*
X143977985Y-73533000D02*
G75*
G03*
X145161004Y-73088504I15J1796500D01*
G01*
X147256500Y-74104500D02*
G75*
G03*
X151001122Y-75571152I3760400J4087300D01*
G01*
X108648500Y-88773000D02*
G75*
G02*
X109917640Y-87362498I8520900J-6390700D01*
G01*
X81697348Y-90237483D02*
X81734832Y-90274967D01*
X78105000Y-97409000D02*
X78105000Y-100508084D01*
X80700000Y-90200000D02*
X81606855Y-90200000D01*
X81734832Y-90274967D02*
G75*
G02*
X82164250Y-90169983I434968J-848433D01*
G01*
X81697348Y-90237483D02*
G75*
G03*
X81606855Y-90200038I-90448J-90517D01*
G01*
X100175831Y-90297000D02*
X101844500Y-90297000D01*
X95500000Y-98070485D02*
X95500000Y-97100000D01*
X96186236Y-99727206D02*
X97300000Y-100840970D01*
X100000000Y-90400000D02*
X100051500Y-90348500D01*
X95500000Y-98070485D02*
G75*
G03*
X96186241Y-99727201I2342900J-15D01*
G01*
X100051500Y-90348500D02*
G75*
G02*
X100175831Y-90297013I124300J-124300D01*
G01*
X119397429Y-78200000D02*
X120712500Y-78200000D01*
X114500000Y-84900000D02*
X116000000Y-88178837D01*
X119126000Y-78359000D02*
X119205500Y-78279500D01*
X119205500Y-78279500D02*
G75*
G02*
X119397429Y-78200012I191900J-191900D01*
G01*
X137500000Y-72000000D02*
X139712500Y-72000000D01*
X133731000Y-80147485D02*
X133731000Y-79248000D01*
X134367031Y-81683001D02*
X135300000Y-82615970D01*
X133731000Y-80147485D02*
G75*
G03*
X134367034Y-81682998I2171500J-15D01*
G01*
X152525450Y-82423000D02*
X152525450Y-84961623D01*
X156476000Y-77966000D02*
X156210000Y-78232000D01*
X157118180Y-77700000D02*
X158712500Y-77700000D01*
X152525450Y-84961623D02*
G75*
G03*
X153412736Y-87103684I3029350J23D01*
G01*
X157118180Y-77700000D02*
G75*
G03*
X156476006Y-77966006I20J-908200D01*
G01*
X172159720Y-88225690D02*
X173300000Y-89365970D01*
X175600000Y-78600000D02*
X177712500Y-78800000D01*
X171500000Y-85700000D02*
X171500000Y-86632985D01*
X175941421Y-78800000D02*
X175600000Y-78600000D01*
X175600000Y-78600000D02*
X175700000Y-78700000D01*
X175700000Y-78700000D02*
G75*
G03*
X175941421Y-78799991I241400J241400D01*
G01*
X171500000Y-86632985D02*
G75*
G03*
X172159718Y-88225692I2252400J-15D01*
G01*
X189865000Y-79375000D02*
X190627000Y-78613000D01*
X181274085Y-94900000D02*
X164500000Y-94900000D01*
X126500000Y-96106000D02*
X126500000Y-95700000D01*
X106101921Y-107800000D02*
X105287500Y-107800000D01*
X189865000Y-79375000D02*
X188800000Y-80440000D01*
X126500000Y-95700000D02*
X124287500Y-95700000D01*
X114244790Y-100656071D02*
X107442000Y-108585000D01*
X145381942Y-91694442D02*
X143287500Y-89600000D01*
X88500000Y-108700000D02*
X88760000Y-108960000D01*
X190627000Y-71882000D02*
X191312954Y-71196046D01*
X188800000Y-91300000D02*
X183700000Y-96400000D01*
X183700000Y-96400000D02*
X181287500Y-96400000D01*
X88500000Y-108700000D02*
X88100000Y-108300000D01*
X87134314Y-107900000D02*
X86287500Y-107900000D01*
X164450000Y-94950000D02*
X164500000Y-94900000D01*
X89387695Y-109220000D02*
X106357987Y-109220000D01*
X164500000Y-93615169D02*
X164500000Y-94900000D01*
X107124500Y-108902500D02*
X107442000Y-108585000D01*
X183700000Y-96400000D02*
X183000000Y-95650000D01*
X107049500Y-108192500D02*
X107442000Y-108585000D01*
X188800000Y-80440000D02*
X188800000Y-91300000D01*
X129087973Y-91821000D02*
X162705830Y-91821000D01*
X164329289Y-95000000D02*
X162287500Y-95000000D01*
X126500000Y-94408973D02*
X126500000Y-95700000D01*
X145415000Y-91774250D02*
X145415000Y-91821000D01*
X126260869Y-96840104D02*
X125988000Y-97214500D01*
X114255656Y-100628343D02*
X115608500Y-99275500D01*
X190627000Y-78613000D02*
X190627000Y-71882000D01*
X118888209Y-97917000D02*
X124606718Y-97917000D01*
X87134314Y-107900000D02*
G75*
G02*
X88099996Y-108300004I-14J-1365700D01*
G01*
X126500000Y-96106000D02*
G75*
G02*
X126260873Y-96840107I-1246400J0D01*
G01*
X107049500Y-108192500D02*
G75*
G03*
X106101921Y-107799991I-947600J-947600D01*
G01*
X126500000Y-94408973D02*
G75*
G02*
X127258008Y-92579008I2588000J-27D01*
G01*
X88760000Y-108960000D02*
G75*
G03*
X89387695Y-109220002I627700J627700D01*
G01*
X145381942Y-91694442D02*
G75*
G02*
X145415025Y-91774250I-79842J-79858D01*
G01*
X183000000Y-95650000D02*
G75*
G03*
X181274085Y-94900025I-1725900J-1610900D01*
G01*
X107124500Y-108902500D02*
G75*
G02*
X106357987Y-109219995I-766500J766500D01*
G01*
X114244790Y-100656071D02*
G75*
G03*
X114250002Y-100642000I-16390J14071D01*
G01*
X129087973Y-91821000D02*
G75*
G03*
X127258008Y-92579008I27J-2588000D01*
G01*
X164450000Y-94950000D02*
G75*
G02*
X164329289Y-94999996I-120700J120700D01*
G01*
X164500000Y-93615169D02*
G75*
G03*
X163974491Y-92346509I-1794200J-31D01*
G01*
X162705830Y-91821000D02*
G75*
G02*
X163974491Y-92346509I-30J-1794200D01*
G01*
X118888209Y-97917000D02*
G75*
G03*
X115608497Y-99275497I-9J-4638200D01*
G01*
X125988000Y-97214500D02*
G75*
G02*
X124606718Y-97917020I-1381300J1006700D01*
G01*
X114250000Y-100642000D02*
G75*
G02*
X114255659Y-100628346I19300J0D01*
G01*
X81036960Y-107900000D02*
X82712500Y-107900000D01*
X78100000Y-116300000D02*
X78100000Y-119640970D01*
X80518000Y-108204000D02*
X80670000Y-108052000D01*
X81036960Y-107900000D02*
G75*
G03*
X80670012Y-108052012I40J-519000D01*
G01*
X97200000Y-116200000D02*
X97200000Y-119740970D01*
X99568000Y-108077000D02*
X99706500Y-107938500D01*
X100040868Y-107800000D02*
X101712500Y-107800000D01*
X100040868Y-107800000D02*
G75*
G03*
X99706509Y-107938509I32J-472900D01*
G01*
X118500000Y-96100000D02*
X118700000Y-95900000D01*
X115722862Y-105622862D02*
X114500000Y-104400000D01*
X119182842Y-95700000D02*
X120712500Y-95700000D01*
X118700000Y-95900000D02*
G75*
G02*
X119182842Y-95700018I482800J-482800D01*
G01*
X115722862Y-105622862D02*
G75*
G02*
X116249999Y-106895485I-1272662J-1272638D01*
G01*
X137600000Y-90700000D02*
X138342027Y-89957972D01*
X133500000Y-98543177D02*
X133500000Y-97155000D01*
X133500000Y-98543177D02*
G75*
G03*
X134399987Y-100715983I3072800J-23D01*
G01*
X138342027Y-89957972D02*
G75*
G02*
X139206250Y-89600036I864173J-864228D01*
G01*
X153500000Y-103000000D02*
X154300000Y-106990970D01*
X156650000Y-95450000D02*
X156200000Y-95900000D01*
X157736396Y-95000000D02*
X158712500Y-95000000D01*
X157736396Y-95000000D02*
G75*
G03*
X156650001Y-95450001I4J-1536400D01*
G01*
X172159720Y-107225690D02*
X173300000Y-108365970D01*
X171500000Y-105632985D02*
X171500000Y-104700000D01*
X175200000Y-96600000D02*
X175300000Y-96500000D01*
X175541421Y-96400000D02*
X175200000Y-96600000D01*
X175200000Y-96600000D02*
X177712500Y-96400000D01*
X171500000Y-105632985D02*
G75*
G03*
X172159718Y-107225692I2252400J-15D01*
G01*
X175300000Y-96500000D02*
G75*
G02*
X175541421Y-96400009I241400J-241400D01*
G01*
X176278977Y-116210253D02*
X175526592Y-116962639D01*
X153587843Y-112350156D02*
X154178000Y-111760000D01*
X189357000Y-108204000D02*
X183366500Y-114194500D01*
X195453000Y-127635000D02*
X176805500Y-114194500D01*
X192405000Y-75819000D02*
X192405000Y-74211006D01*
X183366500Y-114194500D02*
X176805500Y-114194500D01*
X192405000Y-75819000D02*
X191135000Y-77089000D01*
X195453000Y-127635000D02*
X196084647Y-127240220D01*
X176805500Y-114939115D02*
X176805500Y-114194500D01*
X154178000Y-111760000D02*
X171627721Y-113608977D01*
X189357000Y-81026000D02*
X189357000Y-108204000D01*
X191135000Y-77089000D02*
X191135000Y-79248000D01*
X191135000Y-79248000D02*
X189357000Y-81026000D01*
X175080250Y-113993250D02*
X176805500Y-114194500D01*
X153587843Y-112350156D02*
G75*
G03*
X153287524Y-113075250I725057J-725044D01*
G01*
X175080250Y-113993250D02*
G75*
G03*
X171627721Y-113608977I-38114850J-326743950D01*
G01*
X176278977Y-116210253D02*
G75*
G03*
X176805499Y-114939115I-1271177J1271153D01*
G01*
X196084647Y-127240220D02*
G75*
G03*
X196458496Y-126546875I-421847J674920D01*
G01*
X148100000Y-113900000D02*
X147700000Y-114300000D01*
X144900000Y-121800000D02*
X144900000Y-124574152D01*
X149065685Y-113500000D02*
X149712500Y-113500000D01*
X149065685Y-113500000D02*
G75*
G03*
X148100004Y-113900004I15J-1365700D01*
G01*
X170277642Y-116037361D02*
X172073408Y-116037361D01*
X170000000Y-116200000D02*
X170081319Y-116118680D01*
X164658126Y-123223491D02*
X164658126Y-126472581D01*
X164329063Y-122429063D02*
X164000000Y-122100000D01*
X170277642Y-116037361D02*
G75*
G03*
X170081299Y-116118660I-42J-277639D01*
G01*
X164329063Y-122429063D02*
G75*
G02*
X164658122Y-123223491I-794463J-794437D01*
G01*
X191643000Y-123317000D02*
X193351980Y-124306250D01*
X184800000Y-128900000D02*
X183880518Y-129819481D01*
X183880518Y-129819481D02*
G75*
G03*
X183232876Y-131382956I1563482J-1563519D01*
G01*
X195486000Y-80772000D02*
X209988686Y-80772000D01*
X212471000Y-78289686D02*
X212471000Y-59944000D01*
X92500000Y-80790970D02*
X92500000Y-78942312D01*
X212471000Y-59944000D02*
X211023046Y-58496046D01*
X91000000Y-116590970D02*
X92252512Y-117843482D01*
X209988686Y-80772000D02*
X212471000Y-78289686D01*
X195326000Y-80612000D02*
X195486000Y-80772000D01*
X91000000Y-97590970D02*
X92500000Y-99090970D01*
X92500000Y-78942312D02*
X93341156Y-78101156D01*
X211023046Y-58496046D02*
X209069960Y-58496046D01*
X210769046Y-61036046D02*
X209069960Y-61036046D01*
X111040380Y-82550589D02*
X110000000Y-83590970D01*
X200787000Y-80070000D02*
X210125000Y-80070000D01*
X212071000Y-78124000D02*
X212071000Y-62338000D01*
X110000000Y-116590970D02*
X111252512Y-117843482D01*
X110000000Y-97590970D02*
X111500000Y-99090970D01*
X212071000Y-62338000D02*
X210769046Y-61036046D01*
X210125000Y-80070000D02*
X212071000Y-78124000D01*
X111040380Y-82550589D02*
G75*
G03*
X111499989Y-81440970I-1109580J1109589D01*
G01*
X210058000Y-79375000D02*
X211671000Y-77762000D01*
X211671000Y-64859000D02*
X210388046Y-63576046D01*
X210388046Y-63576046D02*
X209069960Y-63576046D01*
X129000000Y-85440970D02*
X130500000Y-86940970D01*
X129000000Y-104440970D02*
X130500000Y-105940970D01*
X211671000Y-77762000D02*
X211671000Y-64859000D01*
X207137000Y-79370000D02*
X207142000Y-79375000D01*
X130040380Y-70400589D02*
X129000000Y-71440970D01*
X207142000Y-79375000D02*
X210058000Y-79375000D01*
X130040380Y-70400589D02*
G75*
G03*
X130499989Y-69290970I-1109580J1109589D01*
G01*
X209747000Y-78670000D02*
X211271000Y-77146000D01*
X148000000Y-98200000D02*
X148620558Y-98820558D01*
X211271000Y-77146000D02*
X211271000Y-66999000D01*
X149500000Y-63939339D02*
X149500000Y-62565970D01*
X158000000Y-122240700D02*
X159252512Y-123493212D01*
X210388046Y-66116046D02*
X209069960Y-66116046D01*
X211271000Y-66999000D02*
X210388046Y-66116046D01*
X148000000Y-66500000D02*
X148750000Y-65750000D01*
X209296000Y-78670000D02*
X209747000Y-78670000D01*
X149500000Y-83900000D02*
X149500000Y-81914589D01*
X148620558Y-98820558D02*
G75*
G02*
X149049986Y-99857275I-1036758J-1036742D01*
G01*
X148750000Y-65750000D02*
G75*
G03*
X149500016Y-63939339I-1810700J1810700D01*
G01*
X178172155Y-127115970D02*
X178409094Y-127352909D01*
X168500000Y-67940970D02*
X169559030Y-67940970D01*
X209423000Y-77470000D02*
X210871000Y-76022000D01*
X168500000Y-86940970D02*
X168500000Y-85240970D01*
X178646033Y-127924930D02*
X178646033Y-129133590D01*
X168500000Y-85240970D02*
X167000000Y-83740970D01*
X210871000Y-76022000D02*
X210871000Y-69012000D01*
X210871000Y-69012000D02*
X210515046Y-68656046D01*
X210515046Y-68656046D02*
X209069960Y-68656046D01*
X167898959Y-103639929D02*
X167000000Y-102740970D01*
X169559030Y-67940970D02*
X171100000Y-66400000D01*
X178646033Y-127924930D02*
G75*
G03*
X178409104Y-127352899I-808933J30D01*
G01*
X167898959Y-103639929D02*
G75*
G02*
X168500016Y-105090970I-1451059J-1451071D01*
G01*
X209580081Y-76025592D02*
X209920722Y-76025592D01*
X185547000Y-85598000D02*
X185547000Y-72898000D01*
X185674000Y-85725000D02*
X185674000Y-85789970D01*
X185674000Y-85725000D02*
X185547000Y-85598000D01*
X210471000Y-71787000D02*
X209880046Y-71196046D01*
X209920722Y-76025592D02*
X210471000Y-75475314D01*
X185547000Y-71268970D02*
X187500000Y-69315970D01*
X197300000Y-135900000D02*
X197300000Y-136572479D01*
X209880046Y-71196046D02*
X209069960Y-71196046D01*
X185547000Y-72898000D02*
X185547000Y-71268970D01*
X186000000Y-105115970D02*
X187500000Y-106615970D01*
X185674000Y-85789970D02*
X187500000Y-87615970D01*
X188214000Y-66675000D02*
X188214000Y-68601970D01*
X210471000Y-75475314D02*
X210471000Y-71787000D01*
X197300000Y-136572479D02*
G75*
G02*
X196824494Y-137720482I-1623500J-21D01*
G01*
X189130040Y-59789960D02*
X190423954Y-58496046D01*
X190423954Y-58496046D02*
X191930040Y-58496046D01*
X189130040Y-70535930D02*
X189130040Y-59789960D01*
X188430000Y-75037314D02*
X188430000Y-71235970D01*
X186182000Y-77285314D02*
X188430000Y-75037314D01*
X186309000Y-83185000D02*
X186182000Y-83058000D01*
X186182000Y-83058000D02*
X186182000Y-77285314D01*
X188430000Y-71235970D02*
X189130040Y-70535930D01*
X188830000Y-75203000D02*
X188830000Y-71401656D01*
X189530040Y-70701616D02*
X189530040Y-62056960D01*
X188830000Y-71401656D02*
X189530040Y-70701616D01*
X186582000Y-77451000D02*
X188830000Y-75203000D01*
X189530040Y-62056960D02*
X190550954Y-61036046D01*
X187198000Y-82296000D02*
X186582000Y-81680000D01*
X190550954Y-61036046D02*
X191930040Y-61036046D01*
X186582000Y-81680000D02*
X186582000Y-77451000D01*
X208788000Y-75946000D02*
X208788000Y-74018006D01*
X193040000Y-77470000D02*
X207264000Y-77470000D01*
X207264000Y-77470000D02*
X208788000Y-75946000D01*
X192532000Y-76962000D02*
X193040000Y-77470000D01*
X186982000Y-80302000D02*
X186982000Y-77686000D01*
X190677954Y-63576046D02*
X191930040Y-63576046D01*
X187960000Y-81280000D02*
X186982000Y-80302000D01*
X189230000Y-75438000D02*
X189230000Y-71567342D01*
X189930040Y-70867302D02*
X189930040Y-64323960D01*
X186982000Y-77686000D02*
X189230000Y-75438000D01*
X189230000Y-71567342D02*
X189930040Y-70867302D01*
X189930040Y-64323960D02*
X190677954Y-63576046D01*
M02*
