%TF.GenerationSoftware,KiCad,Pcbnew,8.0.3*%
%TF.CreationDate,2024-08-02T19:35:41+03:00*%
%TF.ProjectId,pcb,7063622e-6b69-4636-9164-5f7063625858,rev?*%
%TF.SameCoordinates,Original*%
%TF.FileFunction,Profile,NP*%
%FSLAX46Y46*%
G04 Gerber Fmt 4.6, Leading zero omitted, Abs format (unit mm)*
G04 Created by KiCad (PCBNEW 8.0.3) date 2024-08-02 19:35:41*
%MOMM*%
%LPD*%
G01*
G04 APERTURE LIST*
%TA.AperFunction,Profile*%
%ADD10C,0.200000*%
%TD*%
G04 APERTURE END LIST*
D10*
X113000000Y-54240978D02*
G75*
G02*
X114000000Y-53241000I1000000J-22D01*
G01*
X191000000Y-84615970D02*
G75*
G02*
X192000000Y-83616000I1000000J-30D01*
G01*
X210500000Y-55615978D02*
G75*
G02*
X211500022Y-56615978I0J-1000022D01*
G01*
X196600000Y-66590957D02*
X196599900Y-62890910D01*
X133199964Y-114591048D02*
G75*
G02*
X134065996Y-115091045I36J-999952D01*
G01*
X112999962Y-123883849D02*
G75*
G02*
X111999962Y-124883862I-999962J-51D01*
G01*
X111999962Y-124883849D02*
X76500000Y-124890978D01*
X151000000Y-128740708D02*
G75*
G02*
X187329834Y-138475254I0J-72659692D01*
G01*
X210000000Y-84615970D02*
X210000000Y-114615970D01*
X204400000Y-62890940D02*
X204399961Y-66590901D01*
X197100000Y-67090957D02*
G75*
G02*
X196600013Y-66590957I0J499987D01*
G01*
X192000000Y-83615970D02*
X209000000Y-83615972D01*
X132500000Y-51865978D02*
G75*
G02*
X133500000Y-50866000I1000000J-22D01*
G01*
X211500000Y-56615978D02*
X211500000Y-114343349D01*
X151500000Y-53240978D02*
X169000000Y-53240978D01*
X203899961Y-67090901D02*
X197100000Y-67090957D01*
X195624061Y-142109232D02*
G75*
G02*
X194258048Y-142475234I-865961J499832D01*
G01*
X192000000Y-115615968D02*
G75*
G02*
X191000032Y-114615968I0J999968D01*
G01*
X141500000Y-128240708D02*
X134065990Y-115091048D01*
X194258035Y-142475257D02*
X187329832Y-138475257D01*
X114000000Y-53240978D02*
X131500000Y-53240978D01*
X196599900Y-62890910D02*
G75*
G02*
X197099900Y-62390870I500100J-60D01*
G01*
X171000000Y-55615978D02*
X210500000Y-55615978D01*
X204399961Y-66590901D02*
G75*
G02*
X203899961Y-67090931I-499961J-69D01*
G01*
X171000000Y-55615978D02*
G75*
G02*
X170000022Y-54615978I0J999978D01*
G01*
X75500000Y-69890978D02*
G75*
G02*
X76500000Y-68891000I1000000J-22D01*
G01*
X209000000Y-83616000D02*
G75*
G02*
X210000000Y-84615970I0J-1000000D01*
G01*
X170000000Y-54240978D02*
X170000000Y-54615978D01*
X211366025Y-114843349D02*
X195624061Y-142109232D01*
X132500000Y-52240978D02*
X132500000Y-51865978D01*
X112999963Y-115490933D02*
G75*
G02*
X113999963Y-114490963I1000037J-67D01*
G01*
X151500000Y-53240978D02*
G75*
G02*
X150500022Y-52240978I0J999978D01*
G01*
X191000000Y-114615968D02*
X191000000Y-84615970D01*
X75500000Y-123890978D02*
X75500000Y-69890978D01*
X142366025Y-128740708D02*
G75*
G02*
X141500021Y-128240696I-25J999908D01*
G01*
X133500000Y-50865978D02*
X149500000Y-50865978D01*
X208999998Y-115615970D02*
X192000000Y-115615968D01*
X113000000Y-67890948D02*
G75*
G02*
X112000000Y-68891000I-1000000J-52D01*
G01*
X169000000Y-53240978D02*
G75*
G02*
X170000022Y-54240978I0J-1000022D01*
G01*
X112999962Y-123883849D02*
X112999963Y-115490933D01*
X149500000Y-50865978D02*
G75*
G02*
X150500022Y-51865978I0J-1000022D01*
G01*
X76500000Y-124890978D02*
G75*
G02*
X75500022Y-123890978I0J999978D01*
G01*
X76500000Y-68890978D02*
X112000000Y-68890948D01*
X203900000Y-62390940D02*
G75*
G02*
X204399960Y-62890940I0J-499960D01*
G01*
X151000000Y-128740708D02*
X142366025Y-128740708D01*
X197099900Y-62390910D02*
X203900000Y-62390940D01*
X132500000Y-52240978D02*
G75*
G02*
X131500000Y-53241000I-1000000J-22D01*
G01*
X150500000Y-51865978D02*
X150500000Y-52240978D01*
X133199964Y-114591048D02*
X113999963Y-114490933D01*
X113000000Y-67890948D02*
X113000000Y-54240978D01*
X211500000Y-114343349D02*
G75*
G02*
X211366024Y-114843349I-999800J-51D01*
G01*
X209999970Y-114615970D02*
G75*
G02*
X208999998Y-115615970I-999970J-30D01*
G01*
M02*
