%TF.GenerationSoftware,KiCad,Pcbnew,8.0.4*%
%TF.CreationDate,2024-08-30T16:20:11+03:00*%
%TF.ProjectId,pcb,7063622e-6b69-4636-9164-5f7063625858,rev?*%
%TF.SameCoordinates,Original*%
%TF.FileFunction,Drillmap*%
%TF.FilePolarity,Positive*%
%FSLAX45Y45*%
G04 Gerber Fmt 4.5, Leading zero omitted, Abs format (unit mm)*
G04 Created by KiCad (PCBNEW 8.0.4) date 2024-08-30 16:20:11*
%MOMM*%
%LPD*%
G01*
G04 APERTURE LIST*
%ADD10C,0.200000*%
%ADD11C,0.100000*%
%ADD12C,0.300000*%
%ADD13C,0.500000*%
%ADD14C,0.570000*%
G04 APERTURE END LIST*
D10*
X11300000Y-5594098D02*
G75*
G02*
X11400000Y-5494100I100000J-2D01*
G01*
X19100000Y-8461597D02*
G75*
G02*
X19200000Y-8361600I100000J-3D01*
G01*
X21050000Y-5561598D02*
G75*
G02*
X21150002Y-5661598I0J-100002D01*
G01*
X19660000Y-6659096D02*
X19659990Y-6289091D01*
X11299996Y-12208385D02*
G75*
G02*
X11199996Y-12308386I-99996J-5D01*
G01*
X11199996Y-12308385D02*
X7650000Y-12309098D01*
X21000000Y-8461597D02*
X21000000Y-11461597D01*
X17050805Y-5561893D02*
G75*
G02*
X17005728Y-5511800I5295J50093D01*
G01*
X17898000Y-13370097D02*
X16060000Y-12874097D01*
X20440000Y-6289094D02*
X20439996Y-6659090D01*
X19710000Y-6709096D02*
G75*
G02*
X19659994Y-6659096I0J50006D01*
G01*
X14099998Y-11094099D02*
G75*
G02*
X14200001Y-11194099I2J-100001D01*
G01*
X19200000Y-8361597D02*
X20900000Y-8361597D01*
X13199730Y-4991125D02*
G75*
G02*
X13313912Y-4887872I107280J-3875D01*
G01*
X21150000Y-5661598D02*
X21150000Y-11434335D01*
X15164850Y-5425889D02*
X16919785Y-5425309D01*
X20389996Y-6709090D02*
X19710000Y-6709096D01*
X19566596Y-14203080D02*
G75*
G02*
X19429996Y-14239678I-86596J49990D01*
G01*
X19200000Y-11561597D02*
G75*
G02*
X19100003Y-11461597I0J99997D01*
G01*
X14200000Y-12824071D02*
X14199998Y-11194099D01*
X19429994Y-14239683D02*
X17898000Y-13370097D01*
X16919785Y-5425309D02*
G75*
G02*
X17005723Y-5511800I-555J-86491D01*
G01*
X11400000Y-5494098D02*
X13116350Y-5494748D01*
X19659990Y-6289091D02*
G75*
G02*
X19709990Y-6239090I50000J1D01*
G01*
X17050805Y-5561893D02*
X21050000Y-5561598D01*
X20439996Y-6659090D02*
G75*
G02*
X20389996Y-6709086I-49986J-10D01*
G01*
X7550000Y-6809098D02*
G75*
G02*
X7650000Y-6709100I100000J-2D01*
G01*
X20900000Y-8361600D02*
G75*
G02*
X21000000Y-8461597I0J-100000D01*
G01*
X21136603Y-11484335D02*
X19566596Y-14203080D01*
X11299996Y-11194090D02*
G75*
G02*
X11399996Y-11094086I100014J-10D01*
G01*
X15164850Y-5425889D02*
G75*
G02*
X15101132Y-5351188I12150J74889D01*
G01*
X19100000Y-11461597D02*
X19100000Y-8461597D01*
X7550000Y-12209098D02*
X7550000Y-6809098D01*
X14286602Y-12874071D02*
G75*
G02*
X14199998Y-12824072I-3J100001D01*
G01*
X13313912Y-4887879D02*
X14997997Y-4888169D01*
X20900000Y-11561597D02*
X19200000Y-11561597D01*
X11300000Y-6609095D02*
G75*
G02*
X11200000Y-6709090I-99990J-5D01*
G01*
X13199750Y-5400650D02*
X13199730Y-4991125D01*
X11299996Y-12208385D02*
X11299996Y-11194090D01*
X14997997Y-4888169D02*
G75*
G02*
X15100866Y-4988336I3003J-99821D01*
G01*
X7650000Y-12309098D02*
G75*
G02*
X7550002Y-12209098I0J99998D01*
G01*
X7650000Y-6709098D02*
X11200000Y-6709095D01*
X20390000Y-6239094D02*
G75*
G02*
X20440006Y-6289094I0J-50006D01*
G01*
X16060000Y-12874097D02*
X14286602Y-12874071D01*
X19709990Y-6239091D02*
X20390000Y-6239094D01*
X13199750Y-5400650D02*
G75*
G02*
X13116350Y-5494750I-88750J-5350D01*
G01*
X15100872Y-4988336D02*
X15101131Y-5351188D01*
X14099998Y-11094099D02*
X11399996Y-11094090D01*
X11300000Y-6609095D02*
X11300000Y-5594098D01*
X21150000Y-11434335D02*
G75*
G02*
X21136602Y-11484335I-99980J-5D01*
G01*
X20999997Y-11461597D02*
G75*
G02*
X20900000Y-11561597I-99997J-3D01*
G01*
D11*
X17855000Y-5674097D02*
X17945000Y-5764097D01*
X17945000Y-5674097D02*
X17855000Y-5764097D01*
X18155000Y-5674097D02*
X18245000Y-5764097D01*
X18245000Y-5674097D02*
X18155000Y-5764097D01*
D12*
X8160000Y-8079097D02*
G75*
G02*
X7860000Y-8079097I-150000J0D01*
G01*
X7860000Y-8079097D02*
G75*
G02*
X8160000Y-8079097I150000J0D01*
G01*
X8160000Y-9979097D02*
G75*
G02*
X7860000Y-9979097I-150000J0D01*
G01*
X7860000Y-9979097D02*
G75*
G02*
X8160000Y-9979097I150000J0D01*
G01*
X8160000Y-11879097D02*
G75*
G02*
X7860000Y-11879097I-150000J0D01*
G01*
X7860000Y-11879097D02*
G75*
G02*
X8160000Y-11879097I150000J0D01*
G01*
X8340000Y-8184097D02*
G75*
G02*
X8040000Y-8184097I-150000J0D01*
G01*
X8040000Y-8184097D02*
G75*
G02*
X8340000Y-8184097I150000J0D01*
G01*
X8340000Y-10084097D02*
G75*
G02*
X8040000Y-10084097I-150000J0D01*
G01*
X8040000Y-10084097D02*
G75*
G02*
X8340000Y-10084097I150000J0D01*
G01*
X8340000Y-11984097D02*
G75*
G02*
X8040000Y-11984097I-150000J0D01*
G01*
X8040000Y-11984097D02*
G75*
G02*
X8340000Y-11984097I150000J0D01*
G01*
X8860000Y-8184097D02*
G75*
G02*
X8560000Y-8184097I-150000J0D01*
G01*
X8560000Y-8184097D02*
G75*
G02*
X8860000Y-8184097I150000J0D01*
G01*
X8860000Y-10084097D02*
G75*
G02*
X8560000Y-10084097I-150000J0D01*
G01*
X8560000Y-10084097D02*
G75*
G02*
X8860000Y-10084097I150000J0D01*
G01*
X8860000Y-11984097D02*
G75*
G02*
X8560000Y-11984097I-150000J0D01*
G01*
X8560000Y-11984097D02*
G75*
G02*
X8860000Y-11984097I150000J0D01*
G01*
X9040000Y-8079097D02*
G75*
G02*
X8740000Y-8079097I-150000J0D01*
G01*
X8740000Y-8079097D02*
G75*
G02*
X9040000Y-8079097I150000J0D01*
G01*
X9040000Y-9979097D02*
G75*
G02*
X8740000Y-9979097I-150000J0D01*
G01*
X8740000Y-9979097D02*
G75*
G02*
X9040000Y-9979097I150000J0D01*
G01*
X9040000Y-11879097D02*
G75*
G02*
X8740000Y-11879097I-150000J0D01*
G01*
X8740000Y-11879097D02*
G75*
G02*
X9040000Y-11879097I150000J0D01*
G01*
X10060000Y-8079097D02*
G75*
G02*
X9760000Y-8079097I-150000J0D01*
G01*
X9760000Y-8079097D02*
G75*
G02*
X10060000Y-8079097I150000J0D01*
G01*
X10060000Y-9979097D02*
G75*
G02*
X9760000Y-9979097I-150000J0D01*
G01*
X9760000Y-9979097D02*
G75*
G02*
X10060000Y-9979097I150000J0D01*
G01*
X10060000Y-11879097D02*
G75*
G02*
X9760000Y-11879097I-150000J0D01*
G01*
X9760000Y-11879097D02*
G75*
G02*
X10060000Y-11879097I150000J0D01*
G01*
X10240000Y-8184097D02*
G75*
G02*
X9940000Y-8184097I-150000J0D01*
G01*
X9940000Y-8184097D02*
G75*
G02*
X10240000Y-8184097I150000J0D01*
G01*
X10240000Y-10084097D02*
G75*
G02*
X9940000Y-10084097I-150000J0D01*
G01*
X9940000Y-10084097D02*
G75*
G02*
X10240000Y-10084097I150000J0D01*
G01*
X10240000Y-11984097D02*
G75*
G02*
X9940000Y-11984097I-150000J0D01*
G01*
X9940000Y-11984097D02*
G75*
G02*
X10240000Y-11984097I150000J0D01*
G01*
X10760000Y-8184097D02*
G75*
G02*
X10460000Y-8184097I-150000J0D01*
G01*
X10460000Y-8184097D02*
G75*
G02*
X10760000Y-8184097I150000J0D01*
G01*
X10760000Y-10084097D02*
G75*
G02*
X10460000Y-10084097I-150000J0D01*
G01*
X10460000Y-10084097D02*
G75*
G02*
X10760000Y-10084097I150000J0D01*
G01*
X10760000Y-11984097D02*
G75*
G02*
X10460000Y-11984097I-150000J0D01*
G01*
X10460000Y-11984097D02*
G75*
G02*
X10760000Y-11984097I150000J0D01*
G01*
X10940000Y-8079097D02*
G75*
G02*
X10640000Y-8079097I-150000J0D01*
G01*
X10640000Y-8079097D02*
G75*
G02*
X10940000Y-8079097I150000J0D01*
G01*
X10940000Y-9979097D02*
G75*
G02*
X10640000Y-9979097I-150000J0D01*
G01*
X10640000Y-9979097D02*
G75*
G02*
X10940000Y-9979097I150000J0D01*
G01*
X10940000Y-11879097D02*
G75*
G02*
X10640000Y-11879097I-150000J0D01*
G01*
X10640000Y-11879097D02*
G75*
G02*
X10940000Y-11879097I150000J0D01*
G01*
X11960000Y-6864097D02*
G75*
G02*
X11660000Y-6864097I-150000J0D01*
G01*
X11660000Y-6864097D02*
G75*
G02*
X11960000Y-6864097I150000J0D01*
G01*
X11960000Y-8764097D02*
G75*
G02*
X11660000Y-8764097I-150000J0D01*
G01*
X11660000Y-8764097D02*
G75*
G02*
X11960000Y-8764097I150000J0D01*
G01*
X11960000Y-10664097D02*
G75*
G02*
X11660000Y-10664097I-150000J0D01*
G01*
X11660000Y-10664097D02*
G75*
G02*
X11960000Y-10664097I150000J0D01*
G01*
X12140000Y-6969097D02*
G75*
G02*
X11840000Y-6969097I-150000J0D01*
G01*
X11840000Y-6969097D02*
G75*
G02*
X12140000Y-6969097I150000J0D01*
G01*
X12140000Y-8869097D02*
G75*
G02*
X11840000Y-8869097I-150000J0D01*
G01*
X11840000Y-8869097D02*
G75*
G02*
X12140000Y-8869097I150000J0D01*
G01*
X12140000Y-10769097D02*
G75*
G02*
X11840000Y-10769097I-150000J0D01*
G01*
X11840000Y-10769097D02*
G75*
G02*
X12140000Y-10769097I150000J0D01*
G01*
X12660000Y-6969097D02*
G75*
G02*
X12360000Y-6969097I-150000J0D01*
G01*
X12360000Y-6969097D02*
G75*
G02*
X12660000Y-6969097I150000J0D01*
G01*
X12660000Y-8869097D02*
G75*
G02*
X12360000Y-8869097I-150000J0D01*
G01*
X12360000Y-8869097D02*
G75*
G02*
X12660000Y-8869097I150000J0D01*
G01*
X12660000Y-10769097D02*
G75*
G02*
X12360000Y-10769097I-150000J0D01*
G01*
X12360000Y-10769097D02*
G75*
G02*
X12660000Y-10769097I150000J0D01*
G01*
X12840000Y-6864097D02*
G75*
G02*
X12540000Y-6864097I-150000J0D01*
G01*
X12540000Y-6864097D02*
G75*
G02*
X12840000Y-6864097I150000J0D01*
G01*
X12840000Y-8764097D02*
G75*
G02*
X12540000Y-8764097I-150000J0D01*
G01*
X12540000Y-8764097D02*
G75*
G02*
X12840000Y-8764097I150000J0D01*
G01*
X12840000Y-10664097D02*
G75*
G02*
X12540000Y-10664097I-150000J0D01*
G01*
X12540000Y-10664097D02*
G75*
G02*
X12840000Y-10664097I150000J0D01*
G01*
X13860000Y-6256597D02*
G75*
G02*
X13560000Y-6256597I-150000J0D01*
G01*
X13560000Y-6256597D02*
G75*
G02*
X13860000Y-6256597I150000J0D01*
G01*
X13860000Y-8156597D02*
G75*
G02*
X13560000Y-8156597I-150000J0D01*
G01*
X13560000Y-8156597D02*
G75*
G02*
X13860000Y-8156597I150000J0D01*
G01*
X13860000Y-10056597D02*
G75*
G02*
X13560000Y-10056597I-150000J0D01*
G01*
X13560000Y-10056597D02*
G75*
G02*
X13860000Y-10056597I150000J0D01*
G01*
X14040000Y-6361597D02*
G75*
G02*
X13740000Y-6361597I-150000J0D01*
G01*
X13740000Y-6361597D02*
G75*
G02*
X14040000Y-6361597I150000J0D01*
G01*
X14040000Y-8261597D02*
G75*
G02*
X13740000Y-8261597I-150000J0D01*
G01*
X13740000Y-8261597D02*
G75*
G02*
X14040000Y-8261597I150000J0D01*
G01*
X14040000Y-10161597D02*
G75*
G02*
X13740000Y-10161597I-150000J0D01*
G01*
X13740000Y-10161597D02*
G75*
G02*
X14040000Y-10161597I150000J0D01*
G01*
X14560000Y-6361597D02*
G75*
G02*
X14260000Y-6361597I-150000J0D01*
G01*
X14260000Y-6361597D02*
G75*
G02*
X14560000Y-6361597I150000J0D01*
G01*
X14560000Y-8261597D02*
G75*
G02*
X14260000Y-8261597I-150000J0D01*
G01*
X14260000Y-8261597D02*
G75*
G02*
X14560000Y-8261597I150000J0D01*
G01*
X14560000Y-10161597D02*
G75*
G02*
X14260000Y-10161597I-150000J0D01*
G01*
X14260000Y-10161597D02*
G75*
G02*
X14560000Y-10161597I150000J0D01*
G01*
X14740000Y-6256597D02*
G75*
G02*
X14440000Y-6256597I-150000J0D01*
G01*
X14440000Y-6256597D02*
G75*
G02*
X14740000Y-6256597I150000J0D01*
G01*
X14740000Y-8156597D02*
G75*
G02*
X14440000Y-8156597I-150000J0D01*
G01*
X14440000Y-8156597D02*
G75*
G02*
X14740000Y-8156597I150000J0D01*
G01*
X14740000Y-10056597D02*
G75*
G02*
X14440000Y-10056597I-150000J0D01*
G01*
X14440000Y-10056597D02*
G75*
G02*
X14740000Y-10056597I150000J0D01*
G01*
X14860000Y-12444070D02*
G75*
G02*
X14560000Y-12444070I-150000J0D01*
G01*
X14560000Y-12444070D02*
G75*
G02*
X14860000Y-12444070I150000J0D01*
G01*
X15040000Y-12549070D02*
G75*
G02*
X14740000Y-12549070I-150000J0D01*
G01*
X14740000Y-12549070D02*
G75*
G02*
X15040000Y-12549070I150000J0D01*
G01*
X15560000Y-12549070D02*
G75*
G02*
X15260000Y-12549070I-150000J0D01*
G01*
X15260000Y-12549070D02*
G75*
G02*
X15560000Y-12549070I150000J0D01*
G01*
X15740000Y-12444070D02*
G75*
G02*
X15440000Y-12444070I-150000J0D01*
G01*
X15440000Y-12444070D02*
G75*
G02*
X15740000Y-12444070I150000J0D01*
G01*
X15760000Y-6794097D02*
G75*
G02*
X15460000Y-6794097I-150000J0D01*
G01*
X15460000Y-6794097D02*
G75*
G02*
X15760000Y-6794097I150000J0D01*
G01*
X15760000Y-8694097D02*
G75*
G02*
X15460000Y-8694097I-150000J0D01*
G01*
X15460000Y-8694097D02*
G75*
G02*
X15760000Y-8694097I150000J0D01*
G01*
X15760000Y-10594097D02*
G75*
G02*
X15460000Y-10594097I-150000J0D01*
G01*
X15460000Y-10594097D02*
G75*
G02*
X15760000Y-10594097I150000J0D01*
G01*
X15940000Y-6899097D02*
G75*
G02*
X15640000Y-6899097I-150000J0D01*
G01*
X15640000Y-6899097D02*
G75*
G02*
X15940000Y-6899097I150000J0D01*
G01*
X15940000Y-8799097D02*
G75*
G02*
X15640000Y-8799097I-150000J0D01*
G01*
X15640000Y-8799097D02*
G75*
G02*
X15940000Y-8799097I150000J0D01*
G01*
X15940000Y-10699097D02*
G75*
G02*
X15640000Y-10699097I-150000J0D01*
G01*
X15640000Y-10699097D02*
G75*
G02*
X15940000Y-10699097I150000J0D01*
G01*
X16460000Y-6899097D02*
G75*
G02*
X16160000Y-6899097I-150000J0D01*
G01*
X16160000Y-6899097D02*
G75*
G02*
X16460000Y-6899097I150000J0D01*
G01*
X16460000Y-8799097D02*
G75*
G02*
X16160000Y-8799097I-150000J0D01*
G01*
X16160000Y-8799097D02*
G75*
G02*
X16460000Y-8799097I150000J0D01*
G01*
X16460000Y-10699097D02*
G75*
G02*
X16160000Y-10699097I-150000J0D01*
G01*
X16160000Y-10699097D02*
G75*
G02*
X16460000Y-10699097I150000J0D01*
G01*
X16640000Y-6794097D02*
G75*
G02*
X16340000Y-6794097I-150000J0D01*
G01*
X16340000Y-6794097D02*
G75*
G02*
X16640000Y-6794097I150000J0D01*
G01*
X16640000Y-8694097D02*
G75*
G02*
X16340000Y-8694097I-150000J0D01*
G01*
X16340000Y-8694097D02*
G75*
G02*
X16640000Y-8694097I150000J0D01*
G01*
X16640000Y-10594097D02*
G75*
G02*
X16340000Y-10594097I-150000J0D01*
G01*
X16340000Y-10594097D02*
G75*
G02*
X16640000Y-10594097I150000J0D01*
G01*
X16816855Y-12592423D02*
G75*
G02*
X16516855Y-12592423I-150000J0D01*
G01*
X16516855Y-12592423D02*
G75*
G02*
X16816855Y-12592423I150000J0D01*
G01*
X16963546Y-12740433D02*
G75*
G02*
X16663546Y-12740433I-150000J0D01*
G01*
X16663546Y-12740433D02*
G75*
G02*
X16963546Y-12740433I150000J0D01*
G01*
X17465827Y-12875019D02*
G75*
G02*
X17165827Y-12875019I-150000J0D01*
G01*
X17165827Y-12875019D02*
G75*
G02*
X17465827Y-12875019I150000J0D01*
G01*
X17660000Y-6931597D02*
G75*
G02*
X17360000Y-6931597I-150000J0D01*
G01*
X17360000Y-6931597D02*
G75*
G02*
X17660000Y-6931597I150000J0D01*
G01*
X17660000Y-8831597D02*
G75*
G02*
X17360000Y-8831597I-150000J0D01*
G01*
X17360000Y-8831597D02*
G75*
G02*
X17660000Y-8831597I150000J0D01*
G01*
X17660000Y-10731597D02*
G75*
G02*
X17360000Y-10731597I-150000J0D01*
G01*
X17360000Y-10731597D02*
G75*
G02*
X17660000Y-10731597I150000J0D01*
G01*
X17666870Y-12820184D02*
G75*
G02*
X17366870Y-12820184I-150000J0D01*
G01*
X17366870Y-12820184D02*
G75*
G02*
X17666870Y-12820184I150000J0D01*
G01*
X17840000Y-7036597D02*
G75*
G02*
X17540000Y-7036597I-150000J0D01*
G01*
X17540000Y-7036597D02*
G75*
G02*
X17840000Y-7036597I150000J0D01*
G01*
X17840000Y-8936597D02*
G75*
G02*
X17540000Y-8936597I-150000J0D01*
G01*
X17540000Y-8936597D02*
G75*
G02*
X17840000Y-8936597I150000J0D01*
G01*
X17840000Y-10836597D02*
G75*
G02*
X17540000Y-10836597I-150000J0D01*
G01*
X17540000Y-10836597D02*
G75*
G02*
X17840000Y-10836597I150000J0D01*
G01*
X18360000Y-7036597D02*
G75*
G02*
X18060000Y-7036597I-150000J0D01*
G01*
X18060000Y-7036597D02*
G75*
G02*
X18360000Y-7036597I150000J0D01*
G01*
X18360000Y-8936597D02*
G75*
G02*
X18060000Y-8936597I-150000J0D01*
G01*
X18060000Y-8936597D02*
G75*
G02*
X18360000Y-8936597I150000J0D01*
G01*
X18360000Y-10836597D02*
G75*
G02*
X18060000Y-10836597I-150000J0D01*
G01*
X18060000Y-10836597D02*
G75*
G02*
X18360000Y-10836597I150000J0D01*
G01*
X18540000Y-6931597D02*
G75*
G02*
X18240000Y-6931597I-150000J0D01*
G01*
X18240000Y-6931597D02*
G75*
G02*
X18540000Y-6931597I150000J0D01*
G01*
X18540000Y-8831597D02*
G75*
G02*
X18240000Y-8831597I-150000J0D01*
G01*
X18240000Y-8831597D02*
G75*
G02*
X18540000Y-8831597I150000J0D01*
G01*
X18540000Y-10731597D02*
G75*
G02*
X18240000Y-10731597I-150000J0D01*
G01*
X18240000Y-10731597D02*
G75*
G02*
X18540000Y-10731597I150000J0D01*
G01*
X18681675Y-13228949D02*
G75*
G02*
X18381675Y-13228949I-150000J0D01*
G01*
X18381675Y-13228949D02*
G75*
G02*
X18681675Y-13228949I150000J0D01*
G01*
X18785060Y-13409882D02*
G75*
G02*
X18485060Y-13409882I-150000J0D01*
G01*
X18485060Y-13409882D02*
G75*
G02*
X18785060Y-13409882I150000J0D01*
G01*
X19235393Y-13669882D02*
G75*
G02*
X18935393Y-13669882I-150000J0D01*
G01*
X18935393Y-13669882D02*
G75*
G02*
X19235393Y-13669882I150000J0D01*
G01*
X19443778Y-13668949D02*
G75*
G02*
X19143778Y-13668949I-150000J0D01*
G01*
X19143778Y-13668949D02*
G75*
G02*
X19443778Y-13668949I150000J0D01*
G01*
D13*
X8450000Y-7359097D02*
X8450000Y-7859097D01*
X8200000Y-7609097D02*
X8700000Y-7609097D01*
X8450000Y-9259097D02*
X8450000Y-9759097D01*
X8200000Y-9509097D02*
X8700000Y-9509097D01*
X8450000Y-11159097D02*
X8450000Y-11659097D01*
X8200000Y-11409097D02*
X8700000Y-11409097D01*
X10350000Y-7359097D02*
X10350000Y-7859097D01*
X10100000Y-7609097D02*
X10600000Y-7609097D01*
X10350000Y-9259097D02*
X10350000Y-9759097D01*
X10100000Y-9509097D02*
X10600000Y-9509097D01*
X10350000Y-11159097D02*
X10350000Y-11659097D01*
X10100000Y-11409097D02*
X10600000Y-11409097D01*
X12250000Y-6144097D02*
X12250000Y-6644097D01*
X12000000Y-6394097D02*
X12500000Y-6394097D01*
X12250000Y-8044097D02*
X12250000Y-8544097D01*
X12000000Y-8294097D02*
X12500000Y-8294097D01*
X12250000Y-9944097D02*
X12250000Y-10444097D01*
X12000000Y-10194097D02*
X12500000Y-10194097D01*
X14150000Y-5536597D02*
X14150000Y-6036597D01*
X13900000Y-5786597D02*
X14400000Y-5786597D01*
X14150000Y-7436597D02*
X14150000Y-7936597D01*
X13900000Y-7686597D02*
X14400000Y-7686597D01*
X14150000Y-9336597D02*
X14150000Y-9836597D01*
X13900000Y-9586597D02*
X14400000Y-9586597D01*
X15150000Y-11724070D02*
X15150000Y-12224070D01*
X14900000Y-11974070D02*
X15400000Y-11974070D01*
X16050000Y-6074097D02*
X16050000Y-6574097D01*
X15800000Y-6324097D02*
X16300000Y-6324097D01*
X16050000Y-7974097D02*
X16050000Y-8474097D01*
X15800000Y-8224097D02*
X16300000Y-8224097D01*
X16050000Y-9874097D02*
X16050000Y-10374097D01*
X15800000Y-10124097D02*
X16300000Y-10124097D01*
X17213508Y-12002319D02*
X17213508Y-12502319D01*
X16963508Y-12252319D02*
X17463508Y-12252319D01*
X17950000Y-6211597D02*
X17950000Y-6711597D01*
X17700000Y-6461597D02*
X18200000Y-6461597D01*
X17950000Y-8111597D02*
X17950000Y-8611597D01*
X17700000Y-8361597D02*
X18200000Y-8361597D01*
X17950000Y-10011597D02*
X17950000Y-10511597D01*
X17700000Y-10261597D02*
X18200000Y-10261597D01*
X19147726Y-12791917D02*
X19147726Y-13291917D01*
X18897726Y-13041917D02*
X19397726Y-13041917D01*
D14*
X9601527Y-8760624D02*
X9601527Y-8357570D01*
X9198473Y-8357570D01*
X9198473Y-8760624D01*
X9601527Y-8760624D01*
X9601527Y-10660624D02*
X9601527Y-10257570D01*
X9198473Y-10257570D01*
X9198473Y-10660624D01*
X9601527Y-10660624D01*
X17201527Y-7494374D02*
X17201527Y-7091320D01*
X16798473Y-7091320D01*
X16798473Y-7494374D01*
X17201527Y-7494374D01*
X18819743Y-11847841D02*
X18819743Y-11444786D01*
X18416688Y-11444786D01*
X18416688Y-11847841D01*
X18819743Y-11847841D01*
D10*
X7800777Y-14574563D02*
X7800777Y-14374563D01*
X7800777Y-14374563D02*
X7848396Y-14374563D01*
X7848396Y-14374563D02*
X7876967Y-14384087D01*
X7876967Y-14384087D02*
X7896015Y-14403135D01*
X7896015Y-14403135D02*
X7905539Y-14422182D01*
X7905539Y-14422182D02*
X7915062Y-14460277D01*
X7915062Y-14460277D02*
X7915062Y-14488849D01*
X7915062Y-14488849D02*
X7905539Y-14526944D01*
X7905539Y-14526944D02*
X7896015Y-14545992D01*
X7896015Y-14545992D02*
X7876967Y-14565039D01*
X7876967Y-14565039D02*
X7848396Y-14574563D01*
X7848396Y-14574563D02*
X7800777Y-14574563D01*
X8000777Y-14574563D02*
X8000777Y-14441230D01*
X8000777Y-14479325D02*
X8010301Y-14460277D01*
X8010301Y-14460277D02*
X8019824Y-14450754D01*
X8019824Y-14450754D02*
X8038872Y-14441230D01*
X8038872Y-14441230D02*
X8057920Y-14441230D01*
X8124586Y-14574563D02*
X8124586Y-14441230D01*
X8124586Y-14374563D02*
X8115062Y-14384087D01*
X8115062Y-14384087D02*
X8124586Y-14393611D01*
X8124586Y-14393611D02*
X8134110Y-14384087D01*
X8134110Y-14384087D02*
X8124586Y-14374563D01*
X8124586Y-14374563D02*
X8124586Y-14393611D01*
X8248396Y-14574563D02*
X8229348Y-14565039D01*
X8229348Y-14565039D02*
X8219824Y-14545992D01*
X8219824Y-14545992D02*
X8219824Y-14374563D01*
X8353158Y-14574563D02*
X8334110Y-14565039D01*
X8334110Y-14565039D02*
X8324586Y-14545992D01*
X8324586Y-14545992D02*
X8324586Y-14374563D01*
X8581729Y-14574563D02*
X8581729Y-14374563D01*
X8581729Y-14374563D02*
X8648396Y-14517420D01*
X8648396Y-14517420D02*
X8715063Y-14374563D01*
X8715063Y-14374563D02*
X8715063Y-14574563D01*
X8896015Y-14574563D02*
X8896015Y-14469801D01*
X8896015Y-14469801D02*
X8886491Y-14450754D01*
X8886491Y-14450754D02*
X8867444Y-14441230D01*
X8867444Y-14441230D02*
X8829348Y-14441230D01*
X8829348Y-14441230D02*
X8810301Y-14450754D01*
X8896015Y-14565039D02*
X8876967Y-14574563D01*
X8876967Y-14574563D02*
X8829348Y-14574563D01*
X8829348Y-14574563D02*
X8810301Y-14565039D01*
X8810301Y-14565039D02*
X8800777Y-14545992D01*
X8800777Y-14545992D02*
X8800777Y-14526944D01*
X8800777Y-14526944D02*
X8810301Y-14507897D01*
X8810301Y-14507897D02*
X8829348Y-14498373D01*
X8829348Y-14498373D02*
X8876967Y-14498373D01*
X8876967Y-14498373D02*
X8896015Y-14488849D01*
X8991253Y-14441230D02*
X8991253Y-14641230D01*
X8991253Y-14450754D02*
X9010301Y-14441230D01*
X9010301Y-14441230D02*
X9048396Y-14441230D01*
X9048396Y-14441230D02*
X9067444Y-14450754D01*
X9067444Y-14450754D02*
X9076967Y-14460277D01*
X9076967Y-14460277D02*
X9086491Y-14479325D01*
X9086491Y-14479325D02*
X9086491Y-14536468D01*
X9086491Y-14536468D02*
X9076967Y-14555516D01*
X9076967Y-14555516D02*
X9067444Y-14565039D01*
X9067444Y-14565039D02*
X9048396Y-14574563D01*
X9048396Y-14574563D02*
X9010301Y-14574563D01*
X9010301Y-14574563D02*
X8991253Y-14565039D01*
X9172205Y-14555516D02*
X9181729Y-14565039D01*
X9181729Y-14565039D02*
X9172205Y-14574563D01*
X9172205Y-14574563D02*
X9162682Y-14565039D01*
X9162682Y-14565039D02*
X9172205Y-14555516D01*
X9172205Y-14555516D02*
X9172205Y-14574563D01*
X9172205Y-14450754D02*
X9181729Y-14460277D01*
X9181729Y-14460277D02*
X9172205Y-14469801D01*
X9172205Y-14469801D02*
X9162682Y-14460277D01*
X9162682Y-14460277D02*
X9172205Y-14450754D01*
X9172205Y-14450754D02*
X9172205Y-14469801D01*
D11*
X7450000Y-14858079D02*
X7540000Y-14948079D01*
X7540000Y-14858079D02*
X7450000Y-14948079D01*
D10*
X7838872Y-14794563D02*
X7857920Y-14794563D01*
X7857920Y-14794563D02*
X7876967Y-14804087D01*
X7876967Y-14804087D02*
X7886491Y-14813611D01*
X7886491Y-14813611D02*
X7896015Y-14832658D01*
X7896015Y-14832658D02*
X7905539Y-14870754D01*
X7905539Y-14870754D02*
X7905539Y-14918373D01*
X7905539Y-14918373D02*
X7896015Y-14956468D01*
X7896015Y-14956468D02*
X7886491Y-14975516D01*
X7886491Y-14975516D02*
X7876967Y-14985039D01*
X7876967Y-14985039D02*
X7857920Y-14994563D01*
X7857920Y-14994563D02*
X7838872Y-14994563D01*
X7838872Y-14994563D02*
X7819824Y-14985039D01*
X7819824Y-14985039D02*
X7810301Y-14975516D01*
X7810301Y-14975516D02*
X7800777Y-14956468D01*
X7800777Y-14956468D02*
X7791253Y-14918373D01*
X7791253Y-14918373D02*
X7791253Y-14870754D01*
X7791253Y-14870754D02*
X7800777Y-14832658D01*
X7800777Y-14832658D02*
X7810301Y-14813611D01*
X7810301Y-14813611D02*
X7819824Y-14804087D01*
X7819824Y-14804087D02*
X7838872Y-14794563D01*
X7991253Y-14975516D02*
X8000777Y-14985039D01*
X8000777Y-14985039D02*
X7991253Y-14994563D01*
X7991253Y-14994563D02*
X7981729Y-14985039D01*
X7981729Y-14985039D02*
X7991253Y-14975516D01*
X7991253Y-14975516D02*
X7991253Y-14994563D01*
X8096015Y-14994563D02*
X8134110Y-14994563D01*
X8134110Y-14994563D02*
X8153158Y-14985039D01*
X8153158Y-14985039D02*
X8162682Y-14975516D01*
X8162682Y-14975516D02*
X8181729Y-14946944D01*
X8181729Y-14946944D02*
X8191253Y-14908849D01*
X8191253Y-14908849D02*
X8191253Y-14832658D01*
X8191253Y-14832658D02*
X8181729Y-14813611D01*
X8181729Y-14813611D02*
X8172205Y-14804087D01*
X8172205Y-14804087D02*
X8153158Y-14794563D01*
X8153158Y-14794563D02*
X8115062Y-14794563D01*
X8115062Y-14794563D02*
X8096015Y-14804087D01*
X8096015Y-14804087D02*
X8086491Y-14813611D01*
X8086491Y-14813611D02*
X8076967Y-14832658D01*
X8076967Y-14832658D02*
X8076967Y-14880277D01*
X8076967Y-14880277D02*
X8086491Y-14899325D01*
X8086491Y-14899325D02*
X8096015Y-14908849D01*
X8096015Y-14908849D02*
X8115062Y-14918373D01*
X8115062Y-14918373D02*
X8153158Y-14918373D01*
X8153158Y-14918373D02*
X8172205Y-14908849D01*
X8172205Y-14908849D02*
X8181729Y-14899325D01*
X8181729Y-14899325D02*
X8191253Y-14880277D01*
X8315062Y-14794563D02*
X8334110Y-14794563D01*
X8334110Y-14794563D02*
X8353158Y-14804087D01*
X8353158Y-14804087D02*
X8362682Y-14813611D01*
X8362682Y-14813611D02*
X8372205Y-14832658D01*
X8372205Y-14832658D02*
X8381729Y-14870754D01*
X8381729Y-14870754D02*
X8381729Y-14918373D01*
X8381729Y-14918373D02*
X8372205Y-14956468D01*
X8372205Y-14956468D02*
X8362682Y-14975516D01*
X8362682Y-14975516D02*
X8353158Y-14985039D01*
X8353158Y-14985039D02*
X8334110Y-14994563D01*
X8334110Y-14994563D02*
X8315062Y-14994563D01*
X8315062Y-14994563D02*
X8296015Y-14985039D01*
X8296015Y-14985039D02*
X8286491Y-14975516D01*
X8286491Y-14975516D02*
X8276967Y-14956468D01*
X8276967Y-14956468D02*
X8267443Y-14918373D01*
X8267443Y-14918373D02*
X8267443Y-14870754D01*
X8267443Y-14870754D02*
X8276967Y-14832658D01*
X8276967Y-14832658D02*
X8286491Y-14813611D01*
X8286491Y-14813611D02*
X8296015Y-14804087D01*
X8296015Y-14804087D02*
X8315062Y-14794563D01*
X8505539Y-14794563D02*
X8524586Y-14794563D01*
X8524586Y-14794563D02*
X8543634Y-14804087D01*
X8543634Y-14804087D02*
X8553158Y-14813611D01*
X8553158Y-14813611D02*
X8562682Y-14832658D01*
X8562682Y-14832658D02*
X8572205Y-14870754D01*
X8572205Y-14870754D02*
X8572205Y-14918373D01*
X8572205Y-14918373D02*
X8562682Y-14956468D01*
X8562682Y-14956468D02*
X8553158Y-14975516D01*
X8553158Y-14975516D02*
X8543634Y-14985039D01*
X8543634Y-14985039D02*
X8524586Y-14994563D01*
X8524586Y-14994563D02*
X8505539Y-14994563D01*
X8505539Y-14994563D02*
X8486491Y-14985039D01*
X8486491Y-14985039D02*
X8476967Y-14975516D01*
X8476967Y-14975516D02*
X8467444Y-14956468D01*
X8467444Y-14956468D02*
X8457920Y-14918373D01*
X8457920Y-14918373D02*
X8457920Y-14870754D01*
X8457920Y-14870754D02*
X8467444Y-14832658D01*
X8467444Y-14832658D02*
X8476967Y-14813611D01*
X8476967Y-14813611D02*
X8486491Y-14804087D01*
X8486491Y-14804087D02*
X8505539Y-14794563D01*
X8657920Y-14994563D02*
X8657920Y-14861230D01*
X8657920Y-14880277D02*
X8667444Y-14870754D01*
X8667444Y-14870754D02*
X8686491Y-14861230D01*
X8686491Y-14861230D02*
X8715063Y-14861230D01*
X8715063Y-14861230D02*
X8734110Y-14870754D01*
X8734110Y-14870754D02*
X8743634Y-14889801D01*
X8743634Y-14889801D02*
X8743634Y-14994563D01*
X8743634Y-14889801D02*
X8753158Y-14870754D01*
X8753158Y-14870754D02*
X8772205Y-14861230D01*
X8772205Y-14861230D02*
X8800777Y-14861230D01*
X8800777Y-14861230D02*
X8819825Y-14870754D01*
X8819825Y-14870754D02*
X8829348Y-14889801D01*
X8829348Y-14889801D02*
X8829348Y-14994563D01*
X8924586Y-14994563D02*
X8924586Y-14861230D01*
X8924586Y-14880277D02*
X8934110Y-14870754D01*
X8934110Y-14870754D02*
X8953158Y-14861230D01*
X8953158Y-14861230D02*
X8981729Y-14861230D01*
X8981729Y-14861230D02*
X9000777Y-14870754D01*
X9000777Y-14870754D02*
X9010301Y-14889801D01*
X9010301Y-14889801D02*
X9010301Y-14994563D01*
X9010301Y-14889801D02*
X9019825Y-14870754D01*
X9019825Y-14870754D02*
X9038872Y-14861230D01*
X9038872Y-14861230D02*
X9067444Y-14861230D01*
X9067444Y-14861230D02*
X9086491Y-14870754D01*
X9086491Y-14870754D02*
X9096015Y-14889801D01*
X9096015Y-14889801D02*
X9096015Y-14994563D01*
X9486491Y-14785039D02*
X9315063Y-15042182D01*
X9743634Y-14794563D02*
X9762682Y-14794563D01*
X9762682Y-14794563D02*
X9781729Y-14804087D01*
X9781729Y-14804087D02*
X9791253Y-14813611D01*
X9791253Y-14813611D02*
X9800777Y-14832658D01*
X9800777Y-14832658D02*
X9810301Y-14870754D01*
X9810301Y-14870754D02*
X9810301Y-14918373D01*
X9810301Y-14918373D02*
X9800777Y-14956468D01*
X9800777Y-14956468D02*
X9791253Y-14975516D01*
X9791253Y-14975516D02*
X9781729Y-14985039D01*
X9781729Y-14985039D02*
X9762682Y-14994563D01*
X9762682Y-14994563D02*
X9743634Y-14994563D01*
X9743634Y-14994563D02*
X9724587Y-14985039D01*
X9724587Y-14985039D02*
X9715063Y-14975516D01*
X9715063Y-14975516D02*
X9705539Y-14956468D01*
X9705539Y-14956468D02*
X9696015Y-14918373D01*
X9696015Y-14918373D02*
X9696015Y-14870754D01*
X9696015Y-14870754D02*
X9705539Y-14832658D01*
X9705539Y-14832658D02*
X9715063Y-14813611D01*
X9715063Y-14813611D02*
X9724587Y-14804087D01*
X9724587Y-14804087D02*
X9743634Y-14794563D01*
X9896015Y-14975516D02*
X9905539Y-14985039D01*
X9905539Y-14985039D02*
X9896015Y-14994563D01*
X9896015Y-14994563D02*
X9886491Y-14985039D01*
X9886491Y-14985039D02*
X9896015Y-14975516D01*
X9896015Y-14975516D02*
X9896015Y-14994563D01*
X10029348Y-14794563D02*
X10048396Y-14794563D01*
X10048396Y-14794563D02*
X10067444Y-14804087D01*
X10067444Y-14804087D02*
X10076968Y-14813611D01*
X10076968Y-14813611D02*
X10086491Y-14832658D01*
X10086491Y-14832658D02*
X10096015Y-14870754D01*
X10096015Y-14870754D02*
X10096015Y-14918373D01*
X10096015Y-14918373D02*
X10086491Y-14956468D01*
X10086491Y-14956468D02*
X10076968Y-14975516D01*
X10076968Y-14975516D02*
X10067444Y-14985039D01*
X10067444Y-14985039D02*
X10048396Y-14994563D01*
X10048396Y-14994563D02*
X10029348Y-14994563D01*
X10029348Y-14994563D02*
X10010301Y-14985039D01*
X10010301Y-14985039D02*
X10000777Y-14975516D01*
X10000777Y-14975516D02*
X9991253Y-14956468D01*
X9991253Y-14956468D02*
X9981729Y-14918373D01*
X9981729Y-14918373D02*
X9981729Y-14870754D01*
X9981729Y-14870754D02*
X9991253Y-14832658D01*
X9991253Y-14832658D02*
X10000777Y-14813611D01*
X10000777Y-14813611D02*
X10010301Y-14804087D01*
X10010301Y-14804087D02*
X10029348Y-14794563D01*
X10162682Y-14794563D02*
X10286491Y-14794563D01*
X10286491Y-14794563D02*
X10219825Y-14870754D01*
X10219825Y-14870754D02*
X10248396Y-14870754D01*
X10248396Y-14870754D02*
X10267444Y-14880277D01*
X10267444Y-14880277D02*
X10276968Y-14889801D01*
X10276968Y-14889801D02*
X10286491Y-14908849D01*
X10286491Y-14908849D02*
X10286491Y-14956468D01*
X10286491Y-14956468D02*
X10276968Y-14975516D01*
X10276968Y-14975516D02*
X10267444Y-14985039D01*
X10267444Y-14985039D02*
X10248396Y-14994563D01*
X10248396Y-14994563D02*
X10191253Y-14994563D01*
X10191253Y-14994563D02*
X10172206Y-14985039D01*
X10172206Y-14985039D02*
X10162682Y-14975516D01*
X10467444Y-14794563D02*
X10372206Y-14794563D01*
X10372206Y-14794563D02*
X10362682Y-14889801D01*
X10362682Y-14889801D02*
X10372206Y-14880277D01*
X10372206Y-14880277D02*
X10391253Y-14870754D01*
X10391253Y-14870754D02*
X10438872Y-14870754D01*
X10438872Y-14870754D02*
X10457920Y-14880277D01*
X10457920Y-14880277D02*
X10467444Y-14889801D01*
X10467444Y-14889801D02*
X10476968Y-14908849D01*
X10476968Y-14908849D02*
X10476968Y-14956468D01*
X10476968Y-14956468D02*
X10467444Y-14975516D01*
X10467444Y-14975516D02*
X10457920Y-14985039D01*
X10457920Y-14985039D02*
X10438872Y-14994563D01*
X10438872Y-14994563D02*
X10391253Y-14994563D01*
X10391253Y-14994563D02*
X10372206Y-14985039D01*
X10372206Y-14985039D02*
X10362682Y-14975516D01*
X10648396Y-14861230D02*
X10648396Y-14994563D01*
X10600777Y-14785039D02*
X10553158Y-14927897D01*
X10553158Y-14927897D02*
X10676968Y-14927897D01*
X10743634Y-14794563D02*
X10743634Y-14832658D01*
X10819825Y-14794563D02*
X10819825Y-14832658D01*
X11115063Y-15070754D02*
X11105539Y-15061230D01*
X11105539Y-15061230D02*
X11086491Y-15032658D01*
X11086491Y-15032658D02*
X11076968Y-15013611D01*
X11076968Y-15013611D02*
X11067444Y-14985039D01*
X11067444Y-14985039D02*
X11057920Y-14937420D01*
X11057920Y-14937420D02*
X11057920Y-14899325D01*
X11057920Y-14899325D02*
X11067444Y-14851706D01*
X11067444Y-14851706D02*
X11076968Y-14823135D01*
X11076968Y-14823135D02*
X11086491Y-14804087D01*
X11086491Y-14804087D02*
X11105539Y-14775516D01*
X11105539Y-14775516D02*
X11115063Y-14765992D01*
X11181730Y-14813611D02*
X11191253Y-14804087D01*
X11191253Y-14804087D02*
X11210301Y-14794563D01*
X11210301Y-14794563D02*
X11257920Y-14794563D01*
X11257920Y-14794563D02*
X11276968Y-14804087D01*
X11276968Y-14804087D02*
X11286491Y-14813611D01*
X11286491Y-14813611D02*
X11296015Y-14832658D01*
X11296015Y-14832658D02*
X11296015Y-14851706D01*
X11296015Y-14851706D02*
X11286491Y-14880277D01*
X11286491Y-14880277D02*
X11172206Y-14994563D01*
X11172206Y-14994563D02*
X11296015Y-14994563D01*
X11534110Y-14994563D02*
X11534110Y-14794563D01*
X11619825Y-14994563D02*
X11619825Y-14889801D01*
X11619825Y-14889801D02*
X11610301Y-14870754D01*
X11610301Y-14870754D02*
X11591253Y-14861230D01*
X11591253Y-14861230D02*
X11562682Y-14861230D01*
X11562682Y-14861230D02*
X11543634Y-14870754D01*
X11543634Y-14870754D02*
X11534110Y-14880277D01*
X11743634Y-14994563D02*
X11724587Y-14985039D01*
X11724587Y-14985039D02*
X11715063Y-14975516D01*
X11715063Y-14975516D02*
X11705539Y-14956468D01*
X11705539Y-14956468D02*
X11705539Y-14899325D01*
X11705539Y-14899325D02*
X11715063Y-14880277D01*
X11715063Y-14880277D02*
X11724587Y-14870754D01*
X11724587Y-14870754D02*
X11743634Y-14861230D01*
X11743634Y-14861230D02*
X11772206Y-14861230D01*
X11772206Y-14861230D02*
X11791253Y-14870754D01*
X11791253Y-14870754D02*
X11800777Y-14880277D01*
X11800777Y-14880277D02*
X11810301Y-14899325D01*
X11810301Y-14899325D02*
X11810301Y-14956468D01*
X11810301Y-14956468D02*
X11800777Y-14975516D01*
X11800777Y-14975516D02*
X11791253Y-14985039D01*
X11791253Y-14985039D02*
X11772206Y-14994563D01*
X11772206Y-14994563D02*
X11743634Y-14994563D01*
X11924587Y-14994563D02*
X11905539Y-14985039D01*
X11905539Y-14985039D02*
X11896015Y-14965992D01*
X11896015Y-14965992D02*
X11896015Y-14794563D01*
X12076968Y-14985039D02*
X12057920Y-14994563D01*
X12057920Y-14994563D02*
X12019825Y-14994563D01*
X12019825Y-14994563D02*
X12000777Y-14985039D01*
X12000777Y-14985039D02*
X11991253Y-14965992D01*
X11991253Y-14965992D02*
X11991253Y-14889801D01*
X11991253Y-14889801D02*
X12000777Y-14870754D01*
X12000777Y-14870754D02*
X12019825Y-14861230D01*
X12019825Y-14861230D02*
X12057920Y-14861230D01*
X12057920Y-14861230D02*
X12076968Y-14870754D01*
X12076968Y-14870754D02*
X12086491Y-14889801D01*
X12086491Y-14889801D02*
X12086491Y-14908849D01*
X12086491Y-14908849D02*
X11991253Y-14927897D01*
X12162682Y-14985039D02*
X12181730Y-14994563D01*
X12181730Y-14994563D02*
X12219825Y-14994563D01*
X12219825Y-14994563D02*
X12238872Y-14985039D01*
X12238872Y-14985039D02*
X12248396Y-14965992D01*
X12248396Y-14965992D02*
X12248396Y-14956468D01*
X12248396Y-14956468D02*
X12238872Y-14937420D01*
X12238872Y-14937420D02*
X12219825Y-14927897D01*
X12219825Y-14927897D02*
X12191253Y-14927897D01*
X12191253Y-14927897D02*
X12172206Y-14918373D01*
X12172206Y-14918373D02*
X12162682Y-14899325D01*
X12162682Y-14899325D02*
X12162682Y-14889801D01*
X12162682Y-14889801D02*
X12172206Y-14870754D01*
X12172206Y-14870754D02*
X12191253Y-14861230D01*
X12191253Y-14861230D02*
X12219825Y-14861230D01*
X12219825Y-14861230D02*
X12238872Y-14870754D01*
X12315063Y-15070754D02*
X12324587Y-15061230D01*
X12324587Y-15061230D02*
X12343634Y-15032658D01*
X12343634Y-15032658D02*
X12353158Y-15013611D01*
X12353158Y-15013611D02*
X12362682Y-14985039D01*
X12362682Y-14985039D02*
X12372206Y-14937420D01*
X12372206Y-14937420D02*
X12372206Y-14899325D01*
X12372206Y-14899325D02*
X12362682Y-14851706D01*
X12362682Y-14851706D02*
X12353158Y-14823135D01*
X12353158Y-14823135D02*
X12343634Y-14804087D01*
X12343634Y-14804087D02*
X12324587Y-14775516D01*
X12324587Y-14775516D02*
X12315063Y-14765992D01*
X12676968Y-15070754D02*
X12667444Y-15061230D01*
X12667444Y-15061230D02*
X12648396Y-15032658D01*
X12648396Y-15032658D02*
X12638872Y-15013611D01*
X12638872Y-15013611D02*
X12629349Y-14985039D01*
X12629349Y-14985039D02*
X12619825Y-14937420D01*
X12619825Y-14937420D02*
X12619825Y-14899325D01*
X12619825Y-14899325D02*
X12629349Y-14851706D01*
X12629349Y-14851706D02*
X12638872Y-14823135D01*
X12638872Y-14823135D02*
X12648396Y-14804087D01*
X12648396Y-14804087D02*
X12667444Y-14775516D01*
X12667444Y-14775516D02*
X12676968Y-14765992D01*
X12753158Y-14861230D02*
X12753158Y-14994563D01*
X12753158Y-14880277D02*
X12762682Y-14870754D01*
X12762682Y-14870754D02*
X12781730Y-14861230D01*
X12781730Y-14861230D02*
X12810301Y-14861230D01*
X12810301Y-14861230D02*
X12829349Y-14870754D01*
X12829349Y-14870754D02*
X12838872Y-14889801D01*
X12838872Y-14889801D02*
X12838872Y-14994563D01*
X12962682Y-14994563D02*
X12943634Y-14985039D01*
X12943634Y-14985039D02*
X12934111Y-14975516D01*
X12934111Y-14975516D02*
X12924587Y-14956468D01*
X12924587Y-14956468D02*
X12924587Y-14899325D01*
X12924587Y-14899325D02*
X12934111Y-14880277D01*
X12934111Y-14880277D02*
X12943634Y-14870754D01*
X12943634Y-14870754D02*
X12962682Y-14861230D01*
X12962682Y-14861230D02*
X12991253Y-14861230D01*
X12991253Y-14861230D02*
X13010301Y-14870754D01*
X13010301Y-14870754D02*
X13019825Y-14880277D01*
X13019825Y-14880277D02*
X13029349Y-14899325D01*
X13029349Y-14899325D02*
X13029349Y-14956468D01*
X13029349Y-14956468D02*
X13019825Y-14975516D01*
X13019825Y-14975516D02*
X13010301Y-14985039D01*
X13010301Y-14985039D02*
X12991253Y-14994563D01*
X12991253Y-14994563D02*
X12962682Y-14994563D01*
X13086492Y-14861230D02*
X13162682Y-14861230D01*
X13115063Y-14794563D02*
X13115063Y-14965992D01*
X13115063Y-14965992D02*
X13124587Y-14985039D01*
X13124587Y-14985039D02*
X13143634Y-14994563D01*
X13143634Y-14994563D02*
X13162682Y-14994563D01*
X13381730Y-14861230D02*
X13381730Y-15061230D01*
X13381730Y-14870754D02*
X13400777Y-14861230D01*
X13400777Y-14861230D02*
X13438873Y-14861230D01*
X13438873Y-14861230D02*
X13457920Y-14870754D01*
X13457920Y-14870754D02*
X13467444Y-14880277D01*
X13467444Y-14880277D02*
X13476968Y-14899325D01*
X13476968Y-14899325D02*
X13476968Y-14956468D01*
X13476968Y-14956468D02*
X13467444Y-14975516D01*
X13467444Y-14975516D02*
X13457920Y-14985039D01*
X13457920Y-14985039D02*
X13438873Y-14994563D01*
X13438873Y-14994563D02*
X13400777Y-14994563D01*
X13400777Y-14994563D02*
X13381730Y-14985039D01*
X13591253Y-14994563D02*
X13572206Y-14985039D01*
X13572206Y-14985039D02*
X13562682Y-14965992D01*
X13562682Y-14965992D02*
X13562682Y-14794563D01*
X13753158Y-14994563D02*
X13753158Y-14889801D01*
X13753158Y-14889801D02*
X13743634Y-14870754D01*
X13743634Y-14870754D02*
X13724587Y-14861230D01*
X13724587Y-14861230D02*
X13686492Y-14861230D01*
X13686492Y-14861230D02*
X13667444Y-14870754D01*
X13753158Y-14985039D02*
X13734111Y-14994563D01*
X13734111Y-14994563D02*
X13686492Y-14994563D01*
X13686492Y-14994563D02*
X13667444Y-14985039D01*
X13667444Y-14985039D02*
X13657920Y-14965992D01*
X13657920Y-14965992D02*
X13657920Y-14946944D01*
X13657920Y-14946944D02*
X13667444Y-14927897D01*
X13667444Y-14927897D02*
X13686492Y-14918373D01*
X13686492Y-14918373D02*
X13734111Y-14918373D01*
X13734111Y-14918373D02*
X13753158Y-14908849D01*
X13819825Y-14861230D02*
X13896015Y-14861230D01*
X13848396Y-14794563D02*
X13848396Y-14965992D01*
X13848396Y-14965992D02*
X13857920Y-14985039D01*
X13857920Y-14985039D02*
X13876968Y-14994563D01*
X13876968Y-14994563D02*
X13896015Y-14994563D01*
X14038873Y-14985039D02*
X14019825Y-14994563D01*
X14019825Y-14994563D02*
X13981730Y-14994563D01*
X13981730Y-14994563D02*
X13962682Y-14985039D01*
X13962682Y-14985039D02*
X13953158Y-14965992D01*
X13953158Y-14965992D02*
X13953158Y-14889801D01*
X13953158Y-14889801D02*
X13962682Y-14870754D01*
X13962682Y-14870754D02*
X13981730Y-14861230D01*
X13981730Y-14861230D02*
X14019825Y-14861230D01*
X14019825Y-14861230D02*
X14038873Y-14870754D01*
X14038873Y-14870754D02*
X14048396Y-14889801D01*
X14048396Y-14889801D02*
X14048396Y-14908849D01*
X14048396Y-14908849D02*
X13953158Y-14927897D01*
X14219825Y-14994563D02*
X14219825Y-14794563D01*
X14219825Y-14985039D02*
X14200777Y-14994563D01*
X14200777Y-14994563D02*
X14162682Y-14994563D01*
X14162682Y-14994563D02*
X14143634Y-14985039D01*
X14143634Y-14985039D02*
X14134111Y-14975516D01*
X14134111Y-14975516D02*
X14124587Y-14956468D01*
X14124587Y-14956468D02*
X14124587Y-14899325D01*
X14124587Y-14899325D02*
X14134111Y-14880277D01*
X14134111Y-14880277D02*
X14143634Y-14870754D01*
X14143634Y-14870754D02*
X14162682Y-14861230D01*
X14162682Y-14861230D02*
X14200777Y-14861230D01*
X14200777Y-14861230D02*
X14219825Y-14870754D01*
X14296015Y-15070754D02*
X14305539Y-15061230D01*
X14305539Y-15061230D02*
X14324587Y-15032658D01*
X14324587Y-15032658D02*
X14334111Y-15013611D01*
X14334111Y-15013611D02*
X14343634Y-14985039D01*
X14343634Y-14985039D02*
X14353158Y-14937420D01*
X14353158Y-14937420D02*
X14353158Y-14899325D01*
X14353158Y-14899325D02*
X14343634Y-14851706D01*
X14343634Y-14851706D02*
X14334111Y-14823135D01*
X14334111Y-14823135D02*
X14324587Y-14804087D01*
X14324587Y-14804087D02*
X14305539Y-14775516D01*
X14305539Y-14775516D02*
X14296015Y-14765992D01*
X7540000Y-15167079D02*
G75*
G02*
X7340000Y-15167079I-100000J0D01*
G01*
X7340000Y-15167079D02*
G75*
G02*
X7540000Y-15167079I100000J0D01*
G01*
X7781729Y-15058563D02*
X7905539Y-15058563D01*
X7905539Y-15058563D02*
X7838872Y-15134754D01*
X7838872Y-15134754D02*
X7867443Y-15134754D01*
X7867443Y-15134754D02*
X7886491Y-15144277D01*
X7886491Y-15144277D02*
X7896015Y-15153801D01*
X7896015Y-15153801D02*
X7905539Y-15172849D01*
X7905539Y-15172849D02*
X7905539Y-15220468D01*
X7905539Y-15220468D02*
X7896015Y-15239516D01*
X7896015Y-15239516D02*
X7886491Y-15249039D01*
X7886491Y-15249039D02*
X7867443Y-15258563D01*
X7867443Y-15258563D02*
X7810301Y-15258563D01*
X7810301Y-15258563D02*
X7791253Y-15249039D01*
X7791253Y-15249039D02*
X7781729Y-15239516D01*
X7991253Y-15239516D02*
X8000777Y-15249039D01*
X8000777Y-15249039D02*
X7991253Y-15258563D01*
X7991253Y-15258563D02*
X7981729Y-15249039D01*
X7981729Y-15249039D02*
X7991253Y-15239516D01*
X7991253Y-15239516D02*
X7991253Y-15258563D01*
X8124586Y-15058563D02*
X8143634Y-15058563D01*
X8143634Y-15058563D02*
X8162682Y-15068087D01*
X8162682Y-15068087D02*
X8172205Y-15077611D01*
X8172205Y-15077611D02*
X8181729Y-15096658D01*
X8181729Y-15096658D02*
X8191253Y-15134754D01*
X8191253Y-15134754D02*
X8191253Y-15182373D01*
X8191253Y-15182373D02*
X8181729Y-15220468D01*
X8181729Y-15220468D02*
X8172205Y-15239516D01*
X8172205Y-15239516D02*
X8162682Y-15249039D01*
X8162682Y-15249039D02*
X8143634Y-15258563D01*
X8143634Y-15258563D02*
X8124586Y-15258563D01*
X8124586Y-15258563D02*
X8105539Y-15249039D01*
X8105539Y-15249039D02*
X8096015Y-15239516D01*
X8096015Y-15239516D02*
X8086491Y-15220468D01*
X8086491Y-15220468D02*
X8076967Y-15182373D01*
X8076967Y-15182373D02*
X8076967Y-15134754D01*
X8076967Y-15134754D02*
X8086491Y-15096658D01*
X8086491Y-15096658D02*
X8096015Y-15077611D01*
X8096015Y-15077611D02*
X8105539Y-15068087D01*
X8105539Y-15068087D02*
X8124586Y-15058563D01*
X8315062Y-15058563D02*
X8334110Y-15058563D01*
X8334110Y-15058563D02*
X8353158Y-15068087D01*
X8353158Y-15068087D02*
X8362682Y-15077611D01*
X8362682Y-15077611D02*
X8372205Y-15096658D01*
X8372205Y-15096658D02*
X8381729Y-15134754D01*
X8381729Y-15134754D02*
X8381729Y-15182373D01*
X8381729Y-15182373D02*
X8372205Y-15220468D01*
X8372205Y-15220468D02*
X8362682Y-15239516D01*
X8362682Y-15239516D02*
X8353158Y-15249039D01*
X8353158Y-15249039D02*
X8334110Y-15258563D01*
X8334110Y-15258563D02*
X8315062Y-15258563D01*
X8315062Y-15258563D02*
X8296015Y-15249039D01*
X8296015Y-15249039D02*
X8286491Y-15239516D01*
X8286491Y-15239516D02*
X8276967Y-15220468D01*
X8276967Y-15220468D02*
X8267443Y-15182373D01*
X8267443Y-15182373D02*
X8267443Y-15134754D01*
X8267443Y-15134754D02*
X8276967Y-15096658D01*
X8276967Y-15096658D02*
X8286491Y-15077611D01*
X8286491Y-15077611D02*
X8296015Y-15068087D01*
X8296015Y-15068087D02*
X8315062Y-15058563D01*
X8505539Y-15058563D02*
X8524586Y-15058563D01*
X8524586Y-15058563D02*
X8543634Y-15068087D01*
X8543634Y-15068087D02*
X8553158Y-15077611D01*
X8553158Y-15077611D02*
X8562682Y-15096658D01*
X8562682Y-15096658D02*
X8572205Y-15134754D01*
X8572205Y-15134754D02*
X8572205Y-15182373D01*
X8572205Y-15182373D02*
X8562682Y-15220468D01*
X8562682Y-15220468D02*
X8553158Y-15239516D01*
X8553158Y-15239516D02*
X8543634Y-15249039D01*
X8543634Y-15249039D02*
X8524586Y-15258563D01*
X8524586Y-15258563D02*
X8505539Y-15258563D01*
X8505539Y-15258563D02*
X8486491Y-15249039D01*
X8486491Y-15249039D02*
X8476967Y-15239516D01*
X8476967Y-15239516D02*
X8467444Y-15220468D01*
X8467444Y-15220468D02*
X8457920Y-15182373D01*
X8457920Y-15182373D02*
X8457920Y-15134754D01*
X8457920Y-15134754D02*
X8467444Y-15096658D01*
X8467444Y-15096658D02*
X8476967Y-15077611D01*
X8476967Y-15077611D02*
X8486491Y-15068087D01*
X8486491Y-15068087D02*
X8505539Y-15058563D01*
X8657920Y-15258563D02*
X8657920Y-15125230D01*
X8657920Y-15144277D02*
X8667444Y-15134754D01*
X8667444Y-15134754D02*
X8686491Y-15125230D01*
X8686491Y-15125230D02*
X8715063Y-15125230D01*
X8715063Y-15125230D02*
X8734110Y-15134754D01*
X8734110Y-15134754D02*
X8743634Y-15153801D01*
X8743634Y-15153801D02*
X8743634Y-15258563D01*
X8743634Y-15153801D02*
X8753158Y-15134754D01*
X8753158Y-15134754D02*
X8772205Y-15125230D01*
X8772205Y-15125230D02*
X8800777Y-15125230D01*
X8800777Y-15125230D02*
X8819825Y-15134754D01*
X8819825Y-15134754D02*
X8829348Y-15153801D01*
X8829348Y-15153801D02*
X8829348Y-15258563D01*
X8924586Y-15258563D02*
X8924586Y-15125230D01*
X8924586Y-15144277D02*
X8934110Y-15134754D01*
X8934110Y-15134754D02*
X8953158Y-15125230D01*
X8953158Y-15125230D02*
X8981729Y-15125230D01*
X8981729Y-15125230D02*
X9000777Y-15134754D01*
X9000777Y-15134754D02*
X9010301Y-15153801D01*
X9010301Y-15153801D02*
X9010301Y-15258563D01*
X9010301Y-15153801D02*
X9019825Y-15134754D01*
X9019825Y-15134754D02*
X9038872Y-15125230D01*
X9038872Y-15125230D02*
X9067444Y-15125230D01*
X9067444Y-15125230D02*
X9086491Y-15134754D01*
X9086491Y-15134754D02*
X9096015Y-15153801D01*
X9096015Y-15153801D02*
X9096015Y-15258563D01*
X9486491Y-15049039D02*
X9315063Y-15306182D01*
X9743634Y-15058563D02*
X9762682Y-15058563D01*
X9762682Y-15058563D02*
X9781729Y-15068087D01*
X9781729Y-15068087D02*
X9791253Y-15077611D01*
X9791253Y-15077611D02*
X9800777Y-15096658D01*
X9800777Y-15096658D02*
X9810301Y-15134754D01*
X9810301Y-15134754D02*
X9810301Y-15182373D01*
X9810301Y-15182373D02*
X9800777Y-15220468D01*
X9800777Y-15220468D02*
X9791253Y-15239516D01*
X9791253Y-15239516D02*
X9781729Y-15249039D01*
X9781729Y-15249039D02*
X9762682Y-15258563D01*
X9762682Y-15258563D02*
X9743634Y-15258563D01*
X9743634Y-15258563D02*
X9724587Y-15249039D01*
X9724587Y-15249039D02*
X9715063Y-15239516D01*
X9715063Y-15239516D02*
X9705539Y-15220468D01*
X9705539Y-15220468D02*
X9696015Y-15182373D01*
X9696015Y-15182373D02*
X9696015Y-15134754D01*
X9696015Y-15134754D02*
X9705539Y-15096658D01*
X9705539Y-15096658D02*
X9715063Y-15077611D01*
X9715063Y-15077611D02*
X9724587Y-15068087D01*
X9724587Y-15068087D02*
X9743634Y-15058563D01*
X9896015Y-15239516D02*
X9905539Y-15249039D01*
X9905539Y-15249039D02*
X9896015Y-15258563D01*
X9896015Y-15258563D02*
X9886491Y-15249039D01*
X9886491Y-15249039D02*
X9896015Y-15239516D01*
X9896015Y-15239516D02*
X9896015Y-15258563D01*
X10096015Y-15258563D02*
X9981729Y-15258563D01*
X10038872Y-15258563D02*
X10038872Y-15058563D01*
X10038872Y-15058563D02*
X10019825Y-15087135D01*
X10019825Y-15087135D02*
X10000777Y-15106182D01*
X10000777Y-15106182D02*
X9981729Y-15115706D01*
X10286491Y-15258563D02*
X10172206Y-15258563D01*
X10229348Y-15258563D02*
X10229348Y-15058563D01*
X10229348Y-15058563D02*
X10210301Y-15087135D01*
X10210301Y-15087135D02*
X10191253Y-15106182D01*
X10191253Y-15106182D02*
X10172206Y-15115706D01*
X10400777Y-15144277D02*
X10381729Y-15134754D01*
X10381729Y-15134754D02*
X10372206Y-15125230D01*
X10372206Y-15125230D02*
X10362682Y-15106182D01*
X10362682Y-15106182D02*
X10362682Y-15096658D01*
X10362682Y-15096658D02*
X10372206Y-15077611D01*
X10372206Y-15077611D02*
X10381729Y-15068087D01*
X10381729Y-15068087D02*
X10400777Y-15058563D01*
X10400777Y-15058563D02*
X10438872Y-15058563D01*
X10438872Y-15058563D02*
X10457920Y-15068087D01*
X10457920Y-15068087D02*
X10467444Y-15077611D01*
X10467444Y-15077611D02*
X10476968Y-15096658D01*
X10476968Y-15096658D02*
X10476968Y-15106182D01*
X10476968Y-15106182D02*
X10467444Y-15125230D01*
X10467444Y-15125230D02*
X10457920Y-15134754D01*
X10457920Y-15134754D02*
X10438872Y-15144277D01*
X10438872Y-15144277D02*
X10400777Y-15144277D01*
X10400777Y-15144277D02*
X10381729Y-15153801D01*
X10381729Y-15153801D02*
X10372206Y-15163325D01*
X10372206Y-15163325D02*
X10362682Y-15182373D01*
X10362682Y-15182373D02*
X10362682Y-15220468D01*
X10362682Y-15220468D02*
X10372206Y-15239516D01*
X10372206Y-15239516D02*
X10381729Y-15249039D01*
X10381729Y-15249039D02*
X10400777Y-15258563D01*
X10400777Y-15258563D02*
X10438872Y-15258563D01*
X10438872Y-15258563D02*
X10457920Y-15249039D01*
X10457920Y-15249039D02*
X10467444Y-15239516D01*
X10467444Y-15239516D02*
X10476968Y-15220468D01*
X10476968Y-15220468D02*
X10476968Y-15182373D01*
X10476968Y-15182373D02*
X10467444Y-15163325D01*
X10467444Y-15163325D02*
X10457920Y-15153801D01*
X10457920Y-15153801D02*
X10438872Y-15144277D01*
X10667444Y-15258563D02*
X10553158Y-15258563D01*
X10610301Y-15258563D02*
X10610301Y-15058563D01*
X10610301Y-15058563D02*
X10591253Y-15087135D01*
X10591253Y-15087135D02*
X10572206Y-15106182D01*
X10572206Y-15106182D02*
X10553158Y-15115706D01*
X10743634Y-15058563D02*
X10743634Y-15096658D01*
X10819825Y-15058563D02*
X10819825Y-15096658D01*
X11115063Y-15334754D02*
X11105539Y-15325230D01*
X11105539Y-15325230D02*
X11086491Y-15296658D01*
X11086491Y-15296658D02*
X11076968Y-15277611D01*
X11076968Y-15277611D02*
X11067444Y-15249039D01*
X11067444Y-15249039D02*
X11057920Y-15201420D01*
X11057920Y-15201420D02*
X11057920Y-15163325D01*
X11057920Y-15163325D02*
X11067444Y-15115706D01*
X11067444Y-15115706D02*
X11076968Y-15087135D01*
X11076968Y-15087135D02*
X11086491Y-15068087D01*
X11086491Y-15068087D02*
X11105539Y-15039516D01*
X11105539Y-15039516D02*
X11115063Y-15029992D01*
X11219825Y-15144277D02*
X11200777Y-15134754D01*
X11200777Y-15134754D02*
X11191253Y-15125230D01*
X11191253Y-15125230D02*
X11181730Y-15106182D01*
X11181730Y-15106182D02*
X11181730Y-15096658D01*
X11181730Y-15096658D02*
X11191253Y-15077611D01*
X11191253Y-15077611D02*
X11200777Y-15068087D01*
X11200777Y-15068087D02*
X11219825Y-15058563D01*
X11219825Y-15058563D02*
X11257920Y-15058563D01*
X11257920Y-15058563D02*
X11276968Y-15068087D01*
X11276968Y-15068087D02*
X11286491Y-15077611D01*
X11286491Y-15077611D02*
X11296015Y-15096658D01*
X11296015Y-15096658D02*
X11296015Y-15106182D01*
X11296015Y-15106182D02*
X11286491Y-15125230D01*
X11286491Y-15125230D02*
X11276968Y-15134754D01*
X11276968Y-15134754D02*
X11257920Y-15144277D01*
X11257920Y-15144277D02*
X11219825Y-15144277D01*
X11219825Y-15144277D02*
X11200777Y-15153801D01*
X11200777Y-15153801D02*
X11191253Y-15163325D01*
X11191253Y-15163325D02*
X11181730Y-15182373D01*
X11181730Y-15182373D02*
X11181730Y-15220468D01*
X11181730Y-15220468D02*
X11191253Y-15239516D01*
X11191253Y-15239516D02*
X11200777Y-15249039D01*
X11200777Y-15249039D02*
X11219825Y-15258563D01*
X11219825Y-15258563D02*
X11257920Y-15258563D01*
X11257920Y-15258563D02*
X11276968Y-15249039D01*
X11276968Y-15249039D02*
X11286491Y-15239516D01*
X11286491Y-15239516D02*
X11296015Y-15220468D01*
X11296015Y-15220468D02*
X11296015Y-15182373D01*
X11296015Y-15182373D02*
X11286491Y-15163325D01*
X11286491Y-15163325D02*
X11276968Y-15153801D01*
X11276968Y-15153801D02*
X11257920Y-15144277D01*
X11467444Y-15125230D02*
X11467444Y-15258563D01*
X11419825Y-15049039D02*
X11372206Y-15191897D01*
X11372206Y-15191897D02*
X11496015Y-15191897D01*
X11724587Y-15258563D02*
X11724587Y-15058563D01*
X11810301Y-15258563D02*
X11810301Y-15153801D01*
X11810301Y-15153801D02*
X11800777Y-15134754D01*
X11800777Y-15134754D02*
X11781730Y-15125230D01*
X11781730Y-15125230D02*
X11753158Y-15125230D01*
X11753158Y-15125230D02*
X11734110Y-15134754D01*
X11734110Y-15134754D02*
X11724587Y-15144277D01*
X11934110Y-15258563D02*
X11915063Y-15249039D01*
X11915063Y-15249039D02*
X11905539Y-15239516D01*
X11905539Y-15239516D02*
X11896015Y-15220468D01*
X11896015Y-15220468D02*
X11896015Y-15163325D01*
X11896015Y-15163325D02*
X11905539Y-15144277D01*
X11905539Y-15144277D02*
X11915063Y-15134754D01*
X11915063Y-15134754D02*
X11934110Y-15125230D01*
X11934110Y-15125230D02*
X11962682Y-15125230D01*
X11962682Y-15125230D02*
X11981730Y-15134754D01*
X11981730Y-15134754D02*
X11991253Y-15144277D01*
X11991253Y-15144277D02*
X12000777Y-15163325D01*
X12000777Y-15163325D02*
X12000777Y-15220468D01*
X12000777Y-15220468D02*
X11991253Y-15239516D01*
X11991253Y-15239516D02*
X11981730Y-15249039D01*
X11981730Y-15249039D02*
X11962682Y-15258563D01*
X11962682Y-15258563D02*
X11934110Y-15258563D01*
X12115063Y-15258563D02*
X12096015Y-15249039D01*
X12096015Y-15249039D02*
X12086491Y-15229992D01*
X12086491Y-15229992D02*
X12086491Y-15058563D01*
X12267444Y-15249039D02*
X12248396Y-15258563D01*
X12248396Y-15258563D02*
X12210301Y-15258563D01*
X12210301Y-15258563D02*
X12191253Y-15249039D01*
X12191253Y-15249039D02*
X12181730Y-15229992D01*
X12181730Y-15229992D02*
X12181730Y-15153801D01*
X12181730Y-15153801D02*
X12191253Y-15134754D01*
X12191253Y-15134754D02*
X12210301Y-15125230D01*
X12210301Y-15125230D02*
X12248396Y-15125230D01*
X12248396Y-15125230D02*
X12267444Y-15134754D01*
X12267444Y-15134754D02*
X12276968Y-15153801D01*
X12276968Y-15153801D02*
X12276968Y-15172849D01*
X12276968Y-15172849D02*
X12181730Y-15191897D01*
X12353158Y-15249039D02*
X12372206Y-15258563D01*
X12372206Y-15258563D02*
X12410301Y-15258563D01*
X12410301Y-15258563D02*
X12429349Y-15249039D01*
X12429349Y-15249039D02*
X12438872Y-15229992D01*
X12438872Y-15229992D02*
X12438872Y-15220468D01*
X12438872Y-15220468D02*
X12429349Y-15201420D01*
X12429349Y-15201420D02*
X12410301Y-15191897D01*
X12410301Y-15191897D02*
X12381730Y-15191897D01*
X12381730Y-15191897D02*
X12362682Y-15182373D01*
X12362682Y-15182373D02*
X12353158Y-15163325D01*
X12353158Y-15163325D02*
X12353158Y-15153801D01*
X12353158Y-15153801D02*
X12362682Y-15134754D01*
X12362682Y-15134754D02*
X12381730Y-15125230D01*
X12381730Y-15125230D02*
X12410301Y-15125230D01*
X12410301Y-15125230D02*
X12429349Y-15134754D01*
X12505539Y-15334754D02*
X12515063Y-15325230D01*
X12515063Y-15325230D02*
X12534111Y-15296658D01*
X12534111Y-15296658D02*
X12543634Y-15277611D01*
X12543634Y-15277611D02*
X12553158Y-15249039D01*
X12553158Y-15249039D02*
X12562682Y-15201420D01*
X12562682Y-15201420D02*
X12562682Y-15163325D01*
X12562682Y-15163325D02*
X12553158Y-15115706D01*
X12553158Y-15115706D02*
X12543634Y-15087135D01*
X12543634Y-15087135D02*
X12534111Y-15068087D01*
X12534111Y-15068087D02*
X12515063Y-15039516D01*
X12515063Y-15039516D02*
X12505539Y-15029992D01*
X12867444Y-15334754D02*
X12857920Y-15325230D01*
X12857920Y-15325230D02*
X12838872Y-15296658D01*
X12838872Y-15296658D02*
X12829349Y-15277611D01*
X12829349Y-15277611D02*
X12819825Y-15249039D01*
X12819825Y-15249039D02*
X12810301Y-15201420D01*
X12810301Y-15201420D02*
X12810301Y-15163325D01*
X12810301Y-15163325D02*
X12819825Y-15115706D01*
X12819825Y-15115706D02*
X12829349Y-15087135D01*
X12829349Y-15087135D02*
X12838872Y-15068087D01*
X12838872Y-15068087D02*
X12857920Y-15039516D01*
X12857920Y-15039516D02*
X12867444Y-15029992D01*
X12943634Y-15125230D02*
X12943634Y-15258563D01*
X12943634Y-15144277D02*
X12953158Y-15134754D01*
X12953158Y-15134754D02*
X12972206Y-15125230D01*
X12972206Y-15125230D02*
X13000777Y-15125230D01*
X13000777Y-15125230D02*
X13019825Y-15134754D01*
X13019825Y-15134754D02*
X13029349Y-15153801D01*
X13029349Y-15153801D02*
X13029349Y-15258563D01*
X13153158Y-15258563D02*
X13134111Y-15249039D01*
X13134111Y-15249039D02*
X13124587Y-15239516D01*
X13124587Y-15239516D02*
X13115063Y-15220468D01*
X13115063Y-15220468D02*
X13115063Y-15163325D01*
X13115063Y-15163325D02*
X13124587Y-15144277D01*
X13124587Y-15144277D02*
X13134111Y-15134754D01*
X13134111Y-15134754D02*
X13153158Y-15125230D01*
X13153158Y-15125230D02*
X13181730Y-15125230D01*
X13181730Y-15125230D02*
X13200777Y-15134754D01*
X13200777Y-15134754D02*
X13210301Y-15144277D01*
X13210301Y-15144277D02*
X13219825Y-15163325D01*
X13219825Y-15163325D02*
X13219825Y-15220468D01*
X13219825Y-15220468D02*
X13210301Y-15239516D01*
X13210301Y-15239516D02*
X13200777Y-15249039D01*
X13200777Y-15249039D02*
X13181730Y-15258563D01*
X13181730Y-15258563D02*
X13153158Y-15258563D01*
X13276968Y-15125230D02*
X13353158Y-15125230D01*
X13305539Y-15058563D02*
X13305539Y-15229992D01*
X13305539Y-15229992D02*
X13315063Y-15249039D01*
X13315063Y-15249039D02*
X13334111Y-15258563D01*
X13334111Y-15258563D02*
X13353158Y-15258563D01*
X13572206Y-15125230D02*
X13572206Y-15325230D01*
X13572206Y-15134754D02*
X13591253Y-15125230D01*
X13591253Y-15125230D02*
X13629349Y-15125230D01*
X13629349Y-15125230D02*
X13648396Y-15134754D01*
X13648396Y-15134754D02*
X13657920Y-15144277D01*
X13657920Y-15144277D02*
X13667444Y-15163325D01*
X13667444Y-15163325D02*
X13667444Y-15220468D01*
X13667444Y-15220468D02*
X13657920Y-15239516D01*
X13657920Y-15239516D02*
X13648396Y-15249039D01*
X13648396Y-15249039D02*
X13629349Y-15258563D01*
X13629349Y-15258563D02*
X13591253Y-15258563D01*
X13591253Y-15258563D02*
X13572206Y-15249039D01*
X13781730Y-15258563D02*
X13762682Y-15249039D01*
X13762682Y-15249039D02*
X13753158Y-15229992D01*
X13753158Y-15229992D02*
X13753158Y-15058563D01*
X13943634Y-15258563D02*
X13943634Y-15153801D01*
X13943634Y-15153801D02*
X13934111Y-15134754D01*
X13934111Y-15134754D02*
X13915063Y-15125230D01*
X13915063Y-15125230D02*
X13876968Y-15125230D01*
X13876968Y-15125230D02*
X13857920Y-15134754D01*
X13943634Y-15249039D02*
X13924587Y-15258563D01*
X13924587Y-15258563D02*
X13876968Y-15258563D01*
X13876968Y-15258563D02*
X13857920Y-15249039D01*
X13857920Y-15249039D02*
X13848396Y-15229992D01*
X13848396Y-15229992D02*
X13848396Y-15210944D01*
X13848396Y-15210944D02*
X13857920Y-15191897D01*
X13857920Y-15191897D02*
X13876968Y-15182373D01*
X13876968Y-15182373D02*
X13924587Y-15182373D01*
X13924587Y-15182373D02*
X13943634Y-15172849D01*
X14010301Y-15125230D02*
X14086492Y-15125230D01*
X14038873Y-15058563D02*
X14038873Y-15229992D01*
X14038873Y-15229992D02*
X14048396Y-15249039D01*
X14048396Y-15249039D02*
X14067444Y-15258563D01*
X14067444Y-15258563D02*
X14086492Y-15258563D01*
X14229349Y-15249039D02*
X14210301Y-15258563D01*
X14210301Y-15258563D02*
X14172206Y-15258563D01*
X14172206Y-15258563D02*
X14153158Y-15249039D01*
X14153158Y-15249039D02*
X14143634Y-15229992D01*
X14143634Y-15229992D02*
X14143634Y-15153801D01*
X14143634Y-15153801D02*
X14153158Y-15134754D01*
X14153158Y-15134754D02*
X14172206Y-15125230D01*
X14172206Y-15125230D02*
X14210301Y-15125230D01*
X14210301Y-15125230D02*
X14229349Y-15134754D01*
X14229349Y-15134754D02*
X14238873Y-15153801D01*
X14238873Y-15153801D02*
X14238873Y-15172849D01*
X14238873Y-15172849D02*
X14143634Y-15191897D01*
X14410301Y-15258563D02*
X14410301Y-15058563D01*
X14410301Y-15249039D02*
X14391254Y-15258563D01*
X14391254Y-15258563D02*
X14353158Y-15258563D01*
X14353158Y-15258563D02*
X14334111Y-15249039D01*
X14334111Y-15249039D02*
X14324587Y-15239516D01*
X14324587Y-15239516D02*
X14315063Y-15220468D01*
X14315063Y-15220468D02*
X14315063Y-15163325D01*
X14315063Y-15163325D02*
X14324587Y-15144277D01*
X14324587Y-15144277D02*
X14334111Y-15134754D01*
X14334111Y-15134754D02*
X14353158Y-15125230D01*
X14353158Y-15125230D02*
X14391254Y-15125230D01*
X14391254Y-15125230D02*
X14410301Y-15134754D01*
X14486492Y-15334754D02*
X14496015Y-15325230D01*
X14496015Y-15325230D02*
X14515063Y-15296658D01*
X14515063Y-15296658D02*
X14524587Y-15277611D01*
X14524587Y-15277611D02*
X14534111Y-15249039D01*
X14534111Y-15249039D02*
X14543634Y-15201420D01*
X14543634Y-15201420D02*
X14543634Y-15163325D01*
X14543634Y-15163325D02*
X14534111Y-15115706D01*
X14534111Y-15115706D02*
X14524587Y-15087135D01*
X14524587Y-15087135D02*
X14515063Y-15068087D01*
X14515063Y-15068087D02*
X14496015Y-15039516D01*
X14496015Y-15039516D02*
X14486492Y-15029992D01*
X7440000Y-15387079D02*
X7440000Y-15587079D01*
X7340000Y-15487079D02*
X7540000Y-15487079D01*
X7896015Y-15378563D02*
X7800777Y-15378563D01*
X7800777Y-15378563D02*
X7791253Y-15473801D01*
X7791253Y-15473801D02*
X7800777Y-15464277D01*
X7800777Y-15464277D02*
X7819824Y-15454754D01*
X7819824Y-15454754D02*
X7867443Y-15454754D01*
X7867443Y-15454754D02*
X7886491Y-15464277D01*
X7886491Y-15464277D02*
X7896015Y-15473801D01*
X7896015Y-15473801D02*
X7905539Y-15492849D01*
X7905539Y-15492849D02*
X7905539Y-15540468D01*
X7905539Y-15540468D02*
X7896015Y-15559516D01*
X7896015Y-15559516D02*
X7886491Y-15569039D01*
X7886491Y-15569039D02*
X7867443Y-15578563D01*
X7867443Y-15578563D02*
X7819824Y-15578563D01*
X7819824Y-15578563D02*
X7800777Y-15569039D01*
X7800777Y-15569039D02*
X7791253Y-15559516D01*
X7991253Y-15559516D02*
X8000777Y-15569039D01*
X8000777Y-15569039D02*
X7991253Y-15578563D01*
X7991253Y-15578563D02*
X7981729Y-15569039D01*
X7981729Y-15569039D02*
X7991253Y-15559516D01*
X7991253Y-15559516D02*
X7991253Y-15578563D01*
X8124586Y-15378563D02*
X8143634Y-15378563D01*
X8143634Y-15378563D02*
X8162682Y-15388087D01*
X8162682Y-15388087D02*
X8172205Y-15397611D01*
X8172205Y-15397611D02*
X8181729Y-15416658D01*
X8181729Y-15416658D02*
X8191253Y-15454754D01*
X8191253Y-15454754D02*
X8191253Y-15502373D01*
X8191253Y-15502373D02*
X8181729Y-15540468D01*
X8181729Y-15540468D02*
X8172205Y-15559516D01*
X8172205Y-15559516D02*
X8162682Y-15569039D01*
X8162682Y-15569039D02*
X8143634Y-15578563D01*
X8143634Y-15578563D02*
X8124586Y-15578563D01*
X8124586Y-15578563D02*
X8105539Y-15569039D01*
X8105539Y-15569039D02*
X8096015Y-15559516D01*
X8096015Y-15559516D02*
X8086491Y-15540468D01*
X8086491Y-15540468D02*
X8076967Y-15502373D01*
X8076967Y-15502373D02*
X8076967Y-15454754D01*
X8076967Y-15454754D02*
X8086491Y-15416658D01*
X8086491Y-15416658D02*
X8096015Y-15397611D01*
X8096015Y-15397611D02*
X8105539Y-15388087D01*
X8105539Y-15388087D02*
X8124586Y-15378563D01*
X8315062Y-15378563D02*
X8334110Y-15378563D01*
X8334110Y-15378563D02*
X8353158Y-15388087D01*
X8353158Y-15388087D02*
X8362682Y-15397611D01*
X8362682Y-15397611D02*
X8372205Y-15416658D01*
X8372205Y-15416658D02*
X8381729Y-15454754D01*
X8381729Y-15454754D02*
X8381729Y-15502373D01*
X8381729Y-15502373D02*
X8372205Y-15540468D01*
X8372205Y-15540468D02*
X8362682Y-15559516D01*
X8362682Y-15559516D02*
X8353158Y-15569039D01*
X8353158Y-15569039D02*
X8334110Y-15578563D01*
X8334110Y-15578563D02*
X8315062Y-15578563D01*
X8315062Y-15578563D02*
X8296015Y-15569039D01*
X8296015Y-15569039D02*
X8286491Y-15559516D01*
X8286491Y-15559516D02*
X8276967Y-15540468D01*
X8276967Y-15540468D02*
X8267443Y-15502373D01*
X8267443Y-15502373D02*
X8267443Y-15454754D01*
X8267443Y-15454754D02*
X8276967Y-15416658D01*
X8276967Y-15416658D02*
X8286491Y-15397611D01*
X8286491Y-15397611D02*
X8296015Y-15388087D01*
X8296015Y-15388087D02*
X8315062Y-15378563D01*
X8505539Y-15378563D02*
X8524586Y-15378563D01*
X8524586Y-15378563D02*
X8543634Y-15388087D01*
X8543634Y-15388087D02*
X8553158Y-15397611D01*
X8553158Y-15397611D02*
X8562682Y-15416658D01*
X8562682Y-15416658D02*
X8572205Y-15454754D01*
X8572205Y-15454754D02*
X8572205Y-15502373D01*
X8572205Y-15502373D02*
X8562682Y-15540468D01*
X8562682Y-15540468D02*
X8553158Y-15559516D01*
X8553158Y-15559516D02*
X8543634Y-15569039D01*
X8543634Y-15569039D02*
X8524586Y-15578563D01*
X8524586Y-15578563D02*
X8505539Y-15578563D01*
X8505539Y-15578563D02*
X8486491Y-15569039D01*
X8486491Y-15569039D02*
X8476967Y-15559516D01*
X8476967Y-15559516D02*
X8467444Y-15540468D01*
X8467444Y-15540468D02*
X8457920Y-15502373D01*
X8457920Y-15502373D02*
X8457920Y-15454754D01*
X8457920Y-15454754D02*
X8467444Y-15416658D01*
X8467444Y-15416658D02*
X8476967Y-15397611D01*
X8476967Y-15397611D02*
X8486491Y-15388087D01*
X8486491Y-15388087D02*
X8505539Y-15378563D01*
X8657920Y-15578563D02*
X8657920Y-15445230D01*
X8657920Y-15464277D02*
X8667444Y-15454754D01*
X8667444Y-15454754D02*
X8686491Y-15445230D01*
X8686491Y-15445230D02*
X8715063Y-15445230D01*
X8715063Y-15445230D02*
X8734110Y-15454754D01*
X8734110Y-15454754D02*
X8743634Y-15473801D01*
X8743634Y-15473801D02*
X8743634Y-15578563D01*
X8743634Y-15473801D02*
X8753158Y-15454754D01*
X8753158Y-15454754D02*
X8772205Y-15445230D01*
X8772205Y-15445230D02*
X8800777Y-15445230D01*
X8800777Y-15445230D02*
X8819825Y-15454754D01*
X8819825Y-15454754D02*
X8829348Y-15473801D01*
X8829348Y-15473801D02*
X8829348Y-15578563D01*
X8924586Y-15578563D02*
X8924586Y-15445230D01*
X8924586Y-15464277D02*
X8934110Y-15454754D01*
X8934110Y-15454754D02*
X8953158Y-15445230D01*
X8953158Y-15445230D02*
X8981729Y-15445230D01*
X8981729Y-15445230D02*
X9000777Y-15454754D01*
X9000777Y-15454754D02*
X9010301Y-15473801D01*
X9010301Y-15473801D02*
X9010301Y-15578563D01*
X9010301Y-15473801D02*
X9019825Y-15454754D01*
X9019825Y-15454754D02*
X9038872Y-15445230D01*
X9038872Y-15445230D02*
X9067444Y-15445230D01*
X9067444Y-15445230D02*
X9086491Y-15454754D01*
X9086491Y-15454754D02*
X9096015Y-15473801D01*
X9096015Y-15473801D02*
X9096015Y-15578563D01*
X9486491Y-15369039D02*
X9315063Y-15626182D01*
X9743634Y-15378563D02*
X9762682Y-15378563D01*
X9762682Y-15378563D02*
X9781729Y-15388087D01*
X9781729Y-15388087D02*
X9791253Y-15397611D01*
X9791253Y-15397611D02*
X9800777Y-15416658D01*
X9800777Y-15416658D02*
X9810301Y-15454754D01*
X9810301Y-15454754D02*
X9810301Y-15502373D01*
X9810301Y-15502373D02*
X9800777Y-15540468D01*
X9800777Y-15540468D02*
X9791253Y-15559516D01*
X9791253Y-15559516D02*
X9781729Y-15569039D01*
X9781729Y-15569039D02*
X9762682Y-15578563D01*
X9762682Y-15578563D02*
X9743634Y-15578563D01*
X9743634Y-15578563D02*
X9724587Y-15569039D01*
X9724587Y-15569039D02*
X9715063Y-15559516D01*
X9715063Y-15559516D02*
X9705539Y-15540468D01*
X9705539Y-15540468D02*
X9696015Y-15502373D01*
X9696015Y-15502373D02*
X9696015Y-15454754D01*
X9696015Y-15454754D02*
X9705539Y-15416658D01*
X9705539Y-15416658D02*
X9715063Y-15397611D01*
X9715063Y-15397611D02*
X9724587Y-15388087D01*
X9724587Y-15388087D02*
X9743634Y-15378563D01*
X9896015Y-15559516D02*
X9905539Y-15569039D01*
X9905539Y-15569039D02*
X9896015Y-15578563D01*
X9896015Y-15578563D02*
X9886491Y-15569039D01*
X9886491Y-15569039D02*
X9896015Y-15559516D01*
X9896015Y-15559516D02*
X9896015Y-15578563D01*
X10096015Y-15578563D02*
X9981729Y-15578563D01*
X10038872Y-15578563D02*
X10038872Y-15378563D01*
X10038872Y-15378563D02*
X10019825Y-15407135D01*
X10019825Y-15407135D02*
X10000777Y-15426182D01*
X10000777Y-15426182D02*
X9981729Y-15435706D01*
X10191253Y-15578563D02*
X10229348Y-15578563D01*
X10229348Y-15578563D02*
X10248396Y-15569039D01*
X10248396Y-15569039D02*
X10257920Y-15559516D01*
X10257920Y-15559516D02*
X10276968Y-15530944D01*
X10276968Y-15530944D02*
X10286491Y-15492849D01*
X10286491Y-15492849D02*
X10286491Y-15416658D01*
X10286491Y-15416658D02*
X10276968Y-15397611D01*
X10276968Y-15397611D02*
X10267444Y-15388087D01*
X10267444Y-15388087D02*
X10248396Y-15378563D01*
X10248396Y-15378563D02*
X10210301Y-15378563D01*
X10210301Y-15378563D02*
X10191253Y-15388087D01*
X10191253Y-15388087D02*
X10181729Y-15397611D01*
X10181729Y-15397611D02*
X10172206Y-15416658D01*
X10172206Y-15416658D02*
X10172206Y-15464277D01*
X10172206Y-15464277D02*
X10181729Y-15483325D01*
X10181729Y-15483325D02*
X10191253Y-15492849D01*
X10191253Y-15492849D02*
X10210301Y-15502373D01*
X10210301Y-15502373D02*
X10248396Y-15502373D01*
X10248396Y-15502373D02*
X10267444Y-15492849D01*
X10267444Y-15492849D02*
X10276968Y-15483325D01*
X10276968Y-15483325D02*
X10286491Y-15464277D01*
X10457920Y-15378563D02*
X10419825Y-15378563D01*
X10419825Y-15378563D02*
X10400777Y-15388087D01*
X10400777Y-15388087D02*
X10391253Y-15397611D01*
X10391253Y-15397611D02*
X10372206Y-15426182D01*
X10372206Y-15426182D02*
X10362682Y-15464277D01*
X10362682Y-15464277D02*
X10362682Y-15540468D01*
X10362682Y-15540468D02*
X10372206Y-15559516D01*
X10372206Y-15559516D02*
X10381729Y-15569039D01*
X10381729Y-15569039D02*
X10400777Y-15578563D01*
X10400777Y-15578563D02*
X10438872Y-15578563D01*
X10438872Y-15578563D02*
X10457920Y-15569039D01*
X10457920Y-15569039D02*
X10467444Y-15559516D01*
X10467444Y-15559516D02*
X10476968Y-15540468D01*
X10476968Y-15540468D02*
X10476968Y-15492849D01*
X10476968Y-15492849D02*
X10467444Y-15473801D01*
X10467444Y-15473801D02*
X10457920Y-15464277D01*
X10457920Y-15464277D02*
X10438872Y-15454754D01*
X10438872Y-15454754D02*
X10400777Y-15454754D01*
X10400777Y-15454754D02*
X10381729Y-15464277D01*
X10381729Y-15464277D02*
X10372206Y-15473801D01*
X10372206Y-15473801D02*
X10362682Y-15492849D01*
X10572206Y-15578563D02*
X10610301Y-15578563D01*
X10610301Y-15578563D02*
X10629349Y-15569039D01*
X10629349Y-15569039D02*
X10638872Y-15559516D01*
X10638872Y-15559516D02*
X10657920Y-15530944D01*
X10657920Y-15530944D02*
X10667444Y-15492849D01*
X10667444Y-15492849D02*
X10667444Y-15416658D01*
X10667444Y-15416658D02*
X10657920Y-15397611D01*
X10657920Y-15397611D02*
X10648396Y-15388087D01*
X10648396Y-15388087D02*
X10629349Y-15378563D01*
X10629349Y-15378563D02*
X10591253Y-15378563D01*
X10591253Y-15378563D02*
X10572206Y-15388087D01*
X10572206Y-15388087D02*
X10562682Y-15397611D01*
X10562682Y-15397611D02*
X10553158Y-15416658D01*
X10553158Y-15416658D02*
X10553158Y-15464277D01*
X10553158Y-15464277D02*
X10562682Y-15483325D01*
X10562682Y-15483325D02*
X10572206Y-15492849D01*
X10572206Y-15492849D02*
X10591253Y-15502373D01*
X10591253Y-15502373D02*
X10629349Y-15502373D01*
X10629349Y-15502373D02*
X10648396Y-15492849D01*
X10648396Y-15492849D02*
X10657920Y-15483325D01*
X10657920Y-15483325D02*
X10667444Y-15464277D01*
X10743634Y-15378563D02*
X10743634Y-15416658D01*
X10819825Y-15378563D02*
X10819825Y-15416658D01*
X11115063Y-15654754D02*
X11105539Y-15645230D01*
X11105539Y-15645230D02*
X11086491Y-15616658D01*
X11086491Y-15616658D02*
X11076968Y-15597611D01*
X11076968Y-15597611D02*
X11067444Y-15569039D01*
X11067444Y-15569039D02*
X11057920Y-15521420D01*
X11057920Y-15521420D02*
X11057920Y-15483325D01*
X11057920Y-15483325D02*
X11067444Y-15435706D01*
X11067444Y-15435706D02*
X11076968Y-15407135D01*
X11076968Y-15407135D02*
X11086491Y-15388087D01*
X11086491Y-15388087D02*
X11105539Y-15359516D01*
X11105539Y-15359516D02*
X11115063Y-15349992D01*
X11181730Y-15397611D02*
X11191253Y-15388087D01*
X11191253Y-15388087D02*
X11210301Y-15378563D01*
X11210301Y-15378563D02*
X11257920Y-15378563D01*
X11257920Y-15378563D02*
X11276968Y-15388087D01*
X11276968Y-15388087D02*
X11286491Y-15397611D01*
X11286491Y-15397611D02*
X11296015Y-15416658D01*
X11296015Y-15416658D02*
X11296015Y-15435706D01*
X11296015Y-15435706D02*
X11286491Y-15464277D01*
X11286491Y-15464277D02*
X11172206Y-15578563D01*
X11172206Y-15578563D02*
X11296015Y-15578563D01*
X11486491Y-15578563D02*
X11372206Y-15578563D01*
X11429348Y-15578563D02*
X11429348Y-15378563D01*
X11429348Y-15378563D02*
X11410301Y-15407135D01*
X11410301Y-15407135D02*
X11391253Y-15426182D01*
X11391253Y-15426182D02*
X11372206Y-15435706D01*
X11724587Y-15578563D02*
X11724587Y-15378563D01*
X11810301Y-15578563D02*
X11810301Y-15473801D01*
X11810301Y-15473801D02*
X11800777Y-15454754D01*
X11800777Y-15454754D02*
X11781730Y-15445230D01*
X11781730Y-15445230D02*
X11753158Y-15445230D01*
X11753158Y-15445230D02*
X11734110Y-15454754D01*
X11734110Y-15454754D02*
X11724587Y-15464277D01*
X11934110Y-15578563D02*
X11915063Y-15569039D01*
X11915063Y-15569039D02*
X11905539Y-15559516D01*
X11905539Y-15559516D02*
X11896015Y-15540468D01*
X11896015Y-15540468D02*
X11896015Y-15483325D01*
X11896015Y-15483325D02*
X11905539Y-15464277D01*
X11905539Y-15464277D02*
X11915063Y-15454754D01*
X11915063Y-15454754D02*
X11934110Y-15445230D01*
X11934110Y-15445230D02*
X11962682Y-15445230D01*
X11962682Y-15445230D02*
X11981730Y-15454754D01*
X11981730Y-15454754D02*
X11991253Y-15464277D01*
X11991253Y-15464277D02*
X12000777Y-15483325D01*
X12000777Y-15483325D02*
X12000777Y-15540468D01*
X12000777Y-15540468D02*
X11991253Y-15559516D01*
X11991253Y-15559516D02*
X11981730Y-15569039D01*
X11981730Y-15569039D02*
X11962682Y-15578563D01*
X11962682Y-15578563D02*
X11934110Y-15578563D01*
X12115063Y-15578563D02*
X12096015Y-15569039D01*
X12096015Y-15569039D02*
X12086491Y-15549992D01*
X12086491Y-15549992D02*
X12086491Y-15378563D01*
X12267444Y-15569039D02*
X12248396Y-15578563D01*
X12248396Y-15578563D02*
X12210301Y-15578563D01*
X12210301Y-15578563D02*
X12191253Y-15569039D01*
X12191253Y-15569039D02*
X12181730Y-15549992D01*
X12181730Y-15549992D02*
X12181730Y-15473801D01*
X12181730Y-15473801D02*
X12191253Y-15454754D01*
X12191253Y-15454754D02*
X12210301Y-15445230D01*
X12210301Y-15445230D02*
X12248396Y-15445230D01*
X12248396Y-15445230D02*
X12267444Y-15454754D01*
X12267444Y-15454754D02*
X12276968Y-15473801D01*
X12276968Y-15473801D02*
X12276968Y-15492849D01*
X12276968Y-15492849D02*
X12181730Y-15511897D01*
X12353158Y-15569039D02*
X12372206Y-15578563D01*
X12372206Y-15578563D02*
X12410301Y-15578563D01*
X12410301Y-15578563D02*
X12429349Y-15569039D01*
X12429349Y-15569039D02*
X12438872Y-15549992D01*
X12438872Y-15549992D02*
X12438872Y-15540468D01*
X12438872Y-15540468D02*
X12429349Y-15521420D01*
X12429349Y-15521420D02*
X12410301Y-15511897D01*
X12410301Y-15511897D02*
X12381730Y-15511897D01*
X12381730Y-15511897D02*
X12362682Y-15502373D01*
X12362682Y-15502373D02*
X12353158Y-15483325D01*
X12353158Y-15483325D02*
X12353158Y-15473801D01*
X12353158Y-15473801D02*
X12362682Y-15454754D01*
X12362682Y-15454754D02*
X12381730Y-15445230D01*
X12381730Y-15445230D02*
X12410301Y-15445230D01*
X12410301Y-15445230D02*
X12429349Y-15454754D01*
X12505539Y-15654754D02*
X12515063Y-15645230D01*
X12515063Y-15645230D02*
X12534111Y-15616658D01*
X12534111Y-15616658D02*
X12543634Y-15597611D01*
X12543634Y-15597611D02*
X12553158Y-15569039D01*
X12553158Y-15569039D02*
X12562682Y-15521420D01*
X12562682Y-15521420D02*
X12562682Y-15483325D01*
X12562682Y-15483325D02*
X12553158Y-15435706D01*
X12553158Y-15435706D02*
X12543634Y-15407135D01*
X12543634Y-15407135D02*
X12534111Y-15388087D01*
X12534111Y-15388087D02*
X12515063Y-15359516D01*
X12515063Y-15359516D02*
X12505539Y-15349992D01*
X12867444Y-15654754D02*
X12857920Y-15645230D01*
X12857920Y-15645230D02*
X12838872Y-15616658D01*
X12838872Y-15616658D02*
X12829349Y-15597611D01*
X12829349Y-15597611D02*
X12819825Y-15569039D01*
X12819825Y-15569039D02*
X12810301Y-15521420D01*
X12810301Y-15521420D02*
X12810301Y-15483325D01*
X12810301Y-15483325D02*
X12819825Y-15435706D01*
X12819825Y-15435706D02*
X12829349Y-15407135D01*
X12829349Y-15407135D02*
X12838872Y-15388087D01*
X12838872Y-15388087D02*
X12857920Y-15359516D01*
X12857920Y-15359516D02*
X12867444Y-15349992D01*
X12943634Y-15445230D02*
X12943634Y-15578563D01*
X12943634Y-15464277D02*
X12953158Y-15454754D01*
X12953158Y-15454754D02*
X12972206Y-15445230D01*
X12972206Y-15445230D02*
X13000777Y-15445230D01*
X13000777Y-15445230D02*
X13019825Y-15454754D01*
X13019825Y-15454754D02*
X13029349Y-15473801D01*
X13029349Y-15473801D02*
X13029349Y-15578563D01*
X13153158Y-15578563D02*
X13134111Y-15569039D01*
X13134111Y-15569039D02*
X13124587Y-15559516D01*
X13124587Y-15559516D02*
X13115063Y-15540468D01*
X13115063Y-15540468D02*
X13115063Y-15483325D01*
X13115063Y-15483325D02*
X13124587Y-15464277D01*
X13124587Y-15464277D02*
X13134111Y-15454754D01*
X13134111Y-15454754D02*
X13153158Y-15445230D01*
X13153158Y-15445230D02*
X13181730Y-15445230D01*
X13181730Y-15445230D02*
X13200777Y-15454754D01*
X13200777Y-15454754D02*
X13210301Y-15464277D01*
X13210301Y-15464277D02*
X13219825Y-15483325D01*
X13219825Y-15483325D02*
X13219825Y-15540468D01*
X13219825Y-15540468D02*
X13210301Y-15559516D01*
X13210301Y-15559516D02*
X13200777Y-15569039D01*
X13200777Y-15569039D02*
X13181730Y-15578563D01*
X13181730Y-15578563D02*
X13153158Y-15578563D01*
X13276968Y-15445230D02*
X13353158Y-15445230D01*
X13305539Y-15378563D02*
X13305539Y-15549992D01*
X13305539Y-15549992D02*
X13315063Y-15569039D01*
X13315063Y-15569039D02*
X13334111Y-15578563D01*
X13334111Y-15578563D02*
X13353158Y-15578563D01*
X13572206Y-15445230D02*
X13572206Y-15645230D01*
X13572206Y-15454754D02*
X13591253Y-15445230D01*
X13591253Y-15445230D02*
X13629349Y-15445230D01*
X13629349Y-15445230D02*
X13648396Y-15454754D01*
X13648396Y-15454754D02*
X13657920Y-15464277D01*
X13657920Y-15464277D02*
X13667444Y-15483325D01*
X13667444Y-15483325D02*
X13667444Y-15540468D01*
X13667444Y-15540468D02*
X13657920Y-15559516D01*
X13657920Y-15559516D02*
X13648396Y-15569039D01*
X13648396Y-15569039D02*
X13629349Y-15578563D01*
X13629349Y-15578563D02*
X13591253Y-15578563D01*
X13591253Y-15578563D02*
X13572206Y-15569039D01*
X13781730Y-15578563D02*
X13762682Y-15569039D01*
X13762682Y-15569039D02*
X13753158Y-15549992D01*
X13753158Y-15549992D02*
X13753158Y-15378563D01*
X13943634Y-15578563D02*
X13943634Y-15473801D01*
X13943634Y-15473801D02*
X13934111Y-15454754D01*
X13934111Y-15454754D02*
X13915063Y-15445230D01*
X13915063Y-15445230D02*
X13876968Y-15445230D01*
X13876968Y-15445230D02*
X13857920Y-15454754D01*
X13943634Y-15569039D02*
X13924587Y-15578563D01*
X13924587Y-15578563D02*
X13876968Y-15578563D01*
X13876968Y-15578563D02*
X13857920Y-15569039D01*
X13857920Y-15569039D02*
X13848396Y-15549992D01*
X13848396Y-15549992D02*
X13848396Y-15530944D01*
X13848396Y-15530944D02*
X13857920Y-15511897D01*
X13857920Y-15511897D02*
X13876968Y-15502373D01*
X13876968Y-15502373D02*
X13924587Y-15502373D01*
X13924587Y-15502373D02*
X13943634Y-15492849D01*
X14010301Y-15445230D02*
X14086492Y-15445230D01*
X14038873Y-15378563D02*
X14038873Y-15549992D01*
X14038873Y-15549992D02*
X14048396Y-15569039D01*
X14048396Y-15569039D02*
X14067444Y-15578563D01*
X14067444Y-15578563D02*
X14086492Y-15578563D01*
X14229349Y-15569039D02*
X14210301Y-15578563D01*
X14210301Y-15578563D02*
X14172206Y-15578563D01*
X14172206Y-15578563D02*
X14153158Y-15569039D01*
X14153158Y-15569039D02*
X14143634Y-15549992D01*
X14143634Y-15549992D02*
X14143634Y-15473801D01*
X14143634Y-15473801D02*
X14153158Y-15454754D01*
X14153158Y-15454754D02*
X14172206Y-15445230D01*
X14172206Y-15445230D02*
X14210301Y-15445230D01*
X14210301Y-15445230D02*
X14229349Y-15454754D01*
X14229349Y-15454754D02*
X14238873Y-15473801D01*
X14238873Y-15473801D02*
X14238873Y-15492849D01*
X14238873Y-15492849D02*
X14143634Y-15511897D01*
X14410301Y-15578563D02*
X14410301Y-15378563D01*
X14410301Y-15569039D02*
X14391254Y-15578563D01*
X14391254Y-15578563D02*
X14353158Y-15578563D01*
X14353158Y-15578563D02*
X14334111Y-15569039D01*
X14334111Y-15569039D02*
X14324587Y-15559516D01*
X14324587Y-15559516D02*
X14315063Y-15540468D01*
X14315063Y-15540468D02*
X14315063Y-15483325D01*
X14315063Y-15483325D02*
X14324587Y-15464277D01*
X14324587Y-15464277D02*
X14334111Y-15454754D01*
X14334111Y-15454754D02*
X14353158Y-15445230D01*
X14353158Y-15445230D02*
X14391254Y-15445230D01*
X14391254Y-15445230D02*
X14410301Y-15454754D01*
X14486492Y-15654754D02*
X14496015Y-15645230D01*
X14496015Y-15645230D02*
X14515063Y-15616658D01*
X14515063Y-15616658D02*
X14524587Y-15597611D01*
X14524587Y-15597611D02*
X14534111Y-15569039D01*
X14534111Y-15569039D02*
X14543634Y-15521420D01*
X14543634Y-15521420D02*
X14543634Y-15483325D01*
X14543634Y-15483325D02*
X14534111Y-15435706D01*
X14534111Y-15435706D02*
X14524587Y-15407135D01*
X14524587Y-15407135D02*
X14515063Y-15388087D01*
X14515063Y-15388087D02*
X14496015Y-15359516D01*
X14496015Y-15359516D02*
X14486492Y-15349992D01*
X7510711Y-15877791D02*
X7510711Y-15736368D01*
X7369289Y-15736368D01*
X7369289Y-15877791D01*
X7510711Y-15877791D01*
X7896015Y-15698563D02*
X7800777Y-15698563D01*
X7800777Y-15698563D02*
X7791253Y-15793801D01*
X7791253Y-15793801D02*
X7800777Y-15784277D01*
X7800777Y-15784277D02*
X7819824Y-15774754D01*
X7819824Y-15774754D02*
X7867443Y-15774754D01*
X7867443Y-15774754D02*
X7886491Y-15784277D01*
X7886491Y-15784277D02*
X7896015Y-15793801D01*
X7896015Y-15793801D02*
X7905539Y-15812849D01*
X7905539Y-15812849D02*
X7905539Y-15860468D01*
X7905539Y-15860468D02*
X7896015Y-15879516D01*
X7896015Y-15879516D02*
X7886491Y-15889039D01*
X7886491Y-15889039D02*
X7867443Y-15898563D01*
X7867443Y-15898563D02*
X7819824Y-15898563D01*
X7819824Y-15898563D02*
X7800777Y-15889039D01*
X7800777Y-15889039D02*
X7791253Y-15879516D01*
X7991253Y-15879516D02*
X8000777Y-15889039D01*
X8000777Y-15889039D02*
X7991253Y-15898563D01*
X7991253Y-15898563D02*
X7981729Y-15889039D01*
X7981729Y-15889039D02*
X7991253Y-15879516D01*
X7991253Y-15879516D02*
X7991253Y-15898563D01*
X8067443Y-15698563D02*
X8200777Y-15698563D01*
X8200777Y-15698563D02*
X8115062Y-15898563D01*
X8315062Y-15698563D02*
X8334110Y-15698563D01*
X8334110Y-15698563D02*
X8353158Y-15708087D01*
X8353158Y-15708087D02*
X8362682Y-15717611D01*
X8362682Y-15717611D02*
X8372205Y-15736658D01*
X8372205Y-15736658D02*
X8381729Y-15774754D01*
X8381729Y-15774754D02*
X8381729Y-15822373D01*
X8381729Y-15822373D02*
X8372205Y-15860468D01*
X8372205Y-15860468D02*
X8362682Y-15879516D01*
X8362682Y-15879516D02*
X8353158Y-15889039D01*
X8353158Y-15889039D02*
X8334110Y-15898563D01*
X8334110Y-15898563D02*
X8315062Y-15898563D01*
X8315062Y-15898563D02*
X8296015Y-15889039D01*
X8296015Y-15889039D02*
X8286491Y-15879516D01*
X8286491Y-15879516D02*
X8276967Y-15860468D01*
X8276967Y-15860468D02*
X8267443Y-15822373D01*
X8267443Y-15822373D02*
X8267443Y-15774754D01*
X8267443Y-15774754D02*
X8276967Y-15736658D01*
X8276967Y-15736658D02*
X8286491Y-15717611D01*
X8286491Y-15717611D02*
X8296015Y-15708087D01*
X8296015Y-15708087D02*
X8315062Y-15698563D01*
X8505539Y-15698563D02*
X8524586Y-15698563D01*
X8524586Y-15698563D02*
X8543634Y-15708087D01*
X8543634Y-15708087D02*
X8553158Y-15717611D01*
X8553158Y-15717611D02*
X8562682Y-15736658D01*
X8562682Y-15736658D02*
X8572205Y-15774754D01*
X8572205Y-15774754D02*
X8572205Y-15822373D01*
X8572205Y-15822373D02*
X8562682Y-15860468D01*
X8562682Y-15860468D02*
X8553158Y-15879516D01*
X8553158Y-15879516D02*
X8543634Y-15889039D01*
X8543634Y-15889039D02*
X8524586Y-15898563D01*
X8524586Y-15898563D02*
X8505539Y-15898563D01*
X8505539Y-15898563D02*
X8486491Y-15889039D01*
X8486491Y-15889039D02*
X8476967Y-15879516D01*
X8476967Y-15879516D02*
X8467444Y-15860468D01*
X8467444Y-15860468D02*
X8457920Y-15822373D01*
X8457920Y-15822373D02*
X8457920Y-15774754D01*
X8457920Y-15774754D02*
X8467444Y-15736658D01*
X8467444Y-15736658D02*
X8476967Y-15717611D01*
X8476967Y-15717611D02*
X8486491Y-15708087D01*
X8486491Y-15708087D02*
X8505539Y-15698563D01*
X8657920Y-15898563D02*
X8657920Y-15765230D01*
X8657920Y-15784277D02*
X8667444Y-15774754D01*
X8667444Y-15774754D02*
X8686491Y-15765230D01*
X8686491Y-15765230D02*
X8715063Y-15765230D01*
X8715063Y-15765230D02*
X8734110Y-15774754D01*
X8734110Y-15774754D02*
X8743634Y-15793801D01*
X8743634Y-15793801D02*
X8743634Y-15898563D01*
X8743634Y-15793801D02*
X8753158Y-15774754D01*
X8753158Y-15774754D02*
X8772205Y-15765230D01*
X8772205Y-15765230D02*
X8800777Y-15765230D01*
X8800777Y-15765230D02*
X8819825Y-15774754D01*
X8819825Y-15774754D02*
X8829348Y-15793801D01*
X8829348Y-15793801D02*
X8829348Y-15898563D01*
X8924586Y-15898563D02*
X8924586Y-15765230D01*
X8924586Y-15784277D02*
X8934110Y-15774754D01*
X8934110Y-15774754D02*
X8953158Y-15765230D01*
X8953158Y-15765230D02*
X8981729Y-15765230D01*
X8981729Y-15765230D02*
X9000777Y-15774754D01*
X9000777Y-15774754D02*
X9010301Y-15793801D01*
X9010301Y-15793801D02*
X9010301Y-15898563D01*
X9010301Y-15793801D02*
X9019825Y-15774754D01*
X9019825Y-15774754D02*
X9038872Y-15765230D01*
X9038872Y-15765230D02*
X9067444Y-15765230D01*
X9067444Y-15765230D02*
X9086491Y-15774754D01*
X9086491Y-15774754D02*
X9096015Y-15793801D01*
X9096015Y-15793801D02*
X9096015Y-15898563D01*
X9486491Y-15689039D02*
X9315063Y-15946182D01*
X9743634Y-15698563D02*
X9762682Y-15698563D01*
X9762682Y-15698563D02*
X9781729Y-15708087D01*
X9781729Y-15708087D02*
X9791253Y-15717611D01*
X9791253Y-15717611D02*
X9800777Y-15736658D01*
X9800777Y-15736658D02*
X9810301Y-15774754D01*
X9810301Y-15774754D02*
X9810301Y-15822373D01*
X9810301Y-15822373D02*
X9800777Y-15860468D01*
X9800777Y-15860468D02*
X9791253Y-15879516D01*
X9791253Y-15879516D02*
X9781729Y-15889039D01*
X9781729Y-15889039D02*
X9762682Y-15898563D01*
X9762682Y-15898563D02*
X9743634Y-15898563D01*
X9743634Y-15898563D02*
X9724587Y-15889039D01*
X9724587Y-15889039D02*
X9715063Y-15879516D01*
X9715063Y-15879516D02*
X9705539Y-15860468D01*
X9705539Y-15860468D02*
X9696015Y-15822373D01*
X9696015Y-15822373D02*
X9696015Y-15774754D01*
X9696015Y-15774754D02*
X9705539Y-15736658D01*
X9705539Y-15736658D02*
X9715063Y-15717611D01*
X9715063Y-15717611D02*
X9724587Y-15708087D01*
X9724587Y-15708087D02*
X9743634Y-15698563D01*
X9896015Y-15879516D02*
X9905539Y-15889039D01*
X9905539Y-15889039D02*
X9896015Y-15898563D01*
X9896015Y-15898563D02*
X9886491Y-15889039D01*
X9886491Y-15889039D02*
X9896015Y-15879516D01*
X9896015Y-15879516D02*
X9896015Y-15898563D01*
X9981729Y-15717611D02*
X9991253Y-15708087D01*
X9991253Y-15708087D02*
X10010301Y-15698563D01*
X10010301Y-15698563D02*
X10057920Y-15698563D01*
X10057920Y-15698563D02*
X10076968Y-15708087D01*
X10076968Y-15708087D02*
X10086491Y-15717611D01*
X10086491Y-15717611D02*
X10096015Y-15736658D01*
X10096015Y-15736658D02*
X10096015Y-15755706D01*
X10096015Y-15755706D02*
X10086491Y-15784277D01*
X10086491Y-15784277D02*
X9972206Y-15898563D01*
X9972206Y-15898563D02*
X10096015Y-15898563D01*
X10172206Y-15717611D02*
X10181729Y-15708087D01*
X10181729Y-15708087D02*
X10200777Y-15698563D01*
X10200777Y-15698563D02*
X10248396Y-15698563D01*
X10248396Y-15698563D02*
X10267444Y-15708087D01*
X10267444Y-15708087D02*
X10276968Y-15717611D01*
X10276968Y-15717611D02*
X10286491Y-15736658D01*
X10286491Y-15736658D02*
X10286491Y-15755706D01*
X10286491Y-15755706D02*
X10276968Y-15784277D01*
X10276968Y-15784277D02*
X10162682Y-15898563D01*
X10162682Y-15898563D02*
X10286491Y-15898563D01*
X10457920Y-15765230D02*
X10457920Y-15898563D01*
X10410301Y-15689039D02*
X10362682Y-15831897D01*
X10362682Y-15831897D02*
X10486491Y-15831897D01*
X10648396Y-15765230D02*
X10648396Y-15898563D01*
X10600777Y-15689039D02*
X10553158Y-15831897D01*
X10553158Y-15831897D02*
X10676968Y-15831897D01*
X10743634Y-15698563D02*
X10743634Y-15736658D01*
X10819825Y-15698563D02*
X10819825Y-15736658D01*
X11115063Y-15974754D02*
X11105539Y-15965230D01*
X11105539Y-15965230D02*
X11086491Y-15936658D01*
X11086491Y-15936658D02*
X11076968Y-15917611D01*
X11076968Y-15917611D02*
X11067444Y-15889039D01*
X11067444Y-15889039D02*
X11057920Y-15841420D01*
X11057920Y-15841420D02*
X11057920Y-15803325D01*
X11057920Y-15803325D02*
X11067444Y-15755706D01*
X11067444Y-15755706D02*
X11076968Y-15727135D01*
X11076968Y-15727135D02*
X11086491Y-15708087D01*
X11086491Y-15708087D02*
X11105539Y-15679516D01*
X11105539Y-15679516D02*
X11115063Y-15669992D01*
X11276968Y-15765230D02*
X11276968Y-15898563D01*
X11229348Y-15689039D02*
X11181730Y-15831897D01*
X11181730Y-15831897D02*
X11305539Y-15831897D01*
X11534110Y-15898563D02*
X11534110Y-15698563D01*
X11619825Y-15898563D02*
X11619825Y-15793801D01*
X11619825Y-15793801D02*
X11610301Y-15774754D01*
X11610301Y-15774754D02*
X11591253Y-15765230D01*
X11591253Y-15765230D02*
X11562682Y-15765230D01*
X11562682Y-15765230D02*
X11543634Y-15774754D01*
X11543634Y-15774754D02*
X11534110Y-15784277D01*
X11743634Y-15898563D02*
X11724587Y-15889039D01*
X11724587Y-15889039D02*
X11715063Y-15879516D01*
X11715063Y-15879516D02*
X11705539Y-15860468D01*
X11705539Y-15860468D02*
X11705539Y-15803325D01*
X11705539Y-15803325D02*
X11715063Y-15784277D01*
X11715063Y-15784277D02*
X11724587Y-15774754D01*
X11724587Y-15774754D02*
X11743634Y-15765230D01*
X11743634Y-15765230D02*
X11772206Y-15765230D01*
X11772206Y-15765230D02*
X11791253Y-15774754D01*
X11791253Y-15774754D02*
X11800777Y-15784277D01*
X11800777Y-15784277D02*
X11810301Y-15803325D01*
X11810301Y-15803325D02*
X11810301Y-15860468D01*
X11810301Y-15860468D02*
X11800777Y-15879516D01*
X11800777Y-15879516D02*
X11791253Y-15889039D01*
X11791253Y-15889039D02*
X11772206Y-15898563D01*
X11772206Y-15898563D02*
X11743634Y-15898563D01*
X11924587Y-15898563D02*
X11905539Y-15889039D01*
X11905539Y-15889039D02*
X11896015Y-15869992D01*
X11896015Y-15869992D02*
X11896015Y-15698563D01*
X12076968Y-15889039D02*
X12057920Y-15898563D01*
X12057920Y-15898563D02*
X12019825Y-15898563D01*
X12019825Y-15898563D02*
X12000777Y-15889039D01*
X12000777Y-15889039D02*
X11991253Y-15869992D01*
X11991253Y-15869992D02*
X11991253Y-15793801D01*
X11991253Y-15793801D02*
X12000777Y-15774754D01*
X12000777Y-15774754D02*
X12019825Y-15765230D01*
X12019825Y-15765230D02*
X12057920Y-15765230D01*
X12057920Y-15765230D02*
X12076968Y-15774754D01*
X12076968Y-15774754D02*
X12086491Y-15793801D01*
X12086491Y-15793801D02*
X12086491Y-15812849D01*
X12086491Y-15812849D02*
X11991253Y-15831897D01*
X12162682Y-15889039D02*
X12181730Y-15898563D01*
X12181730Y-15898563D02*
X12219825Y-15898563D01*
X12219825Y-15898563D02*
X12238872Y-15889039D01*
X12238872Y-15889039D02*
X12248396Y-15869992D01*
X12248396Y-15869992D02*
X12248396Y-15860468D01*
X12248396Y-15860468D02*
X12238872Y-15841420D01*
X12238872Y-15841420D02*
X12219825Y-15831897D01*
X12219825Y-15831897D02*
X12191253Y-15831897D01*
X12191253Y-15831897D02*
X12172206Y-15822373D01*
X12172206Y-15822373D02*
X12162682Y-15803325D01*
X12162682Y-15803325D02*
X12162682Y-15793801D01*
X12162682Y-15793801D02*
X12172206Y-15774754D01*
X12172206Y-15774754D02*
X12191253Y-15765230D01*
X12191253Y-15765230D02*
X12219825Y-15765230D01*
X12219825Y-15765230D02*
X12238872Y-15774754D01*
X12315063Y-15974754D02*
X12324587Y-15965230D01*
X12324587Y-15965230D02*
X12343634Y-15936658D01*
X12343634Y-15936658D02*
X12353158Y-15917611D01*
X12353158Y-15917611D02*
X12362682Y-15889039D01*
X12362682Y-15889039D02*
X12372206Y-15841420D01*
X12372206Y-15841420D02*
X12372206Y-15803325D01*
X12372206Y-15803325D02*
X12362682Y-15755706D01*
X12362682Y-15755706D02*
X12353158Y-15727135D01*
X12353158Y-15727135D02*
X12343634Y-15708087D01*
X12343634Y-15708087D02*
X12324587Y-15679516D01*
X12324587Y-15679516D02*
X12315063Y-15669992D01*
X12676968Y-15974754D02*
X12667444Y-15965230D01*
X12667444Y-15965230D02*
X12648396Y-15936658D01*
X12648396Y-15936658D02*
X12638872Y-15917611D01*
X12638872Y-15917611D02*
X12629349Y-15889039D01*
X12629349Y-15889039D02*
X12619825Y-15841420D01*
X12619825Y-15841420D02*
X12619825Y-15803325D01*
X12619825Y-15803325D02*
X12629349Y-15755706D01*
X12629349Y-15755706D02*
X12638872Y-15727135D01*
X12638872Y-15727135D02*
X12648396Y-15708087D01*
X12648396Y-15708087D02*
X12667444Y-15679516D01*
X12667444Y-15679516D02*
X12676968Y-15669992D01*
X12753158Y-15765230D02*
X12753158Y-15898563D01*
X12753158Y-15784277D02*
X12762682Y-15774754D01*
X12762682Y-15774754D02*
X12781730Y-15765230D01*
X12781730Y-15765230D02*
X12810301Y-15765230D01*
X12810301Y-15765230D02*
X12829349Y-15774754D01*
X12829349Y-15774754D02*
X12838872Y-15793801D01*
X12838872Y-15793801D02*
X12838872Y-15898563D01*
X12962682Y-15898563D02*
X12943634Y-15889039D01*
X12943634Y-15889039D02*
X12934111Y-15879516D01*
X12934111Y-15879516D02*
X12924587Y-15860468D01*
X12924587Y-15860468D02*
X12924587Y-15803325D01*
X12924587Y-15803325D02*
X12934111Y-15784277D01*
X12934111Y-15784277D02*
X12943634Y-15774754D01*
X12943634Y-15774754D02*
X12962682Y-15765230D01*
X12962682Y-15765230D02*
X12991253Y-15765230D01*
X12991253Y-15765230D02*
X13010301Y-15774754D01*
X13010301Y-15774754D02*
X13019825Y-15784277D01*
X13019825Y-15784277D02*
X13029349Y-15803325D01*
X13029349Y-15803325D02*
X13029349Y-15860468D01*
X13029349Y-15860468D02*
X13019825Y-15879516D01*
X13019825Y-15879516D02*
X13010301Y-15889039D01*
X13010301Y-15889039D02*
X12991253Y-15898563D01*
X12991253Y-15898563D02*
X12962682Y-15898563D01*
X13086492Y-15765230D02*
X13162682Y-15765230D01*
X13115063Y-15698563D02*
X13115063Y-15869992D01*
X13115063Y-15869992D02*
X13124587Y-15889039D01*
X13124587Y-15889039D02*
X13143634Y-15898563D01*
X13143634Y-15898563D02*
X13162682Y-15898563D01*
X13381730Y-15765230D02*
X13381730Y-15965230D01*
X13381730Y-15774754D02*
X13400777Y-15765230D01*
X13400777Y-15765230D02*
X13438873Y-15765230D01*
X13438873Y-15765230D02*
X13457920Y-15774754D01*
X13457920Y-15774754D02*
X13467444Y-15784277D01*
X13467444Y-15784277D02*
X13476968Y-15803325D01*
X13476968Y-15803325D02*
X13476968Y-15860468D01*
X13476968Y-15860468D02*
X13467444Y-15879516D01*
X13467444Y-15879516D02*
X13457920Y-15889039D01*
X13457920Y-15889039D02*
X13438873Y-15898563D01*
X13438873Y-15898563D02*
X13400777Y-15898563D01*
X13400777Y-15898563D02*
X13381730Y-15889039D01*
X13591253Y-15898563D02*
X13572206Y-15889039D01*
X13572206Y-15889039D02*
X13562682Y-15869992D01*
X13562682Y-15869992D02*
X13562682Y-15698563D01*
X13753158Y-15898563D02*
X13753158Y-15793801D01*
X13753158Y-15793801D02*
X13743634Y-15774754D01*
X13743634Y-15774754D02*
X13724587Y-15765230D01*
X13724587Y-15765230D02*
X13686492Y-15765230D01*
X13686492Y-15765230D02*
X13667444Y-15774754D01*
X13753158Y-15889039D02*
X13734111Y-15898563D01*
X13734111Y-15898563D02*
X13686492Y-15898563D01*
X13686492Y-15898563D02*
X13667444Y-15889039D01*
X13667444Y-15889039D02*
X13657920Y-15869992D01*
X13657920Y-15869992D02*
X13657920Y-15850944D01*
X13657920Y-15850944D02*
X13667444Y-15831897D01*
X13667444Y-15831897D02*
X13686492Y-15822373D01*
X13686492Y-15822373D02*
X13734111Y-15822373D01*
X13734111Y-15822373D02*
X13753158Y-15812849D01*
X13819825Y-15765230D02*
X13896015Y-15765230D01*
X13848396Y-15698563D02*
X13848396Y-15869992D01*
X13848396Y-15869992D02*
X13857920Y-15889039D01*
X13857920Y-15889039D02*
X13876968Y-15898563D01*
X13876968Y-15898563D02*
X13896015Y-15898563D01*
X14038873Y-15889039D02*
X14019825Y-15898563D01*
X14019825Y-15898563D02*
X13981730Y-15898563D01*
X13981730Y-15898563D02*
X13962682Y-15889039D01*
X13962682Y-15889039D02*
X13953158Y-15869992D01*
X13953158Y-15869992D02*
X13953158Y-15793801D01*
X13953158Y-15793801D02*
X13962682Y-15774754D01*
X13962682Y-15774754D02*
X13981730Y-15765230D01*
X13981730Y-15765230D02*
X14019825Y-15765230D01*
X14019825Y-15765230D02*
X14038873Y-15774754D01*
X14038873Y-15774754D02*
X14048396Y-15793801D01*
X14048396Y-15793801D02*
X14048396Y-15812849D01*
X14048396Y-15812849D02*
X13953158Y-15831897D01*
X14219825Y-15898563D02*
X14219825Y-15698563D01*
X14219825Y-15889039D02*
X14200777Y-15898563D01*
X14200777Y-15898563D02*
X14162682Y-15898563D01*
X14162682Y-15898563D02*
X14143634Y-15889039D01*
X14143634Y-15889039D02*
X14134111Y-15879516D01*
X14134111Y-15879516D02*
X14124587Y-15860468D01*
X14124587Y-15860468D02*
X14124587Y-15803325D01*
X14124587Y-15803325D02*
X14134111Y-15784277D01*
X14134111Y-15784277D02*
X14143634Y-15774754D01*
X14143634Y-15774754D02*
X14162682Y-15765230D01*
X14162682Y-15765230D02*
X14200777Y-15765230D01*
X14200777Y-15765230D02*
X14219825Y-15774754D01*
X14296015Y-15974754D02*
X14305539Y-15965230D01*
X14305539Y-15965230D02*
X14324587Y-15936658D01*
X14324587Y-15936658D02*
X14334111Y-15917611D01*
X14334111Y-15917611D02*
X14343634Y-15889039D01*
X14343634Y-15889039D02*
X14353158Y-15841420D01*
X14353158Y-15841420D02*
X14353158Y-15803325D01*
X14353158Y-15803325D02*
X14343634Y-15755706D01*
X14343634Y-15755706D02*
X14334111Y-15727135D01*
X14334111Y-15727135D02*
X14324587Y-15708087D01*
X14324587Y-15708087D02*
X14305539Y-15679516D01*
X14305539Y-15679516D02*
X14296015Y-15669992D01*
M02*
