%TF.GenerationSoftware,KiCad,Pcbnew,8.0.4*%
%TF.CreationDate,2024-08-30T16:25:16+03:00*%
%TF.ProjectId,pcb,7063622e-6b69-4636-9164-5f7063625858,rev?*%
%TF.SameCoordinates,Original*%
%TF.FileFunction,Profile,NP*%
%FSLAX46Y46*%
G04 Gerber Fmt 4.6, Leading zero omitted, Abs format (unit mm)*
G04 Created by KiCad (PCBNEW 8.0.4) date 2024-08-30 16:25:16*
%MOMM*%
%LPD*%
G01*
G04 APERTURE LIST*
%TA.AperFunction,Profile*%
%ADD10C,0.200000*%
%TD*%
G04 APERTURE END LIST*
D10*
X113000000Y-55940978D02*
G75*
G02*
X114000000Y-54941000I1000000J-22D01*
G01*
X191000000Y-84615970D02*
G75*
G02*
X192000000Y-83616000I1000000J-30D01*
G01*
X210500000Y-55615978D02*
G75*
G02*
X211500022Y-56615978I0J-1000022D01*
G01*
X196600000Y-66590957D02*
X196599900Y-62890910D01*
X112999962Y-122083849D02*
G75*
G02*
X111999962Y-123083862I-999962J-51D01*
G01*
X111999962Y-123083849D02*
X76500000Y-123090978D01*
X210000000Y-84615970D02*
X210000000Y-114615970D01*
X170508049Y-55618933D02*
G75*
G02*
X170057276Y-55118000I52951J500933D01*
G01*
X178980000Y-133700970D02*
X160600000Y-128740970D01*
X204400000Y-62890940D02*
X204399961Y-66590901D01*
X197100000Y-67090957D02*
G75*
G02*
X196599943Y-66590957I0J500057D01*
G01*
X140999984Y-110940986D02*
G75*
G02*
X142000014Y-111940986I16J-1000014D01*
G01*
X192000000Y-83615970D02*
X209000000Y-83615972D01*
X131997300Y-49911251D02*
G75*
G02*
X133139122Y-48878722I1072800J-38749D01*
G01*
X211500000Y-56615978D02*
X211500000Y-114343349D01*
X151648500Y-54258887D02*
X169197847Y-54253088D01*
X203899961Y-67090901D02*
X197100000Y-67090957D01*
X195665961Y-142030802D02*
G75*
G02*
X194299961Y-142396782I-865961J499902D01*
G01*
X192000000Y-115615968D02*
G75*
G02*
X191000032Y-114615968I0J999968D01*
G01*
X142000000Y-128240708D02*
X141999984Y-111940986D01*
X194299935Y-142396827D02*
X178980000Y-133700970D01*
X169197847Y-54253088D02*
G75*
G02*
X170057230Y-55118000I-5547J-864912D01*
G01*
X114000000Y-54940978D02*
X131163500Y-54947478D01*
X196599900Y-62890910D02*
G75*
G02*
X197099900Y-62390900I500000J10D01*
G01*
X170508049Y-55618934D02*
X210500000Y-55615978D01*
X204399961Y-66590901D02*
G75*
G02*
X203899961Y-67090861I-499861J-99D01*
G01*
X75500000Y-68090978D02*
G75*
G02*
X76500000Y-67091000I1000000J-22D01*
G01*
X209000000Y-83616000D02*
G75*
G02*
X210000000Y-84615970I0J-1000000D01*
G01*
X211366025Y-114843349D02*
X195665961Y-142030802D01*
X112999963Y-111940903D02*
G75*
G02*
X113999963Y-110940863I1000137J-97D01*
G01*
X151648500Y-54258887D02*
G75*
G02*
X151011323Y-53511875I121500J748887D01*
G01*
X191000000Y-114615968D02*
X191000000Y-84615970D01*
X75500000Y-122090978D02*
X75500000Y-68090978D01*
X142866025Y-128740708D02*
G75*
G02*
X141999977Y-128240721I-25J1000008D01*
G01*
X133139118Y-48878790D02*
X149979966Y-48881690D01*
X208999998Y-115615970D02*
X192000000Y-115615968D01*
X113000000Y-66090948D02*
G75*
G02*
X112000000Y-67090900I-999900J-52D01*
G01*
X131997500Y-54006500D02*
X131997300Y-49911251D01*
X112999962Y-122083849D02*
X112999963Y-111940903D01*
X149979966Y-48881690D02*
G75*
G02*
X151008656Y-49883355I30034J-998210D01*
G01*
X76500000Y-123090978D02*
G75*
G02*
X75500022Y-122090978I0J999978D01*
G01*
X76500000Y-67090978D02*
X112000000Y-67090948D01*
X203900000Y-62390940D02*
G75*
G02*
X204400060Y-62890940I0J-500060D01*
G01*
X160600000Y-128740970D02*
X142866025Y-128740708D01*
X197099900Y-62390910D02*
X203900000Y-62390940D01*
X131997500Y-54006500D02*
G75*
G02*
X131163501Y-54947500I-887500J-53500D01*
G01*
X151008724Y-49883355D02*
X151011314Y-53511875D01*
X140999984Y-110940986D02*
X113999963Y-110940903D01*
X113000000Y-66090948D02*
X113000000Y-55940978D01*
X211500000Y-114343349D02*
G75*
G02*
X211366024Y-114843349I-999800J-51D01*
G01*
X209999970Y-114615970D02*
G75*
G02*
X208999998Y-115615970I-999970J-30D01*
G01*
M02*
