M48
; DRILL file {KiCad 8.0.4} date 2024-08-31T00:30:51+0300
; FORMAT={-:-/ absolute / inch / decimal}
; #@! TF.CreationDate,2024-08-31T00:30:51+03:00
; #@! TF.GenerationSoftware,Kicad,Pcbnew,8.0.4
; #@! TF.FileFunction,NonPlated,1,2,NPTH
FMAT,2
INCH
; #@! TA.AperFunction,NonPlated,NPTH,ComponentDrill
T1C0.0354
; #@! TA.AperFunction,NonPlated,NPTH,ComponentDrill
T2C0.1181
; #@! TA.AperFunction,NonPlated,NPTH,ComponentDrill
T3C0.1969
; #@! TA.AperFunction,NonPlated,NPTH,ComponentDrill
T4C0.2244
%
G90
G05
T1
X7.0472Y-2.2516
X7.1654Y-2.2516
T2
X3.1535Y-3.1807
X3.1535Y-3.9288
X3.1535Y-4.6768
X3.2244Y-3.2221
X3.2244Y-3.9701
X3.2244Y-4.7181
X3.4291Y-3.2221
X3.4291Y-3.9701
X3.4291Y-4.7181
X3.5Y-3.1807
X3.5Y-3.9288
X3.5Y-4.6768
X3.9016Y-3.1807
X3.9016Y-3.9288
X3.9016Y-4.6768
X3.9724Y-3.2221
X3.9724Y-3.9701
X3.9724Y-4.7181
X4.1772Y-3.2221
X4.1772Y-3.9701
X4.1772Y-4.7181
X4.248Y-3.1807
X4.248Y-3.9288
X4.248Y-4.6768
X4.6496Y-2.7024
X4.6496Y-3.4504
X4.6496Y-4.1985
X4.7205Y-2.7437
X4.7205Y-3.4918
X4.7205Y-4.2398
X4.9252Y-2.7437
X4.9252Y-3.4918
X4.9252Y-4.2398
X4.9961Y-2.7024
X4.9961Y-3.4504
X4.9961Y-4.1985
X5.3976Y-2.4632
X5.3976Y-3.2113
X5.3976Y-3.9593
X5.4685Y-2.5046
X5.4685Y-3.2526
X5.4685Y-4.0006
X5.6732Y-2.5046
X5.6732Y-3.2526
X5.6732Y-4.0006
X5.7441Y-2.4632
X5.7441Y-3.2113
X5.7441Y-3.9593
X5.7913Y-4.8992
X5.8622Y-4.9406
X6.0669Y-4.9406
X6.1378Y-4.8992
X6.1457Y-2.6748
X6.1457Y-3.4229
X6.1457Y-4.1709
X6.2165Y-2.7162
X6.2165Y-3.4642
X6.2165Y-4.2122
X6.4213Y-2.7162
X6.4213Y-3.4642
X6.4213Y-4.2122
X6.4921Y-2.6748
X6.4921Y-3.4229
X6.4921Y-4.1709
X6.5618Y-4.9576
X6.6195Y-5.0159
X6.8173Y-5.0689
X6.8937Y-2.729
X6.8937Y-3.477
X6.8937Y-4.225
X6.8964Y-5.0473
X6.9646Y-2.7703
X6.9646Y-3.5183
X6.9646Y-4.2664
X7.1693Y-2.7703
X7.1693Y-3.5183
X7.1693Y-4.2664
X7.2402Y-2.729
X7.2402Y-3.477
X7.2402Y-4.225
X7.2959Y-5.2082
X7.3366Y-5.2795
X7.5139Y-5.3818
X7.596Y-5.3815
T3
X3.3268Y-2.9957
X3.3268Y-3.7437
X3.3268Y-4.4918
X4.0748Y-2.9957
X4.0748Y-3.7437
X4.0748Y-4.4918
X4.8228Y-2.5174
X4.8228Y-3.2654
X4.8228Y-4.0134
X5.5709Y-2.2782
X5.5709Y-3.0262
X5.5709Y-3.7743
X5.9646Y-4.7142
X6.3189Y-2.4898
X6.3189Y-3.2378
X6.3189Y-3.9859
X6.777Y-4.8237
X7.0669Y-2.5439
X7.0669Y-3.292
X7.0669Y-4.04
X7.5385Y-5.1346
T4
X3.7008Y-3.3697
X3.7008Y-4.1178
X6.6929Y-2.8712
X7.33Y-4.5852
M30
