%TF.GenerationSoftware,KiCad,Pcbnew,8.0.5*%
%TF.CreationDate,2024-10-07T20:22:04+03:00*%
%TF.ProjectId,pcb,7063622e-6b69-4636-9164-5f7063625858,rev?*%
%TF.SameCoordinates,Original*%
%TF.FileFunction,Drillmap*%
%TF.FilePolarity,Positive*%
%FSLAX45Y45*%
G04 Gerber Fmt 4.5, Leading zero omitted, Abs format (unit mm)*
G04 Created by KiCad (PCBNEW 8.0.5) date 2024-10-07 20:22:04*
%MOMM*%
%LPD*%
G01*
G04 APERTURE LIST*
%ADD10C,0.120000*%
%ADD11C,0.200000*%
%ADD12C,0.100000*%
G04 APERTURE END LIST*
D10*
X21196300Y-5561605D02*
X20780000Y-5561605D01*
X11350000Y-5594098D02*
G75*
G02*
X11450000Y-5494100I100000J-2D01*
G01*
X21196301Y-5561598D02*
G75*
G02*
X21300004Y-5661598I-1J-103772D01*
G01*
X11250000Y-12208385D02*
G75*
G02*
X11150000Y-12308390I-100000J-5D01*
G01*
X11150000Y-12308385D02*
X7650000Y-12309098D01*
X17050805Y-5561893D02*
G75*
G02*
X16949997Y-5490001I-10505J91893D01*
G01*
X17898000Y-13370097D02*
X16060000Y-12874097D01*
X14150000Y-11094099D02*
G75*
G02*
X14250001Y-11194099I0J-100001D01*
G01*
X13250000Y-4991125D02*
G75*
G02*
X13350000Y-4887875I100190J3015D01*
G01*
X21300000Y-5661598D02*
X21300000Y-10998200D01*
X15164850Y-5425889D02*
X16850000Y-5425889D01*
X19520000Y-14201651D02*
G75*
G02*
X19379998Y-14220004I-84530J101651D01*
G01*
X14250000Y-12770000D02*
X14250000Y-11194099D01*
X19380000Y-14220000D02*
X17898000Y-13370097D01*
X16850000Y-5425889D02*
G75*
G02*
X16950002Y-5489999I3620J-104401D01*
G01*
X11450000Y-5494098D02*
X13116350Y-5494748D01*
X17050805Y-5561893D02*
X19320000Y-5561605D01*
X7550000Y-6809098D02*
G75*
G02*
X7650000Y-6709100I100000J-2D01*
G01*
X21196300Y-11315700D02*
X19520000Y-14201651D01*
X11250000Y-11194090D02*
G75*
G02*
X11350000Y-11094090I100010J-10D01*
G01*
X15164850Y-5425889D02*
G75*
G02*
X15050003Y-5351187I-20070J94779D01*
G01*
X7550000Y-12209098D02*
X7550000Y-6809098D01*
X14350000Y-12874071D02*
G75*
G02*
X14249999Y-12770000I40130J138641D01*
G01*
X13350000Y-4887879D02*
X14950000Y-4888169D01*
X11350000Y-6609095D02*
G75*
G02*
X11250000Y-6709090I-99990J-5D01*
G01*
X13250000Y-5400650D02*
X13250000Y-4991126D01*
X11250000Y-12208385D02*
X11250000Y-11194090D01*
X14950000Y-4888169D02*
G75*
G02*
X15050001Y-4988336I-80J-100081D01*
G01*
X7650000Y-12309098D02*
G75*
G02*
X7550002Y-12209098I0J99998D01*
G01*
X7650000Y-6709098D02*
X11250000Y-6709098D01*
X16060000Y-12874097D02*
X14350000Y-12874071D01*
X13250000Y-5400650D02*
G75*
G02*
X13116350Y-5494748I-121530J30650D01*
G01*
X15050000Y-4988336D02*
X15050000Y-5351188D01*
X14150000Y-11094099D02*
X11350000Y-11094099D01*
X11350000Y-6609095D02*
X11350000Y-5594098D01*
X21300000Y-10998200D02*
G75*
G02*
X21196299Y-11315699I-726000J61440D01*
G01*
X19014400Y-11380600D02*
X19014400Y-8380600D01*
X19114400Y-8280600D02*
X20814400Y-8280600D01*
X20814400Y-11480600D02*
X19114400Y-11480600D01*
X20914400Y-8380600D02*
X20914400Y-11380600D01*
X19014400Y-8380600D02*
G75*
G02*
X19114400Y-8280600I100005J-5D01*
G01*
X19114400Y-11480600D02*
G75*
G02*
X19014400Y-11380600I2J100002D01*
G01*
X20814400Y-8280600D02*
G75*
G02*
X20914400Y-8380600I0J-100000D01*
G01*
X20914400Y-11380600D02*
G75*
G02*
X20814400Y-11480600I-99995J-5D01*
G01*
X19370000Y-5611605D02*
X19370000Y-7591605D01*
X19470000Y-7691605D02*
X20630000Y-7691605D01*
X20730000Y-7591605D02*
X20730000Y-5611605D01*
X19320000Y-5561605D02*
G75*
G02*
X19370000Y-5611605I0J-50000D01*
G01*
X19470000Y-7691605D02*
G75*
G02*
X19370000Y-7591605I0J100000D01*
G01*
X20730000Y-5611605D02*
G75*
G02*
X20780000Y-5561605I50000J0D01*
G01*
X20730000Y-7591605D02*
G75*
G02*
X20630000Y-7691605I-100000J0D01*
G01*
D11*
D12*
X7790000Y-11610000D02*
X7830000Y-11650000D01*
X7830000Y-11610000D02*
X7790000Y-11650000D01*
X7790500Y-9720900D02*
X7830500Y-9760900D01*
X7830500Y-9720900D02*
X7790500Y-9760900D01*
X7820000Y-8410000D02*
X7860000Y-8450000D01*
X7860000Y-8410000D02*
X7820000Y-8450000D01*
X8027669Y-8617669D02*
X8067669Y-8657669D01*
X8067669Y-8617669D02*
X8027669Y-8657669D01*
X8031800Y-10800400D02*
X8071800Y-10840400D01*
X8071800Y-10800400D02*
X8031800Y-10840400D01*
X8050000Y-9000000D02*
X8090000Y-9040000D01*
X8090000Y-9000000D02*
X8050000Y-9040000D01*
X8692200Y-9149400D02*
X8732200Y-9189400D01*
X8732200Y-9149400D02*
X8692200Y-9189400D01*
X8819200Y-8641400D02*
X8859200Y-8681400D01*
X8859200Y-8641400D02*
X8819200Y-8681400D01*
X8830000Y-10850000D02*
X8870000Y-10890000D01*
X8870000Y-10850000D02*
X8830000Y-10890000D01*
X9080000Y-9739097D02*
X9120000Y-9779097D01*
X9120000Y-9739097D02*
X9080000Y-9779097D01*
X9080000Y-11639097D02*
X9120000Y-11679097D01*
X9120000Y-11639097D02*
X9080000Y-11679097D01*
X9314116Y-7790116D02*
X9354116Y-7830116D01*
X9354116Y-7790116D02*
X9314116Y-7830116D01*
X9530000Y-9690000D02*
X9570000Y-9730000D01*
X9570000Y-9690000D02*
X9530000Y-9730000D01*
X9700000Y-11600000D02*
X9740000Y-11640000D01*
X9740000Y-11600000D02*
X9700000Y-11640000D01*
X9847900Y-8438200D02*
X9887900Y-8478200D01*
X9887900Y-8438200D02*
X9847900Y-8478200D01*
X9936800Y-10787700D02*
X9976800Y-10827700D01*
X9976800Y-10787700D02*
X9936800Y-10827700D01*
X9950000Y-8590000D02*
X9990000Y-8630000D01*
X9990000Y-8590000D02*
X9950000Y-8630000D01*
X9980000Y-9020000D02*
X10020000Y-9060000D01*
X10020000Y-9020000D02*
X9980000Y-9060000D01*
X10635300Y-9162100D02*
X10675300Y-9202100D01*
X10675300Y-9162100D02*
X10635300Y-9202100D01*
X10660700Y-8793800D02*
X10700700Y-8833800D01*
X10700700Y-8793800D02*
X10660700Y-8833800D01*
X10724200Y-10838500D02*
X10764200Y-10878500D01*
X10764200Y-10838500D02*
X10724200Y-10878500D01*
X10980000Y-8339097D02*
X11020000Y-8379097D01*
X11020000Y-8339097D02*
X10980000Y-8379097D01*
X10980000Y-9739097D02*
X11020000Y-9779097D01*
X11020000Y-9739097D02*
X10980000Y-9779097D01*
X10980000Y-11639097D02*
X11020000Y-11679097D01*
X11020000Y-11639097D02*
X10980000Y-11679097D01*
X11430000Y-8470000D02*
X11470000Y-8510000D01*
X11470000Y-8470000D02*
X11430000Y-8510000D01*
X11430000Y-10420000D02*
X11470000Y-10460000D01*
X11470000Y-10420000D02*
X11430000Y-10460000D01*
X11600000Y-7190000D02*
X11640000Y-7230000D01*
X11640000Y-7190000D02*
X11600000Y-7230000D01*
X11830000Y-7370000D02*
X11870000Y-7410000D01*
X11870000Y-7370000D02*
X11830000Y-7410000D01*
X11830000Y-9590000D02*
X11870000Y-9630000D01*
X11870000Y-9590000D02*
X11830000Y-9630000D01*
X11892600Y-7815900D02*
X11932600Y-7855900D01*
X11932600Y-7815900D02*
X11892600Y-7855900D01*
X12580000Y-7800000D02*
X12620000Y-7840000D01*
X12620000Y-7800000D02*
X12580000Y-7840000D01*
X12630000Y-9550000D02*
X12670000Y-9590000D01*
X12670000Y-9550000D02*
X12630000Y-9590000D01*
X12640000Y-7420000D02*
X12680000Y-7460000D01*
X12680000Y-7420000D02*
X12640000Y-7460000D01*
X12880000Y-7124097D02*
X12920000Y-7164097D01*
X12920000Y-7124097D02*
X12880000Y-7164097D01*
X12880000Y-8524097D02*
X12920000Y-8564097D01*
X12920000Y-8524097D02*
X12880000Y-8564097D01*
X12880000Y-10424097D02*
X12920000Y-10464097D01*
X12920000Y-10424097D02*
X12880000Y-10464097D01*
X13330000Y-6616597D02*
X13370000Y-6656597D01*
X13370000Y-6616597D02*
X13330000Y-6656597D01*
X13330000Y-9695500D02*
X13370000Y-9735500D01*
X13370000Y-9695500D02*
X13330000Y-9735500D01*
X13353100Y-7904800D02*
X13393100Y-7944800D01*
X13393100Y-7904800D02*
X13353100Y-7944800D01*
X13700000Y-6790000D02*
X13740000Y-6830000D01*
X13740000Y-6790000D02*
X13700000Y-6830000D01*
X13730000Y-7180000D02*
X13770000Y-7220000D01*
X13770000Y-7180000D02*
X13730000Y-7220000D01*
X13740000Y-9050000D02*
X13780000Y-9090000D01*
X13780000Y-9050000D02*
X13740000Y-9090000D01*
X14470000Y-12160000D02*
X14510000Y-12200000D01*
X14510000Y-12160000D02*
X14470000Y-12200000D01*
X14521500Y-9162100D02*
X14561500Y-9202100D01*
X14561500Y-9162100D02*
X14521500Y-9202100D01*
X14530000Y-6866597D02*
X14570000Y-6906597D01*
X14570000Y-6866597D02*
X14530000Y-6906597D01*
X14546900Y-7244400D02*
X14586900Y-7284400D01*
X14586900Y-7244400D02*
X14546900Y-7284400D01*
X14750000Y-11410000D02*
X14790000Y-11450000D01*
X14790000Y-11410000D02*
X14750000Y-11450000D01*
X14780000Y-6630000D02*
X14820000Y-6670000D01*
X14820000Y-6630000D02*
X14780000Y-6670000D01*
X14780000Y-9800000D02*
X14820000Y-9840000D01*
X14820000Y-9800000D02*
X14780000Y-9840000D01*
X14930000Y-8370000D02*
X14970000Y-8410000D01*
X14970000Y-8370000D02*
X14930000Y-8410000D01*
X15090000Y-6990000D02*
X15130000Y-7030000D01*
X15130000Y-6990000D02*
X15090000Y-7030000D01*
X15232545Y-8222300D02*
X15272545Y-8262300D01*
X15272545Y-8222300D02*
X15232545Y-8262300D01*
X15330000Y-10280000D02*
X15370000Y-10320000D01*
X15370000Y-10280000D02*
X15330000Y-10320000D01*
X15397800Y-11156000D02*
X15437800Y-11196000D01*
X15437800Y-11156000D02*
X15397800Y-11196000D01*
X15600000Y-9570000D02*
X15640000Y-9610000D01*
X15640000Y-9570000D02*
X15600000Y-9610000D01*
X15601000Y-7372717D02*
X15641000Y-7412717D01*
X15641000Y-7372717D02*
X15601000Y-7412717D01*
X15601000Y-7803200D02*
X15641000Y-7843200D01*
X15641000Y-7803200D02*
X15601000Y-7843200D01*
X15780000Y-12204070D02*
X15820000Y-12244070D01*
X15820000Y-12204070D02*
X15780000Y-12244070D01*
X16380000Y-12190000D02*
X16420000Y-12230000D01*
X16420000Y-12190000D02*
X16380000Y-12230000D01*
X16430000Y-7230000D02*
X16470000Y-7270000D01*
X16470000Y-7230000D02*
X16430000Y-7270000D01*
X16430000Y-9470000D02*
X16470000Y-9510000D01*
X16470000Y-9470000D02*
X16430000Y-9510000D01*
X16440000Y-7739097D02*
X16480000Y-7779097D01*
X16480000Y-7739097D02*
X16440000Y-7779097D01*
X16680000Y-8354097D02*
X16720000Y-8394097D01*
X16720000Y-8354097D02*
X16680000Y-8394097D01*
X16680000Y-10254097D02*
X16720000Y-10294097D01*
X16720000Y-10254097D02*
X16680000Y-10294097D01*
X16820200Y-6577800D02*
X16860200Y-6617800D01*
X16860200Y-6577800D02*
X16820200Y-6617800D01*
X16980000Y-11600000D02*
X17020000Y-11640000D01*
X17020000Y-11600000D02*
X16980000Y-11640000D01*
X17061500Y-6291900D02*
X17101500Y-6331900D01*
X17101500Y-6291900D02*
X17061500Y-6331900D01*
X17130000Y-8550000D02*
X17170000Y-8590000D01*
X17170000Y-8550000D02*
X17130000Y-8590000D01*
X17130000Y-10450000D02*
X17170000Y-10490000D01*
X17170000Y-10450000D02*
X17130000Y-10490000D01*
X17366300Y-5987100D02*
X17406300Y-6027100D01*
X17406300Y-5987100D02*
X17366300Y-6027100D01*
X17455200Y-7219000D02*
X17495200Y-7259000D01*
X17495200Y-7219000D02*
X17455200Y-7259000D01*
X17500000Y-9640000D02*
X17540000Y-9680000D01*
X17540000Y-9640000D02*
X17500000Y-9680000D01*
X17540000Y-7840000D02*
X17580000Y-7880000D01*
X17580000Y-7840000D02*
X17540000Y-7880000D01*
X17544100Y-7434900D02*
X17584100Y-7474900D01*
X17584100Y-7434900D02*
X17544100Y-7474900D01*
X17660550Y-11399450D02*
X17700550Y-11439450D01*
X17700550Y-11399450D02*
X17660550Y-11439450D01*
X17797216Y-12691597D02*
X17837216Y-12731597D01*
X17837216Y-12691597D02*
X17797216Y-12731597D01*
X18329186Y-7866700D02*
X18369186Y-7906700D01*
X18369186Y-7866700D02*
X18329186Y-7906700D01*
X18350000Y-7490000D02*
X18390000Y-7530000D01*
X18390000Y-7490000D02*
X18350000Y-7530000D01*
X18350000Y-9620000D02*
X18390000Y-9660000D01*
X18390000Y-9620000D02*
X18350000Y-9660000D01*
X18420400Y-6393500D02*
X18460400Y-6433500D01*
X18460400Y-6393500D02*
X18420400Y-6433500D01*
X18458500Y-6152200D02*
X18498500Y-6192200D01*
X18498500Y-6152200D02*
X18458500Y-6192200D01*
X18458500Y-7269800D02*
X18498500Y-7309800D01*
X18498500Y-7269800D02*
X18458500Y-7309800D01*
X18458500Y-8463600D02*
X18498500Y-8503600D01*
X18498500Y-8463600D02*
X18458500Y-8503600D01*
X18460000Y-12870000D02*
X18500000Y-12910000D01*
X18500000Y-12870000D02*
X18460000Y-12910000D01*
X18534700Y-8235000D02*
X18574700Y-8275000D01*
X18574700Y-8235000D02*
X18534700Y-8275000D01*
X18580000Y-10491597D02*
X18620000Y-10531597D01*
X18620000Y-10491597D02*
X18580000Y-10531597D01*
X18623600Y-7358700D02*
X18663600Y-7398700D01*
X18663600Y-7358700D02*
X18623600Y-7398700D01*
X18636300Y-8146100D02*
X18676300Y-8186100D01*
X18676300Y-8146100D02*
X18636300Y-8186100D01*
X18649000Y-6076000D02*
X18689000Y-6116000D01*
X18689000Y-6076000D02*
X18649000Y-6116000D01*
X18725200Y-8082600D02*
X18765200Y-8122600D01*
X18765200Y-8082600D02*
X18725200Y-8122600D01*
X18801400Y-6139500D02*
X18841400Y-6179500D01*
X18841400Y-6139500D02*
X18801400Y-6179500D01*
X18801400Y-6253800D02*
X18841400Y-6293800D01*
X18841400Y-6253800D02*
X18801400Y-6293800D01*
X18801400Y-6380800D02*
X18841400Y-6420800D01*
X18841400Y-6380800D02*
X18801400Y-6420800D01*
X18801400Y-6510405D02*
X18841400Y-6550405D01*
X18841400Y-6510405D02*
X18801400Y-6550405D01*
X18801400Y-6647500D02*
X18841400Y-6687500D01*
X18841400Y-6647500D02*
X18801400Y-6687500D01*
X18814100Y-7993700D02*
X18854100Y-8033700D01*
X18854100Y-7993700D02*
X18814100Y-8033700D01*
X19004600Y-8006400D02*
X19044600Y-8046400D01*
X19044600Y-8006400D02*
X19004600Y-8046400D01*
X19131600Y-7536500D02*
X19171600Y-7576500D01*
X19171600Y-7536500D02*
X19131600Y-7576500D01*
X19144300Y-12311700D02*
X19184300Y-12351700D01*
X19184300Y-12311700D02*
X19144300Y-12351700D01*
X19525300Y-12743500D02*
X19565300Y-12783500D01*
X19565300Y-12743500D02*
X19525300Y-12783500D01*
X19710000Y-13570000D02*
X19750000Y-13610000D01*
X19750000Y-13570000D02*
X19710000Y-13610000D01*
X19728500Y-7993700D02*
X19768500Y-8033700D01*
X19768500Y-7993700D02*
X19728500Y-8033700D01*
X20439700Y-7917500D02*
X20479700Y-7957500D01*
X20479700Y-7917500D02*
X20439700Y-7957500D01*
X20909600Y-7847000D02*
X20949600Y-7887000D01*
X20949600Y-7847000D02*
X20909600Y-7887000D01*
X20922300Y-7587300D02*
X20962300Y-7627300D01*
X20962300Y-7587300D02*
X20922300Y-7627300D01*
X20922300Y-7727000D02*
X20962300Y-7767000D01*
X20962300Y-7727000D02*
X20922300Y-7767000D01*
X19025000Y-5721605D02*
G75*
G02*
X18975000Y-5721605I-25000J0D01*
G01*
X18975000Y-5721605D02*
G75*
G02*
X19025000Y-5721605I25000J0D01*
G01*
X21125000Y-5721605D02*
G75*
G02*
X21075000Y-5721605I-25000J0D01*
G01*
X21075000Y-5721605D02*
G75*
G02*
X21125000Y-5721605I25000J0D01*
G01*
X19604400Y-11842500D02*
X19604400Y-11918700D01*
X19566300Y-11880600D02*
X19642500Y-11880600D01*
X20324400Y-11842500D02*
X20324400Y-11918700D01*
X20286300Y-11880600D02*
X20362500Y-11880600D01*
D11*
X7804777Y-14549689D02*
X7804777Y-14349689D01*
X7804777Y-14349689D02*
X7852396Y-14349689D01*
X7852396Y-14349689D02*
X7880967Y-14359213D01*
X7880967Y-14359213D02*
X7900015Y-14378260D01*
X7900015Y-14378260D02*
X7909539Y-14397308D01*
X7909539Y-14397308D02*
X7919062Y-14435403D01*
X7919062Y-14435403D02*
X7919062Y-14463975D01*
X7919062Y-14463975D02*
X7909539Y-14502070D01*
X7909539Y-14502070D02*
X7900015Y-14521117D01*
X7900015Y-14521117D02*
X7880967Y-14540165D01*
X7880967Y-14540165D02*
X7852396Y-14549689D01*
X7852396Y-14549689D02*
X7804777Y-14549689D01*
X8004777Y-14549689D02*
X8004777Y-14416356D01*
X8004777Y-14454451D02*
X8014301Y-14435403D01*
X8014301Y-14435403D02*
X8023824Y-14425879D01*
X8023824Y-14425879D02*
X8042872Y-14416356D01*
X8042872Y-14416356D02*
X8061920Y-14416356D01*
X8128586Y-14549689D02*
X8128586Y-14416356D01*
X8128586Y-14349689D02*
X8119062Y-14359213D01*
X8119062Y-14359213D02*
X8128586Y-14368737D01*
X8128586Y-14368737D02*
X8138110Y-14359213D01*
X8138110Y-14359213D02*
X8128586Y-14349689D01*
X8128586Y-14349689D02*
X8128586Y-14368737D01*
X8252396Y-14549689D02*
X8233348Y-14540165D01*
X8233348Y-14540165D02*
X8223824Y-14521117D01*
X8223824Y-14521117D02*
X8223824Y-14349689D01*
X8357158Y-14549689D02*
X8338110Y-14540165D01*
X8338110Y-14540165D02*
X8328586Y-14521117D01*
X8328586Y-14521117D02*
X8328586Y-14349689D01*
X8585729Y-14549689D02*
X8585729Y-14349689D01*
X8585729Y-14349689D02*
X8652396Y-14492546D01*
X8652396Y-14492546D02*
X8719063Y-14349689D01*
X8719063Y-14349689D02*
X8719063Y-14549689D01*
X8900015Y-14549689D02*
X8900015Y-14444927D01*
X8900015Y-14444927D02*
X8890491Y-14425879D01*
X8890491Y-14425879D02*
X8871444Y-14416356D01*
X8871444Y-14416356D02*
X8833348Y-14416356D01*
X8833348Y-14416356D02*
X8814301Y-14425879D01*
X8900015Y-14540165D02*
X8880967Y-14549689D01*
X8880967Y-14549689D02*
X8833348Y-14549689D01*
X8833348Y-14549689D02*
X8814301Y-14540165D01*
X8814301Y-14540165D02*
X8804777Y-14521117D01*
X8804777Y-14521117D02*
X8804777Y-14502070D01*
X8804777Y-14502070D02*
X8814301Y-14483022D01*
X8814301Y-14483022D02*
X8833348Y-14473498D01*
X8833348Y-14473498D02*
X8880967Y-14473498D01*
X8880967Y-14473498D02*
X8900015Y-14463975D01*
X8995253Y-14416356D02*
X8995253Y-14616356D01*
X8995253Y-14425879D02*
X9014301Y-14416356D01*
X9014301Y-14416356D02*
X9052396Y-14416356D01*
X9052396Y-14416356D02*
X9071444Y-14425879D01*
X9071444Y-14425879D02*
X9080967Y-14435403D01*
X9080967Y-14435403D02*
X9090491Y-14454451D01*
X9090491Y-14454451D02*
X9090491Y-14511594D01*
X9090491Y-14511594D02*
X9080967Y-14530641D01*
X9080967Y-14530641D02*
X9071444Y-14540165D01*
X9071444Y-14540165D02*
X9052396Y-14549689D01*
X9052396Y-14549689D02*
X9014301Y-14549689D01*
X9014301Y-14549689D02*
X8995253Y-14540165D01*
X9176205Y-14530641D02*
X9185729Y-14540165D01*
X9185729Y-14540165D02*
X9176205Y-14549689D01*
X9176205Y-14549689D02*
X9166682Y-14540165D01*
X9166682Y-14540165D02*
X9176205Y-14530641D01*
X9176205Y-14530641D02*
X9176205Y-14549689D01*
X9176205Y-14425879D02*
X9185729Y-14435403D01*
X9185729Y-14435403D02*
X9176205Y-14444927D01*
X9176205Y-14444927D02*
X9166682Y-14435403D01*
X9166682Y-14435403D02*
X9176205Y-14425879D01*
X9176205Y-14425879D02*
X9176205Y-14444927D01*
D12*
X7504000Y-14858205D02*
X7544000Y-14898205D01*
X7544000Y-14858205D02*
X7504000Y-14898205D01*
D11*
X7842872Y-14769689D02*
X7861920Y-14769689D01*
X7861920Y-14769689D02*
X7880967Y-14779213D01*
X7880967Y-14779213D02*
X7890491Y-14788737D01*
X7890491Y-14788737D02*
X7900015Y-14807784D01*
X7900015Y-14807784D02*
X7909539Y-14845879D01*
X7909539Y-14845879D02*
X7909539Y-14893498D01*
X7909539Y-14893498D02*
X7900015Y-14931594D01*
X7900015Y-14931594D02*
X7890491Y-14950641D01*
X7890491Y-14950641D02*
X7880967Y-14960165D01*
X7880967Y-14960165D02*
X7861920Y-14969689D01*
X7861920Y-14969689D02*
X7842872Y-14969689D01*
X7842872Y-14969689D02*
X7823824Y-14960165D01*
X7823824Y-14960165D02*
X7814301Y-14950641D01*
X7814301Y-14950641D02*
X7804777Y-14931594D01*
X7804777Y-14931594D02*
X7795253Y-14893498D01*
X7795253Y-14893498D02*
X7795253Y-14845879D01*
X7795253Y-14845879D02*
X7804777Y-14807784D01*
X7804777Y-14807784D02*
X7814301Y-14788737D01*
X7814301Y-14788737D02*
X7823824Y-14779213D01*
X7823824Y-14779213D02*
X7842872Y-14769689D01*
X7995253Y-14950641D02*
X8004777Y-14960165D01*
X8004777Y-14960165D02*
X7995253Y-14969689D01*
X7995253Y-14969689D02*
X7985729Y-14960165D01*
X7985729Y-14960165D02*
X7995253Y-14950641D01*
X7995253Y-14950641D02*
X7995253Y-14969689D01*
X8176205Y-14836356D02*
X8176205Y-14969689D01*
X8128586Y-14760165D02*
X8080967Y-14903022D01*
X8080967Y-14903022D02*
X8204777Y-14903022D01*
X8319062Y-14769689D02*
X8338110Y-14769689D01*
X8338110Y-14769689D02*
X8357158Y-14779213D01*
X8357158Y-14779213D02*
X8366682Y-14788737D01*
X8366682Y-14788737D02*
X8376205Y-14807784D01*
X8376205Y-14807784D02*
X8385729Y-14845879D01*
X8385729Y-14845879D02*
X8385729Y-14893498D01*
X8385729Y-14893498D02*
X8376205Y-14931594D01*
X8376205Y-14931594D02*
X8366682Y-14950641D01*
X8366682Y-14950641D02*
X8357158Y-14960165D01*
X8357158Y-14960165D02*
X8338110Y-14969689D01*
X8338110Y-14969689D02*
X8319062Y-14969689D01*
X8319062Y-14969689D02*
X8300015Y-14960165D01*
X8300015Y-14960165D02*
X8290491Y-14950641D01*
X8290491Y-14950641D02*
X8280967Y-14931594D01*
X8280967Y-14931594D02*
X8271443Y-14893498D01*
X8271443Y-14893498D02*
X8271443Y-14845879D01*
X8271443Y-14845879D02*
X8280967Y-14807784D01*
X8280967Y-14807784D02*
X8290491Y-14788737D01*
X8290491Y-14788737D02*
X8300015Y-14779213D01*
X8300015Y-14779213D02*
X8319062Y-14769689D01*
X8509539Y-14769689D02*
X8528586Y-14769689D01*
X8528586Y-14769689D02*
X8547634Y-14779213D01*
X8547634Y-14779213D02*
X8557158Y-14788737D01*
X8557158Y-14788737D02*
X8566682Y-14807784D01*
X8566682Y-14807784D02*
X8576205Y-14845879D01*
X8576205Y-14845879D02*
X8576205Y-14893498D01*
X8576205Y-14893498D02*
X8566682Y-14931594D01*
X8566682Y-14931594D02*
X8557158Y-14950641D01*
X8557158Y-14950641D02*
X8547634Y-14960165D01*
X8547634Y-14960165D02*
X8528586Y-14969689D01*
X8528586Y-14969689D02*
X8509539Y-14969689D01*
X8509539Y-14969689D02*
X8490491Y-14960165D01*
X8490491Y-14960165D02*
X8480967Y-14950641D01*
X8480967Y-14950641D02*
X8471444Y-14931594D01*
X8471444Y-14931594D02*
X8461920Y-14893498D01*
X8461920Y-14893498D02*
X8461920Y-14845879D01*
X8461920Y-14845879D02*
X8471444Y-14807784D01*
X8471444Y-14807784D02*
X8480967Y-14788737D01*
X8480967Y-14788737D02*
X8490491Y-14779213D01*
X8490491Y-14779213D02*
X8509539Y-14769689D01*
X8661920Y-14969689D02*
X8661920Y-14836356D01*
X8661920Y-14855403D02*
X8671444Y-14845879D01*
X8671444Y-14845879D02*
X8690491Y-14836356D01*
X8690491Y-14836356D02*
X8719063Y-14836356D01*
X8719063Y-14836356D02*
X8738110Y-14845879D01*
X8738110Y-14845879D02*
X8747634Y-14864927D01*
X8747634Y-14864927D02*
X8747634Y-14969689D01*
X8747634Y-14864927D02*
X8757158Y-14845879D01*
X8757158Y-14845879D02*
X8776205Y-14836356D01*
X8776205Y-14836356D02*
X8804777Y-14836356D01*
X8804777Y-14836356D02*
X8823825Y-14845879D01*
X8823825Y-14845879D02*
X8833348Y-14864927D01*
X8833348Y-14864927D02*
X8833348Y-14969689D01*
X8928586Y-14969689D02*
X8928586Y-14836356D01*
X8928586Y-14855403D02*
X8938110Y-14845879D01*
X8938110Y-14845879D02*
X8957158Y-14836356D01*
X8957158Y-14836356D02*
X8985729Y-14836356D01*
X8985729Y-14836356D02*
X9004777Y-14845879D01*
X9004777Y-14845879D02*
X9014301Y-14864927D01*
X9014301Y-14864927D02*
X9014301Y-14969689D01*
X9014301Y-14864927D02*
X9023825Y-14845879D01*
X9023825Y-14845879D02*
X9042872Y-14836356D01*
X9042872Y-14836356D02*
X9071444Y-14836356D01*
X9071444Y-14836356D02*
X9090491Y-14845879D01*
X9090491Y-14845879D02*
X9100015Y-14864927D01*
X9100015Y-14864927D02*
X9100015Y-14969689D01*
X9490491Y-14760165D02*
X9319063Y-15017308D01*
X9747634Y-14769689D02*
X9766682Y-14769689D01*
X9766682Y-14769689D02*
X9785729Y-14779213D01*
X9785729Y-14779213D02*
X9795253Y-14788737D01*
X9795253Y-14788737D02*
X9804777Y-14807784D01*
X9804777Y-14807784D02*
X9814301Y-14845879D01*
X9814301Y-14845879D02*
X9814301Y-14893498D01*
X9814301Y-14893498D02*
X9804777Y-14931594D01*
X9804777Y-14931594D02*
X9795253Y-14950641D01*
X9795253Y-14950641D02*
X9785729Y-14960165D01*
X9785729Y-14960165D02*
X9766682Y-14969689D01*
X9766682Y-14969689D02*
X9747634Y-14969689D01*
X9747634Y-14969689D02*
X9728587Y-14960165D01*
X9728587Y-14960165D02*
X9719063Y-14950641D01*
X9719063Y-14950641D02*
X9709539Y-14931594D01*
X9709539Y-14931594D02*
X9700015Y-14893498D01*
X9700015Y-14893498D02*
X9700015Y-14845879D01*
X9700015Y-14845879D02*
X9709539Y-14807784D01*
X9709539Y-14807784D02*
X9719063Y-14788737D01*
X9719063Y-14788737D02*
X9728587Y-14779213D01*
X9728587Y-14779213D02*
X9747634Y-14769689D01*
X9900015Y-14950641D02*
X9909539Y-14960165D01*
X9909539Y-14960165D02*
X9900015Y-14969689D01*
X9900015Y-14969689D02*
X9890491Y-14960165D01*
X9890491Y-14960165D02*
X9900015Y-14950641D01*
X9900015Y-14950641D02*
X9900015Y-14969689D01*
X10033348Y-14769689D02*
X10052396Y-14769689D01*
X10052396Y-14769689D02*
X10071444Y-14779213D01*
X10071444Y-14779213D02*
X10080968Y-14788737D01*
X10080968Y-14788737D02*
X10090491Y-14807784D01*
X10090491Y-14807784D02*
X10100015Y-14845879D01*
X10100015Y-14845879D02*
X10100015Y-14893498D01*
X10100015Y-14893498D02*
X10090491Y-14931594D01*
X10090491Y-14931594D02*
X10080968Y-14950641D01*
X10080968Y-14950641D02*
X10071444Y-14960165D01*
X10071444Y-14960165D02*
X10052396Y-14969689D01*
X10052396Y-14969689D02*
X10033348Y-14969689D01*
X10033348Y-14969689D02*
X10014301Y-14960165D01*
X10014301Y-14960165D02*
X10004777Y-14950641D01*
X10004777Y-14950641D02*
X9995253Y-14931594D01*
X9995253Y-14931594D02*
X9985729Y-14893498D01*
X9985729Y-14893498D02*
X9985729Y-14845879D01*
X9985729Y-14845879D02*
X9995253Y-14807784D01*
X9995253Y-14807784D02*
X10004777Y-14788737D01*
X10004777Y-14788737D02*
X10014301Y-14779213D01*
X10014301Y-14779213D02*
X10033348Y-14769689D01*
X10290491Y-14969689D02*
X10176206Y-14969689D01*
X10233348Y-14969689D02*
X10233348Y-14769689D01*
X10233348Y-14769689D02*
X10214301Y-14798260D01*
X10214301Y-14798260D02*
X10195253Y-14817308D01*
X10195253Y-14817308D02*
X10176206Y-14826832D01*
X10471444Y-14769689D02*
X10376206Y-14769689D01*
X10376206Y-14769689D02*
X10366682Y-14864927D01*
X10366682Y-14864927D02*
X10376206Y-14855403D01*
X10376206Y-14855403D02*
X10395253Y-14845879D01*
X10395253Y-14845879D02*
X10442872Y-14845879D01*
X10442872Y-14845879D02*
X10461920Y-14855403D01*
X10461920Y-14855403D02*
X10471444Y-14864927D01*
X10471444Y-14864927D02*
X10480968Y-14883975D01*
X10480968Y-14883975D02*
X10480968Y-14931594D01*
X10480968Y-14931594D02*
X10471444Y-14950641D01*
X10471444Y-14950641D02*
X10461920Y-14960165D01*
X10461920Y-14960165D02*
X10442872Y-14969689D01*
X10442872Y-14969689D02*
X10395253Y-14969689D01*
X10395253Y-14969689D02*
X10376206Y-14960165D01*
X10376206Y-14960165D02*
X10366682Y-14950641D01*
X10547634Y-14769689D02*
X10680968Y-14769689D01*
X10680968Y-14769689D02*
X10595253Y-14969689D01*
X10747634Y-14769689D02*
X10747634Y-14807784D01*
X10823825Y-14769689D02*
X10823825Y-14807784D01*
X11119063Y-15045879D02*
X11109539Y-15036356D01*
X11109539Y-15036356D02*
X11090491Y-15007784D01*
X11090491Y-15007784D02*
X11080968Y-14988737D01*
X11080968Y-14988737D02*
X11071444Y-14960165D01*
X11071444Y-14960165D02*
X11061920Y-14912546D01*
X11061920Y-14912546D02*
X11061920Y-14874451D01*
X11061920Y-14874451D02*
X11071444Y-14826832D01*
X11071444Y-14826832D02*
X11080968Y-14798260D01*
X11080968Y-14798260D02*
X11090491Y-14779213D01*
X11090491Y-14779213D02*
X11109539Y-14750641D01*
X11109539Y-14750641D02*
X11119063Y-14741117D01*
X11300015Y-14969689D02*
X11185729Y-14969689D01*
X11242872Y-14969689D02*
X11242872Y-14769689D01*
X11242872Y-14769689D02*
X11223825Y-14798260D01*
X11223825Y-14798260D02*
X11204777Y-14817308D01*
X11204777Y-14817308D02*
X11185729Y-14826832D01*
X11423825Y-14769689D02*
X11442872Y-14769689D01*
X11442872Y-14769689D02*
X11461920Y-14779213D01*
X11461920Y-14779213D02*
X11471444Y-14788737D01*
X11471444Y-14788737D02*
X11480968Y-14807784D01*
X11480968Y-14807784D02*
X11490491Y-14845879D01*
X11490491Y-14845879D02*
X11490491Y-14893498D01*
X11490491Y-14893498D02*
X11480968Y-14931594D01*
X11480968Y-14931594D02*
X11471444Y-14950641D01*
X11471444Y-14950641D02*
X11461920Y-14960165D01*
X11461920Y-14960165D02*
X11442872Y-14969689D01*
X11442872Y-14969689D02*
X11423825Y-14969689D01*
X11423825Y-14969689D02*
X11404777Y-14960165D01*
X11404777Y-14960165D02*
X11395253Y-14950641D01*
X11395253Y-14950641D02*
X11385729Y-14931594D01*
X11385729Y-14931594D02*
X11376206Y-14893498D01*
X11376206Y-14893498D02*
X11376206Y-14845879D01*
X11376206Y-14845879D02*
X11385729Y-14807784D01*
X11385729Y-14807784D02*
X11395253Y-14788737D01*
X11395253Y-14788737D02*
X11404777Y-14779213D01*
X11404777Y-14779213D02*
X11423825Y-14769689D01*
X11661920Y-14769689D02*
X11623825Y-14769689D01*
X11623825Y-14769689D02*
X11604777Y-14779213D01*
X11604777Y-14779213D02*
X11595253Y-14788737D01*
X11595253Y-14788737D02*
X11576206Y-14817308D01*
X11576206Y-14817308D02*
X11566682Y-14855403D01*
X11566682Y-14855403D02*
X11566682Y-14931594D01*
X11566682Y-14931594D02*
X11576206Y-14950641D01*
X11576206Y-14950641D02*
X11585729Y-14960165D01*
X11585729Y-14960165D02*
X11604777Y-14969689D01*
X11604777Y-14969689D02*
X11642872Y-14969689D01*
X11642872Y-14969689D02*
X11661920Y-14960165D01*
X11661920Y-14960165D02*
X11671444Y-14950641D01*
X11671444Y-14950641D02*
X11680968Y-14931594D01*
X11680968Y-14931594D02*
X11680968Y-14883975D01*
X11680968Y-14883975D02*
X11671444Y-14864927D01*
X11671444Y-14864927D02*
X11661920Y-14855403D01*
X11661920Y-14855403D02*
X11642872Y-14845879D01*
X11642872Y-14845879D02*
X11604777Y-14845879D01*
X11604777Y-14845879D02*
X11585729Y-14855403D01*
X11585729Y-14855403D02*
X11576206Y-14864927D01*
X11576206Y-14864927D02*
X11566682Y-14883975D01*
X11919063Y-14969689D02*
X11919063Y-14769689D01*
X12004777Y-14969689D02*
X12004777Y-14864927D01*
X12004777Y-14864927D02*
X11995253Y-14845879D01*
X11995253Y-14845879D02*
X11976206Y-14836356D01*
X11976206Y-14836356D02*
X11947634Y-14836356D01*
X11947634Y-14836356D02*
X11928587Y-14845879D01*
X11928587Y-14845879D02*
X11919063Y-14855403D01*
X12128587Y-14969689D02*
X12109539Y-14960165D01*
X12109539Y-14960165D02*
X12100015Y-14950641D01*
X12100015Y-14950641D02*
X12090491Y-14931594D01*
X12090491Y-14931594D02*
X12090491Y-14874451D01*
X12090491Y-14874451D02*
X12100015Y-14855403D01*
X12100015Y-14855403D02*
X12109539Y-14845879D01*
X12109539Y-14845879D02*
X12128587Y-14836356D01*
X12128587Y-14836356D02*
X12157158Y-14836356D01*
X12157158Y-14836356D02*
X12176206Y-14845879D01*
X12176206Y-14845879D02*
X12185730Y-14855403D01*
X12185730Y-14855403D02*
X12195253Y-14874451D01*
X12195253Y-14874451D02*
X12195253Y-14931594D01*
X12195253Y-14931594D02*
X12185730Y-14950641D01*
X12185730Y-14950641D02*
X12176206Y-14960165D01*
X12176206Y-14960165D02*
X12157158Y-14969689D01*
X12157158Y-14969689D02*
X12128587Y-14969689D01*
X12309539Y-14969689D02*
X12290491Y-14960165D01*
X12290491Y-14960165D02*
X12280968Y-14941117D01*
X12280968Y-14941117D02*
X12280968Y-14769689D01*
X12461920Y-14960165D02*
X12442872Y-14969689D01*
X12442872Y-14969689D02*
X12404777Y-14969689D01*
X12404777Y-14969689D02*
X12385730Y-14960165D01*
X12385730Y-14960165D02*
X12376206Y-14941117D01*
X12376206Y-14941117D02*
X12376206Y-14864927D01*
X12376206Y-14864927D02*
X12385730Y-14845879D01*
X12385730Y-14845879D02*
X12404777Y-14836356D01*
X12404777Y-14836356D02*
X12442872Y-14836356D01*
X12442872Y-14836356D02*
X12461920Y-14845879D01*
X12461920Y-14845879D02*
X12471444Y-14864927D01*
X12471444Y-14864927D02*
X12471444Y-14883975D01*
X12471444Y-14883975D02*
X12376206Y-14903022D01*
X12547634Y-14960165D02*
X12566682Y-14969689D01*
X12566682Y-14969689D02*
X12604777Y-14969689D01*
X12604777Y-14969689D02*
X12623825Y-14960165D01*
X12623825Y-14960165D02*
X12633349Y-14941117D01*
X12633349Y-14941117D02*
X12633349Y-14931594D01*
X12633349Y-14931594D02*
X12623825Y-14912546D01*
X12623825Y-14912546D02*
X12604777Y-14903022D01*
X12604777Y-14903022D02*
X12576206Y-14903022D01*
X12576206Y-14903022D02*
X12557158Y-14893498D01*
X12557158Y-14893498D02*
X12547634Y-14874451D01*
X12547634Y-14874451D02*
X12547634Y-14864927D01*
X12547634Y-14864927D02*
X12557158Y-14845879D01*
X12557158Y-14845879D02*
X12576206Y-14836356D01*
X12576206Y-14836356D02*
X12604777Y-14836356D01*
X12604777Y-14836356D02*
X12623825Y-14845879D01*
X12700015Y-15045879D02*
X12709539Y-15036356D01*
X12709539Y-15036356D02*
X12728587Y-15007784D01*
X12728587Y-15007784D02*
X12738111Y-14988737D01*
X12738111Y-14988737D02*
X12747634Y-14960165D01*
X12747634Y-14960165D02*
X12757158Y-14912546D01*
X12757158Y-14912546D02*
X12757158Y-14874451D01*
X12757158Y-14874451D02*
X12747634Y-14826832D01*
X12747634Y-14826832D02*
X12738111Y-14798260D01*
X12738111Y-14798260D02*
X12728587Y-14779213D01*
X12728587Y-14779213D02*
X12709539Y-14750641D01*
X12709539Y-14750641D02*
X12700015Y-14741117D01*
D12*
X7544000Y-15142205D02*
G75*
G02*
X7494000Y-15142205I-25000J0D01*
G01*
X7494000Y-15142205D02*
G75*
G02*
X7544000Y-15142205I25000J0D01*
G01*
D11*
X7842872Y-15033689D02*
X7861920Y-15033689D01*
X7861920Y-15033689D02*
X7880967Y-15043213D01*
X7880967Y-15043213D02*
X7890491Y-15052737D01*
X7890491Y-15052737D02*
X7900015Y-15071784D01*
X7900015Y-15071784D02*
X7909539Y-15109879D01*
X7909539Y-15109879D02*
X7909539Y-15157498D01*
X7909539Y-15157498D02*
X7900015Y-15195594D01*
X7900015Y-15195594D02*
X7890491Y-15214641D01*
X7890491Y-15214641D02*
X7880967Y-15224165D01*
X7880967Y-15224165D02*
X7861920Y-15233689D01*
X7861920Y-15233689D02*
X7842872Y-15233689D01*
X7842872Y-15233689D02*
X7823824Y-15224165D01*
X7823824Y-15224165D02*
X7814301Y-15214641D01*
X7814301Y-15214641D02*
X7804777Y-15195594D01*
X7804777Y-15195594D02*
X7795253Y-15157498D01*
X7795253Y-15157498D02*
X7795253Y-15109879D01*
X7795253Y-15109879D02*
X7804777Y-15071784D01*
X7804777Y-15071784D02*
X7814301Y-15052737D01*
X7814301Y-15052737D02*
X7823824Y-15043213D01*
X7823824Y-15043213D02*
X7842872Y-15033689D01*
X7995253Y-15214641D02*
X8004777Y-15224165D01*
X8004777Y-15224165D02*
X7995253Y-15233689D01*
X7995253Y-15233689D02*
X7985729Y-15224165D01*
X7985729Y-15224165D02*
X7995253Y-15214641D01*
X7995253Y-15214641D02*
X7995253Y-15233689D01*
X8185729Y-15033689D02*
X8090491Y-15033689D01*
X8090491Y-15033689D02*
X8080967Y-15128927D01*
X8080967Y-15128927D02*
X8090491Y-15119403D01*
X8090491Y-15119403D02*
X8109539Y-15109879D01*
X8109539Y-15109879D02*
X8157158Y-15109879D01*
X8157158Y-15109879D02*
X8176205Y-15119403D01*
X8176205Y-15119403D02*
X8185729Y-15128927D01*
X8185729Y-15128927D02*
X8195253Y-15147975D01*
X8195253Y-15147975D02*
X8195253Y-15195594D01*
X8195253Y-15195594D02*
X8185729Y-15214641D01*
X8185729Y-15214641D02*
X8176205Y-15224165D01*
X8176205Y-15224165D02*
X8157158Y-15233689D01*
X8157158Y-15233689D02*
X8109539Y-15233689D01*
X8109539Y-15233689D02*
X8090491Y-15224165D01*
X8090491Y-15224165D02*
X8080967Y-15214641D01*
X8319062Y-15033689D02*
X8338110Y-15033689D01*
X8338110Y-15033689D02*
X8357158Y-15043213D01*
X8357158Y-15043213D02*
X8366682Y-15052737D01*
X8366682Y-15052737D02*
X8376205Y-15071784D01*
X8376205Y-15071784D02*
X8385729Y-15109879D01*
X8385729Y-15109879D02*
X8385729Y-15157498D01*
X8385729Y-15157498D02*
X8376205Y-15195594D01*
X8376205Y-15195594D02*
X8366682Y-15214641D01*
X8366682Y-15214641D02*
X8357158Y-15224165D01*
X8357158Y-15224165D02*
X8338110Y-15233689D01*
X8338110Y-15233689D02*
X8319062Y-15233689D01*
X8319062Y-15233689D02*
X8300015Y-15224165D01*
X8300015Y-15224165D02*
X8290491Y-15214641D01*
X8290491Y-15214641D02*
X8280967Y-15195594D01*
X8280967Y-15195594D02*
X8271443Y-15157498D01*
X8271443Y-15157498D02*
X8271443Y-15109879D01*
X8271443Y-15109879D02*
X8280967Y-15071784D01*
X8280967Y-15071784D02*
X8290491Y-15052737D01*
X8290491Y-15052737D02*
X8300015Y-15043213D01*
X8300015Y-15043213D02*
X8319062Y-15033689D01*
X8509539Y-15033689D02*
X8528586Y-15033689D01*
X8528586Y-15033689D02*
X8547634Y-15043213D01*
X8547634Y-15043213D02*
X8557158Y-15052737D01*
X8557158Y-15052737D02*
X8566682Y-15071784D01*
X8566682Y-15071784D02*
X8576205Y-15109879D01*
X8576205Y-15109879D02*
X8576205Y-15157498D01*
X8576205Y-15157498D02*
X8566682Y-15195594D01*
X8566682Y-15195594D02*
X8557158Y-15214641D01*
X8557158Y-15214641D02*
X8547634Y-15224165D01*
X8547634Y-15224165D02*
X8528586Y-15233689D01*
X8528586Y-15233689D02*
X8509539Y-15233689D01*
X8509539Y-15233689D02*
X8490491Y-15224165D01*
X8490491Y-15224165D02*
X8480967Y-15214641D01*
X8480967Y-15214641D02*
X8471444Y-15195594D01*
X8471444Y-15195594D02*
X8461920Y-15157498D01*
X8461920Y-15157498D02*
X8461920Y-15109879D01*
X8461920Y-15109879D02*
X8471444Y-15071784D01*
X8471444Y-15071784D02*
X8480967Y-15052737D01*
X8480967Y-15052737D02*
X8490491Y-15043213D01*
X8490491Y-15043213D02*
X8509539Y-15033689D01*
X8661920Y-15233689D02*
X8661920Y-15100356D01*
X8661920Y-15119403D02*
X8671444Y-15109879D01*
X8671444Y-15109879D02*
X8690491Y-15100356D01*
X8690491Y-15100356D02*
X8719063Y-15100356D01*
X8719063Y-15100356D02*
X8738110Y-15109879D01*
X8738110Y-15109879D02*
X8747634Y-15128927D01*
X8747634Y-15128927D02*
X8747634Y-15233689D01*
X8747634Y-15128927D02*
X8757158Y-15109879D01*
X8757158Y-15109879D02*
X8776205Y-15100356D01*
X8776205Y-15100356D02*
X8804777Y-15100356D01*
X8804777Y-15100356D02*
X8823825Y-15109879D01*
X8823825Y-15109879D02*
X8833348Y-15128927D01*
X8833348Y-15128927D02*
X8833348Y-15233689D01*
X8928586Y-15233689D02*
X8928586Y-15100356D01*
X8928586Y-15119403D02*
X8938110Y-15109879D01*
X8938110Y-15109879D02*
X8957158Y-15100356D01*
X8957158Y-15100356D02*
X8985729Y-15100356D01*
X8985729Y-15100356D02*
X9004777Y-15109879D01*
X9004777Y-15109879D02*
X9014301Y-15128927D01*
X9014301Y-15128927D02*
X9014301Y-15233689D01*
X9014301Y-15128927D02*
X9023825Y-15109879D01*
X9023825Y-15109879D02*
X9042872Y-15100356D01*
X9042872Y-15100356D02*
X9071444Y-15100356D01*
X9071444Y-15100356D02*
X9090491Y-15109879D01*
X9090491Y-15109879D02*
X9100015Y-15128927D01*
X9100015Y-15128927D02*
X9100015Y-15233689D01*
X9490491Y-15024165D02*
X9319063Y-15281308D01*
X9747634Y-15033689D02*
X9766682Y-15033689D01*
X9766682Y-15033689D02*
X9785729Y-15043213D01*
X9785729Y-15043213D02*
X9795253Y-15052737D01*
X9795253Y-15052737D02*
X9804777Y-15071784D01*
X9804777Y-15071784D02*
X9814301Y-15109879D01*
X9814301Y-15109879D02*
X9814301Y-15157498D01*
X9814301Y-15157498D02*
X9804777Y-15195594D01*
X9804777Y-15195594D02*
X9795253Y-15214641D01*
X9795253Y-15214641D02*
X9785729Y-15224165D01*
X9785729Y-15224165D02*
X9766682Y-15233689D01*
X9766682Y-15233689D02*
X9747634Y-15233689D01*
X9747634Y-15233689D02*
X9728587Y-15224165D01*
X9728587Y-15224165D02*
X9719063Y-15214641D01*
X9719063Y-15214641D02*
X9709539Y-15195594D01*
X9709539Y-15195594D02*
X9700015Y-15157498D01*
X9700015Y-15157498D02*
X9700015Y-15109879D01*
X9700015Y-15109879D02*
X9709539Y-15071784D01*
X9709539Y-15071784D02*
X9719063Y-15052737D01*
X9719063Y-15052737D02*
X9728587Y-15043213D01*
X9728587Y-15043213D02*
X9747634Y-15033689D01*
X9900015Y-15214641D02*
X9909539Y-15224165D01*
X9909539Y-15224165D02*
X9900015Y-15233689D01*
X9900015Y-15233689D02*
X9890491Y-15224165D01*
X9890491Y-15224165D02*
X9900015Y-15214641D01*
X9900015Y-15214641D02*
X9900015Y-15233689D01*
X10033348Y-15033689D02*
X10052396Y-15033689D01*
X10052396Y-15033689D02*
X10071444Y-15043213D01*
X10071444Y-15043213D02*
X10080968Y-15052737D01*
X10080968Y-15052737D02*
X10090491Y-15071784D01*
X10090491Y-15071784D02*
X10100015Y-15109879D01*
X10100015Y-15109879D02*
X10100015Y-15157498D01*
X10100015Y-15157498D02*
X10090491Y-15195594D01*
X10090491Y-15195594D02*
X10080968Y-15214641D01*
X10080968Y-15214641D02*
X10071444Y-15224165D01*
X10071444Y-15224165D02*
X10052396Y-15233689D01*
X10052396Y-15233689D02*
X10033348Y-15233689D01*
X10033348Y-15233689D02*
X10014301Y-15224165D01*
X10014301Y-15224165D02*
X10004777Y-15214641D01*
X10004777Y-15214641D02*
X9995253Y-15195594D01*
X9995253Y-15195594D02*
X9985729Y-15157498D01*
X9985729Y-15157498D02*
X9985729Y-15109879D01*
X9985729Y-15109879D02*
X9995253Y-15071784D01*
X9995253Y-15071784D02*
X10004777Y-15052737D01*
X10004777Y-15052737D02*
X10014301Y-15043213D01*
X10014301Y-15043213D02*
X10033348Y-15033689D01*
X10290491Y-15233689D02*
X10176206Y-15233689D01*
X10233348Y-15233689D02*
X10233348Y-15033689D01*
X10233348Y-15033689D02*
X10214301Y-15062260D01*
X10214301Y-15062260D02*
X10195253Y-15081308D01*
X10195253Y-15081308D02*
X10176206Y-15090832D01*
X10385729Y-15233689D02*
X10423825Y-15233689D01*
X10423825Y-15233689D02*
X10442872Y-15224165D01*
X10442872Y-15224165D02*
X10452396Y-15214641D01*
X10452396Y-15214641D02*
X10471444Y-15186070D01*
X10471444Y-15186070D02*
X10480968Y-15147975D01*
X10480968Y-15147975D02*
X10480968Y-15071784D01*
X10480968Y-15071784D02*
X10471444Y-15052737D01*
X10471444Y-15052737D02*
X10461920Y-15043213D01*
X10461920Y-15043213D02*
X10442872Y-15033689D01*
X10442872Y-15033689D02*
X10404777Y-15033689D01*
X10404777Y-15033689D02*
X10385729Y-15043213D01*
X10385729Y-15043213D02*
X10376206Y-15052737D01*
X10376206Y-15052737D02*
X10366682Y-15071784D01*
X10366682Y-15071784D02*
X10366682Y-15119403D01*
X10366682Y-15119403D02*
X10376206Y-15138451D01*
X10376206Y-15138451D02*
X10385729Y-15147975D01*
X10385729Y-15147975D02*
X10404777Y-15157498D01*
X10404777Y-15157498D02*
X10442872Y-15157498D01*
X10442872Y-15157498D02*
X10461920Y-15147975D01*
X10461920Y-15147975D02*
X10471444Y-15138451D01*
X10471444Y-15138451D02*
X10480968Y-15119403D01*
X10547634Y-15033689D02*
X10680968Y-15033689D01*
X10680968Y-15033689D02*
X10595253Y-15233689D01*
X10747634Y-15033689D02*
X10747634Y-15071784D01*
X10823825Y-15033689D02*
X10823825Y-15071784D01*
X11119063Y-15309879D02*
X11109539Y-15300356D01*
X11109539Y-15300356D02*
X11090491Y-15271784D01*
X11090491Y-15271784D02*
X11080968Y-15252737D01*
X11080968Y-15252737D02*
X11071444Y-15224165D01*
X11071444Y-15224165D02*
X11061920Y-15176546D01*
X11061920Y-15176546D02*
X11061920Y-15138451D01*
X11061920Y-15138451D02*
X11071444Y-15090832D01*
X11071444Y-15090832D02*
X11080968Y-15062260D01*
X11080968Y-15062260D02*
X11090491Y-15043213D01*
X11090491Y-15043213D02*
X11109539Y-15014641D01*
X11109539Y-15014641D02*
X11119063Y-15005117D01*
X11185729Y-15052737D02*
X11195253Y-15043213D01*
X11195253Y-15043213D02*
X11214301Y-15033689D01*
X11214301Y-15033689D02*
X11261920Y-15033689D01*
X11261920Y-15033689D02*
X11280968Y-15043213D01*
X11280968Y-15043213D02*
X11290491Y-15052737D01*
X11290491Y-15052737D02*
X11300015Y-15071784D01*
X11300015Y-15071784D02*
X11300015Y-15090832D01*
X11300015Y-15090832D02*
X11290491Y-15119403D01*
X11290491Y-15119403D02*
X11176206Y-15233689D01*
X11176206Y-15233689D02*
X11300015Y-15233689D01*
X11538110Y-15233689D02*
X11538110Y-15033689D01*
X11623825Y-15233689D02*
X11623825Y-15128927D01*
X11623825Y-15128927D02*
X11614301Y-15109879D01*
X11614301Y-15109879D02*
X11595253Y-15100356D01*
X11595253Y-15100356D02*
X11566682Y-15100356D01*
X11566682Y-15100356D02*
X11547634Y-15109879D01*
X11547634Y-15109879D02*
X11538110Y-15119403D01*
X11747634Y-15233689D02*
X11728587Y-15224165D01*
X11728587Y-15224165D02*
X11719063Y-15214641D01*
X11719063Y-15214641D02*
X11709539Y-15195594D01*
X11709539Y-15195594D02*
X11709539Y-15138451D01*
X11709539Y-15138451D02*
X11719063Y-15119403D01*
X11719063Y-15119403D02*
X11728587Y-15109879D01*
X11728587Y-15109879D02*
X11747634Y-15100356D01*
X11747634Y-15100356D02*
X11776206Y-15100356D01*
X11776206Y-15100356D02*
X11795253Y-15109879D01*
X11795253Y-15109879D02*
X11804777Y-15119403D01*
X11804777Y-15119403D02*
X11814301Y-15138451D01*
X11814301Y-15138451D02*
X11814301Y-15195594D01*
X11814301Y-15195594D02*
X11804777Y-15214641D01*
X11804777Y-15214641D02*
X11795253Y-15224165D01*
X11795253Y-15224165D02*
X11776206Y-15233689D01*
X11776206Y-15233689D02*
X11747634Y-15233689D01*
X11928587Y-15233689D02*
X11909539Y-15224165D01*
X11909539Y-15224165D02*
X11900015Y-15205117D01*
X11900015Y-15205117D02*
X11900015Y-15033689D01*
X12080968Y-15224165D02*
X12061920Y-15233689D01*
X12061920Y-15233689D02*
X12023825Y-15233689D01*
X12023825Y-15233689D02*
X12004777Y-15224165D01*
X12004777Y-15224165D02*
X11995253Y-15205117D01*
X11995253Y-15205117D02*
X11995253Y-15128927D01*
X11995253Y-15128927D02*
X12004777Y-15109879D01*
X12004777Y-15109879D02*
X12023825Y-15100356D01*
X12023825Y-15100356D02*
X12061920Y-15100356D01*
X12061920Y-15100356D02*
X12080968Y-15109879D01*
X12080968Y-15109879D02*
X12090491Y-15128927D01*
X12090491Y-15128927D02*
X12090491Y-15147975D01*
X12090491Y-15147975D02*
X11995253Y-15167022D01*
X12166682Y-15224165D02*
X12185730Y-15233689D01*
X12185730Y-15233689D02*
X12223825Y-15233689D01*
X12223825Y-15233689D02*
X12242872Y-15224165D01*
X12242872Y-15224165D02*
X12252396Y-15205117D01*
X12252396Y-15205117D02*
X12252396Y-15195594D01*
X12252396Y-15195594D02*
X12242872Y-15176546D01*
X12242872Y-15176546D02*
X12223825Y-15167022D01*
X12223825Y-15167022D02*
X12195253Y-15167022D01*
X12195253Y-15167022D02*
X12176206Y-15157498D01*
X12176206Y-15157498D02*
X12166682Y-15138451D01*
X12166682Y-15138451D02*
X12166682Y-15128927D01*
X12166682Y-15128927D02*
X12176206Y-15109879D01*
X12176206Y-15109879D02*
X12195253Y-15100356D01*
X12195253Y-15100356D02*
X12223825Y-15100356D01*
X12223825Y-15100356D02*
X12242872Y-15109879D01*
X12319063Y-15309879D02*
X12328587Y-15300356D01*
X12328587Y-15300356D02*
X12347634Y-15271784D01*
X12347634Y-15271784D02*
X12357158Y-15252737D01*
X12357158Y-15252737D02*
X12366682Y-15224165D01*
X12366682Y-15224165D02*
X12376206Y-15176546D01*
X12376206Y-15176546D02*
X12376206Y-15138451D01*
X12376206Y-15138451D02*
X12366682Y-15090832D01*
X12366682Y-15090832D02*
X12357158Y-15062260D01*
X12357158Y-15062260D02*
X12347634Y-15043213D01*
X12347634Y-15043213D02*
X12328587Y-15014641D01*
X12328587Y-15014641D02*
X12319063Y-15005117D01*
D12*
X7505900Y-15368105D02*
X7505900Y-15444305D01*
X7467800Y-15406205D02*
X7544000Y-15406205D01*
D11*
X7842872Y-15297689D02*
X7861920Y-15297689D01*
X7861920Y-15297689D02*
X7880967Y-15307213D01*
X7880967Y-15307213D02*
X7890491Y-15316737D01*
X7890491Y-15316737D02*
X7900015Y-15335784D01*
X7900015Y-15335784D02*
X7909539Y-15373879D01*
X7909539Y-15373879D02*
X7909539Y-15421498D01*
X7909539Y-15421498D02*
X7900015Y-15459594D01*
X7900015Y-15459594D02*
X7890491Y-15478641D01*
X7890491Y-15478641D02*
X7880967Y-15488165D01*
X7880967Y-15488165D02*
X7861920Y-15497689D01*
X7861920Y-15497689D02*
X7842872Y-15497689D01*
X7842872Y-15497689D02*
X7823824Y-15488165D01*
X7823824Y-15488165D02*
X7814301Y-15478641D01*
X7814301Y-15478641D02*
X7804777Y-15459594D01*
X7804777Y-15459594D02*
X7795253Y-15421498D01*
X7795253Y-15421498D02*
X7795253Y-15373879D01*
X7795253Y-15373879D02*
X7804777Y-15335784D01*
X7804777Y-15335784D02*
X7814301Y-15316737D01*
X7814301Y-15316737D02*
X7823824Y-15307213D01*
X7823824Y-15307213D02*
X7842872Y-15297689D01*
X7995253Y-15478641D02*
X8004777Y-15488165D01*
X8004777Y-15488165D02*
X7995253Y-15497689D01*
X7995253Y-15497689D02*
X7985729Y-15488165D01*
X7985729Y-15488165D02*
X7995253Y-15478641D01*
X7995253Y-15478641D02*
X7995253Y-15497689D01*
X8071443Y-15297689D02*
X8204777Y-15297689D01*
X8204777Y-15297689D02*
X8119062Y-15497689D01*
X8366682Y-15297689D02*
X8328586Y-15297689D01*
X8328586Y-15297689D02*
X8309539Y-15307213D01*
X8309539Y-15307213D02*
X8300015Y-15316737D01*
X8300015Y-15316737D02*
X8280967Y-15345308D01*
X8280967Y-15345308D02*
X8271443Y-15383403D01*
X8271443Y-15383403D02*
X8271443Y-15459594D01*
X8271443Y-15459594D02*
X8280967Y-15478641D01*
X8280967Y-15478641D02*
X8290491Y-15488165D01*
X8290491Y-15488165D02*
X8309539Y-15497689D01*
X8309539Y-15497689D02*
X8347634Y-15497689D01*
X8347634Y-15497689D02*
X8366682Y-15488165D01*
X8366682Y-15488165D02*
X8376205Y-15478641D01*
X8376205Y-15478641D02*
X8385729Y-15459594D01*
X8385729Y-15459594D02*
X8385729Y-15411975D01*
X8385729Y-15411975D02*
X8376205Y-15392927D01*
X8376205Y-15392927D02*
X8366682Y-15383403D01*
X8366682Y-15383403D02*
X8347634Y-15373879D01*
X8347634Y-15373879D02*
X8309539Y-15373879D01*
X8309539Y-15373879D02*
X8290491Y-15383403D01*
X8290491Y-15383403D02*
X8280967Y-15392927D01*
X8280967Y-15392927D02*
X8271443Y-15411975D01*
X8461920Y-15316737D02*
X8471444Y-15307213D01*
X8471444Y-15307213D02*
X8490491Y-15297689D01*
X8490491Y-15297689D02*
X8538110Y-15297689D01*
X8538110Y-15297689D02*
X8557158Y-15307213D01*
X8557158Y-15307213D02*
X8566682Y-15316737D01*
X8566682Y-15316737D02*
X8576205Y-15335784D01*
X8576205Y-15335784D02*
X8576205Y-15354832D01*
X8576205Y-15354832D02*
X8566682Y-15383403D01*
X8566682Y-15383403D02*
X8452396Y-15497689D01*
X8452396Y-15497689D02*
X8576205Y-15497689D01*
X8661920Y-15497689D02*
X8661920Y-15364356D01*
X8661920Y-15383403D02*
X8671444Y-15373879D01*
X8671444Y-15373879D02*
X8690491Y-15364356D01*
X8690491Y-15364356D02*
X8719063Y-15364356D01*
X8719063Y-15364356D02*
X8738110Y-15373879D01*
X8738110Y-15373879D02*
X8747634Y-15392927D01*
X8747634Y-15392927D02*
X8747634Y-15497689D01*
X8747634Y-15392927D02*
X8757158Y-15373879D01*
X8757158Y-15373879D02*
X8776205Y-15364356D01*
X8776205Y-15364356D02*
X8804777Y-15364356D01*
X8804777Y-15364356D02*
X8823825Y-15373879D01*
X8823825Y-15373879D02*
X8833348Y-15392927D01*
X8833348Y-15392927D02*
X8833348Y-15497689D01*
X8928586Y-15497689D02*
X8928586Y-15364356D01*
X8928586Y-15383403D02*
X8938110Y-15373879D01*
X8938110Y-15373879D02*
X8957158Y-15364356D01*
X8957158Y-15364356D02*
X8985729Y-15364356D01*
X8985729Y-15364356D02*
X9004777Y-15373879D01*
X9004777Y-15373879D02*
X9014301Y-15392927D01*
X9014301Y-15392927D02*
X9014301Y-15497689D01*
X9014301Y-15392927D02*
X9023825Y-15373879D01*
X9023825Y-15373879D02*
X9042872Y-15364356D01*
X9042872Y-15364356D02*
X9071444Y-15364356D01*
X9071444Y-15364356D02*
X9090491Y-15373879D01*
X9090491Y-15373879D02*
X9100015Y-15392927D01*
X9100015Y-15392927D02*
X9100015Y-15497689D01*
X9490491Y-15288165D02*
X9319063Y-15545308D01*
X9747634Y-15297689D02*
X9766682Y-15297689D01*
X9766682Y-15297689D02*
X9785729Y-15307213D01*
X9785729Y-15307213D02*
X9795253Y-15316737D01*
X9795253Y-15316737D02*
X9804777Y-15335784D01*
X9804777Y-15335784D02*
X9814301Y-15373879D01*
X9814301Y-15373879D02*
X9814301Y-15421498D01*
X9814301Y-15421498D02*
X9804777Y-15459594D01*
X9804777Y-15459594D02*
X9795253Y-15478641D01*
X9795253Y-15478641D02*
X9785729Y-15488165D01*
X9785729Y-15488165D02*
X9766682Y-15497689D01*
X9766682Y-15497689D02*
X9747634Y-15497689D01*
X9747634Y-15497689D02*
X9728587Y-15488165D01*
X9728587Y-15488165D02*
X9719063Y-15478641D01*
X9719063Y-15478641D02*
X9709539Y-15459594D01*
X9709539Y-15459594D02*
X9700015Y-15421498D01*
X9700015Y-15421498D02*
X9700015Y-15373879D01*
X9700015Y-15373879D02*
X9709539Y-15335784D01*
X9709539Y-15335784D02*
X9719063Y-15316737D01*
X9719063Y-15316737D02*
X9728587Y-15307213D01*
X9728587Y-15307213D02*
X9747634Y-15297689D01*
X9900015Y-15478641D02*
X9909539Y-15488165D01*
X9909539Y-15488165D02*
X9900015Y-15497689D01*
X9900015Y-15497689D02*
X9890491Y-15488165D01*
X9890491Y-15488165D02*
X9900015Y-15478641D01*
X9900015Y-15478641D02*
X9900015Y-15497689D01*
X10033348Y-15297689D02*
X10052396Y-15297689D01*
X10052396Y-15297689D02*
X10071444Y-15307213D01*
X10071444Y-15307213D02*
X10080968Y-15316737D01*
X10080968Y-15316737D02*
X10090491Y-15335784D01*
X10090491Y-15335784D02*
X10100015Y-15373879D01*
X10100015Y-15373879D02*
X10100015Y-15421498D01*
X10100015Y-15421498D02*
X10090491Y-15459594D01*
X10090491Y-15459594D02*
X10080968Y-15478641D01*
X10080968Y-15478641D02*
X10071444Y-15488165D01*
X10071444Y-15488165D02*
X10052396Y-15497689D01*
X10052396Y-15497689D02*
X10033348Y-15497689D01*
X10033348Y-15497689D02*
X10014301Y-15488165D01*
X10014301Y-15488165D02*
X10004777Y-15478641D01*
X10004777Y-15478641D02*
X9995253Y-15459594D01*
X9995253Y-15459594D02*
X9985729Y-15421498D01*
X9985729Y-15421498D02*
X9985729Y-15373879D01*
X9985729Y-15373879D02*
X9995253Y-15335784D01*
X9995253Y-15335784D02*
X10004777Y-15316737D01*
X10004777Y-15316737D02*
X10014301Y-15307213D01*
X10014301Y-15307213D02*
X10033348Y-15297689D01*
X10166682Y-15297689D02*
X10290491Y-15297689D01*
X10290491Y-15297689D02*
X10223825Y-15373879D01*
X10223825Y-15373879D02*
X10252396Y-15373879D01*
X10252396Y-15373879D02*
X10271444Y-15383403D01*
X10271444Y-15383403D02*
X10280968Y-15392927D01*
X10280968Y-15392927D02*
X10290491Y-15411975D01*
X10290491Y-15411975D02*
X10290491Y-15459594D01*
X10290491Y-15459594D02*
X10280968Y-15478641D01*
X10280968Y-15478641D02*
X10271444Y-15488165D01*
X10271444Y-15488165D02*
X10252396Y-15497689D01*
X10252396Y-15497689D02*
X10195253Y-15497689D01*
X10195253Y-15497689D02*
X10176206Y-15488165D01*
X10176206Y-15488165D02*
X10166682Y-15478641D01*
X10414301Y-15297689D02*
X10433349Y-15297689D01*
X10433349Y-15297689D02*
X10452396Y-15307213D01*
X10452396Y-15307213D02*
X10461920Y-15316737D01*
X10461920Y-15316737D02*
X10471444Y-15335784D01*
X10471444Y-15335784D02*
X10480968Y-15373879D01*
X10480968Y-15373879D02*
X10480968Y-15421498D01*
X10480968Y-15421498D02*
X10471444Y-15459594D01*
X10471444Y-15459594D02*
X10461920Y-15478641D01*
X10461920Y-15478641D02*
X10452396Y-15488165D01*
X10452396Y-15488165D02*
X10433349Y-15497689D01*
X10433349Y-15497689D02*
X10414301Y-15497689D01*
X10414301Y-15497689D02*
X10395253Y-15488165D01*
X10395253Y-15488165D02*
X10385729Y-15478641D01*
X10385729Y-15478641D02*
X10376206Y-15459594D01*
X10376206Y-15459594D02*
X10366682Y-15421498D01*
X10366682Y-15421498D02*
X10366682Y-15373879D01*
X10366682Y-15373879D02*
X10376206Y-15335784D01*
X10376206Y-15335784D02*
X10385729Y-15316737D01*
X10385729Y-15316737D02*
X10395253Y-15307213D01*
X10395253Y-15307213D02*
X10414301Y-15297689D01*
X10604777Y-15297689D02*
X10623825Y-15297689D01*
X10623825Y-15297689D02*
X10642872Y-15307213D01*
X10642872Y-15307213D02*
X10652396Y-15316737D01*
X10652396Y-15316737D02*
X10661920Y-15335784D01*
X10661920Y-15335784D02*
X10671444Y-15373879D01*
X10671444Y-15373879D02*
X10671444Y-15421498D01*
X10671444Y-15421498D02*
X10661920Y-15459594D01*
X10661920Y-15459594D02*
X10652396Y-15478641D01*
X10652396Y-15478641D02*
X10642872Y-15488165D01*
X10642872Y-15488165D02*
X10623825Y-15497689D01*
X10623825Y-15497689D02*
X10604777Y-15497689D01*
X10604777Y-15497689D02*
X10585729Y-15488165D01*
X10585729Y-15488165D02*
X10576206Y-15478641D01*
X10576206Y-15478641D02*
X10566682Y-15459594D01*
X10566682Y-15459594D02*
X10557158Y-15421498D01*
X10557158Y-15421498D02*
X10557158Y-15373879D01*
X10557158Y-15373879D02*
X10566682Y-15335784D01*
X10566682Y-15335784D02*
X10576206Y-15316737D01*
X10576206Y-15316737D02*
X10585729Y-15307213D01*
X10585729Y-15307213D02*
X10604777Y-15297689D01*
X10747634Y-15297689D02*
X10747634Y-15335784D01*
X10823825Y-15297689D02*
X10823825Y-15335784D01*
X11119063Y-15573879D02*
X11109539Y-15564356D01*
X11109539Y-15564356D02*
X11090491Y-15535784D01*
X11090491Y-15535784D02*
X11080968Y-15516737D01*
X11080968Y-15516737D02*
X11071444Y-15488165D01*
X11071444Y-15488165D02*
X11061920Y-15440546D01*
X11061920Y-15440546D02*
X11061920Y-15402451D01*
X11061920Y-15402451D02*
X11071444Y-15354832D01*
X11071444Y-15354832D02*
X11080968Y-15326260D01*
X11080968Y-15326260D02*
X11090491Y-15307213D01*
X11090491Y-15307213D02*
X11109539Y-15278641D01*
X11109539Y-15278641D02*
X11119063Y-15269117D01*
X11185729Y-15316737D02*
X11195253Y-15307213D01*
X11195253Y-15307213D02*
X11214301Y-15297689D01*
X11214301Y-15297689D02*
X11261920Y-15297689D01*
X11261920Y-15297689D02*
X11280968Y-15307213D01*
X11280968Y-15307213D02*
X11290491Y-15316737D01*
X11290491Y-15316737D02*
X11300015Y-15335784D01*
X11300015Y-15335784D02*
X11300015Y-15354832D01*
X11300015Y-15354832D02*
X11290491Y-15383403D01*
X11290491Y-15383403D02*
X11176206Y-15497689D01*
X11176206Y-15497689D02*
X11300015Y-15497689D01*
X11538110Y-15497689D02*
X11538110Y-15297689D01*
X11623825Y-15497689D02*
X11623825Y-15392927D01*
X11623825Y-15392927D02*
X11614301Y-15373879D01*
X11614301Y-15373879D02*
X11595253Y-15364356D01*
X11595253Y-15364356D02*
X11566682Y-15364356D01*
X11566682Y-15364356D02*
X11547634Y-15373879D01*
X11547634Y-15373879D02*
X11538110Y-15383403D01*
X11747634Y-15497689D02*
X11728587Y-15488165D01*
X11728587Y-15488165D02*
X11719063Y-15478641D01*
X11719063Y-15478641D02*
X11709539Y-15459594D01*
X11709539Y-15459594D02*
X11709539Y-15402451D01*
X11709539Y-15402451D02*
X11719063Y-15383403D01*
X11719063Y-15383403D02*
X11728587Y-15373879D01*
X11728587Y-15373879D02*
X11747634Y-15364356D01*
X11747634Y-15364356D02*
X11776206Y-15364356D01*
X11776206Y-15364356D02*
X11795253Y-15373879D01*
X11795253Y-15373879D02*
X11804777Y-15383403D01*
X11804777Y-15383403D02*
X11814301Y-15402451D01*
X11814301Y-15402451D02*
X11814301Y-15459594D01*
X11814301Y-15459594D02*
X11804777Y-15478641D01*
X11804777Y-15478641D02*
X11795253Y-15488165D01*
X11795253Y-15488165D02*
X11776206Y-15497689D01*
X11776206Y-15497689D02*
X11747634Y-15497689D01*
X11928587Y-15497689D02*
X11909539Y-15488165D01*
X11909539Y-15488165D02*
X11900015Y-15469117D01*
X11900015Y-15469117D02*
X11900015Y-15297689D01*
X12080968Y-15488165D02*
X12061920Y-15497689D01*
X12061920Y-15497689D02*
X12023825Y-15497689D01*
X12023825Y-15497689D02*
X12004777Y-15488165D01*
X12004777Y-15488165D02*
X11995253Y-15469117D01*
X11995253Y-15469117D02*
X11995253Y-15392927D01*
X11995253Y-15392927D02*
X12004777Y-15373879D01*
X12004777Y-15373879D02*
X12023825Y-15364356D01*
X12023825Y-15364356D02*
X12061920Y-15364356D01*
X12061920Y-15364356D02*
X12080968Y-15373879D01*
X12080968Y-15373879D02*
X12090491Y-15392927D01*
X12090491Y-15392927D02*
X12090491Y-15411975D01*
X12090491Y-15411975D02*
X11995253Y-15431022D01*
X12166682Y-15488165D02*
X12185730Y-15497689D01*
X12185730Y-15497689D02*
X12223825Y-15497689D01*
X12223825Y-15497689D02*
X12242872Y-15488165D01*
X12242872Y-15488165D02*
X12252396Y-15469117D01*
X12252396Y-15469117D02*
X12252396Y-15459594D01*
X12252396Y-15459594D02*
X12242872Y-15440546D01*
X12242872Y-15440546D02*
X12223825Y-15431022D01*
X12223825Y-15431022D02*
X12195253Y-15431022D01*
X12195253Y-15431022D02*
X12176206Y-15421498D01*
X12176206Y-15421498D02*
X12166682Y-15402451D01*
X12166682Y-15402451D02*
X12166682Y-15392927D01*
X12166682Y-15392927D02*
X12176206Y-15373879D01*
X12176206Y-15373879D02*
X12195253Y-15364356D01*
X12195253Y-15364356D02*
X12223825Y-15364356D01*
X12223825Y-15364356D02*
X12242872Y-15373879D01*
X12319063Y-15573879D02*
X12328587Y-15564356D01*
X12328587Y-15564356D02*
X12347634Y-15535784D01*
X12347634Y-15535784D02*
X12357158Y-15516737D01*
X12357158Y-15516737D02*
X12366682Y-15488165D01*
X12366682Y-15488165D02*
X12376206Y-15440546D01*
X12376206Y-15440546D02*
X12376206Y-15402451D01*
X12376206Y-15402451D02*
X12366682Y-15354832D01*
X12366682Y-15354832D02*
X12357158Y-15326260D01*
X12357158Y-15326260D02*
X12347634Y-15307213D01*
X12347634Y-15307213D02*
X12328587Y-15278641D01*
X12328587Y-15278641D02*
X12319063Y-15269117D01*
M02*
