%TF.GenerationSoftware,KiCad,Pcbnew,8.0.3*%
%TF.CreationDate,2024-08-02T19:35:41+03:00*%
%TF.ProjectId,pcb,7063622e-6b69-4636-9164-5f7063625858,rev?*%
%TF.SameCoordinates,Original*%
%TF.FileFunction,Soldermask,Top*%
%TF.FilePolarity,Negative*%
%FSLAX46Y46*%
G04 Gerber Fmt 4.6, Leading zero omitted, Abs format (unit mm)*
G04 Created by KiCad (PCBNEW 8.0.3) date 2024-08-02 19:35:41*
%MOMM*%
%LPD*%
G01*
G04 APERTURE LIST*
G04 Aperture macros list*
%AMRoundRect*
0 Rectangle with rounded corners*
0 $1 Rounding radius*
0 $2 $3 $4 $5 $6 $7 $8 $9 X,Y pos of 4 corners*
0 Add a 4 corners polygon primitive as box body*
4,1,4,$2,$3,$4,$5,$6,$7,$8,$9,$2,$3,0*
0 Add four circle primitives for the rounded corners*
1,1,$1+$1,$2,$3*
1,1,$1+$1,$4,$5*
1,1,$1+$1,$6,$7*
1,1,$1+$1,$8,$9*
0 Add four rect primitives between the rounded corners*
20,1,$1+$1,$2,$3,$4,$5,0*
20,1,$1+$1,$4,$5,$6,$7,0*
20,1,$1+$1,$6,$7,$8,$9,0*
20,1,$1+$1,$8,$9,$2,$3,0*%
%AMRotRect*
0 Rectangle, with rotation*
0 The origin of the aperture is its center*
0 $1 length*
0 $2 width*
0 $3 Rotation angle, in degrees counterclockwise*
0 Add horizontal line*
21,1,$1,$2,0,0,$3*%
%AMOutline5P*
0 Free polygon, 5 corners , with rotation*
0 The origin of the aperture is its center*
0 number of corners: always 5*
0 $1 to $10 corner X, Y*
0 $11 Rotation angle, in degrees counterclockwise*
0 create outline with 5 corners*
4,1,5,$1,$2,$3,$4,$5,$6,$7,$8,$9,$10,$1,$2,$11*%
%AMOutline6P*
0 Free polygon, 6 corners , with rotation*
0 The origin of the aperture is its center*
0 number of corners: always 6*
0 $1 to $12 corner X, Y*
0 $13 Rotation angle, in degrees counterclockwise*
0 create outline with 6 corners*
4,1,6,$1,$2,$3,$4,$5,$6,$7,$8,$9,$10,$11,$12,$1,$2,$13*%
%AMOutline7P*
0 Free polygon, 7 corners , with rotation*
0 The origin of the aperture is its center*
0 number of corners: always 7*
0 $1 to $14 corner X, Y*
0 $15 Rotation angle, in degrees counterclockwise*
0 create outline with 7 corners*
4,1,7,$1,$2,$3,$4,$5,$6,$7,$8,$9,$10,$11,$12,$13,$14,$1,$2,$15*%
%AMOutline8P*
0 Free polygon, 8 corners , with rotation*
0 The origin of the aperture is its center*
0 number of corners: always 8*
0 $1 to $16 corner X, Y*
0 $17 Rotation angle, in degrees counterclockwise*
0 create outline with 8 corners*
4,1,8,$1,$2,$3,$4,$5,$6,$7,$8,$9,$10,$11,$12,$13,$14,$15,$16,$1,$2,$17*%
G04 Aperture macros list end*
%ADD10O,2.750000X1.800000*%
%ADD11C,1.600000*%
%ADD12RoundRect,0.222222X0.787153X0.577778X-0.787153X0.577778X-0.787153X-0.577778X0.787153X-0.577778X0*%
%ADD13RoundRect,0.222222X0.777778X0.577778X-0.777778X0.577778X-0.777778X-0.577778X0.777778X-0.577778X0*%
%ADD14C,3.000000*%
%ADD15C,5.000000*%
%ADD16RotRect,2.000000X2.500000X330.000000*%
%ADD17R,2.000000X2.500000*%
%ADD18C,5.700000*%
%ADD19RotRect,2.000000X2.500000X345.000000*%
%ADD20RoundRect,0.150000X-0.625000X0.150000X-0.625000X-0.150000X0.625000X-0.150000X0.625000X0.150000X0*%
%ADD21RoundRect,0.250000X-0.650000X0.350000X-0.650000X-0.350000X0.650000X-0.350000X0.650000X0.350000X0*%
%ADD22C,2.000000*%
%ADD23RoundRect,0.500000X-0.500000X0.500000X-0.500000X-0.500000X0.500000X-0.500000X0.500000X0.500000X0*%
%ADD24RotRect,1.425000X1.300000X345.000000*%
%ADD25R,1.425000X1.300000*%
%ADD26RotRect,1.425000X1.300000X330.000000*%
%ADD27R,1.000000X0.800000*%
%ADD28C,0.900000*%
%ADD29R,0.700000X1.280000*%
%ADD30Outline5P,-0.350000X0.640000X0.350000X0.640000X0.350000X-0.360000X0.070000X-0.640000X-0.350000X-0.640000X180.000000*%
G04 APERTURE END LIST*
D10*
X192405040Y-58496046D03*
X192405040Y-61036046D03*
X192405040Y-63576046D03*
X192405040Y-66116046D03*
X192405040Y-68656046D03*
X192405040Y-71196046D03*
X192405040Y-73736046D03*
X208594960Y-73736046D03*
X208594960Y-71196046D03*
X208594960Y-68656046D03*
X208594960Y-66116046D03*
X208594960Y-63576046D03*
X208594960Y-61036046D03*
X208594960Y-58496046D03*
D11*
X195500000Y-65716046D03*
D12*
X195690625Y-65716046D03*
X205309375Y-65716046D03*
D11*
X205500000Y-65716046D03*
X195500000Y-63716046D03*
D12*
X195690625Y-63716046D03*
D13*
X205300000Y-63716046D03*
D11*
X205500000Y-63716046D03*
D14*
X185993025Y-132738231D03*
X187026871Y-134547558D03*
D15*
X192153537Y-130867912D03*
D14*
X191530203Y-137147558D03*
X193614049Y-137138231D03*
D16*
X183909179Y-132747558D03*
X196731740Y-138938231D03*
D14*
X118100000Y-85940970D03*
X119900000Y-86990970D03*
D15*
X122500000Y-81240970D03*
D14*
X125100000Y-86990970D03*
X126900000Y-85940970D03*
D17*
X116300000Y-86990970D03*
X130500000Y-85940970D03*
D18*
X94000000Y-106390970D03*
X94000000Y-87390970D03*
D14*
X166668553Y-125924234D03*
X168135459Y-127404330D03*
D15*
X172135076Y-122523186D03*
D14*
X173158274Y-128750189D03*
X175168700Y-128201841D03*
D19*
X164658126Y-126472581D03*
X178646033Y-129133590D03*
D20*
X206500000Y-79615970D03*
X206500000Y-80615970D03*
D21*
X202625000Y-78315970D03*
X202625000Y-81915970D03*
D14*
X99100000Y-82590970D03*
X100900000Y-83640970D03*
D15*
X103500000Y-77890970D03*
D14*
X106100000Y-83640970D03*
X107900000Y-82590970D03*
D17*
X97300000Y-83640970D03*
X111500000Y-82590970D03*
D18*
X186182152Y-116463137D03*
D14*
X80100000Y-101590970D03*
X81900000Y-102640970D03*
D15*
X84500000Y-96890970D03*
D14*
X87100000Y-102640970D03*
X88900000Y-101590970D03*
D17*
X78300000Y-102640970D03*
X92500000Y-101590970D03*
D14*
X156100000Y-66940970D03*
X157900000Y-67990970D03*
D15*
X160500000Y-62240970D03*
D14*
X163100000Y-67990970D03*
X164900000Y-66940970D03*
D17*
X154300000Y-67990970D03*
X168500000Y-66940970D03*
D14*
X118100000Y-104940970D03*
X119900000Y-105990970D03*
D15*
X122500000Y-100240970D03*
D14*
X125100000Y-105990970D03*
X126900000Y-104940970D03*
D17*
X116300000Y-105990970D03*
X130500000Y-104940970D03*
D14*
X175100000Y-88315970D03*
X176900000Y-89365970D03*
D15*
X179500000Y-83615970D03*
D14*
X182100000Y-89365970D03*
X183900000Y-88315970D03*
D17*
X173300000Y-89365970D03*
X187500000Y-88315970D03*
D22*
X198000000Y-78115970D03*
D23*
X194000000Y-78115970D03*
D14*
X175100000Y-69315970D03*
X176900000Y-70365970D03*
D15*
X179500000Y-64615970D03*
D14*
X182100000Y-70365970D03*
X183900000Y-69315970D03*
D17*
X173300000Y-70365970D03*
X187500000Y-69315970D03*
D14*
X156100000Y-104940970D03*
X157900000Y-105990970D03*
D15*
X160500000Y-100240970D03*
D14*
X163100000Y-105990970D03*
X164900000Y-104940970D03*
D17*
X154300000Y-105990970D03*
X168500000Y-104940970D03*
D14*
X156100000Y-85940970D03*
X157900000Y-86990970D03*
D15*
X160500000Y-81240970D03*
D14*
X163100000Y-86990970D03*
X164900000Y-85940970D03*
D17*
X154300000Y-86990970D03*
X168500000Y-85940970D03*
D14*
X118100000Y-66940970D03*
X119900000Y-67990970D03*
D15*
X122500000Y-62240970D03*
D14*
X125100000Y-67990970D03*
X126900000Y-66940970D03*
D17*
X116300000Y-67990970D03*
X130500000Y-66940970D03*
D14*
X175100000Y-107315970D03*
X176900000Y-108365970D03*
D15*
X179500000Y-102615970D03*
D14*
X182100000Y-108365970D03*
X183900000Y-107315970D03*
D17*
X173300000Y-108365970D03*
X187500000Y-107315970D03*
D14*
X99100000Y-101590970D03*
X100900000Y-102640970D03*
D15*
X103500000Y-96890970D03*
D14*
X106100000Y-102640970D03*
X107900000Y-101590970D03*
D17*
X97300000Y-102640970D03*
X111500000Y-101590970D03*
D14*
X137100000Y-64565970D03*
X138900000Y-65615970D03*
D15*
X141500000Y-59865970D03*
D14*
X144100000Y-65615970D03*
X145900000Y-64565970D03*
D17*
X135300000Y-65615970D03*
X149500000Y-64565970D03*
D14*
X146600000Y-124440700D03*
X148400000Y-125490700D03*
D15*
X151000000Y-119740700D03*
D14*
X153600000Y-125490700D03*
X155400000Y-124440700D03*
D17*
X144800000Y-125490700D03*
X159000000Y-124440700D03*
D14*
X80100000Y-82590970D03*
X81900000Y-83640970D03*
D15*
X84500000Y-77890970D03*
D14*
X87100000Y-83640970D03*
X88900000Y-82590970D03*
D17*
X78300000Y-83640970D03*
X92500000Y-82590970D03*
D14*
X137100000Y-102565970D03*
X138900000Y-103615970D03*
D15*
X141500000Y-97865970D03*
D14*
X144100000Y-103615970D03*
X145900000Y-102565970D03*
D17*
X135300000Y-103615970D03*
X149500000Y-102565970D03*
D14*
X99100000Y-120590970D03*
X100900000Y-121640970D03*
D15*
X103500000Y-115890970D03*
D14*
X106100000Y-121640970D03*
X107900000Y-120590970D03*
D17*
X97300000Y-121640970D03*
X111500000Y-120590970D03*
D18*
X170000000Y-72928470D03*
D14*
X80100000Y-120590970D03*
X81900000Y-121640970D03*
D15*
X84500000Y-115890970D03*
D14*
X87100000Y-121640970D03*
X88900000Y-120590970D03*
D17*
X78300000Y-121640970D03*
X92500000Y-120590970D03*
D14*
X137100000Y-83565970D03*
X138900000Y-84615970D03*
D15*
X141500000Y-78865970D03*
D14*
X144100000Y-84615970D03*
X145900000Y-83565970D03*
D17*
X135300000Y-84615970D03*
X149500000Y-83565970D03*
D24*
X175932220Y-115258418D03*
X172479036Y-114333140D03*
D25*
X181287500Y-94615970D03*
X177712500Y-94615970D03*
D26*
X197701557Y-124833459D03*
X194605517Y-123045959D03*
D25*
X152787500Y-111740700D03*
X149212500Y-111740700D03*
X105287500Y-86890970D03*
X101712500Y-86890970D03*
X105287500Y-88890970D03*
X101712500Y-88890970D03*
X162287500Y-92240970D03*
X158712500Y-92240970D03*
X181287500Y-73615970D03*
X177712500Y-73615970D03*
X86287500Y-88890970D03*
X82712500Y-88890970D03*
X181287500Y-75615970D03*
X177712500Y-75615970D03*
X143287500Y-68865970D03*
X139712500Y-68865970D03*
X143287500Y-70865970D03*
X139712500Y-70865970D03*
X162287500Y-71240970D03*
X158712500Y-71240970D03*
X124287500Y-71240970D03*
X120712500Y-71240970D03*
X143287500Y-89865970D03*
X139712500Y-89865970D03*
X86287500Y-107890970D03*
X82712500Y-107890970D03*
X162287500Y-73240970D03*
X158712500Y-73240970D03*
D27*
X184150000Y-56080970D03*
X184150000Y-58300970D03*
D28*
X182000000Y-57190970D03*
X179000000Y-57190970D03*
D27*
X176850000Y-56080970D03*
X176850000Y-58300970D03*
D29*
X182750000Y-59060970D03*
D30*
X179750000Y-59060970D03*
D29*
X178250000Y-59060970D03*
D25*
X124287500Y-73240970D03*
X120712500Y-73240970D03*
X86287500Y-86890970D03*
X82712500Y-86890970D03*
X124287500Y-92240970D03*
X120712500Y-92240970D03*
X105287500Y-107890970D03*
X101712500Y-107890970D03*
M02*
