%TF.GenerationSoftware,KiCad,Pcbnew,8.0.5*%
%TF.CreationDate,2024-10-02T06:15:47+03:00*%
%TF.ProjectId,pcb,7063622e-6b69-4636-9164-5f7063625858,rev?*%
%TF.SameCoordinates,Original*%
%TF.FileFunction,Legend,Top*%
%TF.FilePolarity,Positive*%
%FSLAX46Y46*%
G04 Gerber Fmt 4.6, Leading zero omitted, Abs format (unit mm)*
G04 Created by KiCad (PCBNEW 8.0.5) date 2024-10-02 06:15:47*
%MOMM*%
%LPD*%
G01*
G04 APERTURE LIST*
%ADD10C,0.200000*%
%ADD11C,0.100000*%
%ADD12C,0.150000*%
%ADD13C,0.010000*%
%ADD14C,0.000000*%
G04 APERTURE END LIST*
D10*
X134690475Y-50123437D02*
X135023808Y-50123437D01*
X135166665Y-50647247D02*
X134690475Y-50647247D01*
X134690475Y-50647247D02*
X134690475Y-49647247D01*
X134690475Y-49647247D02*
X135166665Y-49647247D01*
X135595237Y-50647247D02*
X135595237Y-49980580D01*
X135595237Y-50171056D02*
X135642856Y-50075818D01*
X135642856Y-50075818D02*
X135690475Y-50028199D01*
X135690475Y-50028199D02*
X135785713Y-49980580D01*
X135785713Y-49980580D02*
X135880951Y-49980580D01*
X136642856Y-49980580D02*
X136642856Y-50790104D01*
X136642856Y-50790104D02*
X136595237Y-50885342D01*
X136595237Y-50885342D02*
X136547618Y-50932961D01*
X136547618Y-50932961D02*
X136452380Y-50980580D01*
X136452380Y-50980580D02*
X136309523Y-50980580D01*
X136309523Y-50980580D02*
X136214285Y-50932961D01*
X136642856Y-50599628D02*
X136547618Y-50647247D01*
X136547618Y-50647247D02*
X136357142Y-50647247D01*
X136357142Y-50647247D02*
X136261904Y-50599628D01*
X136261904Y-50599628D02*
X136214285Y-50552008D01*
X136214285Y-50552008D02*
X136166666Y-50456770D01*
X136166666Y-50456770D02*
X136166666Y-50171056D01*
X136166666Y-50171056D02*
X136214285Y-50075818D01*
X136214285Y-50075818D02*
X136261904Y-50028199D01*
X136261904Y-50028199D02*
X136357142Y-49980580D01*
X136357142Y-49980580D02*
X136547618Y-49980580D01*
X136547618Y-49980580D02*
X136642856Y-50028199D01*
X137261904Y-50647247D02*
X137166666Y-50599628D01*
X137166666Y-50599628D02*
X137119047Y-50552008D01*
X137119047Y-50552008D02*
X137071428Y-50456770D01*
X137071428Y-50456770D02*
X137071428Y-50171056D01*
X137071428Y-50171056D02*
X137119047Y-50075818D01*
X137119047Y-50075818D02*
X137166666Y-50028199D01*
X137166666Y-50028199D02*
X137261904Y-49980580D01*
X137261904Y-49980580D02*
X137404761Y-49980580D01*
X137404761Y-49980580D02*
X137499999Y-50028199D01*
X137499999Y-50028199D02*
X137547618Y-50075818D01*
X137547618Y-50075818D02*
X137595237Y-50171056D01*
X137595237Y-50171056D02*
X137595237Y-50456770D01*
X137595237Y-50456770D02*
X137547618Y-50552008D01*
X137547618Y-50552008D02*
X137499999Y-50599628D01*
X137499999Y-50599628D02*
X137404761Y-50647247D01*
X137404761Y-50647247D02*
X137261904Y-50647247D01*
X138023809Y-49980580D02*
X138023809Y-50647247D01*
X138023809Y-50075818D02*
X138071428Y-50028199D01*
X138071428Y-50028199D02*
X138166666Y-49980580D01*
X138166666Y-49980580D02*
X138309523Y-49980580D01*
X138309523Y-49980580D02*
X138404761Y-50028199D01*
X138404761Y-50028199D02*
X138452380Y-50123437D01*
X138452380Y-50123437D02*
X138452380Y-50647247D01*
X139357142Y-50647247D02*
X139357142Y-50123437D01*
X139357142Y-50123437D02*
X139309523Y-50028199D01*
X139309523Y-50028199D02*
X139214285Y-49980580D01*
X139214285Y-49980580D02*
X139023809Y-49980580D01*
X139023809Y-49980580D02*
X138928571Y-50028199D01*
X139357142Y-50599628D02*
X139261904Y-50647247D01*
X139261904Y-50647247D02*
X139023809Y-50647247D01*
X139023809Y-50647247D02*
X138928571Y-50599628D01*
X138928571Y-50599628D02*
X138880952Y-50504389D01*
X138880952Y-50504389D02*
X138880952Y-50409151D01*
X138880952Y-50409151D02*
X138928571Y-50313913D01*
X138928571Y-50313913D02*
X139023809Y-50266294D01*
X139023809Y-50266294D02*
X139261904Y-50266294D01*
X139261904Y-50266294D02*
X139357142Y-50218675D01*
X140261904Y-49980580D02*
X140261904Y-50647247D01*
X139833333Y-49980580D02*
X139833333Y-50504389D01*
X139833333Y-50504389D02*
X139880952Y-50599628D01*
X139880952Y-50599628D02*
X139976190Y-50647247D01*
X139976190Y-50647247D02*
X140119047Y-50647247D01*
X140119047Y-50647247D02*
X140214285Y-50599628D01*
X140214285Y-50599628D02*
X140261904Y-50552008D01*
X140595238Y-49980580D02*
X140976190Y-49980580D01*
X140738095Y-49647247D02*
X140738095Y-50504389D01*
X140738095Y-50504389D02*
X140785714Y-50599628D01*
X140785714Y-50599628D02*
X140880952Y-50647247D01*
X140880952Y-50647247D02*
X140976190Y-50647247D01*
X142261905Y-49647247D02*
X142452381Y-49647247D01*
X142452381Y-49647247D02*
X142547619Y-49694866D01*
X142547619Y-49694866D02*
X142642857Y-49790104D01*
X142642857Y-49790104D02*
X142690476Y-49980580D01*
X142690476Y-49980580D02*
X142690476Y-50313913D01*
X142690476Y-50313913D02*
X142642857Y-50504389D01*
X142642857Y-50504389D02*
X142547619Y-50599628D01*
X142547619Y-50599628D02*
X142452381Y-50647247D01*
X142452381Y-50647247D02*
X142261905Y-50647247D01*
X142261905Y-50647247D02*
X142166667Y-50599628D01*
X142166667Y-50599628D02*
X142071429Y-50504389D01*
X142071429Y-50504389D02*
X142023810Y-50313913D01*
X142023810Y-50313913D02*
X142023810Y-49980580D01*
X142023810Y-49980580D02*
X142071429Y-49790104D01*
X142071429Y-49790104D02*
X142166667Y-49694866D01*
X142166667Y-49694866D02*
X142261905Y-49647247D01*
X143119048Y-49980580D02*
X143119048Y-50647247D01*
X143119048Y-50075818D02*
X143166667Y-50028199D01*
X143166667Y-50028199D02*
X143261905Y-49980580D01*
X143261905Y-49980580D02*
X143404762Y-49980580D01*
X143404762Y-49980580D02*
X143500000Y-50028199D01*
X143500000Y-50028199D02*
X143547619Y-50123437D01*
X143547619Y-50123437D02*
X143547619Y-50647247D01*
X144404762Y-50599628D02*
X144309524Y-50647247D01*
X144309524Y-50647247D02*
X144119048Y-50647247D01*
X144119048Y-50647247D02*
X144023810Y-50599628D01*
X144023810Y-50599628D02*
X143976191Y-50504389D01*
X143976191Y-50504389D02*
X143976191Y-50123437D01*
X143976191Y-50123437D02*
X144023810Y-50028199D01*
X144023810Y-50028199D02*
X144119048Y-49980580D01*
X144119048Y-49980580D02*
X144309524Y-49980580D01*
X144309524Y-49980580D02*
X144404762Y-50028199D01*
X144404762Y-50028199D02*
X144452381Y-50123437D01*
X144452381Y-50123437D02*
X144452381Y-50218675D01*
X144452381Y-50218675D02*
X143976191Y-50313913D01*
X145547620Y-49980580D02*
X145785715Y-50647247D01*
X145785715Y-50647247D02*
X146023810Y-49980580D01*
X146928572Y-50647247D02*
X146357144Y-50647247D01*
X146642858Y-50647247D02*
X146642858Y-49647247D01*
X146642858Y-49647247D02*
X146547620Y-49790104D01*
X146547620Y-49790104D02*
X146452382Y-49885342D01*
X146452382Y-49885342D02*
X146357144Y-49932961D01*
X147357144Y-50552008D02*
X147404763Y-50599628D01*
X147404763Y-50599628D02*
X147357144Y-50647247D01*
X147357144Y-50647247D02*
X147309525Y-50599628D01*
X147309525Y-50599628D02*
X147357144Y-50552008D01*
X147357144Y-50552008D02*
X147357144Y-50647247D01*
X147738096Y-49647247D02*
X148357143Y-49647247D01*
X148357143Y-49647247D02*
X148023810Y-50028199D01*
X148023810Y-50028199D02*
X148166667Y-50028199D01*
X148166667Y-50028199D02*
X148261905Y-50075818D01*
X148261905Y-50075818D02*
X148309524Y-50123437D01*
X148309524Y-50123437D02*
X148357143Y-50218675D01*
X148357143Y-50218675D02*
X148357143Y-50456770D01*
X148357143Y-50456770D02*
X148309524Y-50552008D01*
X148309524Y-50552008D02*
X148261905Y-50599628D01*
X148261905Y-50599628D02*
X148166667Y-50647247D01*
X148166667Y-50647247D02*
X147880953Y-50647247D01*
X147880953Y-50647247D02*
X147785715Y-50599628D01*
X147785715Y-50599628D02*
X147738096Y-50552008D01*
X135809523Y-52257191D02*
X135809523Y-51257191D01*
X135809523Y-51638143D02*
X135904761Y-51590524D01*
X135904761Y-51590524D02*
X136095237Y-51590524D01*
X136095237Y-51590524D02*
X136190475Y-51638143D01*
X136190475Y-51638143D02*
X136238094Y-51685762D01*
X136238094Y-51685762D02*
X136285713Y-51781000D01*
X136285713Y-51781000D02*
X136285713Y-52066714D01*
X136285713Y-52066714D02*
X136238094Y-52161952D01*
X136238094Y-52161952D02*
X136190475Y-52209572D01*
X136190475Y-52209572D02*
X136095237Y-52257191D01*
X136095237Y-52257191D02*
X135904761Y-52257191D01*
X135904761Y-52257191D02*
X135809523Y-52209572D01*
X136619047Y-51590524D02*
X136857142Y-52257191D01*
X137095237Y-51590524D02*
X136857142Y-52257191D01*
X136857142Y-52257191D02*
X136761904Y-52495286D01*
X136761904Y-52495286D02*
X136714285Y-52542905D01*
X136714285Y-52542905D02*
X136619047Y-52590524D01*
X138142857Y-51590524D02*
X138380952Y-52257191D01*
X138619047Y-51590524D02*
X138380952Y-52257191D01*
X138380952Y-52257191D02*
X138285714Y-52495286D01*
X138285714Y-52495286D02*
X138238095Y-52542905D01*
X138238095Y-52542905D02*
X138142857Y-52590524D01*
X139428571Y-51590524D02*
X139428571Y-52257191D01*
X139000000Y-51590524D02*
X139000000Y-52114333D01*
X139000000Y-52114333D02*
X139047619Y-52209572D01*
X139047619Y-52209572D02*
X139142857Y-52257191D01*
X139142857Y-52257191D02*
X139285714Y-52257191D01*
X139285714Y-52257191D02*
X139380952Y-52209572D01*
X139380952Y-52209572D02*
X139428571Y-52161952D01*
X139904762Y-52257191D02*
X139904762Y-51590524D01*
X139904762Y-51685762D02*
X139952381Y-51638143D01*
X139952381Y-51638143D02*
X140047619Y-51590524D01*
X140047619Y-51590524D02*
X140190476Y-51590524D01*
X140190476Y-51590524D02*
X140285714Y-51638143D01*
X140285714Y-51638143D02*
X140333333Y-51733381D01*
X140333333Y-51733381D02*
X140333333Y-52257191D01*
X140333333Y-51733381D02*
X140380952Y-51638143D01*
X140380952Y-51638143D02*
X140476190Y-51590524D01*
X140476190Y-51590524D02*
X140619047Y-51590524D01*
X140619047Y-51590524D02*
X140714286Y-51638143D01*
X140714286Y-51638143D02*
X140761905Y-51733381D01*
X140761905Y-51733381D02*
X140761905Y-52257191D01*
X141666666Y-52257191D02*
X141666666Y-51733381D01*
X141666666Y-51733381D02*
X141619047Y-51638143D01*
X141619047Y-51638143D02*
X141523809Y-51590524D01*
X141523809Y-51590524D02*
X141333333Y-51590524D01*
X141333333Y-51590524D02*
X141238095Y-51638143D01*
X141666666Y-52209572D02*
X141571428Y-52257191D01*
X141571428Y-52257191D02*
X141333333Y-52257191D01*
X141333333Y-52257191D02*
X141238095Y-52209572D01*
X141238095Y-52209572D02*
X141190476Y-52114333D01*
X141190476Y-52114333D02*
X141190476Y-52019095D01*
X141190476Y-52019095D02*
X141238095Y-51923857D01*
X141238095Y-51923857D02*
X141333333Y-51876238D01*
X141333333Y-51876238D02*
X141571428Y-51876238D01*
X141571428Y-51876238D02*
X141666666Y-51828619D01*
X142571428Y-51590524D02*
X142571428Y-52400048D01*
X142571428Y-52400048D02*
X142523809Y-52495286D01*
X142523809Y-52495286D02*
X142476190Y-52542905D01*
X142476190Y-52542905D02*
X142380952Y-52590524D01*
X142380952Y-52590524D02*
X142238095Y-52590524D01*
X142238095Y-52590524D02*
X142142857Y-52542905D01*
X142571428Y-52209572D02*
X142476190Y-52257191D01*
X142476190Y-52257191D02*
X142285714Y-52257191D01*
X142285714Y-52257191D02*
X142190476Y-52209572D01*
X142190476Y-52209572D02*
X142142857Y-52161952D01*
X142142857Y-52161952D02*
X142095238Y-52066714D01*
X142095238Y-52066714D02*
X142095238Y-51781000D01*
X142095238Y-51781000D02*
X142142857Y-51685762D01*
X142142857Y-51685762D02*
X142190476Y-51638143D01*
X142190476Y-51638143D02*
X142285714Y-51590524D01*
X142285714Y-51590524D02*
X142476190Y-51590524D01*
X142476190Y-51590524D02*
X142571428Y-51638143D01*
X143476190Y-51590524D02*
X143476190Y-52257191D01*
X143047619Y-51590524D02*
X143047619Y-52114333D01*
X143047619Y-52114333D02*
X143095238Y-52209572D01*
X143095238Y-52209572D02*
X143190476Y-52257191D01*
X143190476Y-52257191D02*
X143333333Y-52257191D01*
X143333333Y-52257191D02*
X143428571Y-52209572D01*
X143428571Y-52209572D02*
X143476190Y-52161952D01*
X144095238Y-52257191D02*
X144000000Y-52209572D01*
X144000000Y-52209572D02*
X143952381Y-52114333D01*
X143952381Y-52114333D02*
X143952381Y-51257191D01*
X144619048Y-52257191D02*
X144523810Y-52209572D01*
X144523810Y-52209572D02*
X144476191Y-52161952D01*
X144476191Y-52161952D02*
X144428572Y-52066714D01*
X144428572Y-52066714D02*
X144428572Y-51781000D01*
X144428572Y-51781000D02*
X144476191Y-51685762D01*
X144476191Y-51685762D02*
X144523810Y-51638143D01*
X144523810Y-51638143D02*
X144619048Y-51590524D01*
X144619048Y-51590524D02*
X144761905Y-51590524D01*
X144761905Y-51590524D02*
X144857143Y-51638143D01*
X144857143Y-51638143D02*
X144904762Y-51685762D01*
X144904762Y-51685762D02*
X144952381Y-51781000D01*
X144952381Y-51781000D02*
X144952381Y-52066714D01*
X144952381Y-52066714D02*
X144904762Y-52161952D01*
X144904762Y-52161952D02*
X144857143Y-52209572D01*
X144857143Y-52209572D02*
X144761905Y-52257191D01*
X144761905Y-52257191D02*
X144619048Y-52257191D01*
X145285715Y-51590524D02*
X145523810Y-52257191D01*
X145523810Y-52257191D02*
X145761905Y-51590524D01*
X146142858Y-52257191D02*
X146142858Y-51590524D01*
X146142858Y-51781000D02*
X146190477Y-51685762D01*
X146190477Y-51685762D02*
X146238096Y-51638143D01*
X146238096Y-51638143D02*
X146333334Y-51590524D01*
X146333334Y-51590524D02*
X146428572Y-51590524D01*
X146761906Y-51590524D02*
X146761906Y-52257191D01*
X146761906Y-51685762D02*
X146809525Y-51638143D01*
X146809525Y-51638143D02*
X146904763Y-51590524D01*
X146904763Y-51590524D02*
X147047620Y-51590524D01*
X147047620Y-51590524D02*
X147142858Y-51638143D01*
X147142858Y-51638143D02*
X147190477Y-51733381D01*
X147190477Y-51733381D02*
X147190477Y-52257191D01*
X79619044Y-68642978D02*
X79571425Y-68690598D01*
X79571425Y-68690598D02*
X79428568Y-68738217D01*
X79428568Y-68738217D02*
X79333330Y-68738217D01*
X79333330Y-68738217D02*
X79190473Y-68690598D01*
X79190473Y-68690598D02*
X79095235Y-68595359D01*
X79095235Y-68595359D02*
X79047616Y-68500121D01*
X79047616Y-68500121D02*
X78999997Y-68309645D01*
X78999997Y-68309645D02*
X78999997Y-68166788D01*
X78999997Y-68166788D02*
X79047616Y-67976312D01*
X79047616Y-67976312D02*
X79095235Y-67881074D01*
X79095235Y-67881074D02*
X79190473Y-67785836D01*
X79190473Y-67785836D02*
X79333330Y-67738217D01*
X79333330Y-67738217D02*
X79428568Y-67738217D01*
X79428568Y-67738217D02*
X79571425Y-67785836D01*
X79571425Y-67785836D02*
X79619044Y-67833455D01*
X80190473Y-68738217D02*
X80095235Y-68690598D01*
X80095235Y-68690598D02*
X80047616Y-68642978D01*
X80047616Y-68642978D02*
X79999997Y-68547740D01*
X79999997Y-68547740D02*
X79999997Y-68262026D01*
X79999997Y-68262026D02*
X80047616Y-68166788D01*
X80047616Y-68166788D02*
X80095235Y-68119169D01*
X80095235Y-68119169D02*
X80190473Y-68071550D01*
X80190473Y-68071550D02*
X80333330Y-68071550D01*
X80333330Y-68071550D02*
X80428568Y-68119169D01*
X80428568Y-68119169D02*
X80476187Y-68166788D01*
X80476187Y-68166788D02*
X80523806Y-68262026D01*
X80523806Y-68262026D02*
X80523806Y-68547740D01*
X80523806Y-68547740D02*
X80476187Y-68642978D01*
X80476187Y-68642978D02*
X80428568Y-68690598D01*
X80428568Y-68690598D02*
X80333330Y-68738217D01*
X80333330Y-68738217D02*
X80190473Y-68738217D01*
X80952378Y-68071550D02*
X80952378Y-69071550D01*
X80952378Y-68119169D02*
X81047616Y-68071550D01*
X81047616Y-68071550D02*
X81238092Y-68071550D01*
X81238092Y-68071550D02*
X81333330Y-68119169D01*
X81333330Y-68119169D02*
X81380949Y-68166788D01*
X81380949Y-68166788D02*
X81428568Y-68262026D01*
X81428568Y-68262026D02*
X81428568Y-68547740D01*
X81428568Y-68547740D02*
X81380949Y-68642978D01*
X81380949Y-68642978D02*
X81333330Y-68690598D01*
X81333330Y-68690598D02*
X81238092Y-68738217D01*
X81238092Y-68738217D02*
X81047616Y-68738217D01*
X81047616Y-68738217D02*
X80952378Y-68690598D01*
X81761902Y-68071550D02*
X81999997Y-68738217D01*
X82238092Y-68071550D02*
X81999997Y-68738217D01*
X81999997Y-68738217D02*
X81904759Y-68976312D01*
X81904759Y-68976312D02*
X81857140Y-69023931D01*
X81857140Y-69023931D02*
X81761902Y-69071550D01*
X82619045Y-68738217D02*
X82619045Y-68071550D01*
X82619045Y-68262026D02*
X82666664Y-68166788D01*
X82666664Y-68166788D02*
X82714283Y-68119169D01*
X82714283Y-68119169D02*
X82809521Y-68071550D01*
X82809521Y-68071550D02*
X82904759Y-68071550D01*
X83238093Y-68738217D02*
X83238093Y-68071550D01*
X83238093Y-67738217D02*
X83190474Y-67785836D01*
X83190474Y-67785836D02*
X83238093Y-67833455D01*
X83238093Y-67833455D02*
X83285712Y-67785836D01*
X83285712Y-67785836D02*
X83238093Y-67738217D01*
X83238093Y-67738217D02*
X83238093Y-67833455D01*
X84142854Y-68071550D02*
X84142854Y-68881074D01*
X84142854Y-68881074D02*
X84095235Y-68976312D01*
X84095235Y-68976312D02*
X84047616Y-69023931D01*
X84047616Y-69023931D02*
X83952378Y-69071550D01*
X83952378Y-69071550D02*
X83809521Y-69071550D01*
X83809521Y-69071550D02*
X83714283Y-69023931D01*
X84142854Y-68690598D02*
X84047616Y-68738217D01*
X84047616Y-68738217D02*
X83857140Y-68738217D01*
X83857140Y-68738217D02*
X83761902Y-68690598D01*
X83761902Y-68690598D02*
X83714283Y-68642978D01*
X83714283Y-68642978D02*
X83666664Y-68547740D01*
X83666664Y-68547740D02*
X83666664Y-68262026D01*
X83666664Y-68262026D02*
X83714283Y-68166788D01*
X83714283Y-68166788D02*
X83761902Y-68119169D01*
X83761902Y-68119169D02*
X83857140Y-68071550D01*
X83857140Y-68071550D02*
X84047616Y-68071550D01*
X84047616Y-68071550D02*
X84142854Y-68119169D01*
X84619045Y-68738217D02*
X84619045Y-67738217D01*
X85047616Y-68738217D02*
X85047616Y-68214407D01*
X85047616Y-68214407D02*
X84999997Y-68119169D01*
X84999997Y-68119169D02*
X84904759Y-68071550D01*
X84904759Y-68071550D02*
X84761902Y-68071550D01*
X84761902Y-68071550D02*
X84666664Y-68119169D01*
X84666664Y-68119169D02*
X84619045Y-68166788D01*
X85380950Y-68071550D02*
X85761902Y-68071550D01*
X85523807Y-67738217D02*
X85523807Y-68595359D01*
X85523807Y-68595359D02*
X85571426Y-68690598D01*
X85571426Y-68690598D02*
X85666664Y-68738217D01*
X85666664Y-68738217D02*
X85761902Y-68738217D01*
X87142855Y-69119169D02*
X87095236Y-69071550D01*
X87095236Y-69071550D02*
X86999998Y-68928693D01*
X86999998Y-68928693D02*
X86952379Y-68833455D01*
X86952379Y-68833455D02*
X86904760Y-68690598D01*
X86904760Y-68690598D02*
X86857141Y-68452502D01*
X86857141Y-68452502D02*
X86857141Y-68262026D01*
X86857141Y-68262026D02*
X86904760Y-68023931D01*
X86904760Y-68023931D02*
X86952379Y-67881074D01*
X86952379Y-67881074D02*
X86999998Y-67785836D01*
X86999998Y-67785836D02*
X87095236Y-67642978D01*
X87095236Y-67642978D02*
X87142855Y-67595359D01*
X87952379Y-68690598D02*
X87857141Y-68738217D01*
X87857141Y-68738217D02*
X87666665Y-68738217D01*
X87666665Y-68738217D02*
X87571427Y-68690598D01*
X87571427Y-68690598D02*
X87523808Y-68642978D01*
X87523808Y-68642978D02*
X87476189Y-68547740D01*
X87476189Y-68547740D02*
X87476189Y-68262026D01*
X87476189Y-68262026D02*
X87523808Y-68166788D01*
X87523808Y-68166788D02*
X87571427Y-68119169D01*
X87571427Y-68119169D02*
X87666665Y-68071550D01*
X87666665Y-68071550D02*
X87857141Y-68071550D01*
X87857141Y-68071550D02*
X87952379Y-68119169D01*
X88285713Y-69119169D02*
X88333332Y-69071550D01*
X88333332Y-69071550D02*
X88428570Y-68928693D01*
X88428570Y-68928693D02*
X88476189Y-68833455D01*
X88476189Y-68833455D02*
X88523808Y-68690598D01*
X88523808Y-68690598D02*
X88571427Y-68452502D01*
X88571427Y-68452502D02*
X88571427Y-68262026D01*
X88571427Y-68262026D02*
X88523808Y-68023931D01*
X88523808Y-68023931D02*
X88476189Y-67881074D01*
X88476189Y-67881074D02*
X88428570Y-67785836D01*
X88428570Y-67785836D02*
X88333332Y-67642978D01*
X88333332Y-67642978D02*
X88285713Y-67595359D01*
X89761904Y-67833455D02*
X89809523Y-67785836D01*
X89809523Y-67785836D02*
X89904761Y-67738217D01*
X89904761Y-67738217D02*
X90142856Y-67738217D01*
X90142856Y-67738217D02*
X90238094Y-67785836D01*
X90238094Y-67785836D02*
X90285713Y-67833455D01*
X90285713Y-67833455D02*
X90333332Y-67928693D01*
X90333332Y-67928693D02*
X90333332Y-68023931D01*
X90333332Y-68023931D02*
X90285713Y-68166788D01*
X90285713Y-68166788D02*
X89714285Y-68738217D01*
X89714285Y-68738217D02*
X90333332Y-68738217D01*
X90952380Y-67738217D02*
X91047618Y-67738217D01*
X91047618Y-67738217D02*
X91142856Y-67785836D01*
X91142856Y-67785836D02*
X91190475Y-67833455D01*
X91190475Y-67833455D02*
X91238094Y-67928693D01*
X91238094Y-67928693D02*
X91285713Y-68119169D01*
X91285713Y-68119169D02*
X91285713Y-68357264D01*
X91285713Y-68357264D02*
X91238094Y-68547740D01*
X91238094Y-68547740D02*
X91190475Y-68642978D01*
X91190475Y-68642978D02*
X91142856Y-68690598D01*
X91142856Y-68690598D02*
X91047618Y-68738217D01*
X91047618Y-68738217D02*
X90952380Y-68738217D01*
X90952380Y-68738217D02*
X90857142Y-68690598D01*
X90857142Y-68690598D02*
X90809523Y-68642978D01*
X90809523Y-68642978D02*
X90761904Y-68547740D01*
X90761904Y-68547740D02*
X90714285Y-68357264D01*
X90714285Y-68357264D02*
X90714285Y-68119169D01*
X90714285Y-68119169D02*
X90761904Y-67928693D01*
X90761904Y-67928693D02*
X90809523Y-67833455D01*
X90809523Y-67833455D02*
X90857142Y-67785836D01*
X90857142Y-67785836D02*
X90952380Y-67738217D01*
X91666666Y-67833455D02*
X91714285Y-67785836D01*
X91714285Y-67785836D02*
X91809523Y-67738217D01*
X91809523Y-67738217D02*
X92047618Y-67738217D01*
X92047618Y-67738217D02*
X92142856Y-67785836D01*
X92142856Y-67785836D02*
X92190475Y-67833455D01*
X92190475Y-67833455D02*
X92238094Y-67928693D01*
X92238094Y-67928693D02*
X92238094Y-68023931D01*
X92238094Y-68023931D02*
X92190475Y-68166788D01*
X92190475Y-68166788D02*
X91619047Y-68738217D01*
X91619047Y-68738217D02*
X92238094Y-68738217D01*
X93095237Y-68071550D02*
X93095237Y-68738217D01*
X92857142Y-67690598D02*
X92619047Y-68404883D01*
X92619047Y-68404883D02*
X93238094Y-68404883D01*
X94380952Y-68214407D02*
X94714285Y-68214407D01*
X94857142Y-68738217D02*
X94380952Y-68738217D01*
X94380952Y-68738217D02*
X94380952Y-67738217D01*
X94380952Y-67738217D02*
X94857142Y-67738217D01*
X95285714Y-68738217D02*
X95285714Y-68071550D01*
X95285714Y-68262026D02*
X95333333Y-68166788D01*
X95333333Y-68166788D02*
X95380952Y-68119169D01*
X95380952Y-68119169D02*
X95476190Y-68071550D01*
X95476190Y-68071550D02*
X95571428Y-68071550D01*
X96333333Y-68071550D02*
X96333333Y-68881074D01*
X96333333Y-68881074D02*
X96285714Y-68976312D01*
X96285714Y-68976312D02*
X96238095Y-69023931D01*
X96238095Y-69023931D02*
X96142857Y-69071550D01*
X96142857Y-69071550D02*
X96000000Y-69071550D01*
X96000000Y-69071550D02*
X95904762Y-69023931D01*
X96333333Y-68690598D02*
X96238095Y-68738217D01*
X96238095Y-68738217D02*
X96047619Y-68738217D01*
X96047619Y-68738217D02*
X95952381Y-68690598D01*
X95952381Y-68690598D02*
X95904762Y-68642978D01*
X95904762Y-68642978D02*
X95857143Y-68547740D01*
X95857143Y-68547740D02*
X95857143Y-68262026D01*
X95857143Y-68262026D02*
X95904762Y-68166788D01*
X95904762Y-68166788D02*
X95952381Y-68119169D01*
X95952381Y-68119169D02*
X96047619Y-68071550D01*
X96047619Y-68071550D02*
X96238095Y-68071550D01*
X96238095Y-68071550D02*
X96333333Y-68119169D01*
X96952381Y-68738217D02*
X96857143Y-68690598D01*
X96857143Y-68690598D02*
X96809524Y-68642978D01*
X96809524Y-68642978D02*
X96761905Y-68547740D01*
X96761905Y-68547740D02*
X96761905Y-68262026D01*
X96761905Y-68262026D02*
X96809524Y-68166788D01*
X96809524Y-68166788D02*
X96857143Y-68119169D01*
X96857143Y-68119169D02*
X96952381Y-68071550D01*
X96952381Y-68071550D02*
X97095238Y-68071550D01*
X97095238Y-68071550D02*
X97190476Y-68119169D01*
X97190476Y-68119169D02*
X97238095Y-68166788D01*
X97238095Y-68166788D02*
X97285714Y-68262026D01*
X97285714Y-68262026D02*
X97285714Y-68547740D01*
X97285714Y-68547740D02*
X97238095Y-68642978D01*
X97238095Y-68642978D02*
X97190476Y-68690598D01*
X97190476Y-68690598D02*
X97095238Y-68738217D01*
X97095238Y-68738217D02*
X96952381Y-68738217D01*
X97714286Y-68071550D02*
X97714286Y-68738217D01*
X97714286Y-68166788D02*
X97761905Y-68119169D01*
X97761905Y-68119169D02*
X97857143Y-68071550D01*
X97857143Y-68071550D02*
X98000000Y-68071550D01*
X98000000Y-68071550D02*
X98095238Y-68119169D01*
X98095238Y-68119169D02*
X98142857Y-68214407D01*
X98142857Y-68214407D02*
X98142857Y-68738217D01*
X99047619Y-68738217D02*
X99047619Y-68214407D01*
X99047619Y-68214407D02*
X99000000Y-68119169D01*
X99000000Y-68119169D02*
X98904762Y-68071550D01*
X98904762Y-68071550D02*
X98714286Y-68071550D01*
X98714286Y-68071550D02*
X98619048Y-68119169D01*
X99047619Y-68690598D02*
X98952381Y-68738217D01*
X98952381Y-68738217D02*
X98714286Y-68738217D01*
X98714286Y-68738217D02*
X98619048Y-68690598D01*
X98619048Y-68690598D02*
X98571429Y-68595359D01*
X98571429Y-68595359D02*
X98571429Y-68500121D01*
X98571429Y-68500121D02*
X98619048Y-68404883D01*
X98619048Y-68404883D02*
X98714286Y-68357264D01*
X98714286Y-68357264D02*
X98952381Y-68357264D01*
X98952381Y-68357264D02*
X99047619Y-68309645D01*
X99952381Y-68071550D02*
X99952381Y-68738217D01*
X99523810Y-68071550D02*
X99523810Y-68595359D01*
X99523810Y-68595359D02*
X99571429Y-68690598D01*
X99571429Y-68690598D02*
X99666667Y-68738217D01*
X99666667Y-68738217D02*
X99809524Y-68738217D01*
X99809524Y-68738217D02*
X99904762Y-68690598D01*
X99904762Y-68690598D02*
X99952381Y-68642978D01*
X100285715Y-68071550D02*
X100666667Y-68071550D01*
X100428572Y-67738217D02*
X100428572Y-68595359D01*
X100428572Y-68595359D02*
X100476191Y-68690598D01*
X100476191Y-68690598D02*
X100571429Y-68738217D01*
X100571429Y-68738217D02*
X100666667Y-68738217D01*
X101761906Y-68738217D02*
X101761906Y-67738217D01*
X102333334Y-68738217D02*
X101904763Y-68166788D01*
X102333334Y-67738217D02*
X101761906Y-68309645D01*
X103142858Y-68690598D02*
X103047620Y-68738217D01*
X103047620Y-68738217D02*
X102857144Y-68738217D01*
X102857144Y-68738217D02*
X102761906Y-68690598D01*
X102761906Y-68690598D02*
X102714287Y-68595359D01*
X102714287Y-68595359D02*
X102714287Y-68214407D01*
X102714287Y-68214407D02*
X102761906Y-68119169D01*
X102761906Y-68119169D02*
X102857144Y-68071550D01*
X102857144Y-68071550D02*
X103047620Y-68071550D01*
X103047620Y-68071550D02*
X103142858Y-68119169D01*
X103142858Y-68119169D02*
X103190477Y-68214407D01*
X103190477Y-68214407D02*
X103190477Y-68309645D01*
X103190477Y-68309645D02*
X102714287Y-68404883D01*
X103523811Y-68071550D02*
X103761906Y-68738217D01*
X104000001Y-68071550D02*
X103761906Y-68738217D01*
X103761906Y-68738217D02*
X103666668Y-68976312D01*
X103666668Y-68976312D02*
X103619049Y-69023931D01*
X103619049Y-69023931D02*
X103523811Y-69071550D01*
X104380954Y-68738217D02*
X104380954Y-67738217D01*
X104380954Y-68119169D02*
X104476192Y-68071550D01*
X104476192Y-68071550D02*
X104666668Y-68071550D01*
X104666668Y-68071550D02*
X104761906Y-68119169D01*
X104761906Y-68119169D02*
X104809525Y-68166788D01*
X104809525Y-68166788D02*
X104857144Y-68262026D01*
X104857144Y-68262026D02*
X104857144Y-68547740D01*
X104857144Y-68547740D02*
X104809525Y-68642978D01*
X104809525Y-68642978D02*
X104761906Y-68690598D01*
X104761906Y-68690598D02*
X104666668Y-68738217D01*
X104666668Y-68738217D02*
X104476192Y-68738217D01*
X104476192Y-68738217D02*
X104380954Y-68690598D01*
X105428573Y-68738217D02*
X105333335Y-68690598D01*
X105333335Y-68690598D02*
X105285716Y-68642978D01*
X105285716Y-68642978D02*
X105238097Y-68547740D01*
X105238097Y-68547740D02*
X105238097Y-68262026D01*
X105238097Y-68262026D02*
X105285716Y-68166788D01*
X105285716Y-68166788D02*
X105333335Y-68119169D01*
X105333335Y-68119169D02*
X105428573Y-68071550D01*
X105428573Y-68071550D02*
X105571430Y-68071550D01*
X105571430Y-68071550D02*
X105666668Y-68119169D01*
X105666668Y-68119169D02*
X105714287Y-68166788D01*
X105714287Y-68166788D02*
X105761906Y-68262026D01*
X105761906Y-68262026D02*
X105761906Y-68547740D01*
X105761906Y-68547740D02*
X105714287Y-68642978D01*
X105714287Y-68642978D02*
X105666668Y-68690598D01*
X105666668Y-68690598D02*
X105571430Y-68738217D01*
X105571430Y-68738217D02*
X105428573Y-68738217D01*
X106619049Y-68738217D02*
X106619049Y-68214407D01*
X106619049Y-68214407D02*
X106571430Y-68119169D01*
X106571430Y-68119169D02*
X106476192Y-68071550D01*
X106476192Y-68071550D02*
X106285716Y-68071550D01*
X106285716Y-68071550D02*
X106190478Y-68119169D01*
X106619049Y-68690598D02*
X106523811Y-68738217D01*
X106523811Y-68738217D02*
X106285716Y-68738217D01*
X106285716Y-68738217D02*
X106190478Y-68690598D01*
X106190478Y-68690598D02*
X106142859Y-68595359D01*
X106142859Y-68595359D02*
X106142859Y-68500121D01*
X106142859Y-68500121D02*
X106190478Y-68404883D01*
X106190478Y-68404883D02*
X106285716Y-68357264D01*
X106285716Y-68357264D02*
X106523811Y-68357264D01*
X106523811Y-68357264D02*
X106619049Y-68309645D01*
X107095240Y-68738217D02*
X107095240Y-68071550D01*
X107095240Y-68262026D02*
X107142859Y-68166788D01*
X107142859Y-68166788D02*
X107190478Y-68119169D01*
X107190478Y-68119169D02*
X107285716Y-68071550D01*
X107285716Y-68071550D02*
X107380954Y-68071550D01*
X108142859Y-68738217D02*
X108142859Y-67738217D01*
X108142859Y-68690598D02*
X108047621Y-68738217D01*
X108047621Y-68738217D02*
X107857145Y-68738217D01*
X107857145Y-68738217D02*
X107761907Y-68690598D01*
X107761907Y-68690598D02*
X107714288Y-68642978D01*
X107714288Y-68642978D02*
X107666669Y-68547740D01*
X107666669Y-68547740D02*
X107666669Y-68262026D01*
X107666669Y-68262026D02*
X107714288Y-68166788D01*
X107714288Y-68166788D02*
X107761907Y-68119169D01*
X107761907Y-68119169D02*
X107857145Y-68071550D01*
X107857145Y-68071550D02*
X108047621Y-68071550D01*
X108047621Y-68071550D02*
X108142859Y-68119169D01*
X108571431Y-68690598D02*
X108666669Y-68738217D01*
X108666669Y-68738217D02*
X108857145Y-68738217D01*
X108857145Y-68738217D02*
X108952383Y-68690598D01*
X108952383Y-68690598D02*
X109000002Y-68595359D01*
X109000002Y-68595359D02*
X109000002Y-68547740D01*
X109000002Y-68547740D02*
X108952383Y-68452502D01*
X108952383Y-68452502D02*
X108857145Y-68404883D01*
X108857145Y-68404883D02*
X108714288Y-68404883D01*
X108714288Y-68404883D02*
X108619050Y-68357264D01*
X108619050Y-68357264D02*
X108571431Y-68262026D01*
X108571431Y-68262026D02*
X108571431Y-68214407D01*
X108571431Y-68214407D02*
X108619050Y-68119169D01*
X108619050Y-68119169D02*
X108714288Y-68071550D01*
X108714288Y-68071550D02*
X108857145Y-68071550D01*
X108857145Y-68071550D02*
X108952383Y-68119169D01*
X82214284Y-70348161D02*
X81738094Y-70348161D01*
X81738094Y-70348161D02*
X81738094Y-69348161D01*
X82547618Y-70348161D02*
X82547618Y-69681494D01*
X82547618Y-69348161D02*
X82499999Y-69395780D01*
X82499999Y-69395780D02*
X82547618Y-69443399D01*
X82547618Y-69443399D02*
X82595237Y-69395780D01*
X82595237Y-69395780D02*
X82547618Y-69348161D01*
X82547618Y-69348161D02*
X82547618Y-69443399D01*
X83452379Y-70300542D02*
X83357141Y-70348161D01*
X83357141Y-70348161D02*
X83166665Y-70348161D01*
X83166665Y-70348161D02*
X83071427Y-70300542D01*
X83071427Y-70300542D02*
X83023808Y-70252922D01*
X83023808Y-70252922D02*
X82976189Y-70157684D01*
X82976189Y-70157684D02*
X82976189Y-69871970D01*
X82976189Y-69871970D02*
X83023808Y-69776732D01*
X83023808Y-69776732D02*
X83071427Y-69729113D01*
X83071427Y-69729113D02*
X83166665Y-69681494D01*
X83166665Y-69681494D02*
X83357141Y-69681494D01*
X83357141Y-69681494D02*
X83452379Y-69729113D01*
X84261903Y-70300542D02*
X84166665Y-70348161D01*
X84166665Y-70348161D02*
X83976189Y-70348161D01*
X83976189Y-70348161D02*
X83880951Y-70300542D01*
X83880951Y-70300542D02*
X83833332Y-70205303D01*
X83833332Y-70205303D02*
X83833332Y-69824351D01*
X83833332Y-69824351D02*
X83880951Y-69729113D01*
X83880951Y-69729113D02*
X83976189Y-69681494D01*
X83976189Y-69681494D02*
X84166665Y-69681494D01*
X84166665Y-69681494D02*
X84261903Y-69729113D01*
X84261903Y-69729113D02*
X84309522Y-69824351D01*
X84309522Y-69824351D02*
X84309522Y-69919589D01*
X84309522Y-69919589D02*
X83833332Y-70014827D01*
X84738094Y-69681494D02*
X84738094Y-70348161D01*
X84738094Y-69776732D02*
X84785713Y-69729113D01*
X84785713Y-69729113D02*
X84880951Y-69681494D01*
X84880951Y-69681494D02*
X85023808Y-69681494D01*
X85023808Y-69681494D02*
X85119046Y-69729113D01*
X85119046Y-69729113D02*
X85166665Y-69824351D01*
X85166665Y-69824351D02*
X85166665Y-70348161D01*
X85595237Y-70300542D02*
X85690475Y-70348161D01*
X85690475Y-70348161D02*
X85880951Y-70348161D01*
X85880951Y-70348161D02*
X85976189Y-70300542D01*
X85976189Y-70300542D02*
X86023808Y-70205303D01*
X86023808Y-70205303D02*
X86023808Y-70157684D01*
X86023808Y-70157684D02*
X85976189Y-70062446D01*
X85976189Y-70062446D02*
X85880951Y-70014827D01*
X85880951Y-70014827D02*
X85738094Y-70014827D01*
X85738094Y-70014827D02*
X85642856Y-69967208D01*
X85642856Y-69967208D02*
X85595237Y-69871970D01*
X85595237Y-69871970D02*
X85595237Y-69824351D01*
X85595237Y-69824351D02*
X85642856Y-69729113D01*
X85642856Y-69729113D02*
X85738094Y-69681494D01*
X85738094Y-69681494D02*
X85880951Y-69681494D01*
X85880951Y-69681494D02*
X85976189Y-69729113D01*
X86833332Y-70300542D02*
X86738094Y-70348161D01*
X86738094Y-70348161D02*
X86547618Y-70348161D01*
X86547618Y-70348161D02*
X86452380Y-70300542D01*
X86452380Y-70300542D02*
X86404761Y-70205303D01*
X86404761Y-70205303D02*
X86404761Y-69824351D01*
X86404761Y-69824351D02*
X86452380Y-69729113D01*
X86452380Y-69729113D02*
X86547618Y-69681494D01*
X86547618Y-69681494D02*
X86738094Y-69681494D01*
X86738094Y-69681494D02*
X86833332Y-69729113D01*
X86833332Y-69729113D02*
X86880951Y-69824351D01*
X86880951Y-69824351D02*
X86880951Y-69919589D01*
X86880951Y-69919589D02*
X86404761Y-70014827D01*
X87738094Y-70348161D02*
X87738094Y-69348161D01*
X87738094Y-70300542D02*
X87642856Y-70348161D01*
X87642856Y-70348161D02*
X87452380Y-70348161D01*
X87452380Y-70348161D02*
X87357142Y-70300542D01*
X87357142Y-70300542D02*
X87309523Y-70252922D01*
X87309523Y-70252922D02*
X87261904Y-70157684D01*
X87261904Y-70157684D02*
X87261904Y-69871970D01*
X87261904Y-69871970D02*
X87309523Y-69776732D01*
X87309523Y-69776732D02*
X87357142Y-69729113D01*
X87357142Y-69729113D02*
X87452380Y-69681494D01*
X87452380Y-69681494D02*
X87642856Y-69681494D01*
X87642856Y-69681494D02*
X87738094Y-69729113D01*
X89404761Y-69681494D02*
X89404761Y-70348161D01*
X88976190Y-69681494D02*
X88976190Y-70205303D01*
X88976190Y-70205303D02*
X89023809Y-70300542D01*
X89023809Y-70300542D02*
X89119047Y-70348161D01*
X89119047Y-70348161D02*
X89261904Y-70348161D01*
X89261904Y-70348161D02*
X89357142Y-70300542D01*
X89357142Y-70300542D02*
X89404761Y-70252922D01*
X89880952Y-69681494D02*
X89880952Y-70348161D01*
X89880952Y-69776732D02*
X89928571Y-69729113D01*
X89928571Y-69729113D02*
X90023809Y-69681494D01*
X90023809Y-69681494D02*
X90166666Y-69681494D01*
X90166666Y-69681494D02*
X90261904Y-69729113D01*
X90261904Y-69729113D02*
X90309523Y-69824351D01*
X90309523Y-69824351D02*
X90309523Y-70348161D01*
X91214285Y-70348161D02*
X91214285Y-69348161D01*
X91214285Y-70300542D02*
X91119047Y-70348161D01*
X91119047Y-70348161D02*
X90928571Y-70348161D01*
X90928571Y-70348161D02*
X90833333Y-70300542D01*
X90833333Y-70300542D02*
X90785714Y-70252922D01*
X90785714Y-70252922D02*
X90738095Y-70157684D01*
X90738095Y-70157684D02*
X90738095Y-69871970D01*
X90738095Y-69871970D02*
X90785714Y-69776732D01*
X90785714Y-69776732D02*
X90833333Y-69729113D01*
X90833333Y-69729113D02*
X90928571Y-69681494D01*
X90928571Y-69681494D02*
X91119047Y-69681494D01*
X91119047Y-69681494D02*
X91214285Y-69729113D01*
X92071428Y-70300542D02*
X91976190Y-70348161D01*
X91976190Y-70348161D02*
X91785714Y-70348161D01*
X91785714Y-70348161D02*
X91690476Y-70300542D01*
X91690476Y-70300542D02*
X91642857Y-70205303D01*
X91642857Y-70205303D02*
X91642857Y-69824351D01*
X91642857Y-69824351D02*
X91690476Y-69729113D01*
X91690476Y-69729113D02*
X91785714Y-69681494D01*
X91785714Y-69681494D02*
X91976190Y-69681494D01*
X91976190Y-69681494D02*
X92071428Y-69729113D01*
X92071428Y-69729113D02*
X92119047Y-69824351D01*
X92119047Y-69824351D02*
X92119047Y-69919589D01*
X92119047Y-69919589D02*
X91642857Y-70014827D01*
X92547619Y-70348161D02*
X92547619Y-69681494D01*
X92547619Y-69871970D02*
X92595238Y-69776732D01*
X92595238Y-69776732D02*
X92642857Y-69729113D01*
X92642857Y-69729113D02*
X92738095Y-69681494D01*
X92738095Y-69681494D02*
X92833333Y-69681494D01*
X94500000Y-70252922D02*
X94452381Y-70300542D01*
X94452381Y-70300542D02*
X94309524Y-70348161D01*
X94309524Y-70348161D02*
X94214286Y-70348161D01*
X94214286Y-70348161D02*
X94071429Y-70300542D01*
X94071429Y-70300542D02*
X93976191Y-70205303D01*
X93976191Y-70205303D02*
X93928572Y-70110065D01*
X93928572Y-70110065D02*
X93880953Y-69919589D01*
X93880953Y-69919589D02*
X93880953Y-69776732D01*
X93880953Y-69776732D02*
X93928572Y-69586256D01*
X93928572Y-69586256D02*
X93976191Y-69491018D01*
X93976191Y-69491018D02*
X94071429Y-69395780D01*
X94071429Y-69395780D02*
X94214286Y-69348161D01*
X94214286Y-69348161D02*
X94309524Y-69348161D01*
X94309524Y-69348161D02*
X94452381Y-69395780D01*
X94452381Y-69395780D02*
X94500000Y-69443399D01*
X94928572Y-69824351D02*
X95261905Y-69824351D01*
X95404762Y-70348161D02*
X94928572Y-70348161D01*
X94928572Y-70348161D02*
X94928572Y-69348161D01*
X94928572Y-69348161D02*
X95404762Y-69348161D01*
X96404762Y-70348161D02*
X96071429Y-69871970D01*
X95833334Y-70348161D02*
X95833334Y-69348161D01*
X95833334Y-69348161D02*
X96214286Y-69348161D01*
X96214286Y-69348161D02*
X96309524Y-69395780D01*
X96309524Y-69395780D02*
X96357143Y-69443399D01*
X96357143Y-69443399D02*
X96404762Y-69538637D01*
X96404762Y-69538637D02*
X96404762Y-69681494D01*
X96404762Y-69681494D02*
X96357143Y-69776732D01*
X96357143Y-69776732D02*
X96309524Y-69824351D01*
X96309524Y-69824351D02*
X96214286Y-69871970D01*
X96214286Y-69871970D02*
X95833334Y-69871970D01*
X96833334Y-70348161D02*
X96833334Y-69348161D01*
X96833334Y-69348161D02*
X97404762Y-70348161D01*
X97404762Y-70348161D02*
X97404762Y-69348161D01*
X97880953Y-69967208D02*
X98642858Y-69967208D01*
X99309524Y-69348161D02*
X99500000Y-69348161D01*
X99500000Y-69348161D02*
X99595238Y-69395780D01*
X99595238Y-69395780D02*
X99690476Y-69491018D01*
X99690476Y-69491018D02*
X99738095Y-69681494D01*
X99738095Y-69681494D02*
X99738095Y-70014827D01*
X99738095Y-70014827D02*
X99690476Y-70205303D01*
X99690476Y-70205303D02*
X99595238Y-70300542D01*
X99595238Y-70300542D02*
X99500000Y-70348161D01*
X99500000Y-70348161D02*
X99309524Y-70348161D01*
X99309524Y-70348161D02*
X99214286Y-70300542D01*
X99214286Y-70300542D02*
X99119048Y-70205303D01*
X99119048Y-70205303D02*
X99071429Y-70014827D01*
X99071429Y-70014827D02*
X99071429Y-69681494D01*
X99071429Y-69681494D02*
X99119048Y-69491018D01*
X99119048Y-69491018D02*
X99214286Y-69395780D01*
X99214286Y-69395780D02*
X99309524Y-69348161D01*
X100166667Y-70348161D02*
X100166667Y-69348161D01*
X100166667Y-69824351D02*
X100738095Y-69824351D01*
X100738095Y-70348161D02*
X100738095Y-69348161D01*
X101690476Y-70348161D02*
X101214286Y-70348161D01*
X101214286Y-70348161D02*
X101214286Y-69348161D01*
X102023810Y-69967208D02*
X102785715Y-69967208D01*
X103261905Y-70348161D02*
X103261905Y-69348161D01*
X103261905Y-69348161D02*
X103642857Y-69348161D01*
X103642857Y-69348161D02*
X103738095Y-69395780D01*
X103738095Y-69395780D02*
X103785714Y-69443399D01*
X103785714Y-69443399D02*
X103833333Y-69538637D01*
X103833333Y-69538637D02*
X103833333Y-69681494D01*
X103833333Y-69681494D02*
X103785714Y-69776732D01*
X103785714Y-69776732D02*
X103738095Y-69824351D01*
X103738095Y-69824351D02*
X103642857Y-69871970D01*
X103642857Y-69871970D02*
X103261905Y-69871970D01*
X104928572Y-69681494D02*
X105166667Y-70348161D01*
X105166667Y-70348161D02*
X105404762Y-69681494D01*
X105738096Y-69443399D02*
X105785715Y-69395780D01*
X105785715Y-69395780D02*
X105880953Y-69348161D01*
X105880953Y-69348161D02*
X106119048Y-69348161D01*
X106119048Y-69348161D02*
X106214286Y-69395780D01*
X106214286Y-69395780D02*
X106261905Y-69443399D01*
X106261905Y-69443399D02*
X106309524Y-69538637D01*
X106309524Y-69538637D02*
X106309524Y-69633875D01*
X106309524Y-69633875D02*
X106261905Y-69776732D01*
X106261905Y-69776732D02*
X105690477Y-70348161D01*
X105690477Y-70348161D02*
X106309524Y-70348161D01*
D11*
X210856265Y-58083703D02*
X210903884Y-58036084D01*
X210903884Y-58036084D02*
X210999122Y-57988465D01*
X210999122Y-57988465D02*
X211237217Y-57988465D01*
X211237217Y-57988465D02*
X211332455Y-58036084D01*
X211332455Y-58036084D02*
X211380074Y-58083703D01*
X211380074Y-58083703D02*
X211427693Y-58178941D01*
X211427693Y-58178941D02*
X211427693Y-58274179D01*
X211427693Y-58274179D02*
X211380074Y-58417036D01*
X211380074Y-58417036D02*
X210808646Y-58988465D01*
X210808646Y-58988465D02*
X211427693Y-58988465D01*
X212046741Y-57988465D02*
X212141979Y-57988465D01*
X212141979Y-57988465D02*
X212237217Y-58036084D01*
X212237217Y-58036084D02*
X212284836Y-58083703D01*
X212284836Y-58083703D02*
X212332455Y-58178941D01*
X212332455Y-58178941D02*
X212380074Y-58369417D01*
X212380074Y-58369417D02*
X212380074Y-58607512D01*
X212380074Y-58607512D02*
X212332455Y-58797988D01*
X212332455Y-58797988D02*
X212284836Y-58893226D01*
X212284836Y-58893226D02*
X212237217Y-58940846D01*
X212237217Y-58940846D02*
X212141979Y-58988465D01*
X212141979Y-58988465D02*
X212046741Y-58988465D01*
X212046741Y-58988465D02*
X211951503Y-58940846D01*
X211951503Y-58940846D02*
X211903884Y-58893226D01*
X211903884Y-58893226D02*
X211856265Y-58797988D01*
X211856265Y-58797988D02*
X211808646Y-58607512D01*
X211808646Y-58607512D02*
X211808646Y-58369417D01*
X211808646Y-58369417D02*
X211856265Y-58178941D01*
X211856265Y-58178941D02*
X211903884Y-58083703D01*
X211903884Y-58083703D02*
X211951503Y-58036084D01*
X211951503Y-58036084D02*
X212046741Y-57988465D01*
X189377693Y-58988465D02*
X188806265Y-58988465D01*
X189091979Y-58988465D02*
X189091979Y-57988465D01*
X189091979Y-57988465D02*
X188996741Y-58131322D01*
X188996741Y-58131322D02*
X188901503Y-58226560D01*
X188901503Y-58226560D02*
X188806265Y-58274179D01*
X189853884Y-58988465D02*
X190044360Y-58988465D01*
X190044360Y-58988465D02*
X190139598Y-58940846D01*
X190139598Y-58940846D02*
X190187217Y-58893226D01*
X190187217Y-58893226D02*
X190282455Y-58750369D01*
X190282455Y-58750369D02*
X190330074Y-58559893D01*
X190330074Y-58559893D02*
X190330074Y-58178941D01*
X190330074Y-58178941D02*
X190282455Y-58083703D01*
X190282455Y-58083703D02*
X190234836Y-58036084D01*
X190234836Y-58036084D02*
X190139598Y-57988465D01*
X190139598Y-57988465D02*
X189949122Y-57988465D01*
X189949122Y-57988465D02*
X189853884Y-58036084D01*
X189853884Y-58036084D02*
X189806265Y-58083703D01*
X189806265Y-58083703D02*
X189758646Y-58178941D01*
X189758646Y-58178941D02*
X189758646Y-58417036D01*
X189758646Y-58417036D02*
X189806265Y-58512274D01*
X189806265Y-58512274D02*
X189853884Y-58559893D01*
X189853884Y-58559893D02*
X189949122Y-58607512D01*
X189949122Y-58607512D02*
X190139598Y-58607512D01*
X190139598Y-58607512D02*
X190234836Y-58559893D01*
X190234836Y-58559893D02*
X190282455Y-58512274D01*
X190282455Y-58512274D02*
X190330074Y-58417036D01*
X198858285Y-98239609D02*
X199001142Y-98287228D01*
X199001142Y-98287228D02*
X199048761Y-98334847D01*
X199048761Y-98334847D02*
X199096380Y-98430085D01*
X199096380Y-98430085D02*
X199096380Y-98572942D01*
X199096380Y-98572942D02*
X199048761Y-98668180D01*
X199048761Y-98668180D02*
X199001142Y-98715800D01*
X199001142Y-98715800D02*
X198905904Y-98763419D01*
X198905904Y-98763419D02*
X198524952Y-98763419D01*
X198524952Y-98763419D02*
X198524952Y-97763419D01*
X198524952Y-97763419D02*
X198858285Y-97763419D01*
X198858285Y-97763419D02*
X198953523Y-97811038D01*
X198953523Y-97811038D02*
X199001142Y-97858657D01*
X199001142Y-97858657D02*
X199048761Y-97953895D01*
X199048761Y-97953895D02*
X199048761Y-98049133D01*
X199048761Y-98049133D02*
X199001142Y-98144371D01*
X199001142Y-98144371D02*
X198953523Y-98191990D01*
X198953523Y-98191990D02*
X198858285Y-98239609D01*
X198858285Y-98239609D02*
X198524952Y-98239609D01*
X199382095Y-97763419D02*
X199953523Y-97763419D01*
X199667809Y-98763419D02*
X199667809Y-97763419D01*
X200810666Y-98763419D02*
X200239238Y-98763419D01*
X200524952Y-98763419D02*
X200524952Y-97763419D01*
X200524952Y-97763419D02*
X200429714Y-97906276D01*
X200429714Y-97906276D02*
X200334476Y-98001514D01*
X200334476Y-98001514D02*
X200239238Y-98049133D01*
X197497884Y-118847466D02*
X198259789Y-118847466D01*
X197878836Y-119228419D02*
X197878836Y-118466514D01*
X199069312Y-118704609D02*
X199212169Y-118752228D01*
X199212169Y-118752228D02*
X199259788Y-118799847D01*
X199259788Y-118799847D02*
X199307407Y-118895085D01*
X199307407Y-118895085D02*
X199307407Y-119037942D01*
X199307407Y-119037942D02*
X199259788Y-119133180D01*
X199259788Y-119133180D02*
X199212169Y-119180800D01*
X199212169Y-119180800D02*
X199116931Y-119228419D01*
X199116931Y-119228419D02*
X198735979Y-119228419D01*
X198735979Y-119228419D02*
X198735979Y-118228419D01*
X198735979Y-118228419D02*
X199069312Y-118228419D01*
X199069312Y-118228419D02*
X199164550Y-118276038D01*
X199164550Y-118276038D02*
X199212169Y-118323657D01*
X199212169Y-118323657D02*
X199259788Y-118418895D01*
X199259788Y-118418895D02*
X199259788Y-118514133D01*
X199259788Y-118514133D02*
X199212169Y-118609371D01*
X199212169Y-118609371D02*
X199164550Y-118656990D01*
X199164550Y-118656990D02*
X199069312Y-118704609D01*
X199069312Y-118704609D02*
X198735979Y-118704609D01*
X199688360Y-118942704D02*
X200164550Y-118942704D01*
X199593122Y-119228419D02*
X199926455Y-118228419D01*
X199926455Y-118228419D02*
X200259788Y-119228419D01*
X200450265Y-118228419D02*
X201021693Y-118228419D01*
X200735979Y-119228419D02*
X200735979Y-118228419D01*
X201355027Y-118847466D02*
X202116932Y-118847466D01*
D12*
X175398513Y-58939536D02*
X175588989Y-58939536D01*
X175588989Y-58939536D02*
X175684227Y-58987155D01*
X175684227Y-58987155D02*
X175779465Y-59082393D01*
X175779465Y-59082393D02*
X175827084Y-59272869D01*
X175827084Y-59272869D02*
X175827084Y-59606202D01*
X175827084Y-59606202D02*
X175779465Y-59796678D01*
X175779465Y-59796678D02*
X175684227Y-59891917D01*
X175684227Y-59891917D02*
X175588989Y-59939536D01*
X175588989Y-59939536D02*
X175398513Y-59939536D01*
X175398513Y-59939536D02*
X175303275Y-59891917D01*
X175303275Y-59891917D02*
X175208037Y-59796678D01*
X175208037Y-59796678D02*
X175160418Y-59606202D01*
X175160418Y-59606202D02*
X175160418Y-59272869D01*
X175160418Y-59272869D02*
X175208037Y-59082393D01*
X175208037Y-59082393D02*
X175303275Y-58987155D01*
X175303275Y-58987155D02*
X175398513Y-58939536D01*
X176588989Y-59415726D02*
X176255656Y-59415726D01*
X176255656Y-59939536D02*
X176255656Y-58939536D01*
X176255656Y-58939536D02*
X176731846Y-58939536D01*
X177446132Y-59415726D02*
X177112799Y-59415726D01*
X177112799Y-59939536D02*
X177112799Y-58939536D01*
X177112799Y-58939536D02*
X177588989Y-58939536D01*
X183731846Y-58939536D02*
X183922322Y-58939536D01*
X183922322Y-58939536D02*
X184017560Y-58987155D01*
X184017560Y-58987155D02*
X184112798Y-59082393D01*
X184112798Y-59082393D02*
X184160417Y-59272869D01*
X184160417Y-59272869D02*
X184160417Y-59606202D01*
X184160417Y-59606202D02*
X184112798Y-59796678D01*
X184112798Y-59796678D02*
X184017560Y-59891917D01*
X184017560Y-59891917D02*
X183922322Y-59939536D01*
X183922322Y-59939536D02*
X183731846Y-59939536D01*
X183731846Y-59939536D02*
X183636608Y-59891917D01*
X183636608Y-59891917D02*
X183541370Y-59796678D01*
X183541370Y-59796678D02*
X183493751Y-59606202D01*
X183493751Y-59606202D02*
X183493751Y-59272869D01*
X183493751Y-59272869D02*
X183541370Y-59082393D01*
X183541370Y-59082393D02*
X183636608Y-58987155D01*
X183636608Y-58987155D02*
X183731846Y-58939536D01*
X184588989Y-59939536D02*
X184588989Y-58939536D01*
X184588989Y-58939536D02*
X185160417Y-59939536D01*
X185160417Y-59939536D02*
X185160417Y-58939536D01*
D13*
X180072324Y-116611011D02*
X180175295Y-116611215D01*
X180257658Y-116611694D01*
X180321811Y-116612567D01*
X180370148Y-116613948D01*
X180405067Y-116615953D01*
X180428964Y-116618698D01*
X180444234Y-116622299D01*
X180453275Y-116626871D01*
X180458482Y-116632531D01*
X180460397Y-116635805D01*
X180465638Y-116653541D01*
X180474841Y-116693379D01*
X180487421Y-116752428D01*
X180502790Y-116827803D01*
X180520360Y-116916614D01*
X180539544Y-117015973D01*
X180559755Y-117122991D01*
X180563045Y-117140630D01*
X180583413Y-117248220D01*
X180603005Y-117348260D01*
X180621217Y-117437924D01*
X180637446Y-117514383D01*
X180651089Y-117574811D01*
X180661545Y-117616382D01*
X180668210Y-117636268D01*
X180668931Y-117637297D01*
X180685910Y-117647425D01*
X180722811Y-117665155D01*
X180775860Y-117688941D01*
X180841283Y-117717239D01*
X180915307Y-117748503D01*
X180994158Y-117781188D01*
X181074063Y-117813747D01*
X181151247Y-117844636D01*
X181221938Y-117872308D01*
X181282360Y-117895219D01*
X181328741Y-117911823D01*
X181357307Y-117920574D01*
X181362962Y-117921532D01*
X181381093Y-117915975D01*
X181415241Y-117898156D01*
X181466213Y-117867566D01*
X181534819Y-117823693D01*
X181621866Y-117766028D01*
X181728163Y-117694060D01*
X181787302Y-117653570D01*
X181893687Y-117580517D01*
X181981124Y-117520573D01*
X182051616Y-117472489D01*
X182107167Y-117435015D01*
X182149781Y-117406903D01*
X182181461Y-117386904D01*
X182204211Y-117373769D01*
X182220036Y-117366249D01*
X182230939Y-117363095D01*
X182238924Y-117363057D01*
X182245995Y-117364888D01*
X182248941Y-117365839D01*
X182265100Y-117377053D01*
X182295967Y-117403992D01*
X182339155Y-117444226D01*
X182392276Y-117495327D01*
X182452944Y-117554865D01*
X182518770Y-117620410D01*
X182587367Y-117689535D01*
X182656349Y-117759810D01*
X182723327Y-117828805D01*
X182785915Y-117894092D01*
X182841724Y-117953241D01*
X182888369Y-118003824D01*
X182923461Y-118043411D01*
X182944613Y-118069572D01*
X182949900Y-118079073D01*
X182942912Y-118095008D01*
X182923006Y-118129340D01*
X182891761Y-118179615D01*
X182850760Y-118243375D01*
X182801586Y-118318165D01*
X182745819Y-118401529D01*
X182685042Y-118491012D01*
X182676850Y-118502975D01*
X182593552Y-118625400D01*
X182525343Y-118727631D01*
X182472243Y-118809636D01*
X182434271Y-118871382D01*
X182411450Y-118912837D01*
X182403800Y-118933967D01*
X182403800Y-118934010D01*
X182408817Y-118956700D01*
X182422816Y-118998205D01*
X182444219Y-119054883D01*
X182471444Y-119123088D01*
X182502913Y-119199176D01*
X182537047Y-119279502D01*
X182572266Y-119360423D01*
X182606991Y-119438294D01*
X182639642Y-119509470D01*
X182668640Y-119570308D01*
X182692406Y-119617163D01*
X182709361Y-119646391D01*
X182715893Y-119654153D01*
X182734172Y-119660447D01*
X182774445Y-119670557D01*
X182833699Y-119683849D01*
X182908923Y-119699686D01*
X182997103Y-119717434D01*
X183095226Y-119736457D01*
X183192143Y-119754620D01*
X183296869Y-119774112D01*
X183394542Y-119792642D01*
X183482132Y-119809609D01*
X183556610Y-119824410D01*
X183614947Y-119836444D01*
X183654113Y-119845111D01*
X183670625Y-119849599D01*
X183699200Y-119861625D01*
X183699200Y-120368538D01*
X183699136Y-120495723D01*
X183698879Y-120599855D01*
X183698327Y-120683279D01*
X183697379Y-120748344D01*
X183695934Y-120797395D01*
X183693891Y-120832778D01*
X183691149Y-120856841D01*
X183687607Y-120871930D01*
X183683164Y-120880391D01*
X183677720Y-120884571D01*
X183676975Y-120884905D01*
X183659727Y-120889350D01*
X183620453Y-120897830D01*
X183562099Y-120909759D01*
X183487615Y-120924550D01*
X183399950Y-120941618D01*
X183302052Y-120960379D01*
X183198536Y-120979932D01*
X183072195Y-121003876D01*
X182968948Y-121024030D01*
X182886840Y-121040841D01*
X182823919Y-121054752D01*
X182778233Y-121066208D01*
X182747830Y-121075655D01*
X182730756Y-121083536D01*
X182726238Y-121087503D01*
X182717586Y-121104532D01*
X182700902Y-121142050D01*
X182677499Y-121196927D01*
X182648691Y-121266035D01*
X182615791Y-121346243D01*
X182580112Y-121434422D01*
X182568267Y-121463950D01*
X182521560Y-121582062D01*
X182484947Y-121677898D01*
X182458115Y-121752352D01*
X182440751Y-121806319D01*
X182432541Y-121840693D01*
X182431990Y-121853110D01*
X182440337Y-121871408D01*
X182461554Y-121907888D01*
X182493950Y-121959921D01*
X182535833Y-122024879D01*
X182585511Y-122100132D01*
X182641292Y-122183053D01*
X182693750Y-122259792D01*
X182753134Y-122346629D01*
X182807648Y-122427504D01*
X182855655Y-122499897D01*
X182895515Y-122561286D01*
X182925589Y-122609151D01*
X182944238Y-122640970D01*
X182949899Y-122653795D01*
X182941170Y-122667366D01*
X182916273Y-122696694D01*
X182877150Y-122739723D01*
X182825741Y-122794396D01*
X182763984Y-122858657D01*
X182693821Y-122930449D01*
X182617192Y-123007717D01*
X182596503Y-123028394D01*
X182504561Y-123119849D01*
X182428756Y-123194564D01*
X182367496Y-123253987D01*
X182319189Y-123299566D01*
X182282242Y-123332749D01*
X182255063Y-123354985D01*
X182236059Y-123367721D01*
X182223638Y-123372405D01*
X182218678Y-123371951D01*
X182202761Y-123362843D01*
X182168519Y-123341014D01*
X182118528Y-123308179D01*
X182055363Y-123266053D01*
X181981596Y-123216351D01*
X181899804Y-123160789D01*
X181827232Y-123111154D01*
X181740807Y-123052334D01*
X181660226Y-122998390D01*
X181588055Y-122950971D01*
X181526861Y-122911728D01*
X181479212Y-122882310D01*
X181447675Y-122864367D01*
X181435492Y-122859370D01*
X181415943Y-122865156D01*
X181378798Y-122881078D01*
X181328691Y-122904977D01*
X181270253Y-122934694D01*
X181243709Y-122948727D01*
X181183320Y-122979994D01*
X181129411Y-123005982D01*
X181086551Y-123024632D01*
X181059308Y-123033886D01*
X181053461Y-123034452D01*
X181046512Y-123028400D01*
X181035456Y-123010982D01*
X181019728Y-122980916D01*
X180998762Y-122936919D01*
X180971995Y-122877711D01*
X180938862Y-122802010D01*
X180898797Y-122708533D01*
X180851235Y-122595998D01*
X180795614Y-122463124D01*
X180731366Y-122308629D01*
X180694686Y-122220106D01*
X180638403Y-122083788D01*
X180585080Y-121953963D01*
X180535507Y-121832597D01*
X180490473Y-121721654D01*
X180450766Y-121623097D01*
X180417177Y-121538891D01*
X180390494Y-121471000D01*
X180371507Y-121421389D01*
X180361004Y-121392023D01*
X180359100Y-121384801D01*
X180370204Y-121361530D01*
X180400551Y-121334005D01*
X180413075Y-121325435D01*
X180449207Y-121301191D01*
X180496752Y-121267998D01*
X180546776Y-121232117D01*
X180558371Y-121223644D01*
X180681767Y-121118007D01*
X180785477Y-120997907D01*
X180868827Y-120865728D01*
X180931141Y-120723853D01*
X180971745Y-120574663D01*
X180989963Y-120420543D01*
X180985121Y-120263873D01*
X180956544Y-120107038D01*
X180912416Y-119973710D01*
X180872667Y-119886614D01*
X180825961Y-119808147D01*
X180767619Y-119731557D01*
X180692962Y-119650096D01*
X180676600Y-119633564D01*
X180564054Y-119533502D01*
X180446831Y-119455372D01*
X180319157Y-119395727D01*
X180225750Y-119364638D01*
X180134953Y-119345734D01*
X180028960Y-119335285D01*
X179916524Y-119333290D01*
X179806400Y-119339750D01*
X179707342Y-119354665D01*
X179666950Y-119364638D01*
X179517331Y-119420417D01*
X179379163Y-119497162D01*
X179254505Y-119592671D01*
X179145417Y-119704744D01*
X179053962Y-119831178D01*
X178982198Y-119969772D01*
X178932187Y-120118324D01*
X178922692Y-120159803D01*
X178902320Y-120319384D01*
X178906360Y-120477683D01*
X178933850Y-120632216D01*
X178983829Y-120780502D01*
X179055338Y-120920057D01*
X179147415Y-121048399D01*
X179259100Y-121163045D01*
X179334328Y-121223644D01*
X179383599Y-121259231D01*
X179432576Y-121293659D01*
X179472324Y-121320670D01*
X179479625Y-121325435D01*
X179514997Y-121353284D01*
X179532499Y-121378386D01*
X179533600Y-121384801D01*
X179528846Y-121400410D01*
X179515110Y-121437500D01*
X179493182Y-121494107D01*
X179463850Y-121568266D01*
X179427905Y-121658013D01*
X179386134Y-121761385D01*
X179339328Y-121876416D01*
X179288274Y-122001142D01*
X179233764Y-122133599D01*
X179198013Y-122220106D01*
X179129098Y-122386249D01*
X179069099Y-122530111D01*
X179017453Y-122652972D01*
X178973593Y-122756115D01*
X178936956Y-122840821D01*
X178906977Y-122908373D01*
X178883091Y-122960052D01*
X178864733Y-122997141D01*
X178851338Y-123020920D01*
X178842343Y-123032672D01*
X178839238Y-123034452D01*
X178820284Y-123029967D01*
X178783708Y-123015183D01*
X178734080Y-122992158D01*
X178675969Y-122962953D01*
X178648990Y-122948727D01*
X178588393Y-122917172D01*
X178534135Y-122890506D01*
X178490848Y-122870889D01*
X178463162Y-122860478D01*
X178457207Y-122859370D01*
X178441252Y-122866353D01*
X178407021Y-122886202D01*
X178357081Y-122917269D01*
X178293998Y-122957902D01*
X178220340Y-123006452D01*
X178138673Y-123061269D01*
X178065467Y-123111154D01*
X177978946Y-123170295D01*
X177898301Y-123225007D01*
X177826108Y-123273576D01*
X177764939Y-123314286D01*
X177717371Y-123345423D01*
X177685978Y-123365270D01*
X177674021Y-123371951D01*
X177664788Y-123371407D01*
X177649929Y-123363681D01*
X177627852Y-123347325D01*
X177596963Y-123320891D01*
X177555670Y-123282931D01*
X177502382Y-123231997D01*
X177435504Y-123166641D01*
X177353446Y-123085415D01*
X177296196Y-123028394D01*
X177218206Y-122950043D01*
X177146180Y-122876633D01*
X177082057Y-122810222D01*
X177027778Y-122752865D01*
X176985283Y-122706619D01*
X176956511Y-122673541D01*
X176943403Y-122655686D01*
X176942800Y-122653795D01*
X176949794Y-122638530D01*
X176969685Y-122604957D01*
X177000833Y-122555595D01*
X177041600Y-122492967D01*
X177090346Y-122419593D01*
X177145433Y-122337993D01*
X177198949Y-122259792D01*
X177258681Y-122172321D01*
X177313789Y-122090218D01*
X177362583Y-122016112D01*
X177403368Y-121952631D01*
X177434455Y-121902405D01*
X177454150Y-121868062D01*
X177460709Y-121853110D01*
X177458390Y-121831222D01*
X177447124Y-121790333D01*
X177426598Y-121729549D01*
X177396499Y-121647975D01*
X177356513Y-121544718D01*
X177324432Y-121463950D01*
X177288151Y-121373894D01*
X177254240Y-121290822D01*
X177224011Y-121217858D01*
X177198774Y-121158128D01*
X177179840Y-121114758D01*
X177168520Y-121090873D01*
X177166710Y-121087843D01*
X177155999Y-121080632D01*
X177132291Y-121071940D01*
X177093713Y-121061341D01*
X177038396Y-121048409D01*
X176964468Y-121032718D01*
X176870058Y-121013841D01*
X176753296Y-120991351D01*
X176694412Y-120980211D01*
X176589299Y-120960275D01*
X176491513Y-120941462D01*
X176404003Y-120924361D01*
X176329715Y-120909559D01*
X176271597Y-120897642D01*
X176232596Y-120889199D01*
X176215725Y-120884844D01*
X176210149Y-120881045D01*
X176205589Y-120873253D01*
X176201941Y-120859121D01*
X176199106Y-120836304D01*
X176196983Y-120802455D01*
X176195470Y-120755228D01*
X176194466Y-120692276D01*
X176193870Y-120611254D01*
X176193582Y-120509815D01*
X176193500Y-120385613D01*
X176193500Y-119861625D01*
X176222075Y-119849599D01*
X176240878Y-119844571D01*
X176281646Y-119835620D01*
X176341348Y-119823349D01*
X176416957Y-119808357D01*
X176505441Y-119791248D01*
X176603772Y-119772621D01*
X176700556Y-119754620D01*
X176805190Y-119734985D01*
X176902666Y-119716036D01*
X176989969Y-119698411D01*
X177064087Y-119682744D01*
X177122009Y-119669672D01*
X177160720Y-119659828D01*
X177176806Y-119654153D01*
X177188588Y-119638078D01*
X177208190Y-119602050D01*
X177234032Y-119549714D01*
X177264535Y-119484714D01*
X177298119Y-119410694D01*
X177333205Y-119331299D01*
X177368213Y-119250172D01*
X177401565Y-119170959D01*
X177431681Y-119097303D01*
X177456981Y-119032849D01*
X177475887Y-118981241D01*
X177486818Y-118946124D01*
X177488900Y-118934010D01*
X177481307Y-118912957D01*
X177458545Y-118871581D01*
X177420632Y-118809913D01*
X177367590Y-118727986D01*
X177299439Y-118625833D01*
X177216199Y-118503485D01*
X177215850Y-118502975D01*
X177154537Y-118412877D01*
X177098029Y-118328577D01*
X177047907Y-118252533D01*
X177005754Y-118187199D01*
X176973150Y-118135031D01*
X176951679Y-118098486D01*
X176942922Y-118080019D01*
X176942800Y-118079073D01*
X176951491Y-118065001D01*
X176975975Y-118035620D01*
X177013864Y-117993357D01*
X177062770Y-117940643D01*
X177120307Y-117879907D01*
X177184086Y-117813578D01*
X177251721Y-117744085D01*
X177320824Y-117673857D01*
X177389008Y-117605323D01*
X177453886Y-117540912D01*
X177513069Y-117483054D01*
X177564172Y-117434178D01*
X177604806Y-117396712D01*
X177632584Y-117373087D01*
X177643758Y-117365839D01*
X177651016Y-117363618D01*
X177658406Y-117362778D01*
X177667931Y-117364567D01*
X177681596Y-117370234D01*
X177701404Y-117381029D01*
X177729360Y-117398199D01*
X177767466Y-117422995D01*
X177817728Y-117456665D01*
X177882148Y-117500458D01*
X177962732Y-117555624D01*
X178061481Y-117623410D01*
X178105397Y-117653570D01*
X178221386Y-117732707D01*
X178317731Y-117797292D01*
X178395241Y-117847835D01*
X178454722Y-117884847D01*
X178496984Y-117908838D01*
X178522835Y-117920318D01*
X178529737Y-117921532D01*
X178549973Y-117916415D01*
X178589566Y-117902815D01*
X178644741Y-117882279D01*
X178711723Y-117856353D01*
X178786736Y-117826581D01*
X178866007Y-117794511D01*
X178945759Y-117761688D01*
X179022217Y-117729658D01*
X179091607Y-117699967D01*
X179150153Y-117674160D01*
X179194081Y-117653783D01*
X179219615Y-117640383D01*
X179223858Y-117637297D01*
X179229828Y-117621432D01*
X179239688Y-117583394D01*
X179252835Y-117526011D01*
X179268667Y-117452108D01*
X179286582Y-117364513D01*
X179305975Y-117266053D01*
X179326245Y-117159554D01*
X179329792Y-117140541D01*
X179350100Y-117032558D01*
X179369474Y-116931777D01*
X179387328Y-116841085D01*
X179403073Y-116763369D01*
X179416125Y-116701517D01*
X179425896Y-116658416D01*
X179431801Y-116636953D01*
X179432349Y-116635716D01*
X179436545Y-116629491D01*
X179443413Y-116624408D01*
X179455351Y-116620350D01*
X179474753Y-116617202D01*
X179504016Y-116614850D01*
X179545536Y-116613177D01*
X179601708Y-116612069D01*
X179674928Y-116611410D01*
X179767592Y-116611084D01*
X179882096Y-116610977D01*
X179946349Y-116610970D01*
X180072324Y-116611011D01*
G36*
X180072324Y-116611011D02*
G01*
X180175295Y-116611215D01*
X180257658Y-116611694D01*
X180321811Y-116612567D01*
X180370148Y-116613948D01*
X180405067Y-116615953D01*
X180428964Y-116618698D01*
X180444234Y-116622299D01*
X180453275Y-116626871D01*
X180458482Y-116632531D01*
X180460397Y-116635805D01*
X180465638Y-116653541D01*
X180474841Y-116693379D01*
X180487421Y-116752428D01*
X180502790Y-116827803D01*
X180520360Y-116916614D01*
X180539544Y-117015973D01*
X180559755Y-117122991D01*
X180563045Y-117140630D01*
X180583413Y-117248220D01*
X180603005Y-117348260D01*
X180621217Y-117437924D01*
X180637446Y-117514383D01*
X180651089Y-117574811D01*
X180661545Y-117616382D01*
X180668210Y-117636268D01*
X180668931Y-117637297D01*
X180685910Y-117647425D01*
X180722811Y-117665155D01*
X180775860Y-117688941D01*
X180841283Y-117717239D01*
X180915307Y-117748503D01*
X180994158Y-117781188D01*
X181074063Y-117813747D01*
X181151247Y-117844636D01*
X181221938Y-117872308D01*
X181282360Y-117895219D01*
X181328741Y-117911823D01*
X181357307Y-117920574D01*
X181362962Y-117921532D01*
X181381093Y-117915975D01*
X181415241Y-117898156D01*
X181466213Y-117867566D01*
X181534819Y-117823693D01*
X181621866Y-117766028D01*
X181728163Y-117694060D01*
X181787302Y-117653570D01*
X181893687Y-117580517D01*
X181981124Y-117520573D01*
X182051616Y-117472489D01*
X182107167Y-117435015D01*
X182149781Y-117406903D01*
X182181461Y-117386904D01*
X182204211Y-117373769D01*
X182220036Y-117366249D01*
X182230939Y-117363095D01*
X182238924Y-117363057D01*
X182245995Y-117364888D01*
X182248941Y-117365839D01*
X182265100Y-117377053D01*
X182295967Y-117403992D01*
X182339155Y-117444226D01*
X182392276Y-117495327D01*
X182452944Y-117554865D01*
X182518770Y-117620410D01*
X182587367Y-117689535D01*
X182656349Y-117759810D01*
X182723327Y-117828805D01*
X182785915Y-117894092D01*
X182841724Y-117953241D01*
X182888369Y-118003824D01*
X182923461Y-118043411D01*
X182944613Y-118069572D01*
X182949900Y-118079073D01*
X182942912Y-118095008D01*
X182923006Y-118129340D01*
X182891761Y-118179615D01*
X182850760Y-118243375D01*
X182801586Y-118318165D01*
X182745819Y-118401529D01*
X182685042Y-118491012D01*
X182676850Y-118502975D01*
X182593552Y-118625400D01*
X182525343Y-118727631D01*
X182472243Y-118809636D01*
X182434271Y-118871382D01*
X182411450Y-118912837D01*
X182403800Y-118933967D01*
X182403800Y-118934010D01*
X182408817Y-118956700D01*
X182422816Y-118998205D01*
X182444219Y-119054883D01*
X182471444Y-119123088D01*
X182502913Y-119199176D01*
X182537047Y-119279502D01*
X182572266Y-119360423D01*
X182606991Y-119438294D01*
X182639642Y-119509470D01*
X182668640Y-119570308D01*
X182692406Y-119617163D01*
X182709361Y-119646391D01*
X182715893Y-119654153D01*
X182734172Y-119660447D01*
X182774445Y-119670557D01*
X182833699Y-119683849D01*
X182908923Y-119699686D01*
X182997103Y-119717434D01*
X183095226Y-119736457D01*
X183192143Y-119754620D01*
X183296869Y-119774112D01*
X183394542Y-119792642D01*
X183482132Y-119809609D01*
X183556610Y-119824410D01*
X183614947Y-119836444D01*
X183654113Y-119845111D01*
X183670625Y-119849599D01*
X183699200Y-119861625D01*
X183699200Y-120368538D01*
X183699136Y-120495723D01*
X183698879Y-120599855D01*
X183698327Y-120683279D01*
X183697379Y-120748344D01*
X183695934Y-120797395D01*
X183693891Y-120832778D01*
X183691149Y-120856841D01*
X183687607Y-120871930D01*
X183683164Y-120880391D01*
X183677720Y-120884571D01*
X183676975Y-120884905D01*
X183659727Y-120889350D01*
X183620453Y-120897830D01*
X183562099Y-120909759D01*
X183487615Y-120924550D01*
X183399950Y-120941618D01*
X183302052Y-120960379D01*
X183198536Y-120979932D01*
X183072195Y-121003876D01*
X182968948Y-121024030D01*
X182886840Y-121040841D01*
X182823919Y-121054752D01*
X182778233Y-121066208D01*
X182747830Y-121075655D01*
X182730756Y-121083536D01*
X182726238Y-121087503D01*
X182717586Y-121104532D01*
X182700902Y-121142050D01*
X182677499Y-121196927D01*
X182648691Y-121266035D01*
X182615791Y-121346243D01*
X182580112Y-121434422D01*
X182568267Y-121463950D01*
X182521560Y-121582062D01*
X182484947Y-121677898D01*
X182458115Y-121752352D01*
X182440751Y-121806319D01*
X182432541Y-121840693D01*
X182431990Y-121853110D01*
X182440337Y-121871408D01*
X182461554Y-121907888D01*
X182493950Y-121959921D01*
X182535833Y-122024879D01*
X182585511Y-122100132D01*
X182641292Y-122183053D01*
X182693750Y-122259792D01*
X182753134Y-122346629D01*
X182807648Y-122427504D01*
X182855655Y-122499897D01*
X182895515Y-122561286D01*
X182925589Y-122609151D01*
X182944238Y-122640970D01*
X182949899Y-122653795D01*
X182941170Y-122667366D01*
X182916273Y-122696694D01*
X182877150Y-122739723D01*
X182825741Y-122794396D01*
X182763984Y-122858657D01*
X182693821Y-122930449D01*
X182617192Y-123007717D01*
X182596503Y-123028394D01*
X182504561Y-123119849D01*
X182428756Y-123194564D01*
X182367496Y-123253987D01*
X182319189Y-123299566D01*
X182282242Y-123332749D01*
X182255063Y-123354985D01*
X182236059Y-123367721D01*
X182223638Y-123372405D01*
X182218678Y-123371951D01*
X182202761Y-123362843D01*
X182168519Y-123341014D01*
X182118528Y-123308179D01*
X182055363Y-123266053D01*
X181981596Y-123216351D01*
X181899804Y-123160789D01*
X181827232Y-123111154D01*
X181740807Y-123052334D01*
X181660226Y-122998390D01*
X181588055Y-122950971D01*
X181526861Y-122911728D01*
X181479212Y-122882310D01*
X181447675Y-122864367D01*
X181435492Y-122859370D01*
X181415943Y-122865156D01*
X181378798Y-122881078D01*
X181328691Y-122904977D01*
X181270253Y-122934694D01*
X181243709Y-122948727D01*
X181183320Y-122979994D01*
X181129411Y-123005982D01*
X181086551Y-123024632D01*
X181059308Y-123033886D01*
X181053461Y-123034452D01*
X181046512Y-123028400D01*
X181035456Y-123010982D01*
X181019728Y-122980916D01*
X180998762Y-122936919D01*
X180971995Y-122877711D01*
X180938862Y-122802010D01*
X180898797Y-122708533D01*
X180851235Y-122595998D01*
X180795614Y-122463124D01*
X180731366Y-122308629D01*
X180694686Y-122220106D01*
X180638403Y-122083788D01*
X180585080Y-121953963D01*
X180535507Y-121832597D01*
X180490473Y-121721654D01*
X180450766Y-121623097D01*
X180417177Y-121538891D01*
X180390494Y-121471000D01*
X180371507Y-121421389D01*
X180361004Y-121392023D01*
X180359100Y-121384801D01*
X180370204Y-121361530D01*
X180400551Y-121334005D01*
X180413075Y-121325435D01*
X180449207Y-121301191D01*
X180496752Y-121267998D01*
X180546776Y-121232117D01*
X180558371Y-121223644D01*
X180681767Y-121118007D01*
X180785477Y-120997907D01*
X180868827Y-120865728D01*
X180931141Y-120723853D01*
X180971745Y-120574663D01*
X180989963Y-120420543D01*
X180985121Y-120263873D01*
X180956544Y-120107038D01*
X180912416Y-119973710D01*
X180872667Y-119886614D01*
X180825961Y-119808147D01*
X180767619Y-119731557D01*
X180692962Y-119650096D01*
X180676600Y-119633564D01*
X180564054Y-119533502D01*
X180446831Y-119455372D01*
X180319157Y-119395727D01*
X180225750Y-119364638D01*
X180134953Y-119345734D01*
X180028960Y-119335285D01*
X179916524Y-119333290D01*
X179806400Y-119339750D01*
X179707342Y-119354665D01*
X179666950Y-119364638D01*
X179517331Y-119420417D01*
X179379163Y-119497162D01*
X179254505Y-119592671D01*
X179145417Y-119704744D01*
X179053962Y-119831178D01*
X178982198Y-119969772D01*
X178932187Y-120118324D01*
X178922692Y-120159803D01*
X178902320Y-120319384D01*
X178906360Y-120477683D01*
X178933850Y-120632216D01*
X178983829Y-120780502D01*
X179055338Y-120920057D01*
X179147415Y-121048399D01*
X179259100Y-121163045D01*
X179334328Y-121223644D01*
X179383599Y-121259231D01*
X179432576Y-121293659D01*
X179472324Y-121320670D01*
X179479625Y-121325435D01*
X179514997Y-121353284D01*
X179532499Y-121378386D01*
X179533600Y-121384801D01*
X179528846Y-121400410D01*
X179515110Y-121437500D01*
X179493182Y-121494107D01*
X179463850Y-121568266D01*
X179427905Y-121658013D01*
X179386134Y-121761385D01*
X179339328Y-121876416D01*
X179288274Y-122001142D01*
X179233764Y-122133599D01*
X179198013Y-122220106D01*
X179129098Y-122386249D01*
X179069099Y-122530111D01*
X179017453Y-122652972D01*
X178973593Y-122756115D01*
X178936956Y-122840821D01*
X178906977Y-122908373D01*
X178883091Y-122960052D01*
X178864733Y-122997141D01*
X178851338Y-123020920D01*
X178842343Y-123032672D01*
X178839238Y-123034452D01*
X178820284Y-123029967D01*
X178783708Y-123015183D01*
X178734080Y-122992158D01*
X178675969Y-122962953D01*
X178648990Y-122948727D01*
X178588393Y-122917172D01*
X178534135Y-122890506D01*
X178490848Y-122870889D01*
X178463162Y-122860478D01*
X178457207Y-122859370D01*
X178441252Y-122866353D01*
X178407021Y-122886202D01*
X178357081Y-122917269D01*
X178293998Y-122957902D01*
X178220340Y-123006452D01*
X178138673Y-123061269D01*
X178065467Y-123111154D01*
X177978946Y-123170295D01*
X177898301Y-123225007D01*
X177826108Y-123273576D01*
X177764939Y-123314286D01*
X177717371Y-123345423D01*
X177685978Y-123365270D01*
X177674021Y-123371951D01*
X177664788Y-123371407D01*
X177649929Y-123363681D01*
X177627852Y-123347325D01*
X177596963Y-123320891D01*
X177555670Y-123282931D01*
X177502382Y-123231997D01*
X177435504Y-123166641D01*
X177353446Y-123085415D01*
X177296196Y-123028394D01*
X177218206Y-122950043D01*
X177146180Y-122876633D01*
X177082057Y-122810222D01*
X177027778Y-122752865D01*
X176985283Y-122706619D01*
X176956511Y-122673541D01*
X176943403Y-122655686D01*
X176942800Y-122653795D01*
X176949794Y-122638530D01*
X176969685Y-122604957D01*
X177000833Y-122555595D01*
X177041600Y-122492967D01*
X177090346Y-122419593D01*
X177145433Y-122337993D01*
X177198949Y-122259792D01*
X177258681Y-122172321D01*
X177313789Y-122090218D01*
X177362583Y-122016112D01*
X177403368Y-121952631D01*
X177434455Y-121902405D01*
X177454150Y-121868062D01*
X177460709Y-121853110D01*
X177458390Y-121831222D01*
X177447124Y-121790333D01*
X177426598Y-121729549D01*
X177396499Y-121647975D01*
X177356513Y-121544718D01*
X177324432Y-121463950D01*
X177288151Y-121373894D01*
X177254240Y-121290822D01*
X177224011Y-121217858D01*
X177198774Y-121158128D01*
X177179840Y-121114758D01*
X177168520Y-121090873D01*
X177166710Y-121087843D01*
X177155999Y-121080632D01*
X177132291Y-121071940D01*
X177093713Y-121061341D01*
X177038396Y-121048409D01*
X176964468Y-121032718D01*
X176870058Y-121013841D01*
X176753296Y-120991351D01*
X176694412Y-120980211D01*
X176589299Y-120960275D01*
X176491513Y-120941462D01*
X176404003Y-120924361D01*
X176329715Y-120909559D01*
X176271597Y-120897642D01*
X176232596Y-120889199D01*
X176215725Y-120884844D01*
X176210149Y-120881045D01*
X176205589Y-120873253D01*
X176201941Y-120859121D01*
X176199106Y-120836304D01*
X176196983Y-120802455D01*
X176195470Y-120755228D01*
X176194466Y-120692276D01*
X176193870Y-120611254D01*
X176193582Y-120509815D01*
X176193500Y-120385613D01*
X176193500Y-119861625D01*
X176222075Y-119849599D01*
X176240878Y-119844571D01*
X176281646Y-119835620D01*
X176341348Y-119823349D01*
X176416957Y-119808357D01*
X176505441Y-119791248D01*
X176603772Y-119772621D01*
X176700556Y-119754620D01*
X176805190Y-119734985D01*
X176902666Y-119716036D01*
X176989969Y-119698411D01*
X177064087Y-119682744D01*
X177122009Y-119669672D01*
X177160720Y-119659828D01*
X177176806Y-119654153D01*
X177188588Y-119638078D01*
X177208190Y-119602050D01*
X177234032Y-119549714D01*
X177264535Y-119484714D01*
X177298119Y-119410694D01*
X177333205Y-119331299D01*
X177368213Y-119250172D01*
X177401565Y-119170959D01*
X177431681Y-119097303D01*
X177456981Y-119032849D01*
X177475887Y-118981241D01*
X177486818Y-118946124D01*
X177488900Y-118934010D01*
X177481307Y-118912957D01*
X177458545Y-118871581D01*
X177420632Y-118809913D01*
X177367590Y-118727986D01*
X177299439Y-118625833D01*
X177216199Y-118503485D01*
X177215850Y-118502975D01*
X177154537Y-118412877D01*
X177098029Y-118328577D01*
X177047907Y-118252533D01*
X177005754Y-118187199D01*
X176973150Y-118135031D01*
X176951679Y-118098486D01*
X176942922Y-118080019D01*
X176942800Y-118079073D01*
X176951491Y-118065001D01*
X176975975Y-118035620D01*
X177013864Y-117993357D01*
X177062770Y-117940643D01*
X177120307Y-117879907D01*
X177184086Y-117813578D01*
X177251721Y-117744085D01*
X177320824Y-117673857D01*
X177389008Y-117605323D01*
X177453886Y-117540912D01*
X177513069Y-117483054D01*
X177564172Y-117434178D01*
X177604806Y-117396712D01*
X177632584Y-117373087D01*
X177643758Y-117365839D01*
X177651016Y-117363618D01*
X177658406Y-117362778D01*
X177667931Y-117364567D01*
X177681596Y-117370234D01*
X177701404Y-117381029D01*
X177729360Y-117398199D01*
X177767466Y-117422995D01*
X177817728Y-117456665D01*
X177882148Y-117500458D01*
X177962732Y-117555624D01*
X178061481Y-117623410D01*
X178105397Y-117653570D01*
X178221386Y-117732707D01*
X178317731Y-117797292D01*
X178395241Y-117847835D01*
X178454722Y-117884847D01*
X178496984Y-117908838D01*
X178522835Y-117920318D01*
X178529737Y-117921532D01*
X178549973Y-117916415D01*
X178589566Y-117902815D01*
X178644741Y-117882279D01*
X178711723Y-117856353D01*
X178786736Y-117826581D01*
X178866007Y-117794511D01*
X178945759Y-117761688D01*
X179022217Y-117729658D01*
X179091607Y-117699967D01*
X179150153Y-117674160D01*
X179194081Y-117653783D01*
X179219615Y-117640383D01*
X179223858Y-117637297D01*
X179229828Y-117621432D01*
X179239688Y-117583394D01*
X179252835Y-117526011D01*
X179268667Y-117452108D01*
X179286582Y-117364513D01*
X179305975Y-117266053D01*
X179326245Y-117159554D01*
X179329792Y-117140541D01*
X179350100Y-117032558D01*
X179369474Y-116931777D01*
X179387328Y-116841085D01*
X179403073Y-116763369D01*
X179416125Y-116701517D01*
X179425896Y-116658416D01*
X179431801Y-116636953D01*
X179432349Y-116635716D01*
X179436545Y-116629491D01*
X179443413Y-116624408D01*
X179455351Y-116620350D01*
X179474753Y-116617202D01*
X179504016Y-116614850D01*
X179545536Y-116613177D01*
X179601708Y-116612069D01*
X179674928Y-116611410D01*
X179767592Y-116611084D01*
X179882096Y-116610977D01*
X179946349Y-116610970D01*
X180072324Y-116611011D01*
G37*
X176644301Y-124155783D02*
X176664543Y-124160415D01*
X176752124Y-124194279D01*
X176821985Y-124246198D01*
X176873590Y-124315650D01*
X176904396Y-124394263D01*
X176911305Y-124435853D01*
X176916102Y-124496623D01*
X176918838Y-124570606D01*
X176919565Y-124651834D01*
X176918333Y-124734338D01*
X176915193Y-124812150D01*
X176910197Y-124879302D01*
X176903396Y-124929825D01*
X176899677Y-124945834D01*
X176864590Y-125025079D01*
X176812174Y-125089069D01*
X176746298Y-125136542D01*
X176670832Y-125166233D01*
X176589644Y-125176881D01*
X176506605Y-125167222D01*
X176425583Y-125135992D01*
X176388256Y-125112764D01*
X176326850Y-125069099D01*
X176323485Y-125452062D01*
X176322825Y-125548091D01*
X176322575Y-125635679D01*
X176322716Y-125711668D01*
X176323228Y-125772900D01*
X176324094Y-125816218D01*
X176325294Y-125838464D01*
X176325819Y-125840722D01*
X176338145Y-125836983D01*
X176363195Y-125821105D01*
X176379983Y-125808614D01*
X176445394Y-125767972D01*
X176515713Y-125746955D01*
X176580482Y-125742270D01*
X176671731Y-125753308D01*
X176752427Y-125785510D01*
X176813939Y-125832298D01*
X176839722Y-125858511D01*
X176860481Y-125882210D01*
X176876791Y-125906443D01*
X176889226Y-125934253D01*
X176898357Y-125968687D01*
X176904760Y-126012791D01*
X176909006Y-126069610D01*
X176911671Y-126142190D01*
X176913326Y-126233577D01*
X176914546Y-126346816D01*
X176914744Y-126367745D01*
X176918439Y-126758270D01*
X176714200Y-126758270D01*
X176714180Y-126424895D01*
X176713909Y-126314654D01*
X176712752Y-126226742D01*
X176710173Y-126158089D01*
X176705634Y-126105628D01*
X176698598Y-126066289D01*
X176688527Y-126037003D01*
X176674884Y-126014701D01*
X176657132Y-125996315D01*
X176636275Y-125979901D01*
X176580671Y-125953717D01*
X176517894Y-125947088D01*
X176454937Y-125958685D01*
X176398792Y-125987184D01*
X176356451Y-126031257D01*
X176355208Y-126033221D01*
X176346689Y-126047940D01*
X176340019Y-126063595D01*
X176334926Y-126083422D01*
X176331140Y-126110655D01*
X176328388Y-126148531D01*
X176326401Y-126200285D01*
X176324907Y-126269151D01*
X176323635Y-126358366D01*
X176322917Y-126418545D01*
X176318985Y-126758270D01*
X176117300Y-126758270D01*
X176117300Y-124677672D01*
X176319642Y-124677672D01*
X176325249Y-124758525D01*
X176339579Y-124831915D01*
X176362681Y-124891559D01*
X176379381Y-124916512D01*
X176421200Y-124948220D01*
X176477001Y-124966342D01*
X176538816Y-124970070D01*
X176598677Y-124958596D01*
X176633345Y-124942241D01*
X176660581Y-124921671D01*
X176680428Y-124896568D01*
X176693982Y-124862823D01*
X176702339Y-124816323D01*
X176706595Y-124752960D01*
X176707846Y-124668622D01*
X176707850Y-124662770D01*
X176707440Y-124588138D01*
X176705865Y-124534128D01*
X176702605Y-124495973D01*
X176697138Y-124468903D01*
X176688946Y-124448149D01*
X176683341Y-124438115D01*
X176646547Y-124393970D01*
X176598725Y-124368247D01*
X176535841Y-124359248D01*
X176498641Y-124360404D01*
X176451676Y-124365359D01*
X176421087Y-124374154D01*
X176397851Y-124390301D01*
X176383440Y-124405255D01*
X176354656Y-124453146D01*
X176334395Y-124518700D01*
X176322707Y-124595636D01*
X176319642Y-124677672D01*
X176117300Y-124677672D01*
X176117300Y-124154770D01*
X176320500Y-124154770D01*
X176320500Y-124204711D01*
X176320499Y-124254652D01*
X176383910Y-124211980D01*
X176468212Y-124168226D01*
X176554500Y-124149587D01*
X176644301Y-124155783D01*
G36*
X176644301Y-124155783D02*
G01*
X176664543Y-124160415D01*
X176752124Y-124194279D01*
X176821985Y-124246198D01*
X176873590Y-124315650D01*
X176904396Y-124394263D01*
X176911305Y-124435853D01*
X176916102Y-124496623D01*
X176918838Y-124570606D01*
X176919565Y-124651834D01*
X176918333Y-124734338D01*
X176915193Y-124812150D01*
X176910197Y-124879302D01*
X176903396Y-124929825D01*
X176899677Y-124945834D01*
X176864590Y-125025079D01*
X176812174Y-125089069D01*
X176746298Y-125136542D01*
X176670832Y-125166233D01*
X176589644Y-125176881D01*
X176506605Y-125167222D01*
X176425583Y-125135992D01*
X176388256Y-125112764D01*
X176326850Y-125069099D01*
X176323485Y-125452062D01*
X176322825Y-125548091D01*
X176322575Y-125635679D01*
X176322716Y-125711668D01*
X176323228Y-125772900D01*
X176324094Y-125816218D01*
X176325294Y-125838464D01*
X176325819Y-125840722D01*
X176338145Y-125836983D01*
X176363195Y-125821105D01*
X176379983Y-125808614D01*
X176445394Y-125767972D01*
X176515713Y-125746955D01*
X176580482Y-125742270D01*
X176671731Y-125753308D01*
X176752427Y-125785510D01*
X176813939Y-125832298D01*
X176839722Y-125858511D01*
X176860481Y-125882210D01*
X176876791Y-125906443D01*
X176889226Y-125934253D01*
X176898357Y-125968687D01*
X176904760Y-126012791D01*
X176909006Y-126069610D01*
X176911671Y-126142190D01*
X176913326Y-126233577D01*
X176914546Y-126346816D01*
X176914744Y-126367745D01*
X176918439Y-126758270D01*
X176714200Y-126758270D01*
X176714180Y-126424895D01*
X176713909Y-126314654D01*
X176712752Y-126226742D01*
X176710173Y-126158089D01*
X176705634Y-126105628D01*
X176698598Y-126066289D01*
X176688527Y-126037003D01*
X176674884Y-126014701D01*
X176657132Y-125996315D01*
X176636275Y-125979901D01*
X176580671Y-125953717D01*
X176517894Y-125947088D01*
X176454937Y-125958685D01*
X176398792Y-125987184D01*
X176356451Y-126031257D01*
X176355208Y-126033221D01*
X176346689Y-126047940D01*
X176340019Y-126063595D01*
X176334926Y-126083422D01*
X176331140Y-126110655D01*
X176328388Y-126148531D01*
X176326401Y-126200285D01*
X176324907Y-126269151D01*
X176323635Y-126358366D01*
X176322917Y-126418545D01*
X176318985Y-126758270D01*
X176117300Y-126758270D01*
X176117300Y-124677672D01*
X176319642Y-124677672D01*
X176325249Y-124758525D01*
X176339579Y-124831915D01*
X176362681Y-124891559D01*
X176379381Y-124916512D01*
X176421200Y-124948220D01*
X176477001Y-124966342D01*
X176538816Y-124970070D01*
X176598677Y-124958596D01*
X176633345Y-124942241D01*
X176660581Y-124921671D01*
X176680428Y-124896568D01*
X176693982Y-124862823D01*
X176702339Y-124816323D01*
X176706595Y-124752960D01*
X176707846Y-124668622D01*
X176707850Y-124662770D01*
X176707440Y-124588138D01*
X176705865Y-124534128D01*
X176702605Y-124495973D01*
X176697138Y-124468903D01*
X176688946Y-124448149D01*
X176683341Y-124438115D01*
X176646547Y-124393970D01*
X176598725Y-124368247D01*
X176535841Y-124359248D01*
X176498641Y-124360404D01*
X176451676Y-124365359D01*
X176421087Y-124374154D01*
X176397851Y-124390301D01*
X176383440Y-124405255D01*
X176354656Y-124453146D01*
X176334395Y-124518700D01*
X176322707Y-124595636D01*
X176319642Y-124677672D01*
X176117300Y-124677672D01*
X176117300Y-124154770D01*
X176320500Y-124154770D01*
X176320500Y-124204711D01*
X176320499Y-124254652D01*
X176383910Y-124211980D01*
X176468212Y-124168226D01*
X176554500Y-124149587D01*
X176644301Y-124155783D01*
G37*
X180595760Y-126097385D02*
X180624552Y-126185204D01*
X180651163Y-126264069D01*
X180674542Y-126331048D01*
X180693640Y-126383210D01*
X180707406Y-126417624D01*
X180714790Y-126431359D01*
X180715427Y-126431347D01*
X180720930Y-126416938D01*
X180731999Y-126381347D01*
X180747664Y-126327935D01*
X180766953Y-126260066D01*
X180788897Y-126181100D01*
X180809872Y-126104220D01*
X180833311Y-126017821D01*
X180854784Y-125939140D01*
X180873339Y-125871620D01*
X180888027Y-125818708D01*
X180897897Y-125783848D01*
X180901840Y-125770845D01*
X180916135Y-125762001D01*
X180951975Y-125756794D01*
X181011134Y-125754976D01*
X181015867Y-125754970D01*
X181070746Y-125755956D01*
X181103519Y-125759250D01*
X181117417Y-125765354D01*
X181117944Y-125770845D01*
X181112423Y-125787373D01*
X181100471Y-125824152D01*
X181083363Y-125877227D01*
X181062371Y-125942646D01*
X181038771Y-126016453D01*
X181035080Y-126028020D01*
X181004244Y-126124668D01*
X180969000Y-126235133D01*
X180932661Y-126349035D01*
X180898538Y-126455992D01*
X180880098Y-126513795D01*
X180802106Y-126758270D01*
X180618771Y-126758270D01*
X180518215Y-126420942D01*
X180491710Y-126332804D01*
X180467234Y-126252896D01*
X180445795Y-126184381D01*
X180428395Y-126130421D01*
X180416039Y-126094181D01*
X180409732Y-126078822D01*
X180409466Y-126078552D01*
X180403888Y-126088881D01*
X180392218Y-126120569D01*
X180375444Y-126170580D01*
X180354553Y-126235880D01*
X180330536Y-126313433D01*
X180304378Y-126400204D01*
X180300664Y-126412704D01*
X180200055Y-126751920D01*
X180107944Y-126755655D01*
X180054929Y-126756246D01*
X180023566Y-126752452D01*
X180010413Y-126743827D01*
X180010059Y-126742955D01*
X180002822Y-126721230D01*
X179989352Y-126679717D01*
X179970643Y-126621542D01*
X179947686Y-126549832D01*
X179921474Y-126467714D01*
X179892999Y-126378317D01*
X179863256Y-126284767D01*
X179833235Y-126190192D01*
X179803930Y-126097718D01*
X179776333Y-126010474D01*
X179751437Y-125931586D01*
X179730235Y-125864182D01*
X179713719Y-125811388D01*
X179702882Y-125776333D01*
X179698716Y-125762144D01*
X179698700Y-125762018D01*
X179710424Y-125758825D01*
X179741698Y-125756386D01*
X179786675Y-125755085D01*
X179806053Y-125754970D01*
X179913406Y-125754970D01*
X179924657Y-125796245D01*
X179931061Y-125819852D01*
X179943019Y-125864040D01*
X179959464Y-125924868D01*
X179979333Y-125998393D01*
X180001559Y-126080674D01*
X180017329Y-126139072D01*
X180040017Y-126222179D01*
X180060784Y-126296504D01*
X180078666Y-126358733D01*
X180092697Y-126405552D01*
X180101912Y-126433649D01*
X180105100Y-126440443D01*
X180110467Y-126428798D01*
X180122469Y-126396004D01*
X180140065Y-126345123D01*
X180162216Y-126279218D01*
X180187880Y-126201353D01*
X180216019Y-126114590D01*
X180220455Y-126100790D01*
X180329461Y-125761320D01*
X180407053Y-125757557D01*
X180484646Y-125753795D01*
X180595760Y-126097385D01*
G36*
X180595760Y-126097385D02*
G01*
X180624552Y-126185204D01*
X180651163Y-126264069D01*
X180674542Y-126331048D01*
X180693640Y-126383210D01*
X180707406Y-126417624D01*
X180714790Y-126431359D01*
X180715427Y-126431347D01*
X180720930Y-126416938D01*
X180731999Y-126381347D01*
X180747664Y-126327935D01*
X180766953Y-126260066D01*
X180788897Y-126181100D01*
X180809872Y-126104220D01*
X180833311Y-126017821D01*
X180854784Y-125939140D01*
X180873339Y-125871620D01*
X180888027Y-125818708D01*
X180897897Y-125783848D01*
X180901840Y-125770845D01*
X180916135Y-125762001D01*
X180951975Y-125756794D01*
X181011134Y-125754976D01*
X181015867Y-125754970D01*
X181070746Y-125755956D01*
X181103519Y-125759250D01*
X181117417Y-125765354D01*
X181117944Y-125770845D01*
X181112423Y-125787373D01*
X181100471Y-125824152D01*
X181083363Y-125877227D01*
X181062371Y-125942646D01*
X181038771Y-126016453D01*
X181035080Y-126028020D01*
X181004244Y-126124668D01*
X180969000Y-126235133D01*
X180932661Y-126349035D01*
X180898538Y-126455992D01*
X180880098Y-126513795D01*
X180802106Y-126758270D01*
X180618771Y-126758270D01*
X180518215Y-126420942D01*
X180491710Y-126332804D01*
X180467234Y-126252896D01*
X180445795Y-126184381D01*
X180428395Y-126130421D01*
X180416039Y-126094181D01*
X180409732Y-126078822D01*
X180409466Y-126078552D01*
X180403888Y-126088881D01*
X180392218Y-126120569D01*
X180375444Y-126170580D01*
X180354553Y-126235880D01*
X180330536Y-126313433D01*
X180304378Y-126400204D01*
X180300664Y-126412704D01*
X180200055Y-126751920D01*
X180107944Y-126755655D01*
X180054929Y-126756246D01*
X180023566Y-126752452D01*
X180010413Y-126743827D01*
X180010059Y-126742955D01*
X180002822Y-126721230D01*
X179989352Y-126679717D01*
X179970643Y-126621542D01*
X179947686Y-126549832D01*
X179921474Y-126467714D01*
X179892999Y-126378317D01*
X179863256Y-126284767D01*
X179833235Y-126190192D01*
X179803930Y-126097718D01*
X179776333Y-126010474D01*
X179751437Y-125931586D01*
X179730235Y-125864182D01*
X179713719Y-125811388D01*
X179702882Y-125776333D01*
X179698716Y-125762144D01*
X179698700Y-125762018D01*
X179710424Y-125758825D01*
X179741698Y-125756386D01*
X179786675Y-125755085D01*
X179806053Y-125754970D01*
X179913406Y-125754970D01*
X179924657Y-125796245D01*
X179931061Y-125819852D01*
X179943019Y-125864040D01*
X179959464Y-125924868D01*
X179979333Y-125998393D01*
X180001559Y-126080674D01*
X180017329Y-126139072D01*
X180040017Y-126222179D01*
X180060784Y-126296504D01*
X180078666Y-126358733D01*
X180092697Y-126405552D01*
X180101912Y-126433649D01*
X180105100Y-126440443D01*
X180110467Y-126428798D01*
X180122469Y-126396004D01*
X180140065Y-126345123D01*
X180162216Y-126279218D01*
X180187880Y-126201353D01*
X180216019Y-126114590D01*
X180220455Y-126100790D01*
X180329461Y-125761320D01*
X180407053Y-125757557D01*
X180484646Y-125753795D01*
X180595760Y-126097385D01*
G37*
X181600611Y-125744978D02*
X181681197Y-125754388D01*
X181722850Y-125763697D01*
X181790513Y-125792166D01*
X181851617Y-125835305D01*
X181900183Y-125887750D01*
X181930232Y-125944139D01*
X181932561Y-125951820D01*
X181936859Y-125981075D01*
X181940455Y-126033613D01*
X181943281Y-126107326D01*
X181945268Y-126200106D01*
X181946346Y-126309842D01*
X181946529Y-126380445D01*
X181946600Y-126758270D01*
X181743400Y-126758270D01*
X181743400Y-126679812D01*
X181704905Y-126712202D01*
X181665609Y-126737988D01*
X181622188Y-126756834D01*
X181619180Y-126757711D01*
X181575379Y-126765239D01*
X181518377Y-126768995D01*
X181458291Y-126768921D01*
X181405235Y-126764961D01*
X181375100Y-126759093D01*
X181323190Y-126738566D01*
X181270814Y-126710339D01*
X181228147Y-126680228D01*
X181214660Y-126667430D01*
X181170357Y-126601608D01*
X181145072Y-126526335D01*
X181139574Y-126456645D01*
X181337403Y-126456645D01*
X181347714Y-126506449D01*
X181377144Y-126543077D01*
X181416051Y-126560602D01*
X181451474Y-126568495D01*
X181470350Y-126572926D01*
X181507406Y-126576674D01*
X181556819Y-126575157D01*
X181609357Y-126569414D01*
X181655788Y-126560484D01*
X181686880Y-126549407D01*
X181688566Y-126548370D01*
X181719607Y-126517336D01*
X181737361Y-126471536D01*
X181743378Y-126406833D01*
X181743400Y-126401843D01*
X181743400Y-126339170D01*
X181583815Y-126339170D01*
X181497498Y-126340937D01*
X181433354Y-126347208D01*
X181388342Y-126359432D01*
X181359416Y-126379060D01*
X181343536Y-126407543D01*
X181337659Y-126446331D01*
X181337403Y-126456645D01*
X181139574Y-126456645D01*
X181138834Y-126447277D01*
X181151671Y-126370100D01*
X181183609Y-126300470D01*
X181212682Y-126263918D01*
X181249781Y-126229724D01*
X181288291Y-126204374D01*
X181332951Y-126186483D01*
X181388502Y-126174667D01*
X181459685Y-126167541D01*
X181551238Y-126163719D01*
X181556075Y-126163599D01*
X181743400Y-126159040D01*
X181743400Y-126085412D01*
X181739717Y-126030973D01*
X181727882Y-125995689D01*
X181721175Y-125986406D01*
X181681977Y-125958463D01*
X181626789Y-125940550D01*
X181562604Y-125932641D01*
X181496416Y-125934712D01*
X181435218Y-125946738D01*
X181386004Y-125968695D01*
X181364250Y-125987675D01*
X181353524Y-125996873D01*
X181339894Y-125996593D01*
X181318219Y-125984778D01*
X181283356Y-125959366D01*
X181272175Y-125950800D01*
X181236010Y-125921660D01*
X181209438Y-125897749D01*
X181197513Y-125883662D01*
X181197300Y-125882705D01*
X181207725Y-125863134D01*
X181234867Y-125837101D01*
X181272524Y-125809099D01*
X181314495Y-125783616D01*
X181354579Y-125765143D01*
X181363948Y-125762036D01*
X181431971Y-125748756D01*
X181514197Y-125743086D01*
X181600611Y-125744978D01*
G36*
X181600611Y-125744978D02*
G01*
X181681197Y-125754388D01*
X181722850Y-125763697D01*
X181790513Y-125792166D01*
X181851617Y-125835305D01*
X181900183Y-125887750D01*
X181930232Y-125944139D01*
X181932561Y-125951820D01*
X181936859Y-125981075D01*
X181940455Y-126033613D01*
X181943281Y-126107326D01*
X181945268Y-126200106D01*
X181946346Y-126309842D01*
X181946529Y-126380445D01*
X181946600Y-126758270D01*
X181743400Y-126758270D01*
X181743400Y-126679812D01*
X181704905Y-126712202D01*
X181665609Y-126737988D01*
X181622188Y-126756834D01*
X181619180Y-126757711D01*
X181575379Y-126765239D01*
X181518377Y-126768995D01*
X181458291Y-126768921D01*
X181405235Y-126764961D01*
X181375100Y-126759093D01*
X181323190Y-126738566D01*
X181270814Y-126710339D01*
X181228147Y-126680228D01*
X181214660Y-126667430D01*
X181170357Y-126601608D01*
X181145072Y-126526335D01*
X181139574Y-126456645D01*
X181337403Y-126456645D01*
X181347714Y-126506449D01*
X181377144Y-126543077D01*
X181416051Y-126560602D01*
X181451474Y-126568495D01*
X181470350Y-126572926D01*
X181507406Y-126576674D01*
X181556819Y-126575157D01*
X181609357Y-126569414D01*
X181655788Y-126560484D01*
X181686880Y-126549407D01*
X181688566Y-126548370D01*
X181719607Y-126517336D01*
X181737361Y-126471536D01*
X181743378Y-126406833D01*
X181743400Y-126401843D01*
X181743400Y-126339170D01*
X181583815Y-126339170D01*
X181497498Y-126340937D01*
X181433354Y-126347208D01*
X181388342Y-126359432D01*
X181359416Y-126379060D01*
X181343536Y-126407543D01*
X181337659Y-126446331D01*
X181337403Y-126456645D01*
X181139574Y-126456645D01*
X181138834Y-126447277D01*
X181151671Y-126370100D01*
X181183609Y-126300470D01*
X181212682Y-126263918D01*
X181249781Y-126229724D01*
X181288291Y-126204374D01*
X181332951Y-126186483D01*
X181388502Y-126174667D01*
X181459685Y-126167541D01*
X181551238Y-126163719D01*
X181556075Y-126163599D01*
X181743400Y-126159040D01*
X181743400Y-126085412D01*
X181739717Y-126030973D01*
X181727882Y-125995689D01*
X181721175Y-125986406D01*
X181681977Y-125958463D01*
X181626789Y-125940550D01*
X181562604Y-125932641D01*
X181496416Y-125934712D01*
X181435218Y-125946738D01*
X181386004Y-125968695D01*
X181364250Y-125987675D01*
X181353524Y-125996873D01*
X181339894Y-125996593D01*
X181318219Y-125984778D01*
X181283356Y-125959366D01*
X181272175Y-125950800D01*
X181236010Y-125921660D01*
X181209438Y-125897749D01*
X181197513Y-125883662D01*
X181197300Y-125882705D01*
X181207725Y-125863134D01*
X181234867Y-125837101D01*
X181272524Y-125809099D01*
X181314495Y-125783616D01*
X181354579Y-125765143D01*
X181363948Y-125762036D01*
X181431971Y-125748756D01*
X181514197Y-125743086D01*
X181600611Y-125744978D01*
G37*
X179957779Y-124155778D02*
X180054891Y-124177529D01*
X180146692Y-124214206D01*
X180203438Y-124247467D01*
X180229767Y-124267799D01*
X180243934Y-124283535D01*
X180244713Y-124286094D01*
X180237053Y-124300398D01*
X180216833Y-124327921D01*
X180188327Y-124362865D01*
X180186546Y-124364955D01*
X180128293Y-124433141D01*
X180057793Y-124393354D01*
X179995163Y-124366624D01*
X179924333Y-124350024D01*
X179853252Y-124344331D01*
X179789870Y-124350321D01*
X179751220Y-124363430D01*
X179711626Y-124394411D01*
X179691068Y-124432859D01*
X179690077Y-124472950D01*
X179709186Y-124508855D01*
X179736094Y-124529055D01*
X179763803Y-124538003D01*
X179809865Y-124547269D01*
X179867277Y-124555614D01*
X179914883Y-124560642D01*
X180016031Y-124573410D01*
X180095518Y-124592728D01*
X180156529Y-124619875D01*
X180202251Y-124656127D01*
X180225300Y-124685212D01*
X180258470Y-124756736D01*
X180272872Y-124837720D01*
X180268097Y-124920069D01*
X180243737Y-124995688D01*
X180241241Y-125000609D01*
X180196392Y-125060294D01*
X180131854Y-125109191D01*
X180051525Y-125145938D01*
X179959303Y-125169171D01*
X179859086Y-125177528D01*
X179756866Y-125169970D01*
X179704004Y-125157868D01*
X179643786Y-125138272D01*
X179600057Y-125120246D01*
X179552669Y-125095750D01*
X179506273Y-125067856D01*
X179465773Y-125040031D01*
X179436074Y-125015738D01*
X179422082Y-124998443D01*
X179421919Y-124994392D01*
X179432469Y-124982233D01*
X179456692Y-124958059D01*
X179489482Y-124926955D01*
X179491630Y-124924961D01*
X179557610Y-124863793D01*
X179615315Y-124903496D01*
X179692700Y-124947739D01*
X179771320Y-124972311D01*
X179861097Y-124980254D01*
X179865804Y-124980270D01*
X179948156Y-124974292D01*
X180008434Y-124956194D01*
X180047017Y-124925728D01*
X180064285Y-124882646D01*
X180064585Y-124850763D01*
X180056943Y-124819693D01*
X180038830Y-124796204D01*
X180006872Y-124778727D01*
X179957695Y-124765696D01*
X179887923Y-124755542D01*
X179851506Y-124751742D01*
X179751133Y-124738546D01*
X179672040Y-124719793D01*
X179610483Y-124694292D01*
X179562719Y-124660847D01*
X179560657Y-124658974D01*
X179518145Y-124603642D01*
X179492318Y-124535093D01*
X179483395Y-124459454D01*
X179491598Y-124382850D01*
X179517147Y-124311408D01*
X179546513Y-124266475D01*
X179604195Y-124215501D01*
X179678562Y-124178816D01*
X179765214Y-124156549D01*
X179859753Y-124148828D01*
X179957779Y-124155778D01*
G36*
X179957779Y-124155778D02*
G01*
X180054891Y-124177529D01*
X180146692Y-124214206D01*
X180203438Y-124247467D01*
X180229767Y-124267799D01*
X180243934Y-124283535D01*
X180244713Y-124286094D01*
X180237053Y-124300398D01*
X180216833Y-124327921D01*
X180188327Y-124362865D01*
X180186546Y-124364955D01*
X180128293Y-124433141D01*
X180057793Y-124393354D01*
X179995163Y-124366624D01*
X179924333Y-124350024D01*
X179853252Y-124344331D01*
X179789870Y-124350321D01*
X179751220Y-124363430D01*
X179711626Y-124394411D01*
X179691068Y-124432859D01*
X179690077Y-124472950D01*
X179709186Y-124508855D01*
X179736094Y-124529055D01*
X179763803Y-124538003D01*
X179809865Y-124547269D01*
X179867277Y-124555614D01*
X179914883Y-124560642D01*
X180016031Y-124573410D01*
X180095518Y-124592728D01*
X180156529Y-124619875D01*
X180202251Y-124656127D01*
X180225300Y-124685212D01*
X180258470Y-124756736D01*
X180272872Y-124837720D01*
X180268097Y-124920069D01*
X180243737Y-124995688D01*
X180241241Y-125000609D01*
X180196392Y-125060294D01*
X180131854Y-125109191D01*
X180051525Y-125145938D01*
X179959303Y-125169171D01*
X179859086Y-125177528D01*
X179756866Y-125169970D01*
X179704004Y-125157868D01*
X179643786Y-125138272D01*
X179600057Y-125120246D01*
X179552669Y-125095750D01*
X179506273Y-125067856D01*
X179465773Y-125040031D01*
X179436074Y-125015738D01*
X179422082Y-124998443D01*
X179421919Y-124994392D01*
X179432469Y-124982233D01*
X179456692Y-124958059D01*
X179489482Y-124926955D01*
X179491630Y-124924961D01*
X179557610Y-124863793D01*
X179615315Y-124903496D01*
X179692700Y-124947739D01*
X179771320Y-124972311D01*
X179861097Y-124980254D01*
X179865804Y-124980270D01*
X179948156Y-124974292D01*
X180008434Y-124956194D01*
X180047017Y-124925728D01*
X180064285Y-124882646D01*
X180064585Y-124850763D01*
X180056943Y-124819693D01*
X180038830Y-124796204D01*
X180006872Y-124778727D01*
X179957695Y-124765696D01*
X179887923Y-124755542D01*
X179851506Y-124751742D01*
X179751133Y-124738546D01*
X179672040Y-124719793D01*
X179610483Y-124694292D01*
X179562719Y-124660847D01*
X179560657Y-124658974D01*
X179518145Y-124603642D01*
X179492318Y-124535093D01*
X179483395Y-124459454D01*
X179491598Y-124382850D01*
X179517147Y-124311408D01*
X179546513Y-124266475D01*
X179604195Y-124215501D01*
X179678562Y-124178816D01*
X179765214Y-124156549D01*
X179859753Y-124148828D01*
X179957779Y-124155778D01*
G37*
X177571694Y-125747499D02*
X177626725Y-125755754D01*
X177712880Y-125785247D01*
X177781616Y-125832792D01*
X177832243Y-125897872D01*
X177842134Y-125917128D01*
X177876250Y-125989920D01*
X177884830Y-126758270D01*
X177666700Y-126758270D01*
X177666700Y-126679812D01*
X177628205Y-126712202D01*
X177588909Y-126737988D01*
X177545488Y-126756834D01*
X177542480Y-126757711D01*
X177483102Y-126767435D01*
X177411963Y-126769338D01*
X177341389Y-126763666D01*
X177289817Y-126752688D01*
X177207813Y-126716060D01*
X177141446Y-126663680D01*
X177094027Y-126598580D01*
X177077053Y-126557916D01*
X177066080Y-126487681D01*
X177068475Y-126460117D01*
X177260973Y-126460117D01*
X177274988Y-126503050D01*
X177306230Y-126539572D01*
X177352598Y-126564358D01*
X177368970Y-126568674D01*
X177408083Y-126573099D01*
X177460132Y-126574282D01*
X177516073Y-126572556D01*
X177566864Y-126568250D01*
X177603459Y-126561695D01*
X177608953Y-126559891D01*
X177635598Y-126536989D01*
X177655120Y-126494439D01*
X177665525Y-126437473D01*
X177666700Y-126408666D01*
X177666700Y-126337202D01*
X177496233Y-126341361D01*
X177426824Y-126343330D01*
X177377978Y-126345827D01*
X177344862Y-126349682D01*
X177322641Y-126355727D01*
X177306482Y-126364793D01*
X177293033Y-126376308D01*
X177266288Y-126416095D01*
X177260973Y-126460117D01*
X177068475Y-126460117D01*
X177072707Y-126411414D01*
X177094878Y-126337411D01*
X177130539Y-126273966D01*
X177153873Y-126247768D01*
X177187951Y-126219462D01*
X177224162Y-126198491D01*
X177267196Y-126183647D01*
X177321742Y-126173724D01*
X177392490Y-126167512D01*
X177479375Y-126163937D01*
X177666700Y-126158601D01*
X177666700Y-126089300D01*
X177664235Y-126045194D01*
X177657934Y-126008325D01*
X177652977Y-125994359D01*
X177624633Y-125965955D01*
X177577065Y-125945184D01*
X177515823Y-125934076D01*
X177484545Y-125932770D01*
X177413652Y-125935736D01*
X177361716Y-125945626D01*
X177322880Y-125963927D01*
X177304582Y-125978487D01*
X177272303Y-126008402D01*
X177196451Y-125949498D01*
X177160102Y-125920080D01*
X177133257Y-125896084D01*
X177120901Y-125882018D01*
X177120600Y-125880921D01*
X177130938Y-125863082D01*
X177157807Y-125838330D01*
X177194989Y-125811050D01*
X177236266Y-125785626D01*
X177275420Y-125766442D01*
X177290625Y-125761033D01*
X177346973Y-125749991D01*
X177418861Y-125743956D01*
X177496899Y-125743077D01*
X177571694Y-125747499D01*
G36*
X177571694Y-125747499D02*
G01*
X177626725Y-125755754D01*
X177712880Y-125785247D01*
X177781616Y-125832792D01*
X177832243Y-125897872D01*
X177842134Y-125917128D01*
X177876250Y-125989920D01*
X177884830Y-126758270D01*
X177666700Y-126758270D01*
X177666700Y-126679812D01*
X177628205Y-126712202D01*
X177588909Y-126737988D01*
X177545488Y-126756834D01*
X177542480Y-126757711D01*
X177483102Y-126767435D01*
X177411963Y-126769338D01*
X177341389Y-126763666D01*
X177289817Y-126752688D01*
X177207813Y-126716060D01*
X177141446Y-126663680D01*
X177094027Y-126598580D01*
X177077053Y-126557916D01*
X177066080Y-126487681D01*
X177068475Y-126460117D01*
X177260973Y-126460117D01*
X177274988Y-126503050D01*
X177306230Y-126539572D01*
X177352598Y-126564358D01*
X177368970Y-126568674D01*
X177408083Y-126573099D01*
X177460132Y-126574282D01*
X177516073Y-126572556D01*
X177566864Y-126568250D01*
X177603459Y-126561695D01*
X177608953Y-126559891D01*
X177635598Y-126536989D01*
X177655120Y-126494439D01*
X177665525Y-126437473D01*
X177666700Y-126408666D01*
X177666700Y-126337202D01*
X177496233Y-126341361D01*
X177426824Y-126343330D01*
X177377978Y-126345827D01*
X177344862Y-126349682D01*
X177322641Y-126355727D01*
X177306482Y-126364793D01*
X177293033Y-126376308D01*
X177266288Y-126416095D01*
X177260973Y-126460117D01*
X177068475Y-126460117D01*
X177072707Y-126411414D01*
X177094878Y-126337411D01*
X177130539Y-126273966D01*
X177153873Y-126247768D01*
X177187951Y-126219462D01*
X177224162Y-126198491D01*
X177267196Y-126183647D01*
X177321742Y-126173724D01*
X177392490Y-126167512D01*
X177479375Y-126163937D01*
X177666700Y-126158601D01*
X177666700Y-126089300D01*
X177664235Y-126045194D01*
X177657934Y-126008325D01*
X177652977Y-125994359D01*
X177624633Y-125965955D01*
X177577065Y-125945184D01*
X177515823Y-125934076D01*
X177484545Y-125932770D01*
X177413652Y-125935736D01*
X177361716Y-125945626D01*
X177322880Y-125963927D01*
X177304582Y-125978487D01*
X177272303Y-126008402D01*
X177196451Y-125949498D01*
X177160102Y-125920080D01*
X177133257Y-125896084D01*
X177120901Y-125882018D01*
X177120600Y-125880921D01*
X177130938Y-125863082D01*
X177157807Y-125838330D01*
X177194989Y-125811050D01*
X177236266Y-125785626D01*
X177275420Y-125766442D01*
X177290625Y-125761033D01*
X177346973Y-125749991D01*
X177418861Y-125743956D01*
X177496899Y-125743077D01*
X177571694Y-125747499D01*
G37*
X179584400Y-126758270D02*
X179381200Y-126758270D01*
X179381200Y-126713820D01*
X179377831Y-126680509D01*
X179366660Y-126671131D01*
X179346086Y-126684985D01*
X179336990Y-126694503D01*
X179303723Y-126718971D01*
X179253972Y-126741579D01*
X179196628Y-126759276D01*
X179140579Y-126769011D01*
X179117198Y-126769967D01*
X179066767Y-126765013D01*
X179016078Y-126753961D01*
X179005093Y-126750432D01*
X178937772Y-126715143D01*
X178876108Y-126662060D01*
X178828372Y-126598650D01*
X178820341Y-126583611D01*
X178810297Y-126561947D01*
X178802813Y-126540751D01*
X178797514Y-126515975D01*
X178794024Y-126483569D01*
X178791970Y-126439483D01*
X178790975Y-126379669D01*
X178790735Y-126317683D01*
X178989371Y-126317683D01*
X178998609Y-126403139D01*
X179018308Y-126468419D01*
X179049046Y-126515253D01*
X179091404Y-126545372D01*
X179103937Y-126550515D01*
X179173321Y-126565374D01*
X179240012Y-126556724D01*
X179274213Y-126543702D01*
X179311211Y-126521978D01*
X179338338Y-126492730D01*
X179357112Y-126452013D01*
X179369052Y-126395881D01*
X179375677Y-126320391D01*
X179377429Y-126275670D01*
X179376038Y-126170645D01*
X179364576Y-126087739D01*
X179342129Y-126025375D01*
X179307781Y-125981980D01*
X179260619Y-125955978D01*
X179199727Y-125945794D01*
X179185646Y-125945517D01*
X179121216Y-125952023D01*
X179071533Y-125972847D01*
X179035032Y-126010113D01*
X179010144Y-126065941D01*
X178995304Y-126142452D01*
X178990014Y-126210322D01*
X178989371Y-126317683D01*
X178790735Y-126317683D01*
X178790666Y-126300077D01*
X178790650Y-126262970D01*
X178791256Y-126159116D01*
X178793695Y-126076887D01*
X178798895Y-126012520D01*
X178807786Y-125962256D01*
X178821297Y-125922334D01*
X178840356Y-125888994D01*
X178865893Y-125858476D01*
X178898221Y-125827571D01*
X178962300Y-125780227D01*
X179030101Y-125752917D01*
X179109692Y-125742660D01*
X179128673Y-125742394D01*
X179184450Y-125748775D01*
X179243465Y-125765496D01*
X179296837Y-125789200D01*
X179335682Y-125816531D01*
X179341480Y-125822798D01*
X179360087Y-125839848D01*
X179369786Y-125843870D01*
X179373277Y-125831807D01*
X179376654Y-125798171D01*
X179379697Y-125746787D01*
X179382190Y-125681481D01*
X179383912Y-125606078D01*
X179384106Y-125593045D01*
X179387550Y-125342220D01*
X179485975Y-125338510D01*
X179584400Y-125334801D01*
X179584400Y-126758270D01*
G36*
X179584400Y-126758270D02*
G01*
X179381200Y-126758270D01*
X179381200Y-126713820D01*
X179377831Y-126680509D01*
X179366660Y-126671131D01*
X179346086Y-126684985D01*
X179336990Y-126694503D01*
X179303723Y-126718971D01*
X179253972Y-126741579D01*
X179196628Y-126759276D01*
X179140579Y-126769011D01*
X179117198Y-126769967D01*
X179066767Y-126765013D01*
X179016078Y-126753961D01*
X179005093Y-126750432D01*
X178937772Y-126715143D01*
X178876108Y-126662060D01*
X178828372Y-126598650D01*
X178820341Y-126583611D01*
X178810297Y-126561947D01*
X178802813Y-126540751D01*
X178797514Y-126515975D01*
X178794024Y-126483569D01*
X178791970Y-126439483D01*
X178790975Y-126379669D01*
X178790735Y-126317683D01*
X178989371Y-126317683D01*
X178998609Y-126403139D01*
X179018308Y-126468419D01*
X179049046Y-126515253D01*
X179091404Y-126545372D01*
X179103937Y-126550515D01*
X179173321Y-126565374D01*
X179240012Y-126556724D01*
X179274213Y-126543702D01*
X179311211Y-126521978D01*
X179338338Y-126492730D01*
X179357112Y-126452013D01*
X179369052Y-126395881D01*
X179375677Y-126320391D01*
X179377429Y-126275670D01*
X179376038Y-126170645D01*
X179364576Y-126087739D01*
X179342129Y-126025375D01*
X179307781Y-125981980D01*
X179260619Y-125955978D01*
X179199727Y-125945794D01*
X179185646Y-125945517D01*
X179121216Y-125952023D01*
X179071533Y-125972847D01*
X179035032Y-126010113D01*
X179010144Y-126065941D01*
X178995304Y-126142452D01*
X178990014Y-126210322D01*
X178989371Y-126317683D01*
X178790735Y-126317683D01*
X178790666Y-126300077D01*
X178790650Y-126262970D01*
X178791256Y-126159116D01*
X178793695Y-126076887D01*
X178798895Y-126012520D01*
X178807786Y-125962256D01*
X178821297Y-125922334D01*
X178840356Y-125888994D01*
X178865893Y-125858476D01*
X178898221Y-125827571D01*
X178962300Y-125780227D01*
X179030101Y-125752917D01*
X179109692Y-125742660D01*
X179128673Y-125742394D01*
X179184450Y-125748775D01*
X179243465Y-125765496D01*
X179296837Y-125789200D01*
X179335682Y-125816531D01*
X179341480Y-125822798D01*
X179360087Y-125839848D01*
X179369786Y-125843870D01*
X179373277Y-125831807D01*
X179376654Y-125798171D01*
X179379697Y-125746787D01*
X179382190Y-125681481D01*
X179383912Y-125606078D01*
X179384106Y-125593045D01*
X179387550Y-125342220D01*
X179485975Y-125338510D01*
X179584400Y-125334801D01*
X179584400Y-126758270D01*
G37*
X184474614Y-124163872D02*
X184562908Y-124199764D01*
X184641167Y-124253617D01*
X184704890Y-124323129D01*
X184742375Y-124388464D01*
X184756517Y-124426248D01*
X184766099Y-124468297D01*
X184772256Y-124521563D01*
X184776120Y-124592994D01*
X184776234Y-124596095D01*
X184781441Y-124738970D01*
X184156400Y-124738970D01*
X184156400Y-124774379D01*
X184165013Y-124818151D01*
X184187219Y-124868561D01*
X184217562Y-124915442D01*
X184249406Y-124947776D01*
X184273300Y-124961566D01*
X184302838Y-124969614D01*
X184345196Y-124973262D01*
X184389106Y-124973920D01*
X184442587Y-124973100D01*
X184479395Y-124969184D01*
X184508238Y-124959983D01*
X184537825Y-124943310D01*
X184554198Y-124932451D01*
X184615446Y-124890983D01*
X184684373Y-124949869D01*
X184718270Y-124979992D01*
X184742871Y-125004074D01*
X184753234Y-125017250D01*
X184753300Y-125017698D01*
X184743108Y-125034471D01*
X184715733Y-125059903D01*
X184675970Y-125089927D01*
X184640980Y-125112963D01*
X184591682Y-125136525D01*
X184527621Y-125157718D01*
X184459431Y-125173738D01*
X184397747Y-125181779D01*
X184378650Y-125182169D01*
X184343353Y-125178440D01*
X184297856Y-125169993D01*
X184277050Y-125165088D01*
X184217277Y-125148166D01*
X184173110Y-125130411D01*
X184135050Y-125107125D01*
X184095567Y-125075314D01*
X184036116Y-125009686D01*
X183992940Y-124928837D01*
X183965426Y-124831034D01*
X183952964Y-124714542D01*
X183952045Y-124667879D01*
X183958300Y-124573870D01*
X184156400Y-124573870D01*
X184578326Y-124573870D01*
X184569603Y-124526245D01*
X184545642Y-124453226D01*
X184504836Y-124397559D01*
X184449253Y-124361090D01*
X184380963Y-124345668D01*
X184367048Y-124345270D01*
X184309140Y-124351463D01*
X184259944Y-124367874D01*
X184258118Y-124368832D01*
X184219226Y-124400855D01*
X184185357Y-124447967D01*
X184162574Y-124500100D01*
X184156400Y-124537767D01*
X184156400Y-124573870D01*
X183958300Y-124573870D01*
X183960695Y-124537875D01*
X183960719Y-124537767D01*
X183986455Y-124425601D01*
X184029042Y-124331491D01*
X184088172Y-124255982D01*
X184163561Y-124199510D01*
X184254925Y-124162510D01*
X184285920Y-124155169D01*
X184380784Y-124148240D01*
X184474614Y-124163872D01*
G36*
X184474614Y-124163872D02*
G01*
X184562908Y-124199764D01*
X184641167Y-124253617D01*
X184704890Y-124323129D01*
X184742375Y-124388464D01*
X184756517Y-124426248D01*
X184766099Y-124468297D01*
X184772256Y-124521563D01*
X184776120Y-124592994D01*
X184776234Y-124596095D01*
X184781441Y-124738970D01*
X184156400Y-124738970D01*
X184156400Y-124774379D01*
X184165013Y-124818151D01*
X184187219Y-124868561D01*
X184217562Y-124915442D01*
X184249406Y-124947776D01*
X184273300Y-124961566D01*
X184302838Y-124969614D01*
X184345196Y-124973262D01*
X184389106Y-124973920D01*
X184442587Y-124973100D01*
X184479395Y-124969184D01*
X184508238Y-124959983D01*
X184537825Y-124943310D01*
X184554198Y-124932451D01*
X184615446Y-124890983D01*
X184684373Y-124949869D01*
X184718270Y-124979992D01*
X184742871Y-125004074D01*
X184753234Y-125017250D01*
X184753300Y-125017698D01*
X184743108Y-125034471D01*
X184715733Y-125059903D01*
X184675970Y-125089927D01*
X184640980Y-125112963D01*
X184591682Y-125136525D01*
X184527621Y-125157718D01*
X184459431Y-125173738D01*
X184397747Y-125181779D01*
X184378650Y-125182169D01*
X184343353Y-125178440D01*
X184297856Y-125169993D01*
X184277050Y-125165088D01*
X184217277Y-125148166D01*
X184173110Y-125130411D01*
X184135050Y-125107125D01*
X184095567Y-125075314D01*
X184036116Y-125009686D01*
X183992940Y-124928837D01*
X183965426Y-124831034D01*
X183952964Y-124714542D01*
X183952045Y-124667879D01*
X183958300Y-124573870D01*
X184156400Y-124573870D01*
X184578326Y-124573870D01*
X184569603Y-124526245D01*
X184545642Y-124453226D01*
X184504836Y-124397559D01*
X184449253Y-124361090D01*
X184380963Y-124345668D01*
X184367048Y-124345270D01*
X184309140Y-124351463D01*
X184259944Y-124367874D01*
X184258118Y-124368832D01*
X184219226Y-124400855D01*
X184185357Y-124447967D01*
X184162574Y-124500100D01*
X184156400Y-124537767D01*
X184156400Y-124573870D01*
X183958300Y-124573870D01*
X183960695Y-124537875D01*
X183960719Y-124537767D01*
X183986455Y-124425601D01*
X184029042Y-124331491D01*
X184088172Y-124255982D01*
X184163561Y-124199510D01*
X184254925Y-124162510D01*
X184285920Y-124155169D01*
X184380784Y-124148240D01*
X184474614Y-124163872D01*
G37*
X175596561Y-124151231D02*
X175684365Y-124174390D01*
X175765004Y-124216057D01*
X175834832Y-124275501D01*
X175890199Y-124351986D01*
X175909354Y-124391600D01*
X175923940Y-124443268D01*
X175934053Y-124513334D01*
X175939698Y-124595192D01*
X175940880Y-124682239D01*
X175937607Y-124767869D01*
X175929882Y-124845479D01*
X175917713Y-124908463D01*
X175908884Y-124935064D01*
X175863140Y-125015092D01*
X175800000Y-125083030D01*
X175724779Y-125133921D01*
X175672800Y-125155241D01*
X175597169Y-125171175D01*
X175514754Y-125176594D01*
X175443189Y-125171002D01*
X175354388Y-125143500D01*
X175274624Y-125093174D01*
X175232856Y-125054343D01*
X175187893Y-125000442D01*
X175155061Y-124943263D01*
X175132861Y-124877875D01*
X175119797Y-124799345D01*
X175114371Y-124702741D01*
X175114000Y-124662770D01*
X175323550Y-124662770D01*
X175324692Y-124741102D01*
X175329085Y-124799367D01*
X175338173Y-124842833D01*
X175353404Y-124876769D01*
X175376223Y-124906443D01*
X175395788Y-124925921D01*
X175442851Y-124954095D01*
X175502775Y-124967568D01*
X175567533Y-124966090D01*
X175629097Y-124949408D01*
X175657989Y-124934119D01*
X175689957Y-124904378D01*
X175712818Y-124861114D01*
X175727461Y-124801227D01*
X175734777Y-124721616D01*
X175736021Y-124662285D01*
X175735524Y-124595674D01*
X175733147Y-124548114D01*
X175728004Y-124513277D01*
X175719209Y-124484834D01*
X175707725Y-124460025D01*
X175668083Y-124407433D01*
X175615812Y-124373100D01*
X175555943Y-124357032D01*
X175493509Y-124359236D01*
X175433542Y-124379716D01*
X175381073Y-124418479D01*
X175349636Y-124459613D01*
X175338434Y-124481881D01*
X175330928Y-124507108D01*
X175326414Y-124540772D01*
X175324191Y-124588353D01*
X175323553Y-124655330D01*
X175323550Y-124662770D01*
X175114000Y-124662770D01*
X175117572Y-124554241D01*
X175129253Y-124465813D01*
X175150491Y-124393074D01*
X175182732Y-124331612D01*
X175227423Y-124277019D01*
X175246664Y-124258357D01*
X175326644Y-124200145D01*
X175414052Y-124163375D01*
X175505240Y-124147315D01*
X175596561Y-124151231D01*
G36*
X175596561Y-124151231D02*
G01*
X175684365Y-124174390D01*
X175765004Y-124216057D01*
X175834832Y-124275501D01*
X175890199Y-124351986D01*
X175909354Y-124391600D01*
X175923940Y-124443268D01*
X175934053Y-124513334D01*
X175939698Y-124595192D01*
X175940880Y-124682239D01*
X175937607Y-124767869D01*
X175929882Y-124845479D01*
X175917713Y-124908463D01*
X175908884Y-124935064D01*
X175863140Y-125015092D01*
X175800000Y-125083030D01*
X175724779Y-125133921D01*
X175672800Y-125155241D01*
X175597169Y-125171175D01*
X175514754Y-125176594D01*
X175443189Y-125171002D01*
X175354388Y-125143500D01*
X175274624Y-125093174D01*
X175232856Y-125054343D01*
X175187893Y-125000442D01*
X175155061Y-124943263D01*
X175132861Y-124877875D01*
X175119797Y-124799345D01*
X175114371Y-124702741D01*
X175114000Y-124662770D01*
X175323550Y-124662770D01*
X175324692Y-124741102D01*
X175329085Y-124799367D01*
X175338173Y-124842833D01*
X175353404Y-124876769D01*
X175376223Y-124906443D01*
X175395788Y-124925921D01*
X175442851Y-124954095D01*
X175502775Y-124967568D01*
X175567533Y-124966090D01*
X175629097Y-124949408D01*
X175657989Y-124934119D01*
X175689957Y-124904378D01*
X175712818Y-124861114D01*
X175727461Y-124801227D01*
X175734777Y-124721616D01*
X175736021Y-124662285D01*
X175735524Y-124595674D01*
X175733147Y-124548114D01*
X175728004Y-124513277D01*
X175719209Y-124484834D01*
X175707725Y-124460025D01*
X175668083Y-124407433D01*
X175615812Y-124373100D01*
X175555943Y-124357032D01*
X175493509Y-124359236D01*
X175433542Y-124379716D01*
X175381073Y-124418479D01*
X175349636Y-124459613D01*
X175338434Y-124481881D01*
X175330928Y-124507108D01*
X175326414Y-124540772D01*
X175324191Y-124588353D01*
X175323553Y-124655330D01*
X175323550Y-124662770D01*
X175114000Y-124662770D01*
X175117572Y-124554241D01*
X175129253Y-124465813D01*
X175150491Y-124393074D01*
X175182732Y-124331612D01*
X175227423Y-124277019D01*
X175246664Y-124258357D01*
X175326644Y-124200145D01*
X175414052Y-124163375D01*
X175505240Y-124147315D01*
X175596561Y-124151231D01*
G37*
X183567261Y-124146743D02*
X183615323Y-124155124D01*
X183635778Y-124160142D01*
X183718448Y-124189483D01*
X183795814Y-124231870D01*
X183858384Y-124281995D01*
X183863946Y-124287743D01*
X183883284Y-124310104D01*
X183886066Y-124324766D01*
X183873308Y-124342370D01*
X183869563Y-124346536D01*
X183844232Y-124371383D01*
X183810175Y-124401069D01*
X183798512Y-124410533D01*
X183751775Y-124447598D01*
X183693251Y-124406346D01*
X183654656Y-124382208D01*
X183618188Y-124368661D01*
X183572357Y-124362046D01*
X183549489Y-124360556D01*
X183468274Y-124364415D01*
X183403544Y-124386457D01*
X183352830Y-124427954D01*
X183318959Y-124479355D01*
X183303209Y-124513781D01*
X183293538Y-124547062D01*
X183288530Y-124587235D01*
X183286769Y-124642342D01*
X183286662Y-124662770D01*
X183287621Y-124724962D01*
X183291623Y-124769790D01*
X183299971Y-124805225D01*
X183313968Y-124839243D01*
X183316244Y-124843924D01*
X183358221Y-124902889D01*
X183414659Y-124944048D01*
X183481231Y-124966687D01*
X183553610Y-124970092D01*
X183627468Y-124953550D01*
X183698478Y-124916347D01*
X183708939Y-124908695D01*
X183750541Y-124876964D01*
X183797895Y-124914518D01*
X183832403Y-124943531D01*
X183862167Y-124971265D01*
X183869563Y-124979003D01*
X183884930Y-124998212D01*
X183884934Y-125012621D01*
X183868559Y-125032871D01*
X183863946Y-125037796D01*
X183805686Y-125086941D01*
X183732354Y-125129799D01*
X183654277Y-125160499D01*
X183642431Y-125163787D01*
X183588906Y-125176102D01*
X183544911Y-125180923D01*
X183498755Y-125178656D01*
X183444331Y-125170658D01*
X183367311Y-125148118D01*
X183289533Y-125109126D01*
X183222267Y-125059603D01*
X183209258Y-125047133D01*
X183154553Y-124974593D01*
X183113853Y-124884702D01*
X183088303Y-124782015D01*
X183079047Y-124671083D01*
X183086748Y-124559716D01*
X183113223Y-124444604D01*
X183156469Y-124348513D01*
X183216754Y-124271160D01*
X183294343Y-124212259D01*
X183389504Y-124171526D01*
X183466946Y-124153632D01*
X183522407Y-124146423D01*
X183567261Y-124146743D01*
G36*
X183567261Y-124146743D02*
G01*
X183615323Y-124155124D01*
X183635778Y-124160142D01*
X183718448Y-124189483D01*
X183795814Y-124231870D01*
X183858384Y-124281995D01*
X183863946Y-124287743D01*
X183883284Y-124310104D01*
X183886066Y-124324766D01*
X183873308Y-124342370D01*
X183869563Y-124346536D01*
X183844232Y-124371383D01*
X183810175Y-124401069D01*
X183798512Y-124410533D01*
X183751775Y-124447598D01*
X183693251Y-124406346D01*
X183654656Y-124382208D01*
X183618188Y-124368661D01*
X183572357Y-124362046D01*
X183549489Y-124360556D01*
X183468274Y-124364415D01*
X183403544Y-124386457D01*
X183352830Y-124427954D01*
X183318959Y-124479355D01*
X183303209Y-124513781D01*
X183293538Y-124547062D01*
X183288530Y-124587235D01*
X183286769Y-124642342D01*
X183286662Y-124662770D01*
X183287621Y-124724962D01*
X183291623Y-124769790D01*
X183299971Y-124805225D01*
X183313968Y-124839243D01*
X183316244Y-124843924D01*
X183358221Y-124902889D01*
X183414659Y-124944048D01*
X183481231Y-124966687D01*
X183553610Y-124970092D01*
X183627468Y-124953550D01*
X183698478Y-124916347D01*
X183708939Y-124908695D01*
X183750541Y-124876964D01*
X183797895Y-124914518D01*
X183832403Y-124943531D01*
X183862167Y-124971265D01*
X183869563Y-124979003D01*
X183884930Y-124998212D01*
X183884934Y-125012621D01*
X183868559Y-125032871D01*
X183863946Y-125037796D01*
X183805686Y-125086941D01*
X183732354Y-125129799D01*
X183654277Y-125160499D01*
X183642431Y-125163787D01*
X183588906Y-125176102D01*
X183544911Y-125180923D01*
X183498755Y-125178656D01*
X183444331Y-125170658D01*
X183367311Y-125148118D01*
X183289533Y-125109126D01*
X183222267Y-125059603D01*
X183209258Y-125047133D01*
X183154553Y-124974593D01*
X183113853Y-124884702D01*
X183088303Y-124782015D01*
X183079047Y-124671083D01*
X183086748Y-124559716D01*
X183113223Y-124444604D01*
X183156469Y-124348513D01*
X183216754Y-124271160D01*
X183294343Y-124212259D01*
X183389504Y-124171526D01*
X183466946Y-124153632D01*
X183522407Y-124146423D01*
X183567261Y-124146743D01*
G37*
X183350030Y-125749403D02*
X183444195Y-125775802D01*
X183525293Y-125823715D01*
X183592510Y-125892686D01*
X183637420Y-125966090D01*
X183655994Y-126005373D01*
X183668112Y-126037717D01*
X183675165Y-126070558D01*
X183678548Y-126111330D01*
X183679654Y-126167468D01*
X183679760Y-126192061D01*
X183680150Y-126332820D01*
X183372175Y-126336220D01*
X183064200Y-126339621D01*
X183064200Y-126373486D01*
X183069747Y-126405735D01*
X183083681Y-126446465D01*
X183090368Y-126461407D01*
X183115098Y-126500725D01*
X183149730Y-126530126D01*
X183181761Y-126547966D01*
X183224049Y-126566172D01*
X183262489Y-126577967D01*
X183280288Y-126580470D01*
X183329832Y-126574137D01*
X183387324Y-126557729D01*
X183441584Y-126535134D01*
X183480815Y-126510762D01*
X183517634Y-126479780D01*
X183586192Y-126538031D01*
X183620623Y-126568118D01*
X183646412Y-126592219D01*
X183658256Y-126605365D01*
X183658404Y-126605689D01*
X183651975Y-126620962D01*
X183628590Y-126644566D01*
X183593475Y-126672459D01*
X183551854Y-126700596D01*
X183508953Y-126724935D01*
X183496579Y-126730908D01*
X183433408Y-126751710D01*
X183357174Y-126764600D01*
X183277555Y-126768915D01*
X183204229Y-126763994D01*
X183159450Y-126753933D01*
X183063395Y-126710291D01*
X182985562Y-126649003D01*
X182926106Y-126570275D01*
X182885178Y-126474312D01*
X182862933Y-126361319D01*
X182862386Y-126355960D01*
X182857532Y-126221540D01*
X182863916Y-126161370D01*
X183060855Y-126161370D01*
X183482665Y-126161370D01*
X183474799Y-126120095D01*
X183450316Y-126045057D01*
X183410005Y-125988186D01*
X183355780Y-125951061D01*
X183289554Y-125935260D01*
X183251514Y-125935946D01*
X183182027Y-125954006D01*
X183125961Y-125991680D01*
X183086629Y-126045853D01*
X183067947Y-126108494D01*
X183060855Y-126161370D01*
X182863916Y-126161370D01*
X182870282Y-126101384D01*
X182899922Y-125996636D01*
X182945737Y-125908440D01*
X183007013Y-125837941D01*
X183083037Y-125786284D01*
X183173094Y-125754611D01*
X183243608Y-125744974D01*
X183350030Y-125749403D01*
G36*
X183350030Y-125749403D02*
G01*
X183444195Y-125775802D01*
X183525293Y-125823715D01*
X183592510Y-125892686D01*
X183637420Y-125966090D01*
X183655994Y-126005373D01*
X183668112Y-126037717D01*
X183675165Y-126070558D01*
X183678548Y-126111330D01*
X183679654Y-126167468D01*
X183679760Y-126192061D01*
X183680150Y-126332820D01*
X183372175Y-126336220D01*
X183064200Y-126339621D01*
X183064200Y-126373486D01*
X183069747Y-126405735D01*
X183083681Y-126446465D01*
X183090368Y-126461407D01*
X183115098Y-126500725D01*
X183149730Y-126530126D01*
X183181761Y-126547966D01*
X183224049Y-126566172D01*
X183262489Y-126577967D01*
X183280288Y-126580470D01*
X183329832Y-126574137D01*
X183387324Y-126557729D01*
X183441584Y-126535134D01*
X183480815Y-126510762D01*
X183517634Y-126479780D01*
X183586192Y-126538031D01*
X183620623Y-126568118D01*
X183646412Y-126592219D01*
X183658256Y-126605365D01*
X183658404Y-126605689D01*
X183651975Y-126620962D01*
X183628590Y-126644566D01*
X183593475Y-126672459D01*
X183551854Y-126700596D01*
X183508953Y-126724935D01*
X183496579Y-126730908D01*
X183433408Y-126751710D01*
X183357174Y-126764600D01*
X183277555Y-126768915D01*
X183204229Y-126763994D01*
X183159450Y-126753933D01*
X183063395Y-126710291D01*
X182985562Y-126649003D01*
X182926106Y-126570275D01*
X182885178Y-126474312D01*
X182862933Y-126361319D01*
X182862386Y-126355960D01*
X182857532Y-126221540D01*
X182863916Y-126161370D01*
X183060855Y-126161370D01*
X183482665Y-126161370D01*
X183474799Y-126120095D01*
X183450316Y-126045057D01*
X183410005Y-125988186D01*
X183355780Y-125951061D01*
X183289554Y-125935260D01*
X183251514Y-125935946D01*
X183182027Y-125954006D01*
X183125961Y-125991680D01*
X183086629Y-126045853D01*
X183067947Y-126108494D01*
X183060855Y-126161370D01*
X182863916Y-126161370D01*
X182870282Y-126101384D01*
X182899922Y-125996636D01*
X182945737Y-125908440D01*
X183007013Y-125837941D01*
X183083037Y-125786284D01*
X183173094Y-125754611D01*
X183243608Y-125744974D01*
X183350030Y-125749403D01*
G37*
X180903310Y-124156875D02*
X180995221Y-124190982D01*
X181077544Y-124247423D01*
X181113249Y-124282784D01*
X181150129Y-124327993D01*
X181177333Y-124373133D01*
X181196208Y-124423170D01*
X181208102Y-124483070D01*
X181214362Y-124557798D01*
X181216336Y-124652321D01*
X181216350Y-124662770D01*
X181214721Y-124759486D01*
X181208938Y-124835923D01*
X181197651Y-124897049D01*
X181179515Y-124947828D01*
X181153182Y-124993227D01*
X181117304Y-125038211D01*
X181113249Y-125042755D01*
X181038563Y-125107452D01*
X180950889Y-125151779D01*
X180853919Y-125174520D01*
X180751347Y-125174461D01*
X180724679Y-125170641D01*
X180630766Y-125142055D01*
X180548020Y-125092077D01*
X180480019Y-125023469D01*
X180433366Y-124945854D01*
X180416066Y-124890773D01*
X180403813Y-124817456D01*
X180396674Y-124732573D01*
X180395071Y-124659065D01*
X180600675Y-124659065D01*
X180600678Y-124662285D01*
X180603795Y-124753915D01*
X180613452Y-124824255D01*
X180630701Y-124876816D01*
X180656594Y-124915106D01*
X180682978Y-124937006D01*
X180743088Y-124962773D01*
X180810551Y-124969997D01*
X180876756Y-124958847D01*
X180929617Y-124932160D01*
X180962223Y-124903904D01*
X180985337Y-124872334D01*
X181000458Y-124832608D01*
X181009089Y-124779886D01*
X181012730Y-124709327D01*
X181013150Y-124662770D01*
X181011483Y-124579958D01*
X181005391Y-124517608D01*
X180993234Y-124470933D01*
X180973370Y-124435148D01*
X180944162Y-124405467D01*
X180918510Y-124386588D01*
X180866582Y-124364819D01*
X180803792Y-124357908D01*
X180740088Y-124366148D01*
X180702000Y-124380214D01*
X180662245Y-124407335D01*
X180633462Y-124445366D01*
X180614423Y-124497722D01*
X180603903Y-124567817D01*
X180600675Y-124659065D01*
X180395071Y-124659065D01*
X180394715Y-124642795D01*
X180398003Y-124554793D01*
X180406604Y-124475237D01*
X180420586Y-124410798D01*
X180427814Y-124390479D01*
X180476208Y-124306601D01*
X180543839Y-124237837D01*
X180628064Y-124186396D01*
X180703909Y-124159633D01*
X180805108Y-124146095D01*
X180903310Y-124156875D01*
G36*
X180903310Y-124156875D02*
G01*
X180995221Y-124190982D01*
X181077544Y-124247423D01*
X181113249Y-124282784D01*
X181150129Y-124327993D01*
X181177333Y-124373133D01*
X181196208Y-124423170D01*
X181208102Y-124483070D01*
X181214362Y-124557798D01*
X181216336Y-124652321D01*
X181216350Y-124662770D01*
X181214721Y-124759486D01*
X181208938Y-124835923D01*
X181197651Y-124897049D01*
X181179515Y-124947828D01*
X181153182Y-124993227D01*
X181117304Y-125038211D01*
X181113249Y-125042755D01*
X181038563Y-125107452D01*
X180950889Y-125151779D01*
X180853919Y-125174520D01*
X180751347Y-125174461D01*
X180724679Y-125170641D01*
X180630766Y-125142055D01*
X180548020Y-125092077D01*
X180480019Y-125023469D01*
X180433366Y-124945854D01*
X180416066Y-124890773D01*
X180403813Y-124817456D01*
X180396674Y-124732573D01*
X180395071Y-124659065D01*
X180600675Y-124659065D01*
X180600678Y-124662285D01*
X180603795Y-124753915D01*
X180613452Y-124824255D01*
X180630701Y-124876816D01*
X180656594Y-124915106D01*
X180682978Y-124937006D01*
X180743088Y-124962773D01*
X180810551Y-124969997D01*
X180876756Y-124958847D01*
X180929617Y-124932160D01*
X180962223Y-124903904D01*
X180985337Y-124872334D01*
X181000458Y-124832608D01*
X181009089Y-124779886D01*
X181012730Y-124709327D01*
X181013150Y-124662770D01*
X181011483Y-124579958D01*
X181005391Y-124517608D01*
X180993234Y-124470933D01*
X180973370Y-124435148D01*
X180944162Y-124405467D01*
X180918510Y-124386588D01*
X180866582Y-124364819D01*
X180803792Y-124357908D01*
X180740088Y-124366148D01*
X180702000Y-124380214D01*
X180662245Y-124407335D01*
X180633462Y-124445366D01*
X180614423Y-124497722D01*
X180603903Y-124567817D01*
X180600675Y-124659065D01*
X180395071Y-124659065D01*
X180394715Y-124642795D01*
X180398003Y-124554793D01*
X180406604Y-124475237D01*
X180420586Y-124410798D01*
X180427814Y-124390479D01*
X180476208Y-124306601D01*
X180543839Y-124237837D01*
X180628064Y-124186396D01*
X180703909Y-124159633D01*
X180805108Y-124146095D01*
X180903310Y-124156875D01*
G37*
X177539944Y-124154327D02*
X177630102Y-124178591D01*
X177713182Y-124222773D01*
X177766477Y-124267247D01*
X177820430Y-124333461D01*
X177858930Y-124410325D01*
X177883134Y-124501361D01*
X177894198Y-124610094D01*
X177895204Y-124659595D01*
X177895300Y-124738970D01*
X177259149Y-124738970D01*
X177267626Y-124786595D01*
X177290105Y-124857160D01*
X177328350Y-124915475D01*
X177374651Y-124953372D01*
X177440188Y-124976460D01*
X177514910Y-124980004D01*
X177592774Y-124964796D01*
X177667742Y-124931622D01*
X177698978Y-124911003D01*
X177713722Y-124902340D01*
X177728586Y-124902450D01*
X177749198Y-124913664D01*
X177781184Y-124938310D01*
X177797758Y-124951902D01*
X177870609Y-125012020D01*
X177812728Y-125065223D01*
X177768066Y-125099840D01*
X177716873Y-125130425D01*
X177688491Y-125143253D01*
X177617142Y-125163035D01*
X177536616Y-125174518D01*
X177458129Y-125176640D01*
X177401673Y-125170351D01*
X177314189Y-125142231D01*
X177234799Y-125097692D01*
X177187741Y-125058065D01*
X177135010Y-124987565D01*
X177096342Y-124900783D01*
X177071678Y-124802547D01*
X177060953Y-124697685D01*
X177064107Y-124591023D01*
X177066916Y-124573870D01*
X177260935Y-124573870D01*
X177679400Y-124573870D01*
X177679400Y-124537767D01*
X177669471Y-124488709D01*
X177643728Y-124436816D01*
X177608233Y-124392161D01*
X177577681Y-124368832D01*
X177519292Y-124349175D01*
X177454458Y-124345614D01*
X177393252Y-124357911D01*
X177360603Y-124374012D01*
X177315333Y-124418457D01*
X177282384Y-124480953D01*
X177268386Y-124532595D01*
X177260935Y-124573870D01*
X177066916Y-124573870D01*
X177081078Y-124487391D01*
X177111804Y-124391616D01*
X177156222Y-124308525D01*
X177197988Y-124257927D01*
X177271730Y-124201782D01*
X177356285Y-124165850D01*
X177447181Y-124150056D01*
X177539944Y-124154327D01*
G36*
X177539944Y-124154327D02*
G01*
X177630102Y-124178591D01*
X177713182Y-124222773D01*
X177766477Y-124267247D01*
X177820430Y-124333461D01*
X177858930Y-124410325D01*
X177883134Y-124501361D01*
X177894198Y-124610094D01*
X177895204Y-124659595D01*
X177895300Y-124738970D01*
X177259149Y-124738970D01*
X177267626Y-124786595D01*
X177290105Y-124857160D01*
X177328350Y-124915475D01*
X177374651Y-124953372D01*
X177440188Y-124976460D01*
X177514910Y-124980004D01*
X177592774Y-124964796D01*
X177667742Y-124931622D01*
X177698978Y-124911003D01*
X177713722Y-124902340D01*
X177728586Y-124902450D01*
X177749198Y-124913664D01*
X177781184Y-124938310D01*
X177797758Y-124951902D01*
X177870609Y-125012020D01*
X177812728Y-125065223D01*
X177768066Y-125099840D01*
X177716873Y-125130425D01*
X177688491Y-125143253D01*
X177617142Y-125163035D01*
X177536616Y-125174518D01*
X177458129Y-125176640D01*
X177401673Y-125170351D01*
X177314189Y-125142231D01*
X177234799Y-125097692D01*
X177187741Y-125058065D01*
X177135010Y-124987565D01*
X177096342Y-124900783D01*
X177071678Y-124802547D01*
X177060953Y-124697685D01*
X177064107Y-124591023D01*
X177066916Y-124573870D01*
X177260935Y-124573870D01*
X177679400Y-124573870D01*
X177679400Y-124537767D01*
X177669471Y-124488709D01*
X177643728Y-124436816D01*
X177608233Y-124392161D01*
X177577681Y-124368832D01*
X177519292Y-124349175D01*
X177454458Y-124345614D01*
X177393252Y-124357911D01*
X177360603Y-124374012D01*
X177315333Y-124418457D01*
X177282384Y-124480953D01*
X177268386Y-124532595D01*
X177260935Y-124573870D01*
X177066916Y-124573870D01*
X177081078Y-124487391D01*
X177111804Y-124391616D01*
X177156222Y-124308525D01*
X177197988Y-124257927D01*
X177271730Y-124201782D01*
X177356285Y-124165850D01*
X177447181Y-124150056D01*
X177539944Y-124154327D01*
G37*
X182200600Y-125170770D02*
X181997400Y-125170770D01*
X181997400Y-125070887D01*
X181934322Y-125113335D01*
X181886347Y-125140223D01*
X181833482Y-125162021D01*
X181806697Y-125169627D01*
X181757796Y-125178893D01*
X181721555Y-125181404D01*
X181686182Y-125177293D01*
X181658716Y-125171286D01*
X181610137Y-125153378D01*
X181555255Y-125123929D01*
X181505474Y-125089610D01*
X181480495Y-125067045D01*
X181458848Y-125037863D01*
X181434916Y-124996954D01*
X181423410Y-124973761D01*
X181415050Y-124954732D01*
X181408462Y-124936049D01*
X181403437Y-124914536D01*
X181399761Y-124887016D01*
X181397223Y-124850312D01*
X181395612Y-124801247D01*
X181394715Y-124736643D01*
X181394321Y-124653325D01*
X181394218Y-124548114D01*
X181394215Y-124535770D01*
X181394150Y-124161120D01*
X181597350Y-124161120D01*
X181603700Y-124506297D01*
X181605701Y-124609475D01*
X181607637Y-124690363D01*
X181609775Y-124752072D01*
X181612381Y-124797710D01*
X181615720Y-124830386D01*
X181620059Y-124853209D01*
X181625663Y-124869288D01*
X181632799Y-124881733D01*
X181636234Y-124886513D01*
X181679212Y-124933624D01*
X181725188Y-124959851D01*
X181781820Y-124969279D01*
X181791743Y-124969497D01*
X181862195Y-124960779D01*
X181917286Y-124932487D01*
X181959376Y-124883243D01*
X181968825Y-124866163D01*
X181977542Y-124847926D01*
X181984280Y-124829573D01*
X181989294Y-124807691D01*
X181992837Y-124778866D01*
X181995164Y-124739685D01*
X181996529Y-124686732D01*
X181997186Y-124616596D01*
X181997389Y-124525863D01*
X181997400Y-124482279D01*
X181997400Y-124154770D01*
X182200600Y-124154770D01*
X182200600Y-125170770D01*
G36*
X182200600Y-125170770D02*
G01*
X181997400Y-125170770D01*
X181997400Y-125070887D01*
X181934322Y-125113335D01*
X181886347Y-125140223D01*
X181833482Y-125162021D01*
X181806697Y-125169627D01*
X181757796Y-125178893D01*
X181721555Y-125181404D01*
X181686182Y-125177293D01*
X181658716Y-125171286D01*
X181610137Y-125153378D01*
X181555255Y-125123929D01*
X181505474Y-125089610D01*
X181480495Y-125067045D01*
X181458848Y-125037863D01*
X181434916Y-124996954D01*
X181423410Y-124973761D01*
X181415050Y-124954732D01*
X181408462Y-124936049D01*
X181403437Y-124914536D01*
X181399761Y-124887016D01*
X181397223Y-124850312D01*
X181395612Y-124801247D01*
X181394715Y-124736643D01*
X181394321Y-124653325D01*
X181394218Y-124548114D01*
X181394215Y-124535770D01*
X181394150Y-124161120D01*
X181597350Y-124161120D01*
X181603700Y-124506297D01*
X181605701Y-124609475D01*
X181607637Y-124690363D01*
X181609775Y-124752072D01*
X181612381Y-124797710D01*
X181615720Y-124830386D01*
X181620059Y-124853209D01*
X181625663Y-124869288D01*
X181632799Y-124881733D01*
X181636234Y-124886513D01*
X181679212Y-124933624D01*
X181725188Y-124959851D01*
X181781820Y-124969279D01*
X181791743Y-124969497D01*
X181862195Y-124960779D01*
X181917286Y-124932487D01*
X181959376Y-124883243D01*
X181968825Y-124866163D01*
X181977542Y-124847926D01*
X181984280Y-124829573D01*
X181989294Y-124807691D01*
X181992837Y-124778866D01*
X181995164Y-124739685D01*
X181996529Y-124686732D01*
X181997186Y-124616596D01*
X181997389Y-124525863D01*
X181997400Y-124482279D01*
X181997400Y-124154770D01*
X182200600Y-124154770D01*
X182200600Y-125170770D01*
G37*
X178576814Y-124153564D02*
X178649111Y-124171020D01*
X178676350Y-124183071D01*
X178747193Y-124228640D01*
X178799864Y-124285150D01*
X178837594Y-124351620D01*
X178845975Y-124370782D01*
X178852630Y-124389900D01*
X178857797Y-124412136D01*
X178861716Y-124440654D01*
X178864626Y-124478616D01*
X178866767Y-124529186D01*
X178868377Y-124595526D01*
X178869696Y-124680799D01*
X178870964Y-124788169D01*
X178871022Y-124793474D01*
X178875195Y-125171829D01*
X178769422Y-125168124D01*
X178663650Y-125164420D01*
X178657300Y-124821520D01*
X178655228Y-124717691D01*
X178653144Y-124636120D01*
X178650798Y-124573663D01*
X178647942Y-124527180D01*
X178644327Y-124493527D01*
X178639703Y-124469564D01*
X178633823Y-124452149D01*
X178627003Y-124439066D01*
X178586759Y-124392542D01*
X178533188Y-124365977D01*
X178467384Y-124357970D01*
X178398988Y-124365671D01*
X178346606Y-124390399D01*
X178305462Y-124434586D01*
X178299751Y-124443387D01*
X178290814Y-124458571D01*
X178283822Y-124474112D01*
X178278490Y-124493261D01*
X178274533Y-124519269D01*
X178271668Y-124555386D01*
X178269609Y-124604862D01*
X178268073Y-124670948D01*
X178266776Y-124756895D01*
X178265853Y-124831045D01*
X178261756Y-125170770D01*
X178060400Y-125170770D01*
X178060400Y-124154770D01*
X178263600Y-124154770D01*
X178263600Y-124205570D01*
X178266469Y-124241974D01*
X178276304Y-124254449D01*
X178294944Y-124243947D01*
X178309256Y-124229126D01*
X178359419Y-124190119D01*
X178425227Y-124163959D01*
X178499939Y-124151492D01*
X178576814Y-124153564D01*
G36*
X178576814Y-124153564D02*
G01*
X178649111Y-124171020D01*
X178676350Y-124183071D01*
X178747193Y-124228640D01*
X178799864Y-124285150D01*
X178837594Y-124351620D01*
X178845975Y-124370782D01*
X178852630Y-124389900D01*
X178857797Y-124412136D01*
X178861716Y-124440654D01*
X178864626Y-124478616D01*
X178866767Y-124529186D01*
X178868377Y-124595526D01*
X178869696Y-124680799D01*
X178870964Y-124788169D01*
X178871022Y-124793474D01*
X178875195Y-125171829D01*
X178769422Y-125168124D01*
X178663650Y-125164420D01*
X178657300Y-124821520D01*
X178655228Y-124717691D01*
X178653144Y-124636120D01*
X178650798Y-124573663D01*
X178647942Y-124527180D01*
X178644327Y-124493527D01*
X178639703Y-124469564D01*
X178633823Y-124452149D01*
X178627003Y-124439066D01*
X178586759Y-124392542D01*
X178533188Y-124365977D01*
X178467384Y-124357970D01*
X178398988Y-124365671D01*
X178346606Y-124390399D01*
X178305462Y-124434586D01*
X178299751Y-124443387D01*
X178290814Y-124458571D01*
X178283822Y-124474112D01*
X178278490Y-124493261D01*
X178274533Y-124519269D01*
X178271668Y-124555386D01*
X178269609Y-124604862D01*
X178268073Y-124670948D01*
X178266776Y-124756895D01*
X178265853Y-124831045D01*
X178261756Y-125170770D01*
X178060400Y-125170770D01*
X178060400Y-124154770D01*
X178263600Y-124154770D01*
X178263600Y-124205570D01*
X178266469Y-124241974D01*
X178276304Y-124254449D01*
X178294944Y-124243947D01*
X178309256Y-124229126D01*
X178359419Y-124190119D01*
X178425227Y-124163959D01*
X178499939Y-124151492D01*
X178576814Y-124153564D01*
G37*
X182905450Y-124150277D02*
X182946135Y-124155460D01*
X182993556Y-124167696D01*
X183039683Y-124184140D01*
X183076483Y-124201945D01*
X183095563Y-124217644D01*
X183090456Y-124230435D01*
X183072840Y-124256626D01*
X183047162Y-124290702D01*
X183017865Y-124327148D01*
X182989395Y-124360450D01*
X182966196Y-124385093D01*
X182952714Y-124395562D01*
X182952113Y-124395619D01*
X182935884Y-124389574D01*
X182911800Y-124377020D01*
X182870341Y-124363510D01*
X182816829Y-124359064D01*
X182762956Y-124363721D01*
X182722555Y-124376370D01*
X182699326Y-124389227D01*
X182680822Y-124403068D01*
X182666443Y-124420817D01*
X182655589Y-124445394D01*
X182647660Y-124479722D01*
X182642055Y-124526722D01*
X182638173Y-124589315D01*
X182635416Y-124670425D01*
X182633182Y-124772972D01*
X182632400Y-124815170D01*
X182626050Y-125164420D01*
X182521275Y-125168108D01*
X182416500Y-125171797D01*
X182416500Y-124153742D01*
X182626050Y-124161120D01*
X182633856Y-124255090D01*
X182690568Y-124211801D01*
X182747614Y-124176493D01*
X182809317Y-124156730D01*
X182883950Y-124150145D01*
X182905450Y-124150277D01*
G36*
X182905450Y-124150277D02*
G01*
X182946135Y-124155460D01*
X182993556Y-124167696D01*
X183039683Y-124184140D01*
X183076483Y-124201945D01*
X183095563Y-124217644D01*
X183090456Y-124230435D01*
X183072840Y-124256626D01*
X183047162Y-124290702D01*
X183017865Y-124327148D01*
X182989395Y-124360450D01*
X182966196Y-124385093D01*
X182952714Y-124395562D01*
X182952113Y-124395619D01*
X182935884Y-124389574D01*
X182911800Y-124377020D01*
X182870341Y-124363510D01*
X182816829Y-124359064D01*
X182762956Y-124363721D01*
X182722555Y-124376370D01*
X182699326Y-124389227D01*
X182680822Y-124403068D01*
X182666443Y-124420817D01*
X182655589Y-124445394D01*
X182647660Y-124479722D01*
X182642055Y-124526722D01*
X182638173Y-124589315D01*
X182635416Y-124670425D01*
X182633182Y-124772972D01*
X182632400Y-124815170D01*
X182626050Y-125164420D01*
X182521275Y-125168108D01*
X182416500Y-125171797D01*
X182416500Y-124153742D01*
X182626050Y-124161120D01*
X182633856Y-124255090D01*
X182690568Y-124211801D01*
X182747614Y-124176493D01*
X182809317Y-124156730D01*
X182883950Y-124150145D01*
X182905450Y-124150277D01*
G37*
X178677634Y-125762266D02*
X178704925Y-125773559D01*
X178740848Y-125791953D01*
X178765054Y-125807543D01*
X178771600Y-125815124D01*
X178763984Y-125829045D01*
X178743656Y-125857169D01*
X178714394Y-125894379D01*
X178701213Y-125910445D01*
X178630827Y-125995244D01*
X178590088Y-125970404D01*
X178530288Y-125947618D01*
X178467850Y-125947022D01*
X178408678Y-125966888D01*
X178358672Y-126005484D01*
X178330275Y-126046585D01*
X178321557Y-126064916D01*
X178314818Y-126083350D01*
X178309804Y-126105304D01*
X178306261Y-126134196D01*
X178303934Y-126173440D01*
X178302569Y-126226454D01*
X178301913Y-126296655D01*
X178301710Y-126387459D01*
X178301700Y-126430760D01*
X178301700Y-126758270D01*
X178098500Y-126758270D01*
X178098500Y-125754970D01*
X178301700Y-125754970D01*
X178301700Y-125858549D01*
X178352403Y-125815148D01*
X178423844Y-125770038D01*
X178505379Y-125745772D01*
X178591734Y-125742975D01*
X178677634Y-125762266D01*
G36*
X178677634Y-125762266D02*
G01*
X178704925Y-125773559D01*
X178740848Y-125791953D01*
X178765054Y-125807543D01*
X178771600Y-125815124D01*
X178763984Y-125829045D01*
X178743656Y-125857169D01*
X178714394Y-125894379D01*
X178701213Y-125910445D01*
X178630827Y-125995244D01*
X178590088Y-125970404D01*
X178530288Y-125947618D01*
X178467850Y-125947022D01*
X178408678Y-125966888D01*
X178358672Y-126005484D01*
X178330275Y-126046585D01*
X178321557Y-126064916D01*
X178314818Y-126083350D01*
X178309804Y-126105304D01*
X178306261Y-126134196D01*
X178303934Y-126173440D01*
X178302569Y-126226454D01*
X178301913Y-126296655D01*
X178301710Y-126387459D01*
X178301700Y-126430760D01*
X178301700Y-126758270D01*
X178098500Y-126758270D01*
X178098500Y-125754970D01*
X178301700Y-125754970D01*
X178301700Y-125858549D01*
X178352403Y-125815148D01*
X178423844Y-125770038D01*
X178505379Y-125745772D01*
X178591734Y-125742975D01*
X178677634Y-125762266D01*
G37*
X182761057Y-125765303D02*
X182834246Y-125803592D01*
X182839688Y-125813441D01*
X182833821Y-125830900D01*
X182814671Y-125859556D01*
X182780261Y-125903000D01*
X182778027Y-125905719D01*
X182704111Y-125995567D01*
X182661093Y-125968981D01*
X182610836Y-125950842D01*
X182551448Y-125948184D01*
X182493506Y-125960459D01*
X182456828Y-125979524D01*
X182434595Y-125997116D01*
X182417004Y-126015687D01*
X182403515Y-126038308D01*
X182393585Y-126068053D01*
X182386676Y-126107991D01*
X182382245Y-126161195D01*
X182379753Y-126230738D01*
X182378658Y-126319690D01*
X182378419Y-126424895D01*
X182378400Y-126758270D01*
X182175200Y-126758270D01*
X182175200Y-125754970D01*
X182378400Y-125754970D01*
X182378400Y-125845162D01*
X182422824Y-125811278D01*
X182499975Y-125767695D01*
X182585669Y-125745437D01*
X182674500Y-125744607D01*
X182761057Y-125765303D01*
G36*
X182761057Y-125765303D02*
G01*
X182834246Y-125803592D01*
X182839688Y-125813441D01*
X182833821Y-125830900D01*
X182814671Y-125859556D01*
X182780261Y-125903000D01*
X182778027Y-125905719D01*
X182704111Y-125995567D01*
X182661093Y-125968981D01*
X182610836Y-125950842D01*
X182551448Y-125948184D01*
X182493506Y-125960459D01*
X182456828Y-125979524D01*
X182434595Y-125997116D01*
X182417004Y-126015687D01*
X182403515Y-126038308D01*
X182393585Y-126068053D01*
X182386676Y-126107991D01*
X182382245Y-126161195D01*
X182379753Y-126230738D01*
X182378658Y-126319690D01*
X182378419Y-126424895D01*
X182378400Y-126758270D01*
X182175200Y-126758270D01*
X182175200Y-125754970D01*
X182378400Y-125754970D01*
X182378400Y-125845162D01*
X182422824Y-125811278D01*
X182499975Y-125767695D01*
X182585669Y-125745437D01*
X182674500Y-125744607D01*
X182761057Y-125765303D01*
G37*
D14*
G36*
X164277916Y-113484016D02*
G01*
X164340789Y-113589538D01*
X164334380Y-113711539D01*
X164270380Y-113810667D01*
X164169826Y-113847835D01*
X164085296Y-113814247D01*
X164049372Y-113784990D01*
X163995603Y-113678104D01*
X164012679Y-113567737D01*
X164079940Y-113481097D01*
X164176726Y-113445391D01*
X164277916Y-113484016D01*
G37*
G36*
X163116179Y-113005140D02*
G01*
X163174774Y-113034360D01*
X163263613Y-113137061D01*
X163272905Y-113255951D01*
X163218297Y-113363529D01*
X163115437Y-113432291D01*
X162979971Y-113434735D01*
X162952197Y-113425572D01*
X162861116Y-113354676D01*
X162834365Y-113221393D01*
X162834362Y-113219382D01*
X162874974Y-113075058D01*
X162978212Y-112998590D01*
X163116179Y-113005140D01*
G37*
G36*
X162278523Y-114725828D02*
G01*
X162380608Y-114841958D01*
X162435493Y-114989896D01*
X162432962Y-115145769D01*
X162362794Y-115285703D01*
X162264229Y-115363414D01*
X162106147Y-115414773D01*
X161966591Y-115375579D01*
X161863115Y-115290422D01*
X161759550Y-115126997D01*
X161744566Y-114954099D01*
X161813152Y-114799210D01*
X161960294Y-114689813D01*
X161973630Y-114684484D01*
X162139458Y-114665379D01*
X162278523Y-114725828D01*
G37*
G36*
X160690903Y-115917320D02*
G01*
X160862599Y-115999351D01*
X160968117Y-116137551D01*
X161003788Y-116304212D01*
X160965942Y-116471626D01*
X160850910Y-116612085D01*
X160788142Y-116651628D01*
X160635630Y-116714403D01*
X160509713Y-116712024D01*
X160360491Y-116646270D01*
X160223949Y-116525958D01*
X160168174Y-116375265D01*
X160183213Y-116216156D01*
X160259108Y-116070596D01*
X160385903Y-115960549D01*
X160553643Y-115907980D01*
X160690903Y-115917320D01*
G37*
G36*
X162857165Y-109968893D02*
G01*
X163297038Y-110033924D01*
X163719866Y-110138832D01*
X164168369Y-110292732D01*
X164326548Y-110354722D01*
X164892001Y-110625011D01*
X165440661Y-110969628D01*
X165957506Y-111374408D01*
X166427515Y-111825184D01*
X166835665Y-112307790D01*
X167166935Y-112808060D01*
X167373335Y-113227996D01*
X167496953Y-113557306D01*
X167588619Y-113859315D01*
X167641519Y-114109488D01*
X167651885Y-114231055D01*
X167664352Y-114333487D01*
X167714681Y-114355824D01*
X167756442Y-114345617D01*
X167861950Y-114328339D01*
X168032501Y-114316397D01*
X168202833Y-114312629D01*
X168604820Y-114361917D01*
X168968330Y-114505926D01*
X169284382Y-114738874D01*
X169543995Y-115054978D01*
X169651181Y-115245144D01*
X169743029Y-115448119D01*
X169794059Y-115618941D01*
X169815533Y-115807411D01*
X169819017Y-115987358D01*
X169772455Y-116417801D01*
X169635162Y-116799414D01*
X169410731Y-117126256D01*
X169102752Y-117392384D01*
X168897777Y-117511362D01*
X168693463Y-117603236D01*
X168516151Y-117651332D01*
X168311571Y-117668006D01*
X168207131Y-117668629D01*
X167985526Y-117657043D01*
X167775310Y-117629103D01*
X167635869Y-117595026D01*
X167506087Y-117554107D01*
X167441766Y-117556052D01*
X167411877Y-117602971D01*
X167409527Y-117610417D01*
X167187982Y-118211991D01*
X166911149Y-118734234D01*
X166573375Y-119181827D01*
X166169005Y-119559455D01*
X165692385Y-119871798D01*
X165137860Y-120123540D01*
X164499776Y-120319364D01*
X164012712Y-120423439D01*
X163830358Y-120448026D01*
X163572029Y-120471213D01*
X163258328Y-120492261D01*
X162909854Y-120510432D01*
X162547206Y-120524989D01*
X162190985Y-120535193D01*
X161861791Y-120540306D01*
X161580224Y-120539590D01*
X161366885Y-120532306D01*
X161263228Y-120521954D01*
X161151283Y-120504969D01*
X160969490Y-120479173D01*
X160751856Y-120449364D01*
X160687145Y-120440687D01*
X160046332Y-120317761D01*
X159429088Y-120126950D01*
X158860524Y-119877407D01*
X158414564Y-119612488D01*
X158277503Y-119504229D01*
X158101690Y-119346062D01*
X157918059Y-119166274D01*
X157856104Y-119101821D01*
X157492619Y-118644295D01*
X157194037Y-118110461D01*
X156959891Y-117498791D01*
X156789712Y-116807761D01*
X156683034Y-116035844D01*
X156655248Y-115491966D01*
X157454746Y-115491966D01*
X157511306Y-116153173D01*
X157553013Y-116376770D01*
X157664712Y-116656829D01*
X157871748Y-116924706D01*
X158164916Y-117174753D01*
X158535014Y-117401324D01*
X158972839Y-117598771D01*
X159469189Y-117761448D01*
X160006321Y-117882193D01*
X160538122Y-117954603D01*
X161144517Y-117998799D01*
X161799177Y-118014595D01*
X162475772Y-118001810D01*
X163147974Y-117960259D01*
X163653215Y-117907647D01*
X164321275Y-117800611D01*
X164928737Y-117655611D01*
X165466371Y-117475993D01*
X165924947Y-117265104D01*
X166295232Y-117026286D01*
X166446628Y-116895278D01*
X166588224Y-116749175D01*
X166671213Y-116628497D01*
X166717622Y-116491818D01*
X166744294Y-116335464D01*
X166771066Y-116055011D01*
X167210633Y-116055011D01*
X167273516Y-116345812D01*
X167403328Y-116620430D01*
X167586666Y-116851250D01*
X167810127Y-117010655D01*
X167832469Y-117020869D01*
X168100478Y-117086395D01*
X168396064Y-117074832D01*
X168678211Y-116988250D01*
X168701224Y-116977011D01*
X168955669Y-116794808D01*
X169137244Y-116554559D01*
X169243702Y-116275570D01*
X169272795Y-115977148D01*
X169222276Y-115678600D01*
X169089897Y-115399231D01*
X168909322Y-115189447D01*
X168644677Y-115011858D01*
X168362225Y-114927809D01*
X168077995Y-114931709D01*
X167808014Y-115017972D01*
X167568309Y-115181008D01*
X167374910Y-115415228D01*
X167243842Y-115715046D01*
X167228084Y-115775644D01*
X167210633Y-116055011D01*
X166771066Y-116055011D01*
X166774148Y-116022726D01*
X166787499Y-115652947D01*
X166785160Y-115258211D01*
X166767945Y-114870602D01*
X166736669Y-114522204D01*
X166692145Y-114245100D01*
X166691150Y-114240619D01*
X166577857Y-113858983D01*
X166407279Y-113441914D01*
X166197672Y-113026533D01*
X165967294Y-112649961D01*
X165795659Y-112419895D01*
X165494273Y-112098282D01*
X165129884Y-111774630D01*
X164739132Y-111479187D01*
X164390433Y-111259740D01*
X163783258Y-110977713D01*
X163140846Y-110786003D01*
X162477927Y-110685306D01*
X161809230Y-110676318D01*
X161149483Y-110759734D01*
X160513416Y-110936250D01*
X160203728Y-111061962D01*
X159698267Y-111338578D01*
X159205460Y-111697123D01*
X158749750Y-112115725D01*
X158355578Y-112572515D01*
X158110061Y-112935358D01*
X157820550Y-113520799D01*
X157612644Y-114155540D01*
X157489617Y-114819342D01*
X157454746Y-115491966D01*
X156655248Y-115491966D01*
X156639387Y-115181516D01*
X156638795Y-115130928D01*
X156646227Y-114650271D01*
X156683245Y-114239250D01*
X156756567Y-113865284D01*
X156872914Y-113495794D01*
X157039002Y-113098199D01*
X157073276Y-113024171D01*
X157364243Y-112492857D01*
X157726337Y-111976507D01*
X158138941Y-111499883D01*
X158581435Y-111087748D01*
X158863131Y-110874521D01*
X159494090Y-110503573D01*
X160174792Y-110223644D01*
X160901356Y-110035777D01*
X161669902Y-109941017D01*
X162357530Y-109934625D01*
X162857165Y-109968893D01*
G37*
D10*
X173187628Y-116853553D02*
X173446447Y-115887628D01*
X173187628Y-116853553D02*
X174186370Y-116603528D01*
X174153553Y-117112372D02*
X174412372Y-116146447D01*
X174186370Y-116603528D02*
X173446447Y-115887628D01*
X179000000Y-96900000D02*
X179000000Y-95900000D01*
X179000000Y-96900000D02*
X179900000Y-96400000D01*
X179900000Y-96400000D02*
X179000000Y-95900000D01*
X180000000Y-96900000D02*
X180000000Y-95900000D01*
X194216987Y-125383013D02*
X194716987Y-124516987D01*
X194216987Y-125383013D02*
X195246410Y-125400000D01*
X195083013Y-125883013D02*
X195583013Y-125016987D01*
X195246410Y-125400000D02*
X194716987Y-124516987D01*
X151000000Y-114000000D02*
X151000000Y-113000000D01*
X151000000Y-114000000D02*
X151900000Y-113500000D01*
X151900000Y-113500000D02*
X151000000Y-113000000D01*
X152000000Y-114000000D02*
X152000000Y-113000000D01*
X103200000Y-86900000D02*
X103200000Y-85900000D01*
X103200000Y-86900000D02*
X104100000Y-86400000D01*
X104100000Y-86400000D02*
X103200000Y-85900000D01*
X104200000Y-86900000D02*
X104200000Y-85900000D01*
X103132000Y-90797000D02*
X103132000Y-89797000D01*
X103132000Y-90797000D02*
X104032000Y-90297000D01*
X104032000Y-90297000D02*
X103132000Y-89797000D01*
X104132000Y-90797000D02*
X104132000Y-89797000D01*
X160000000Y-95500000D02*
X160000000Y-94500000D01*
X160000000Y-95500000D02*
X160900000Y-95000000D01*
X160900000Y-95000000D02*
X160000000Y-94500000D01*
X161000000Y-95500000D02*
X161000000Y-94500000D01*
X179000000Y-75400000D02*
X179000000Y-74400000D01*
X179000000Y-75400000D02*
X179900000Y-74900000D01*
X179900000Y-74900000D02*
X179000000Y-74400000D01*
X180000000Y-75400000D02*
X180000000Y-74400000D01*
X83828000Y-90670000D02*
X83828000Y-89670000D01*
X83828000Y-90670000D02*
X84728000Y-90170000D01*
X84728000Y-90170000D02*
X83828000Y-89670000D01*
X84828000Y-90670000D02*
X84828000Y-89670000D01*
X179000000Y-79300000D02*
X179000000Y-78300000D01*
X179000000Y-79300000D02*
X179900000Y-78800000D01*
X179900000Y-78800000D02*
X179000000Y-78300000D01*
X180000000Y-79300000D02*
X180000000Y-78300000D01*
X141000000Y-68700000D02*
X141000000Y-67700000D01*
X141000000Y-68700000D02*
X141900000Y-68200000D01*
X141900000Y-68200000D02*
X141000000Y-67700000D01*
X142000000Y-68700000D02*
X142000000Y-67700000D01*
X141000000Y-72600000D02*
X141000000Y-71600000D01*
X141000000Y-72600000D02*
X141900000Y-72100000D01*
X141900000Y-72100000D02*
X141000000Y-71600000D01*
X142000000Y-72600000D02*
X142000000Y-71600000D01*
X160000000Y-74100000D02*
X160000000Y-73100000D01*
X160000000Y-74100000D02*
X160900000Y-73600000D01*
X160900000Y-73600000D02*
X160000000Y-73100000D01*
X161000000Y-74100000D02*
X161000000Y-73100000D01*
X122000000Y-74700000D02*
X122000000Y-73700000D01*
X122000000Y-74700000D02*
X122900000Y-74200000D01*
X122900000Y-74200000D02*
X122000000Y-73700000D01*
X123000000Y-74700000D02*
X123000000Y-73700000D01*
X141000000Y-90100000D02*
X141000000Y-89100000D01*
X141000000Y-90100000D02*
X141900000Y-89600000D01*
X141900000Y-89600000D02*
X141000000Y-89100000D01*
X142000000Y-90100000D02*
X142000000Y-89100000D01*
X84000000Y-108400000D02*
X84000000Y-107400000D01*
X84000000Y-108400000D02*
X84900000Y-107900000D01*
X84900000Y-107900000D02*
X84000000Y-107400000D01*
X85000000Y-108400000D02*
X85000000Y-107400000D01*
X160000000Y-78200000D02*
X160000000Y-77200000D01*
X160000000Y-78200000D02*
X160900000Y-77700000D01*
X160900000Y-77700000D02*
X160000000Y-77200000D01*
X161000000Y-78200000D02*
X161000000Y-77200000D01*
X122000000Y-78700000D02*
X122000000Y-77700000D01*
X122000000Y-78700000D02*
X122900000Y-78200000D01*
X122900000Y-78200000D02*
X122000000Y-77700000D01*
X123000000Y-78700000D02*
X123000000Y-77700000D01*
X84000000Y-86860000D02*
X84000000Y-85860000D01*
X84000000Y-86860000D02*
X84900000Y-86360000D01*
X84900000Y-86360000D02*
X84000000Y-85860000D01*
X85000000Y-86860000D02*
X85000000Y-85860000D01*
X122000000Y-96200000D02*
X122000000Y-95200000D01*
X122000000Y-96200000D02*
X122900000Y-95700000D01*
X122900000Y-95700000D02*
X122000000Y-95200000D01*
X123000000Y-96200000D02*
X123000000Y-95200000D01*
X103000000Y-108300000D02*
X103000000Y-107300000D01*
X103000000Y-108300000D02*
X103900000Y-107800000D01*
X103900000Y-107800000D02*
X103000000Y-107300000D01*
X104000000Y-108300000D02*
X104000000Y-107300000D01*
M02*
