M48
; DRILL file {KiCad 8.0.3} date 2024-08-02T19:35:28+0300
; FORMAT={-:-/ absolute / inch / decimal}
; #@! TF.CreationDate,2024-08-02T19:35:28+03:00
; #@! TF.GenerationSoftware,Kicad,Pcbnew,8.0.3
; #@! TF.FileFunction,MixedPlating,1,2
FMAT,2
INCH
; #@! TA.AperFunction,Plated,PTH,ViaDrill
T1C0.0157
; #@! TA.AperFunction,Plated,PTH,ComponentDrill
T2C0.0394
; #@! TA.AperFunction,NonPlated,NPTH,ComponentDrill
T3C0.0354
; #@! TA.AperFunction,NonPlated,NPTH,ComponentDrill
T4C0.1181
; #@! TA.AperFunction,NonPlated,NPTH,ComponentDrill
T5C0.1969
; #@! TA.AperFunction,NonPlated,NPTH,ComponentDrill
T6C0.2244
%
G90
G05
T1
X3.0118Y-3.3225
X3.0118Y-3.4209
X3.0118Y-3.4996
X3.0118Y-3.9327
X3.0118Y-4.2477
X3.0118Y-4.6807
X3.1693Y-3.4209
X3.1693Y-3.4996
X3.1693Y-4.2477
X3.4843Y-3.4209
X3.4843Y-3.4996
X3.4843Y-4.2477
X3.5827Y-2.9337
X3.5827Y-3.165
X3.5827Y-3.913
X3.5827Y-4.6611
X3.7598Y-3.1807
X3.7598Y-3.9327
X3.7598Y-4.6807
X3.8465Y-3.4209
X3.9173Y-3.4209
X3.9173Y-3.4996
X3.9173Y-3.5548
X3.9173Y-4.2477
X3.9173Y-4.3028
X4.2323Y-3.4209
X4.2323Y-3.4996
X4.2323Y-4.2477
X4.3307Y-2.9928
X4.3307Y-3.3618
X4.3307Y-3.913
X4.3307Y-4.6611
X4.4252Y-3.4209
X4.4685Y-2.8422
X4.5079Y-2.7063
X4.5079Y-2.8048
X4.5079Y-2.8835
X4.5079Y-3.3166
X4.5079Y-3.6315
X4.5079Y-4.0646
X4.5472Y-2.9331
X4.5472Y-3.6709
X4.563Y-3.4996
X4.5669Y-4.2477
X4.6654Y-2.8048
X4.6654Y-2.8835
X4.6654Y-3.6315
X4.9803Y-2.8048
X4.9803Y-2.8835
X4.9803Y-3.6315
X5.0787Y-2.2487
X5.0787Y-2.7457
X5.0787Y-3.2969
X5.0787Y-4.0449
X5.2165Y-2.7506
X5.2165Y-2.8048
X5.2559Y-2.6128
X5.2559Y-2.7113
X5.2559Y-2.79
X5.2559Y-3.2231
X5.2559Y-3.538
X5.2559Y-3.9711
X5.2953Y-2.8294
X5.2953Y-2.8835
X5.2953Y-3.5774
X5.2953Y-3.6315
X5.4134Y-2.7113
X5.4134Y-2.79
X5.4134Y-3.538
X5.6299Y-4.3992
X5.6299Y-4.8323
X5.7283Y-2.7113
X5.7283Y-2.79
X5.7283Y-3.538
X5.7874Y-4.3992
X5.8268Y-2.3274
X5.8268Y-2.6522
X5.8268Y-3.2034
X5.8268Y-3.9514
X5.8268Y-4.2614
X5.9252Y-2.79
X5.9252Y-2.9229
X5.9646Y-2.7113
X5.9646Y-2.8441
X5.9646Y-3.538
X5.9646Y-3.6709
X6.0039Y-2.7063
X6.0039Y-2.8048
X6.0039Y-2.8835
X6.0039Y-3.3166
X6.0039Y-3.6315
X6.0039Y-4.0646
X6.1024Y-4.3992
X6.1614Y-2.8048
X6.1614Y-2.8835
X6.1614Y-3.6315
X6.2008Y-4.2614
X6.2008Y-4.8126
X6.378Y-4.3992
X6.378Y-4.5764
X6.4249Y-4.852
X6.4254Y-4.4998
X6.4764Y-2.8048
X6.4764Y-3.6315
X6.4803Y-2.8835
X6.4803Y-3.0548
X6.5079Y-3.0266
X6.5748Y-2.4258
X6.5748Y-2.7457
X6.5748Y-3.2969
X6.5748Y-4.0449
X6.5748Y-4.4406
X6.701Y-4.4801
X6.7126Y-3.6315
X6.7126Y-3.7644
X6.748Y-3.0282
X6.752Y-2.6571
X6.752Y-3.4101
X6.752Y-3.725
X6.752Y-4.1581
X6.8386Y-2.8983
X6.8386Y-2.9376
X6.8386Y-2.977
X6.9094Y-2.8983
X6.9094Y-2.977
X6.9094Y-3.725
X6.9766Y-4.5589
X7.0147Y-4.4406
X7.0147Y-5.0046
X7.1614Y-2.3815
X7.1654Y-4.4406
X7.1654Y-4.5567
X7.1654Y-4.9504
X7.1998Y-5.0882
X7.2047Y-4.8126
X7.2244Y-2.8983
X7.2244Y-2.977
X7.2244Y-3.725
X7.3143Y-2.3376
X7.3228Y-2.8392
X7.3228Y-3.3904
X7.3228Y-4.1384
X7.3622Y-2.8983
X7.4016Y-2.977
X7.4331Y-4.48
X7.4409Y-3.725
X7.4764Y-2.2201
X7.4803Y-4.4406
X7.5651Y-4.8008
X7.6453Y-2.5743
X7.6457Y-2.2516
X7.6772Y-2.6768
X7.6772Y-2.9524
X7.6969Y-4.6355
X7.7105Y-5.3638
X7.7165Y-2.2634
X7.7362Y-2.854
X7.762Y-4.9583
X7.7756Y-2.3028
X7.7953Y-2.787
X7.7953Y-3.2329
X7.8465Y-2.3422
X7.874Y-3.0361
X7.874Y-3.1739
X7.9134Y-2.9839
X7.9134Y-3.1345
X7.9134Y-3.2723
X8.0118Y-2.7555
X8.0906Y-2.7949
X8.1102Y-2.8933
X8.1299Y-3.0361
X8.1299Y-3.2723
X8.1422Y-2.4741
X8.2835Y-2.2201
X8.2835Y-2.9839
T2
X7.6378Y-3.0754
X7.6969Y-2.5085
X7.6969Y-2.5872
X7.7953Y-3.0754
X8.0906Y-2.5085
X8.0906Y-2.5872
T3
X7.0472Y-2.2516
X7.1654Y-2.2516
T4
X3.1535Y-3.2516
X3.1535Y-3.9996
X3.1535Y-4.7477
X3.2244Y-3.293
X3.2244Y-4.041
X3.2244Y-4.789
X3.4291Y-3.293
X3.4291Y-4.041
X3.4291Y-4.789
X3.5Y-3.2516
X3.5Y-3.9996
X3.5Y-4.7477
X3.9016Y-3.2516
X3.9016Y-3.9996
X3.9016Y-4.7477
X3.9724Y-3.293
X3.9724Y-4.041
X3.9724Y-4.789
X4.1772Y-3.293
X4.1772Y-4.041
X4.1772Y-4.789
X4.248Y-3.2516
X4.248Y-3.9996
X4.248Y-4.7477
X4.6496Y-2.6355
X4.6496Y-3.3835
X4.6496Y-4.1315
X4.7205Y-2.6768
X4.7205Y-3.4248
X4.7205Y-4.1729
X4.9252Y-2.6768
X4.9252Y-3.4248
X4.9252Y-4.1729
X4.9961Y-2.6355
X4.9961Y-3.3835
X4.9961Y-4.1315
X5.3976Y-2.542
X5.3976Y-3.29
X5.3976Y-4.038
X5.4685Y-2.5833
X5.4685Y-3.3313
X5.4685Y-4.0794
X5.6732Y-2.5833
X5.6732Y-3.3313
X5.6732Y-4.0794
X5.7441Y-2.542
X5.7441Y-3.29
X5.7441Y-4.038
X5.7717Y-4.8992
X5.8425Y-4.9406
X6.0472Y-4.9406
X6.1181Y-4.8992
X6.1457Y-2.6355
X6.1457Y-3.3835
X6.1457Y-4.1315
X6.2165Y-2.6768
X6.2165Y-3.4248
X6.2165Y-4.1729
X6.4213Y-2.6768
X6.4213Y-3.4248
X6.4213Y-4.1729
X6.4921Y-2.6355
X6.4921Y-3.3835
X6.4921Y-4.1315
X6.5618Y-4.9576
X6.6195Y-5.0159
X6.8173Y-5.0689
X6.8937Y-2.729
X6.8937Y-3.477
X6.8937Y-4.225
X6.8964Y-5.0473
X6.9646Y-2.7703
X6.9646Y-3.5183
X6.9646Y-4.2664
X7.1693Y-2.7703
X7.1693Y-3.5183
X7.1693Y-4.2664
X7.2402Y-2.729
X7.2402Y-3.477
X7.2402Y-4.225
X7.3226Y-5.2259
X7.3633Y-5.2971
X7.5406Y-5.3995
X7.6226Y-5.3991
T5
X3.3268Y-3.0666
X3.3268Y-3.8146
X3.3268Y-4.5626
X4.0748Y-3.0666
X4.0748Y-3.8146
X4.0748Y-4.5626
X4.8228Y-2.4504
X4.8228Y-3.1985
X4.8228Y-3.9465
X5.5709Y-2.3569
X5.5709Y-3.105
X5.5709Y-3.853
X5.9449Y-4.7142
X6.3189Y-2.4504
X6.3189Y-3.1985
X6.3189Y-3.9465
X6.777Y-4.8237
X7.0669Y-2.5439
X7.0669Y-3.292
X7.0669Y-4.04
X7.5651Y-5.1523
T6
X3.7008Y-3.4406
X3.7008Y-4.1886
X6.6929Y-2.8712
X7.33Y-4.5852
M30
